<svg width="380" height="225" viewBox="0 0 380 225" fill="none" xmlns="http://www.w3.org/2000/svg">
<path d="M51.3077 16.409C29.5278 -13.3093 -17.3057 4.02639 -38 16.409V258.379H231.959C230.686 233.275 220.916 176.247 192.012 148.971C163.108 121.695 121.108 137.606 103.722 148.971C109.404 133.535 117.36 99.4575 103.722 86.6339C90.084 73.8102 63.0966 81.2907 51.3077 86.6339C60.3826 75.6082 73.0876 46.1274 51.3077 16.409Z" fill="white" fill-opacity="0.5"/>
<path d="M205.917 119.641C171.517 155.059 191.584 209.034 205.917 231.594H387.077V0.818775C371.217 -1.30154 333.899 -0.606076 311.509 19.1383C289.118 38.8827 292.171 69.0929 296.497 81.7299C280.637 79.6096 240.317 84.2234 205.917 119.641Z" fill="white" fill-opacity="0.5"/>
<path d="M-3.8941 165.44C-32.8358 185.766 -26.2535 217.042 -19.3447 230.139L415.534 234.592C420.935 220.709 422.618 186.605 386.14 161.249C349.661 135.893 299.34 144.572 278.739 152.081C290.924 138.897 304.139 107.499 259.52 87.3821C214.902 67.2651 178.624 85.4611 166.063 97.0738C154.632 90.0887 125.062 80.3096 98.2307 97.0738C71.3994 113.838 87.051 144.398 98.2307 157.582C76.2482 151.732 25.0476 145.113 -3.8941 165.44Z" fill="white" fill-opacity="0.5"/>
<path d="M289.627 54.0228C277.739 57.6297 267.038 73.5974 263.174 81.1304C269.369 89.8315 281.773 105.913 305.76 99.4853C329.235 89.7709 329.556 67.7687 330.023 63.2183C330.606 57.5304 304.487 49.5142 289.627 54.0228Z" stroke="black" stroke-width="5.08876" stroke-linecap="round" stroke-linejoin="round"/>
<path d="M279.579 80.4225C280.752 85.5872 292.682 89.0154 299.615 86.3809C320.175 78.568 310.736 61.6655 305.401 59.8061C298.137 57.2743 286.911 57.6483 282.264 63.8984C277.616 70.1485 278.113 73.9667 279.579 80.4225Z" fill="black" stroke="black" stroke-width="5.08876" stroke-linecap="round" stroke-linejoin="round"/>
<path d="M271.617 69.385C269.979 69.824 265.95 70.0605 262.945 67.4941C259.939 64.9278 259.029 59.7628 258.95 57.5011" stroke="black" stroke-width="5.08876" stroke-linecap="round" stroke-linejoin="round"/>
<path d="M278.081 61.0679C276.113 60.2781 271.757 57.9155 270.075 54.7838C268.393 51.6521 268.645 46.8255 268.982 44.8037" stroke="black" stroke-width="5.08876" stroke-linecap="round" stroke-linejoin="round"/>
<path d="M285.695 55.0758C284.021 53.4169 281.201 52.0654 280.147 48.1331C279.225 44.6924 280.992 42.1116 281.678 40.0839" stroke="black" stroke-width="5.08876" stroke-linecap="round" stroke-linejoin="round"/>
<path d="M299.344 51.9463C297.856 50.3255 295.25 46.4995 294.713 44.4945C293.594 40.3164 293.949 35.7432 295.454 33.496" stroke="black" stroke-width="5.08876" stroke-linecap="round" stroke-linejoin="round"/>
<path d="M312.967 54.6181C311.479 52.9973 308.874 49.1714 308.336 47.1663C307.217 42.9883 307.572 38.4151 309.077 36.1679" stroke="black" stroke-width="5.08876" stroke-linecap="round" stroke-linejoin="round"/>
<path d="M66.006 22.498C57.6891 19.5704 44.8396 24.2657 39.4544 26.9793C39.3275 34.6019 39.6392 49.0921 56.0619 55.4893C73.5777 59.7765 83.0374 47.233 85.2226 44.8073C87.9541 41.7752 76.4021 26.1575 66.006 22.498Z" stroke="black" stroke-width="5.08876" stroke-linecap="round" stroke-linejoin="round"/>
<path d="M49.2424 33.4114C47.7263 36.9073 53.0562 43.9244 58.1092 45.3133C73.0942 49.4322 74.8741 35.6326 72.6285 32.3049C69.5709 27.774 63.0334 23.2628 57.7513 24.9381C52.4691 26.6133 51.1374 29.0416 49.2424 33.4114Z" fill="black" stroke="black" stroke-width="5.08876" stroke-linecap="round" stroke-linejoin="round"/>
<path d="M49.364 23.7437C48.244 23.3074 45.8467 21.7456 45.2177 18.989C44.5888 16.2323 46.2539 12.8517 47.1651 11.506" stroke="black" stroke-width="5.08876" stroke-linecap="round" stroke-linejoin="round"/>
<path d="M56.5917 21.5517C55.754 20.2637 54.1603 17.0653 54.4869 14.5764C54.8135 12.0876 57.0122 9.46883 58.0708 8.47055" stroke="black" stroke-width="5.08876" stroke-linecap="round" stroke-linejoin="round"/>
<path d="M63.4443 21.4899C63.1788 19.8341 62.1227 17.8705 63.1728 15.1749C64.0915 12.8162 66.1976 12.0843 67.4475 11.2129" stroke="black" stroke-width="5.08876" stroke-linecap="round" stroke-linejoin="round"/>
<path d="M72.4946 25.4706C72.3274 23.8962 72.4545 20.5646 72.9977 19.1701C74.1296 16.2644 76.2779 13.7545 78.0992 13.0859" stroke="black" stroke-width="5.08876" stroke-linecap="round" stroke-linejoin="round"/>
<path d="M79.2556 32.6554C79.0725 31.122 79.1638 27.8821 79.6901 26.5312C80.7866 23.7163 82.8995 21.2972 84.7062 20.666" stroke="black" stroke-width="5.08876" stroke-linecap="round" stroke-linejoin="round"/>
</svg>
