<svg width="644" height="321" viewBox="0 0 644 321" fill="none" xmlns="http://www.w3.org/2000/svg">
<path d="M62.3994 31.6245C21.6254 -24.011 -66.0513 8.44305 -104.793 31.6245V484.616H400.595C398.213 437.618 379.922 330.856 325.811 279.793C271.699 228.73 193.073 258.517 160.524 279.793C171.162 250.896 186.055 187.099 160.524 163.092C134.992 139.085 84.4694 153.089 62.3994 163.092C79.3885 142.451 103.173 87.26 62.3994 31.6245Z" fill="white" fill-opacity="0.5"/>
<path d="M351.843 224.885C287.443 291.19 325.009 392.236 351.843 434.47H690.991V2.4381C661.299 -1.53133 591.437 -0.229357 549.52 36.734C507.603 73.6973 513.319 130.254 521.417 153.911C491.725 149.942 416.243 158.579 351.843 224.885Z" fill="white" fill-opacity="0.5"/>
<path d="M-40.9433 310.624C-95.1248 348.677 -82.8022 407.227 -69.8683 431.746L744.265 440.083C754.377 414.093 757.528 350.246 689.237 302.778C620.945 255.309 526.739 271.557 488.173 285.615C510.983 260.932 535.722 202.153 452.193 164.492C368.663 126.831 300.748 160.896 277.232 182.636C255.832 169.559 200.475 151.252 150.244 182.636C100.013 214.02 129.314 271.23 150.244 295.912C109.09 284.961 13.2382 272.571 -40.9433 310.624Z" fill="white" fill-opacity="0.5"/>
<path d="M508.556 140.316C486.3 147.068 466.267 176.961 459.033 191.064C470.63 207.353 493.852 237.458 538.758 225.426C582.705 207.239 583.307 166.049 584.18 157.53C585.272 146.882 536.376 131.875 508.556 140.316Z" stroke="black" stroke-width="9.52663" stroke-linecap="round" stroke-linejoin="round"/>
<path d="M489.745 189.739C491.941 199.407 514.274 205.825 527.253 200.893C565.744 186.267 548.073 154.624 538.086 151.143C524.488 146.403 503.471 147.103 494.771 158.804C486.071 170.505 487 177.653 489.745 189.739Z" fill="black" stroke="black" stroke-width="9.52663" stroke-linecap="round" stroke-linejoin="round"/>
<path d="M474.839 169.075C471.772 169.897 464.23 170.34 458.603 165.535C452.976 160.731 451.273 151.062 451.125 146.828" stroke="black" stroke-width="9.52663" stroke-linecap="round" stroke-linejoin="round"/>
<path d="M486.94 153.505C483.256 152.027 475.102 147.604 471.953 141.741C468.804 135.878 469.276 126.842 469.905 123.057" stroke="black" stroke-width="9.52663" stroke-linecap="round" stroke-linejoin="round"/>
<path d="M501.194 142.288C498.061 139.183 492.78 136.653 490.808 129.291C489.082 122.85 492.39 118.018 493.674 114.222" stroke="black" stroke-width="9.52663" stroke-linecap="round" stroke-linejoin="round"/>
<path d="M526.746 136.428C523.961 133.394 519.083 126.231 518.077 122.477C515.981 114.656 516.646 106.094 519.464 101.887" stroke="black" stroke-width="9.52663" stroke-linecap="round" stroke-linejoin="round"/>
<path d="M552.25 141.43C549.465 138.396 544.587 131.233 543.581 127.479C541.485 119.658 542.15 111.096 544.968 106.889" stroke="black" stroke-width="9.52663" stroke-linecap="round" stroke-linejoin="round"/>
<path d="M119.663 105.14C104.092 99.6598 80.037 108.45 69.9555 113.53C69.7179 127.8 70.3013 154.927 101.046 166.903C133.837 174.929 151.547 151.447 155.638 146.906C160.751 141.229 139.125 111.991 119.663 105.14Z" stroke="black" stroke-width="9.52663" stroke-linecap="round" stroke-linejoin="round"/>
<path d="M88.2794 125.573C85.4411 132.118 95.4192 145.254 104.879 147.854C132.932 155.565 136.264 129.731 132.06 123.501C126.336 115.019 114.098 106.574 104.209 109.71C94.3202 112.846 91.8272 117.392 88.2794 125.573Z" fill="black" stroke="black" stroke-width="9.52663" stroke-linecap="round" stroke-linejoin="round"/>
<path d="M88.5073 107.474C86.4105 106.657 81.9225 103.733 80.7451 98.5725C79.5676 93.4117 82.6849 87.0829 84.3907 84.5637" stroke="black" stroke-width="9.52663" stroke-linecap="round" stroke-linejoin="round"/>
<path d="M102.038 103.37C100.47 100.959 97.486 94.9711 98.0973 90.3117C98.7087 85.6524 102.825 80.7498 104.807 78.8809" stroke="black" stroke-width="9.52663" stroke-linecap="round" stroke-linejoin="round"/>
<path d="M114.867 103.253C114.37 100.153 112.393 96.4773 114.358 91.4308C116.079 87.0152 120.021 85.645 122.361 84.0136" stroke="black" stroke-width="9.52663" stroke-linecap="round" stroke-linejoin="round"/>
<path d="M131.81 110.706C131.497 107.758 131.735 101.521 132.752 98.9107C134.871 93.4708 138.892 88.7721 142.302 87.5205" stroke="black" stroke-width="9.52663" stroke-linecap="round" stroke-linejoin="round"/>
<path d="M144.467 124.158C144.124 121.287 144.295 115.222 145.28 112.693C147.333 107.423 151.289 102.895 154.671 101.713" stroke="black" stroke-width="9.52663" stroke-linecap="round" stroke-linejoin="round"/>
</svg>
