<svg width="644" height="644" viewBox="0 0 644 644" fill="none" xmlns="http://www.w3.org/2000/svg">
<rect width="644" height="644" rx="15.2426" fill="#724EFA"/>
<path d="M263.212 392.153C263.038 390.717 262.603 389.238 261.733 387.889C258.034 381.842 248.637 381.363 242.372 380.319C229.015 378.057 215.398 376.969 202.302 373.488C201.954 373.445 201.606 373.358 201.345 373.184C201.301 373.184 201.214 373.184 201.171 373.184C200.779 373.184 200.431 373.097 200.17 372.966C199.692 372.923 199.257 372.792 198.952 372.575C198.56 372.531 198.212 372.444 197.908 372.27C197.255 372.183 196.777 371.879 196.472 371.487C195.906 371.356 195.384 371.269 194.819 371.139C194.645 371.095 194.471 371.008 194.297 370.965C195.776 363.525 196.429 355.955 196.211 348.385C196.037 342.424 196.472 332.592 189.902 329.677C184.725 327.414 178.721 330.764 175.545 334.854C171.194 340.423 171.891 348.037 168.584 354.041C162.319 365.396 146.134 361.132 136.693 357.043C124.642 351.822 113.069 344.861 102.105 337.726C79.6993 323.194 59.2945 305.661 41.2826 285.952C23.2272 266.113 7.65171 244.012 -4.92181 220.257C-17.4083 196.676 -26.8928 171.485 -32.8968 145.468C-33.6364 142.249 -34.3325 139.029 -34.9416 135.766C-35.5507 132.677 -40.2495 133.982 -39.6839 137.071C-34.5936 163.089 -26.0227 188.366 -14.4933 212.251C-3.0075 236.006 11.4803 258.325 28.361 278.6C45.3288 298.961 64.8199 317.234 86.2688 332.809C96.9716 340.553 108.153 347.645 119.726 353.954C130.428 359.784 142.001 366.179 154.531 366.136C160.1 366.136 165.756 364.526 169.715 360.48C174.762 355.389 175.154 348.341 177.285 341.859C178.243 338.944 179.852 336.507 182.55 334.941C184.595 333.766 187.423 333.07 189.119 335.115C190.294 336.551 190.425 338.639 190.642 340.423C190.903 342.598 191.077 344.73 191.164 346.906C191.338 351.082 191.295 355.302 190.947 359.479C190.599 363.743 189.902 367.963 188.989 372.183C188.728 373.445 189.337 374.881 190.686 375.185C191.599 375.403 192.513 375.62 193.427 375.794C205.913 380.188 219.052 381.755 232.104 383.582C238.587 384.496 245.113 385.453 251.465 387.019C254.162 387.672 257.077 388.629 258.034 391.544C258.992 394.459 257.295 397.417 254.467 398.374C253.945 398.548 253.597 398.809 253.292 399.157C250.203 400.158 246.81 400.506 243.46 400.593C241.458 400.332 239.457 400.245 237.499 400.376C229.624 399.854 221.576 399.157 214.745 394.894C212.048 393.24 209.611 397.461 212.265 399.114C218.878 403.204 226.492 404.378 234.106 404.987C234.454 405.248 234.932 405.379 235.498 405.422C237.891 405.466 240.414 405.509 242.894 405.466C244.852 405.727 246.766 406.249 248.55 407.076C252.117 408.772 254.075 412.514 250.464 415.516C246.114 419.127 238.587 419.214 233.235 419.475C226.013 419.823 218.835 419.171 211.787 417.604C209.22 417.039 207.305 420.78 209.916 422.086C214.701 424.522 219.835 424.217 225.1 424.435C229.233 424.609 234.976 426.001 236.063 430.831C237.238 435.964 227.58 436.095 224.578 436.443C223.316 436.573 222.011 436.704 220.749 436.835C220.749 436.878 220.749 436.878 220.749 436.921C216.877 436.704 213.005 436.486 209.133 436.269C204.608 436.008 199.822 436.182 195.471 435.051C192.426 434.268 191.121 438.966 194.166 439.793C198.691 440.968 203.564 440.881 208.175 441.142C211.961 441.359 215.789 441.577 219.574 441.794V441.838C221.402 442.969 222.968 444.927 222.794 447.059C222.533 450.365 218.008 451.844 215.398 452.802C211.917 454.063 208.262 454.89 204.564 455.281C189.685 456.761 174.936 452.279 161.057 447.407C130.994 436.922 101.148 425.697 71.781 413.471C43.0664 401.507 14.3953 388.672 -12.6226 373.184C-18.9746 369.529 -25.1961 365.657 -31.1565 361.35C-31.2435 361.219 -31.3306 361.132 -31.4611 361.045C-32.8533 359.74 -34.2455 358.391 -35.7248 357.217C-35.9423 356.869 -36.1598 356.521 -36.3774 356.173C-47.8197 346.079 -59.175 335.855 -68.9206 324.108C-79.9714 310.838 -88.7163 295.785 -97.9398 281.253C-103.422 272.596 -108.904 263.938 -114.385 255.28C-116.082 252.626 -120.302 255.062 -118.606 257.76C-108.947 273.031 -99.419 288.345 -89.6299 303.486C-80.4499 317.799 -70.2258 331.025 -58.0438 342.903C-52.6055 348.211 -46.9496 353.301 -41.2501 358.348C-41.1631 358.957 -40.8151 359.566 -40.1625 359.958C-38.2482 361.219 -36.6384 362.916 -34.9416 364.482C-34.8981 364.569 -34.8111 364.656 -34.7676 364.787C-29.8078 368.398 -24.6305 371.792 -19.3661 374.924C-5.4874 383.234 9.08743 390.413 23.6623 397.374C38.9332 404.683 54.4652 411.513 70.0842 418.039C85.8338 424.609 101.714 430.787 117.681 436.791C133.43 442.708 149.223 448.755 165.234 453.976C179.983 458.806 196.08 462.634 211.525 459.067C217.399 457.718 226.622 455.107 227.667 448.016C228.058 445.449 227.319 443.143 225.97 441.229C227.014 441.098 228.015 440.968 229.059 440.837C234.236 440.098 240.936 438.401 241.11 431.962C241.197 428.96 239.674 426.262 237.499 424.174C243.851 423.608 252.379 422.738 255.99 416.734C258.731 412.253 257.164 407.25 253.249 404.291C255.859 403.639 258.383 402.594 260.732 401.159C261.646 400.028 262.255 398.722 262.646 397.287C263.038 395.633 263.168 393.893 263.299 392.196C263.299 392.153 263.255 392.153 263.212 392.153Z" fill="white" stroke="white" stroke-width="5" stroke-miterlimit="10"/>
<path d="M253.2 335.481C261.291 329.294 269.57 322.705 277.952 317.116" stroke="white" stroke-width="10" stroke-linecap="round"/>
<path d="M266.774 362.628C275.915 360.503 284.965 357.126 293.123 353.047" stroke="white" stroke-width="10" stroke-linecap="round"/>
<path d="M223.27 322.726C223.478 313.972 227.487 307.415 232.255 300.263" stroke="white" stroke-width="10" stroke-linecap="round"/>
<path fill-rule="evenodd" clip-rule="evenodd" d="M745.568 173.931C740.217 190.942 734.735 207.91 727.948 224.399C721.117 240.975 712.72 256.681 702.931 271.691C693.229 286.571 682.831 301.058 672.303 315.329C661.817 329.556 650.549 343.13 637.366 355.007C623.227 367.755 607.564 378.718 591.771 389.334C591.771 389.291 591.728 389.247 591.728 389.16C574.586 397.47 557.14 405.04 539.65 412.306C509.456 424.836 478.74 436.409 447.85 447.155C433.58 452.115 418.396 456.77 403.081 455.204C399.296 454.812 395.511 453.942 391.944 452.637C389.29 451.68 384.634 450.113 384.373 446.72C384.243 445.11 385.069 443.631 386.244 442.5C392.292 443.979 398.861 444.153 404.561 443.935C418.396 443.413 432.884 440.542 443.195 430.622C445.544 428.36 441.977 424.836 439.627 427.055C430.708 435.626 418.091 438.236 406.127 438.845C395.12 439.411 378.152 439.411 373.584 427.055C377.195 427.794 380.936 428.099 384.504 428.142C400.427 428.229 415.959 422.095 427.837 411.479C430.273 409.304 426.706 405.78 424.269 407.912C414.089 417.005 400.775 422.53 387.071 423.052C379.979 423.313 372.452 422.443 366.1 419.18C363.403 417.788 360.836 415.96 359.226 413.35C357.66 410.783 357.312 407.868 357.442 404.953C363.229 406.345 369.494 406.476 374.932 406.345C386.288 406.041 397.382 403.256 407.65 398.384C410.565 396.991 408.041 392.641 405.126 394.033C395.99 398.384 385.983 400.864 375.846 401.255C370.93 401.429 365.926 401.212 361.054 400.385C357.094 399.689 353.135 398.645 350.003 396.121C350.133 396.078 350.264 396.034 350.438 395.947C348.437 394.599 347.436 392.119 348.219 389.639C349.22 386.637 352.222 385.68 355.006 384.983C361.532 383.374 368.276 382.417 374.932 381.459C388.332 379.589 401.863 378.022 414.698 373.498C415.655 373.28 416.568 373.063 417.526 372.845C418.918 372.497 419.57 371.061 419.266 369.756C418.309 365.449 417.613 361.098 417.265 356.704C416.917 352.397 416.829 348.09 417.047 343.782C417.134 341.563 417.308 339.301 417.569 337.082C417.787 335.298 417.917 333.123 419.135 331.644C420.876 329.512 423.791 330.252 425.879 331.47C428.663 333.08 430.317 335.56 431.317 338.561C433.493 345.218 433.928 352.44 439.105 357.705C443.195 361.838 449.025 363.491 454.724 363.535C467.602 363.578 479.523 357.008 490.53 351.005C502.451 344.522 513.937 337.256 524.944 329.295C547.002 313.284 567.059 294.532 584.505 273.606C601.865 252.766 616.788 229.838 628.622 205.43C640.499 180.892 649.331 154.919 654.595 128.162C655.204 124.986 650.375 123.637 649.722 126.813C649.07 130.163 648.374 133.47 647.591 136.776C641.413 163.533 631.667 189.42 618.789 213.653C605.867 238.017 589.857 260.771 571.279 281.132C552.789 301.407 531.775 319.418 508.76 334.341C497.448 341.694 485.571 348.829 473.171 354.181C463.469 358.357 446.806 362.751 440.41 351.092C437.017 344.914 437.713 337.039 433.275 331.339C430.012 327.163 423.834 323.726 418.526 326.031C411.739 328.99 412.218 339.084 412.044 345.262C411.783 353.049 412.479 360.837 414.002 368.494C413.828 368.538 413.654 368.625 413.479 368.668C412.914 368.799 412.348 368.886 411.783 369.016C411.435 369.451 410.956 369.756 410.303 369.8C409.999 369.974 409.651 370.104 409.216 370.104C408.868 370.322 408.476 370.496 407.954 370.496C407.65 370.626 407.302 370.713 406.91 370.713C406.866 370.713 406.779 370.713 406.736 370.713C406.475 370.887 406.127 370.974 405.735 371.018C392.292 374.585 378.282 375.716 364.534 378.022C358.095 379.11 348.437 379.589 344.651 385.81C343.781 387.246 343.303 388.725 343.129 390.204C343.085 390.204 343.042 390.204 342.998 390.248C343.129 391.988 343.259 393.815 343.694 395.512C344.086 396.861 344.672 397.37 345.498 398.501C345.616 398.663 345.609 398.993 345.652 398.862C348.498 402.001 350.133 402.299 352.787 403.387C352.135 410.957 354.658 417.614 361.184 422.008C363.403 423.531 365.883 424.662 368.45 425.575C368.363 425.924 368.363 426.315 368.493 426.75C370.495 434.494 375.976 438.889 382.59 441.282C382.328 441.369 382.111 441.456 381.85 441.543C381.458 441.673 381.154 441.717 380.806 441.673C379.805 443.457 379.326 445.502 379.675 447.677C380.719 454.943 390.247 457.64 396.294 459.032C412.174 462.687 428.707 458.771 443.891 453.812C460.337 448.417 476.565 442.239 492.793 436.191C509.195 430.057 525.553 423.661 541.695 416.918C557.792 410.218 573.716 403.213 589.422 395.73C590.074 395.425 590.727 395.121 591.38 394.816C591.945 394.99 592.641 394.947 593.294 394.468C607.869 384.679 622.357 374.672 635.757 363.273C649.331 351.744 661.121 338.649 671.911 324.509C682.918 310.064 693.49 295.185 703.628 280.132C713.765 265.078 722.814 249.416 730.08 232.753C738.216 214.045 744.568 194.684 750.702 175.236C751.398 172.191 746.525 170.842 745.568 173.931Z" fill="white"/>
<path d="M745.568 173.931C740.217 190.942 734.735 207.91 727.948 224.399C721.117 240.975 712.72 256.681 702.931 271.691C693.229 286.571 682.831 301.058 672.303 315.329C661.817 329.556 650.549 343.13 637.366 355.007C623.227 367.755 607.564 378.718 591.771 389.334C591.771 389.291 591.728 389.247 591.728 389.16C574.586 397.47 557.14 405.04 539.65 412.306C509.456 424.836 478.74 436.409 447.85 447.155C433.58 452.115 418.396 456.77 403.081 455.204C399.296 454.812 395.511 453.942 391.944 452.637C389.29 451.68 384.634 450.113 384.373 446.72C384.243 445.11 385.069 443.631 386.244 442.5C392.292 443.979 398.861 444.153 404.561 443.935C418.396 443.413 432.884 440.542 443.195 430.622C445.544 428.36 441.977 424.836 439.627 427.055C430.708 435.626 418.091 438.236 406.127 438.845C395.12 439.411 378.152 439.411 373.584 427.055C377.195 427.794 380.936 428.099 384.504 428.142C400.427 428.229 415.959 422.095 427.837 411.479C430.273 409.304 426.706 405.78 424.269 407.912C414.089 417.005 400.775 422.53 387.071 423.052C379.979 423.313 372.452 422.443 366.1 419.18C363.403 417.788 360.836 415.96 359.226 413.35C357.66 410.783 357.312 407.868 357.442 404.953C363.229 406.345 369.494 406.476 374.932 406.345C386.288 406.041 397.382 403.256 407.65 398.384C410.565 396.991 408.041 392.641 405.126 394.033C395.99 398.384 385.983 400.864 375.846 401.255C370.93 401.429 365.926 401.212 361.054 400.385C357.094 399.689 353.135 398.645 350.003 396.121C350.133 396.078 350.264 396.034 350.438 395.947C348.437 394.599 347.436 392.119 348.219 389.639C349.22 386.637 352.222 385.68 355.006 384.983C361.532 383.374 368.276 382.417 374.932 381.459C388.332 379.589 401.863 378.022 414.698 373.498C415.655 373.28 416.568 373.063 417.526 372.845C418.918 372.497 419.57 371.061 419.266 369.756C418.309 365.449 417.613 361.098 417.265 356.704C416.917 352.397 416.83 348.09 417.047 343.782C417.134 341.563 417.308 339.301 417.569 337.082C417.787 335.298 417.917 333.123 419.135 331.644C420.876 329.512 423.791 330.252 425.879 331.47C428.663 333.08 430.317 335.56 431.317 338.561C433.493 345.218 433.928 352.44 439.105 357.705C443.195 361.838 449.025 363.491 454.724 363.535C467.602 363.578 479.523 357.008 490.53 351.005C502.451 344.522 513.937 337.256 524.944 329.295C547.002 313.284 567.059 294.532 584.505 273.606C601.865 252.766 616.788 229.838 628.622 205.43C640.499 180.892 649.331 154.919 654.595 128.162C655.204 124.986 650.375 123.637 649.722 126.813C649.07 130.163 648.374 133.47 647.591 136.776C641.413 163.533 631.667 189.42 618.789 213.653C605.867 238.017 589.857 260.771 571.279 281.132C552.789 301.407 531.775 319.418 508.76 334.341C497.448 341.694 485.571 348.829 473.171 354.181C463.469 358.357 446.806 362.751 440.41 351.092C437.017 344.914 437.713 337.039 433.275 331.339C430.012 327.163 423.834 323.726 418.526 326.031C411.739 328.99 412.218 339.084 412.044 345.262C411.783 353.049 412.479 360.837 414.002 368.494C413.828 368.538 413.654 368.625 413.479 368.668C412.914 368.799 412.348 368.886 411.783 369.016C411.435 369.451 410.956 369.756 410.303 369.8C409.999 369.974 409.651 370.104 409.216 370.104C408.868 370.322 408.476 370.496 407.954 370.496C407.65 370.626 407.302 370.713 406.91 370.713C406.866 370.713 406.779 370.713 406.736 370.713C406.475 370.887 406.127 370.974 405.735 371.018C392.292 374.585 378.282 375.716 364.534 378.022C358.095 379.11 348.437 379.589 344.651 385.81C343.781 387.246 343.303 388.725 343.129 390.204C343.085 390.204 343.042 390.204 342.998 390.248C343.129 391.988 343.259 393.815 343.694 395.512C344.086 396.861 344.672 397.37 345.498 398.501C345.616 398.663 345.609 398.993 345.652 398.862C348.498 402.001 350.133 402.299 352.787 403.387C352.135 410.957 354.658 417.614 361.184 422.008C363.403 423.531 365.883 424.662 368.45 425.575C368.363 425.924 368.363 426.315 368.493 426.75C370.495 434.494 375.976 438.889 382.59 441.282C382.328 441.369 382.111 441.456 381.85 441.543C381.458 441.673 381.154 441.717 380.806 441.673C379.805 443.457 379.326 445.502 379.675 447.677C380.719 454.943 390.247 457.64 396.294 459.032C412.174 462.687 428.707 458.771 443.891 453.812C460.337 448.417 476.565 442.239 492.793 436.191C509.195 430.057 525.553 423.661 541.695 416.918C557.792 410.218 573.716 403.213 589.422 395.73C590.074 395.425 590.727 395.121 591.38 394.816C591.945 394.99 592.641 394.947 593.294 394.468C607.869 384.679 622.357 374.672 635.757 363.273C649.331 351.744 661.121 338.649 671.911 324.509C682.918 310.064 693.49 295.185 703.628 280.132C713.765 265.078 722.814 249.416 730.08 232.753C738.216 214.045 744.568 194.684 750.702 175.236C751.398 172.191 746.525 170.842 745.568 173.931ZM745.568 173.931V173.931Z" stroke="white" stroke-width="5" stroke-miterlimit="10"/>
<path d="M346.065 447.019C338.501 447.019 330.583 448.517 323.603 448.517" stroke="white" stroke-width="10" stroke-linecap="round"/>
<path d="M362.585 467.517C358.592 472.241 349.91 480.845 343.024 480.432" stroke="white" stroke-width="10" stroke-linecap="round"/>
<path d="M386.498 484.457C386.342 492.111 384.364 498.347 382.006 505.422" stroke="white" stroke-width="10" stroke-linecap="round"/>
</svg>
