<svg width="205" height="205" viewBox="0 0 205 205" fill="none" xmlns="http://www.w3.org/2000/svg">
<path d="M90.9565 50.3039C97.8062 51.9172 100.214 57.2012 101.804 63.3736C102.552 62.1579 103.113 61.2928 103.651 60.4277C106.035 56.5933 109.308 53.8578 113.469 52.1276C115.854 51.1222 115.83 51.0521 116.111 48.6205C116.321 48.527 116.578 48.3166 116.836 48.2698C122.002 47.6853 127.098 47.545 132.148 49.3687C135.912 50.7248 139.652 52.1276 143.065 54.2085C147.577 56.944 151.458 60.4277 154.24 65.057C158.05 71.3932 159.593 78.1969 159.617 85.5618C159.64 91.3134 158.798 96.7143 155.853 101.718C153.445 105.856 151.318 110.182 148.769 114.226C146.478 117.827 143.696 121.124 141.265 124.631C137.314 130.382 135.093 136.835 133.784 143.639C132.779 148.806 132.849 154.067 132.545 159.281C132.382 162.086 132.265 164.892 132.218 167.698C132.195 170.129 132.265 172.561 132.335 174.992C132.382 176.793 132.195 177.19 130.535 177.377C125.626 177.915 120.693 178.57 115.76 178.827C110.079 179.131 104.375 179.178 98.6945 179.107C91.8215 179.037 84.9719 178.64 78.1924 177.307C76.4624 176.956 74.6857 176.84 72.9324 176.512C70.9687 176.161 70.5946 175.717 70.5946 173.683C70.5946 168.376 70.6881 163.045 70.6648 157.738C70.618 151.518 70.2907 145.299 68.6543 139.29C66.9244 133.001 64.4697 127.016 60.1682 121.919C57.4564 118.715 54.768 115.442 52.4536 111.935C50.747 109.387 49.4846 106.487 48.3391 103.635C43.7805 92.0616 44.4585 80.6519 49.8587 69.5461C51.8458 65.4545 54.955 62.1345 58.2513 59.0482C61.4774 56.0088 65.0541 53.3901 69.005 51.3093C70.3609 50.5845 71.8337 50.0701 73.3064 49.5791C78.169 47.9425 83.125 46.8903 88.2681 46.8436C88.7824 46.8436 89.2967 46.8202 89.811 46.8903C91.3773 47.0774 91.6345 47.4749 91.2137 49.1115C91.2137 49.3921 91.1436 49.6726 90.9565 50.3039ZM130.044 175.18C130.184 169.755 130.278 164.658 130.441 159.585C130.605 154.347 130.605 149.11 131.517 143.92C132.896 136.111 135.421 128.792 140.12 122.316C142.457 119.09 144.842 115.886 147.133 112.637C150.593 107.703 153.094 102.256 155.572 96.8312C156.601 94.6101 156.928 92.0148 157.209 89.5365C157.466 87.3621 157.185 85.1176 157.209 82.8964C157.232 77.1214 155.432 71.8608 152.627 66.9041C149.821 61.9474 145.707 58.3234 140.774 55.5879C137.478 53.7409 133.948 52.4549 130.371 51.2391C126.28 49.8597 122.119 50.0467 117.607 50.491C118.542 53.5304 119.36 56.4296 120.342 59.282C120.506 59.7497 121.301 60.2406 121.838 60.3342C126.327 60.9187 130.278 62.6956 134.135 65.0337C138.834 67.8861 142.06 71.9543 144.211 76.7707C146.432 81.7742 145.941 86.988 144.257 92.1317C142.878 96.3636 140.307 99.9409 137.525 103.238C133.364 108.147 128.548 112.426 122.867 115.606C120.015 117.196 116.999 117.944 113.703 117.383C111.529 117.009 109.355 116.658 107.04 116.284C106.76 116.611 106.409 117.055 106.012 117.5C103.721 120.001 101.102 120.586 97.9932 119.113C97.0347 118.645 96.0762 117.921 95.3983 117.102C94.6268 116.144 93.832 115.84 92.6163 115.746C88.198 115.419 83.9199 114.297 80.3431 111.701C75.5039 108.171 71.0622 104.103 67.7426 99.029C66.0594 96.4338 64.4229 93.745 64.3528 90.4951C64.3061 88.5779 64.2827 86.6373 64.3996 84.7435C64.8437 77.4955 68.2335 71.5568 73.4233 66.7872C76.8131 63.6542 80.8574 61.1993 85.6732 60.2407C86.7018 56.6167 87.7304 53.0394 88.7824 49.4388C88.2915 49.2985 88.0811 49.1816 87.8707 49.1816C83.1017 49.2752 78.4729 50.2805 73.9844 51.7769C68.2569 53.6941 63.5112 57.2246 59.2331 61.3629C56.3109 64.1686 53.529 67.1847 51.7757 70.9256C46.7728 81.4702 46.165 92.2253 50.5366 103.097C51.612 105.763 52.7809 108.428 54.3706 110.789C56.685 114.203 59.3033 117.43 61.9683 120.586C66.5036 125.963 69.1452 132.3 70.9219 138.963C72.5584 145.112 72.9324 151.495 72.9324 157.855C72.909 162.577 72.909 167.3 72.8856 172.047C72.8856 172.771 72.8856 173.496 72.8856 174.291C92.0085 177.751 110.944 177.705 130.044 175.18ZM105.31 75.3913C109.588 75.8121 112.324 78.0566 114.124 81.5871C116.251 85.7489 117.981 90.0275 118.846 94.6568C119.945 100.549 121.067 106.417 120.786 112.426C120.763 112.894 120.88 113.338 120.927 113.876C121.324 113.712 121.534 113.642 121.721 113.525C122.119 113.315 122.493 113.081 122.867 112.847C128.992 108.849 134.369 104.126 138.46 97.9535C140.073 95.5219 141.569 93.0904 142.364 90.3081C143.556 86.0996 143.837 81.7975 142.083 77.7293C141.148 75.5315 139.582 73.5676 138.203 71.5802C136.169 68.6109 132.966 67.0678 130.021 65.2909C128.782 64.5427 127.379 64.0049 125.976 63.5607C123.498 62.7658 120.95 62.0877 118.449 61.3863C117.724 62.8125 116.999 64.3323 116.158 65.8052C115.713 66.5534 115.152 67.2782 114.521 67.8861C113.493 68.8681 112.464 68.5641 111.996 67.2314C111.809 66.7171 111.669 66.1793 111.435 65.4078C108.724 68.4472 107.017 71.7673 105.31 75.3913ZM87.8006 61.8773C86.6551 62.1111 85.6966 62.1812 84.8316 62.4852C80.834 63.9582 77.1637 66.1326 74.2415 69.172C70.3609 73.1935 67.4153 77.9397 66.901 83.7147C66.5971 87.1283 66.0594 90.6588 67.6724 93.932C68.4205 95.4518 69.2621 96.9248 70.1972 98.3276C73.1662 102.817 77.304 106.183 81.3951 109.574C81.8159 109.924 82.3536 110.135 83.0315 110.509C83.1017 109.924 83.1484 109.574 83.1718 109.246C83.2653 104.453 83.4056 99.6603 83.4289 94.8673C83.4523 91.1264 84.1069 87.5258 85.6031 84.1122C87.6369 79.4595 91.0033 76.4668 96.123 75.6484C96.8009 75.5315 97.4789 75.3913 98.0867 75.2744C96.8711 72.7726 95.7489 70.4813 94.6268 68.2134C91.9384 69.6163 90.4188 69.0084 89.3435 66.1559C88.8292 64.7765 88.3616 63.397 87.8006 61.8773ZM118.565 114.858C118.589 110.322 118.565 105.996 117.771 101.718C116.719 96.0597 115.76 90.425 113.306 85.1176C111.272 80.6986 108.653 77.402 103.3 77.5423C103.16 77.5423 103.019 77.4721 102.856 77.4487C99.4894 77.1448 96.123 77.5423 93.1307 79.0152C88.2447 81.3767 85.2758 87.6193 85.9771 93.7918C87.1226 91.2199 89.1097 90.4016 91.2838 90.0275C91.8916 88.2506 91.2371 86.1931 93.0138 84.5097C93.2242 85.5852 93.3644 86.31 93.6216 87.5725C94.2761 86.2866 94.6736 85.4917 95.0944 84.6967C96.3568 85.3046 94.7203 87.2452 96.6373 87.2218C97.1516 86.5204 96.4503 85.3748 97.6192 84.9072C97.8763 85.7722 98.0867 86.5438 98.3672 87.5258C98.9984 86.5438 98.1568 85.4917 99.3491 84.8136C99.6998 85.7489 100.027 86.5905 100.518 87.9232C100.775 86.6373 100.915 85.8891 101.079 85.1176C101.219 85.1176 101.336 85.1176 101.476 85.1176C101.827 85.8891 102.178 86.6841 102.552 87.4556C102.669 87.4322 102.762 87.4089 102.879 87.3621C102.996 86.5905 103.113 85.7956 103.23 85.0241C103.347 85.0241 103.464 85.0007 103.58 85.0007C103.931 85.7488 104.258 86.4736 104.632 87.2686C105.287 86.5204 104.422 85.3046 105.614 84.9072C106.83 85.328 105.521 87.4556 107.344 87.5024C107.531 86.7542 107.718 86.0294 107.929 85.328C108.116 85.328 108.326 85.3046 108.513 85.3046C109.869 86.801 109.331 88.9754 110.079 90.7055C110.196 90.799 110.313 90.916 110.43 90.9393C112.464 91.4537 113.937 92.6695 114.287 94.727C114.685 97.1352 113.656 99.0524 111.576 100.338C110.781 100.829 109.892 101.203 109.098 101.577C108.724 102.63 108.513 103.658 108.022 104.57C106.76 106.908 107.017 109.433 106.97 111.912C106.947 112.917 107.391 113.665 108.303 114.016C111.622 115.185 115.012 115.419 118.565 114.858ZM116.158 53.507C115.667 53.6707 115.246 53.7642 114.848 53.9045C110.711 55.5178 107.625 58.3234 105.17 61.9708C102.996 65.174 102.201 68.6577 102.365 72.4219C102.388 72.8194 102.762 73.3104 103.113 73.5676C103.253 73.6611 103.838 73.2402 104.118 72.9597C104.375 72.7025 104.469 72.3284 104.656 72.0011C105.942 69.8501 107.157 67.6757 108.536 65.5948C110.477 62.6722 111.552 62.5787 114.007 64.9869C115.713 62.8593 116.274 60.2173 117.28 57.7857C117.397 57.4817 117.326 57.0375 117.233 56.7102C116.929 55.6814 116.555 54.6527 116.158 53.507ZM92.2891 67.0912C92.78 66.3664 92.9904 66.0858 93.154 65.7818C93.3177 65.4545 93.4112 65.0804 93.5982 64.7765C94.206 63.7711 95.071 63.701 95.6788 64.683C96.2165 65.548 96.5438 66.5534 96.9412 67.4886C97.5724 68.985 98.1568 70.4813 98.8348 71.9543C99.0218 72.3518 99.4426 72.609 99.9803 73.1467C99.9803 70.2943 100.331 67.7458 99.8868 65.3376C99.3725 62.6255 98.414 59.9133 97.175 57.435C95.8425 54.8164 93.5281 53.0862 90.3955 52.3614C89.7643 54.4189 89.1565 56.3829 88.6188 58.3468C88.5019 58.7677 88.6655 59.3288 88.8526 59.773C89.6006 61.5266 90.3955 63.2801 91.1903 65.0103C91.4475 65.5948 91.7981 66.1559 92.2891 67.0912ZM94.0658 113.268C93.9722 110.462 94.884 107.797 93.0839 105.295C92.4527 104.43 92.0319 103.331 91.7748 102.279C91.5176 101.25 91.0267 100.806 90.0214 100.596C88.5486 100.292 87.2395 99.5901 86.3745 98.2808C86.1875 97.9769 85.907 97.7197 85.416 97.1586C85.416 102.209 85.416 106.838 85.416 111.584C88.1512 112.66 90.863 113.455 94.0658 113.268ZM106.643 100.899C103.744 100.806 101.57 99.7304 100.261 97.0884C99.7933 98.7484 100.471 100.011 101.383 101.18C100.682 102.162 99.9569 101.858 99.1621 101.484C99.0218 100.783 98.8815 100.105 98.7413 99.4966C97.0113 100.221 95.4217 100.876 93.8554 101.507C94.9307 105.552 97.5256 107.54 101.453 107.352C104.165 107.236 105.942 105.085 106.643 100.899ZM96.2399 108.592C96.2399 110.439 96.2165 112.029 96.2399 113.642C96.2399 114.063 96.2399 114.554 96.4503 114.858C97.6659 116.728 99.4192 117.687 101.687 117.546C103.09 117.476 105.31 115.536 105.264 114.343C105.17 112.566 104.913 110.789 104.703 108.989C101.827 109.807 99.0686 109.971 96.2399 108.592ZM93.5047 91.9681C93.5047 94.2828 93.5047 96.5273 93.5047 98.8186C95.3048 99.029 96.6373 98.1405 97.6425 96.8079C99.1855 94.7737 98.0399 92.2486 95.4918 91.9915C94.9307 91.8979 94.3463 91.9681 93.5047 91.9681ZM107.508 92.6227C105.568 92.3188 104.071 92.8565 103.043 94.4464C102.505 95.2881 102.482 96.3169 103.113 97.1586C104.165 98.538 105.638 98.7251 107.508 98.3977C107.508 96.4572 107.508 94.5867 107.508 92.6227ZM100.752 93.6047C102.528 91.407 102.528 91.4069 107.157 89.7703C104.048 89.7703 100.939 89.7703 97.9464 89.7703C98.9049 91.0562 99.7933 92.2954 100.752 93.6047ZM90.9332 92.4825C88.7824 92.9267 87.9174 93.9087 87.9174 95.6856C87.9408 97.2755 88.6188 97.9067 90.9799 98.3276C90.9098 96.3636 91.4241 94.4464 90.9332 92.4825ZM109.869 98.3276C111.342 97.7898 112.23 96.7143 112.254 95.4518C112.254 94.423 111.576 93.745 109.869 93.1605C109.869 94.914 109.869 96.6208 109.869 98.3276ZM94.0658 89.3728C94.0891 89.5131 94.1359 89.63 94.1593 89.7703C94.6736 89.7469 95.1879 89.7002 95.6788 89.6768C95.6788 89.5833 95.6554 89.4897 95.6554 89.3728C95.1411 89.3728 94.6034 89.3728 94.0658 89.3728Z" fill="black"/>
<path d="M130.044 175.179C110.944 177.704 92.0086 177.751 72.9091 174.197C72.9091 173.402 72.9091 172.678 72.9091 171.953C72.9091 167.23 72.9325 162.507 72.9558 157.761C72.9792 151.378 72.6052 145.018 70.9453 138.869C69.1686 132.206 66.527 125.893 61.9917 120.492C59.3267 117.336 56.7084 114.109 54.394 110.696C52.8043 108.334 51.6121 105.645 50.5601 103.003C46.1885 92.1081 46.7963 81.3531 51.7991 70.8318C53.5758 67.1143 56.3577 64.0748 59.2565 61.2692C63.5346 57.1542 68.2803 53.6003 74.0078 51.6831C78.4963 50.1868 83.1251 49.1814 87.8941 49.0879C88.1045 49.0879 88.3149 49.2048 88.8059 49.3451C87.7772 52.9691 86.7252 56.5463 85.6966 60.1469C80.8808 61.1055 76.8365 63.5605 73.4468 66.6935C68.2803 71.4631 64.8906 77.4018 64.423 84.6497C64.3061 86.5669 64.3295 88.4841 64.3762 90.4014C64.4698 93.6512 66.0828 96.34 67.766 98.9353C71.0856 104.009 75.504 108.077 80.3665 111.608C83.9433 114.203 88.2214 115.325 92.6398 115.652C93.8554 115.746 94.6503 116.05 95.4217 117.008C96.0997 117.827 97.0348 118.552 98.0166 119.019C101.102 120.492 103.744 119.931 106.035 117.406C106.433 116.985 106.783 116.517 107.064 116.19C109.378 116.564 111.552 116.915 113.726 117.289C116.999 117.85 120.015 117.125 122.89 115.512C128.571 112.332 133.387 108.054 137.548 103.144C140.33 99.8471 142.902 96.2699 144.281 92.038C145.941 86.8943 146.455 81.657 144.234 76.677C142.083 71.8372 138.857 67.7923 134.158 64.9399C130.301 62.6019 126.35 60.8249 121.862 60.2404C121.301 60.1703 120.529 59.6793 120.366 59.1883C119.384 56.3359 118.566 53.4601 117.63 50.3972C122.142 49.953 126.304 49.7659 130.395 51.1454C133.971 52.3612 137.501 53.6471 140.798 55.4942C145.73 58.2531 149.821 61.8537 152.65 66.8104C155.479 71.767 157.256 77.0277 157.232 82.8027C157.232 85.0238 157.489 87.2684 157.232 89.4427C156.952 91.9211 156.624 94.5163 155.596 96.7375C153.118 102.162 150.616 107.633 147.156 112.543C144.865 115.816 142.481 118.996 140.143 122.222C135.444 128.699 132.919 136.04 131.54 143.826C130.605 149.016 130.628 154.254 130.465 159.491C130.278 164.658 130.184 169.755 130.044 175.179Z" fill="white"/>
<path d="M118.566 114.858C115.012 115.419 111.622 115.162 108.303 113.923C107.391 113.572 106.947 112.824 106.97 111.818C107.017 109.317 106.76 106.815 108.022 104.477C108.513 103.589 108.724 102.536 109.098 101.484C109.893 101.087 110.757 100.736 111.576 100.245C113.68 98.9592 114.685 97.042 114.287 94.6338C113.937 92.5529 112.464 91.3605 110.43 90.8461C110.29 90.8227 110.196 90.6824 110.08 90.6123C109.331 88.8821 109.893 86.7077 108.513 85.2114C108.326 85.2114 108.116 85.2348 107.929 85.2348C107.742 85.9596 107.555 86.6844 107.344 87.4091C105.544 87.3624 106.83 85.2581 105.614 84.8139C104.422 85.2114 105.311 86.4272 104.633 87.1753C104.259 86.3804 103.908 85.6322 103.581 84.9074C103.464 84.9074 103.347 84.9308 103.23 84.9308C103.113 85.7024 102.996 86.4973 102.879 87.2689C102.762 87.2922 102.669 87.3156 102.552 87.3624C102.201 86.5908 101.851 85.7959 101.477 85.0243C101.336 85.0243 101.219 85.0243 101.079 85.0243C100.939 85.7725 100.775 86.5441 100.518 87.83C100.027 86.5207 99.6999 85.679 99.3492 84.7204C98.1803 85.3984 98.9985 86.4739 98.3673 87.4325C98.0868 86.4505 97.853 85.679 97.6193 84.8139C96.4504 85.3049 97.1517 86.4505 96.6374 87.1286C94.7204 87.152 96.3569 85.2114 95.0945 84.6035C94.6971 85.3984 94.2763 86.1934 93.6217 87.4793C93.3645 86.2167 93.2243 85.5153 93.0139 84.4164C91.2138 86.0998 91.8918 88.1573 91.2839 89.9343C89.1098 90.3083 87.1227 91.1267 85.9772 93.6985C85.2759 87.5261 88.2449 81.3068 93.1308 78.922C96.1231 77.4724 99.4895 77.0749 102.856 77.3555C102.996 77.3789 103.136 77.449 103.3 77.449C108.653 77.3321 111.295 80.6288 113.306 85.0243C115.76 90.3317 116.719 95.9898 117.771 101.625C118.566 105.997 118.589 110.346 118.566 114.858Z" fill="white"/>
<path d="M116.157 53.5078C116.532 54.6535 116.906 55.6822 117.233 56.711C117.326 57.0383 117.396 57.4825 117.28 57.7865C116.274 60.218 115.713 62.86 114.007 64.9877C111.552 62.5795 110.477 62.673 108.536 65.5956C107.157 67.6764 105.941 69.8742 104.656 72.0019C104.469 72.3058 104.352 72.7033 104.118 72.9605C103.837 73.241 103.253 73.6619 103.113 73.5683C102.762 73.3112 102.388 72.8436 102.365 72.4227C102.201 68.6584 102.996 65.1747 105.17 61.9716C107.648 58.3242 110.734 55.5185 114.848 53.9053C115.246 53.765 115.667 53.6715 116.157 53.5078Z" fill="white"/>
<path d="M92.2891 67.0911C91.7748 66.1559 91.4476 65.5947 91.1904 65.0102C90.3956 63.28 89.6007 61.5265 88.8526 59.773C88.6656 59.3287 88.502 58.7676 88.6189 58.3468C89.1565 56.3594 89.7877 54.3954 90.3956 52.3613C93.5282 53.0861 95.8425 54.8163 97.1751 57.4349C98.4141 59.9132 99.3726 62.6254 99.8869 65.3375C100.331 67.7457 99.9804 70.2942 99.9804 73.1466C99.4661 72.6089 99.0219 72.3283 98.8349 71.9542C98.1569 70.4813 97.5725 68.9849 96.9413 67.4886C96.5439 66.5299 96.2166 65.548 95.6789 64.6829C95.0711 63.7009 94.2295 63.7944 93.5983 64.7764C93.4113 65.0804 93.3411 65.4544 93.1541 65.7818C92.9905 66.0857 92.7801 66.3663 92.2891 67.0911Z" fill="white"/>
<path d="M94.0657 113.267C90.863 113.454 88.1512 112.636 85.416 111.561C85.416 106.814 85.416 102.185 85.416 97.1348C85.9069 97.6959 86.1875 97.9531 86.3745 98.257C87.2395 99.5897 88.5252 100.268 90.0214 100.572C91.0033 100.782 91.5176 101.226 91.7747 102.255C92.0319 103.307 92.4527 104.406 93.0839 105.271C94.8839 107.796 93.9722 110.462 94.0657 113.267Z" fill="white"/>
<path d="M106.643 100.899C105.942 105.084 104.165 107.235 101.476 107.375C97.5491 107.562 94.9542 105.575 93.8788 101.53C95.4451 100.876 97.0347 100.221 98.7647 99.5195C98.8816 100.127 99.0218 100.805 99.1855 101.507C99.9569 101.881 100.682 102.162 101.406 101.203C100.518 100.034 99.8167 98.7713 100.284 97.1113C101.57 99.73 103.744 100.829 106.643 100.899Z" fill="white"/>
<path d="M96.2399 108.592C99.0686 109.971 101.827 109.808 104.703 109.013C104.89 110.813 105.17 112.59 105.264 114.367C105.31 115.559 103.09 117.476 101.687 117.57C99.4426 117.687 97.6659 116.752 96.4503 114.881C96.2399 114.554 96.2399 114.063 96.2399 113.665C96.2165 112.029 96.2399 110.439 96.2399 108.592Z" fill="white"/>
<path d="M93.5045 91.968C94.3461 91.968 94.9306 91.9213 95.4916 91.968C98.0164 92.2252 99.1619 94.7503 97.6424 96.7844C96.6371 98.1405 95.3046 99.0056 93.5045 98.7952C93.5045 96.5039 93.5045 94.2827 93.5045 91.968ZM93.9721 94.6334C94.5565 95.2179 95.0942 95.7557 95.6085 96.2701C96.3566 97.0183 97.1047 96.878 97.3151 95.8726C97.432 95.3582 97.2683 94.7737 97.2449 94.1424C96.0293 94.1658 94.9539 93.6748 93.9721 94.6334Z" fill="white"/>
<path d="M107.508 92.6219C107.508 94.5859 107.508 96.433 107.508 98.3969C105.638 98.7243 104.188 98.5138 103.113 97.1578C102.458 96.316 102.482 95.2873 103.043 94.4456C104.048 92.8791 105.567 92.3413 107.508 92.6219ZM106.339 97.298C106.97 96.2927 107.625 95.4042 106.596 94.5157C105.778 93.8143 104.282 94.3053 103.65 95.3808C104.469 95.9887 105.31 96.5732 106.339 97.298Z" fill="white"/>
<path d="M100.752 93.604C99.7934 92.2946 98.905 91.0788 97.9465 89.7695C100.915 89.7695 104.025 89.7695 107.157 89.7695C102.505 91.4062 102.505 91.4062 100.752 93.604Z" fill="white"/>
<path d="M90.9332 92.4824C91.4241 94.4464 90.8864 96.3636 91.0033 98.3276C88.6422 97.9301 87.9409 97.2988 87.9409 95.6856C87.9175 93.9086 88.8058 92.9267 90.9332 92.4824Z" fill="white"/>
<path d="M109.869 98.3273C109.869 96.6205 109.869 94.9137 109.869 93.1602C111.575 93.7213 112.253 94.4227 112.253 95.4515C112.23 96.714 111.342 97.7661 109.869 98.3273Z" fill="white"/>
<path d="M94.0657 89.373C94.6033 89.373 95.141 89.373 95.6553 89.373C95.6553 89.4666 95.6787 89.5601 95.6787 89.677C95.1644 89.7004 94.6501 89.7471 94.1592 89.7705C94.1358 89.6302 94.1124 89.49 94.0657 89.373Z" fill="white"/>
<path d="M93.9724 94.6333C94.9543 93.6747 96.0063 94.1657 97.2453 94.1423C97.292 94.7736 97.4323 95.3581 97.3154 95.8725C97.105 96.9012 96.3569 97.0415 95.6088 96.27C95.0945 95.7322 94.5568 95.2178 93.9724 94.6333Z" fill="black"/>
<path d="M106.339 97.2993C105.31 96.5745 104.492 95.9666 103.651 95.3821C104.258 94.3066 105.755 93.7922 106.596 94.517C107.625 95.4289 106.97 96.3173 106.339 97.2993Z" fill="black"/>
</svg>
