<svg width="804" height="639" viewBox="0 0 804 639" fill="none" xmlns="http://www.w3.org/2000/svg">
<path d="M64.7614 63.4766C66.2815 60.4007 67.5895 57.4661 69.145 54.6377C70.9479 51.3849 73.2458 48.5211 76.3567 46.3644C78.5485 44.844 81.0584 44.4198 82.2604 45.4097C83.533 46.4704 83.4623 49.1575 82.0483 51.6324C81.6241 52.4102 81.1998 53.1527 80.7403 53.9659C84.8411 54.7437 85.7248 56.1226 84.3461 59.9057C83.8159 61.426 82.7553 62.8049 81.6948 64.0423C80.6696 65.2091 79.3262 66.093 77.7708 67.3658C80.917 69.0629 80.2454 71.0075 79.3969 73.1288C74.5891 85.0792 70.9479 97.383 67.943 109.899C64.7261 123.193 63.6655 136.664 66.3522 150.099C68.6501 161.625 73.9528 171.772 83.6391 179.091C88.3409 182.662 94.4567 184.571 99.9008 184.147C99.724 181.424 99.618 178.666 99.3352 175.944C99.2645 175.237 98.9109 174.388 98.3807 173.929C93.6789 169.686 92.6184 164.029 92.2295 158.16C92.0528 155.72 92.3709 153.246 92.4063 150.806C92.4416 149.144 93.3254 147.27 91.3104 145.962C91.0276 145.785 91.0983 144.901 91.169 144.371C92.1235 137.088 95.8 131.855 102.764 129.31C109.516 126.835 115.809 128.107 121.288 132.668C124.611 135.461 127.015 138.856 127.546 143.381C127.97 146.846 127.864 147.341 124.364 148.932C124.364 151.089 124.364 153.422 124.364 155.756C124.364 161.201 123.374 166.398 120.652 171.206C120.086 172.161 119.627 173.328 118.778 173.929C116.516 175.52 116.233 177.641 116.445 180.116C116.551 181.212 116.445 182.343 116.445 183.758C118.071 183.97 119.556 184.253 121.076 184.359C128.359 184.818 135.394 186.409 142.287 188.955C151.019 192.172 159.115 196.627 167.104 201.365C174.386 205.678 181.739 210.133 189.976 212.396C196.516 214.199 203.233 215.543 209.95 216.462C218.258 217.629 226.601 218.407 235.014 217.77C236.57 217.664 237.595 218.301 238.054 219.785C238.443 221.058 238.832 222.296 239.221 223.604C242.615 223.003 245.867 222.296 249.155 221.836C253.538 221.2 253.75 221.412 254.705 225.937C256.331 225.725 257.957 225.442 259.619 225.266C260.609 225.16 261.634 225.124 262.624 225.23C265.346 225.549 266.371 227.882 264.78 230.074C263.437 231.948 261.457 232.973 259.301 233.716C253.079 235.908 246.751 237.711 239.893 237.428C239.504 241.459 236.57 242.59 233.529 242.696C221.439 243.12 209.349 242.908 197.471 240.539C189.057 238.842 180.679 236.827 172.265 235.059C167.67 234.105 163.003 233.468 158.301 234.67C154.271 235.731 151.479 238.065 149.817 241.989C146.353 250.086 146.211 258.465 147.201 266.986C147.449 269.213 147.767 271.405 147.979 273.633C148.262 276.815 147.378 277.946 144.232 279.007C135.217 281.941 126.026 283.179 116.516 282.931C107.89 282.719 99.3352 282.259 90.8155 280.987C86.5733 280.35 82.5432 279.148 78.7959 276.991C76.8163 275.86 75.8971 274.34 75.8618 272.148C75.7911 262.495 74.0942 253.055 72.362 243.58C70.7005 234.812 68.544 226.15 65.327 217.77C61.4384 207.552 57.5143 197.334 52.4237 187.612C47.722 178.702 45.1413 168.944 42.7021 159.185C40.8284 151.761 40.1921 144.23 40.3335 136.593C40.4749 127.895 40.2628 119.127 41.995 110.535C43.1616 104.631 44.5404 98.7266 46.3079 92.9989C48.4997 85.857 50.1259 78.5029 54.0146 71.9974C55.0397 70.265 56.0649 68.5326 57.0548 66.8001C58.787 63.7949 61.1909 62.1685 64.7614 63.4766ZM61.2263 66.2344C59.7768 68.5326 58.2921 70.7246 57.0194 73.0228C53.6257 79.1394 52.0349 85.8923 49.9845 92.5039C46.5907 103.394 44.1161 114.495 43.8687 125.986C43.6566 136.946 43.3384 147.871 46.0958 158.62C48.429 167.706 50.8329 176.828 55.0751 185.207C59.2466 193.375 62.7817 201.789 66.1755 210.31C73.9881 229.897 78.1243 250.262 79.0788 271.264C79.1495 272.819 79.6444 273.845 81.0231 274.375C83.427 275.294 85.7602 276.426 88.2348 276.956C95.694 278.618 103.259 279.219 110.86 279.325C116.657 279.431 122.49 279.219 128.253 278.83C133.838 278.476 139.212 277.027 144.691 275.012C144.55 273.491 144.373 272.077 144.267 270.663C143.949 266.102 143.418 261.541 143.383 256.98C143.277 249.308 145.257 242.201 149.605 235.802C150.489 234.494 151.585 233.539 153.105 232.832C158.089 230.569 163.215 229.968 168.518 230.958C177.285 232.62 186.088 234.317 194.749 236.367C207.051 239.267 219.53 239.585 232.08 239.514C232.646 239.514 233.211 239.443 233.742 239.337C236.145 238.878 236.57 238.489 236.57 236.014C236.57 232.761 236.534 229.544 236.287 226.291C236.181 224.559 235.651 222.861 235.297 221.164C234.519 221.094 234.06 221.023 233.635 221.058C220.838 221.27 208.218 220.033 195.703 217.275C188.315 215.649 181.421 212.856 174.811 209.32C166.362 204.759 158.195 199.633 149.64 195.319C144.585 192.773 139.106 190.97 133.626 189.521C127.935 188 122.031 187.329 116.375 186.303C112.521 190.794 108.633 191.465 103.896 188.319C102.375 187.329 100.961 187.01 99.2291 187.117C92.583 187.505 86.644 185.561 81.3413 181.636C71.16 174.035 65.6452 163.393 62.9231 151.372C60.2718 139.563 60.9434 127.542 63.0645 115.733C65.2563 103.429 69.0389 91.4786 73.2458 79.705C74.2356 76.8766 75.4022 74.1188 76.5688 71.0782C71.4782 69.5225 66.529 67.9315 61.2263 66.2344ZM95.6233 147.482C95.2697 153.74 94.8455 159.645 96.8252 165.408C98.9463 171.525 105.204 175.202 111.602 173.999C114.466 173.469 116.445 171.984 117.789 169.439C119.839 165.62 120.829 161.554 121.006 157.276C121.112 154.306 121.394 151.336 121.041 148.402C112.486 147.023 104.214 147.942 95.6233 147.482ZM239.822 226.432C239.822 229.296 239.822 231.594 239.822 233.999C246.857 234.847 253.008 232.372 259.23 230.392C260.184 230.109 260.962 229.332 261.846 228.766C261.74 228.518 261.669 228.306 261.563 228.059C260.503 228.165 259.442 228.236 258.382 228.342C256.932 228.483 255.518 228.731 254.069 228.731C253.008 228.731 251.559 228.731 250.958 228.094C250.321 227.422 250.463 226.008 250.215 224.665C246.822 225.23 243.322 225.831 239.822 226.432ZM67.4835 64.5727C69.6753 65.2798 71.3368 65.9162 73.069 66.3051C73.8114 66.4819 74.9426 66.4112 75.4729 65.9516C77.2051 64.3959 78.8313 62.6988 80.3514 60.8957C80.9877 60.1178 81.2706 59.0218 81.8362 57.8197C80.7756 57.8197 80.21 57.855 79.6797 57.8197C77.0284 57.7136 76.286 56.6883 77.1698 54.2134C77.4526 53.3648 77.9122 52.587 78.3364 51.8092C78.9374 50.7131 79.5737 49.6171 80.1747 48.5564C79.9272 48.415 79.6797 48.2736 79.4676 48.1322C73.1751 51.7385 70.453 58.0318 67.4835 64.5727ZM102.481 176.863C102.481 177.924 102.446 179.02 102.481 180.116C102.658 184.182 105.804 187.152 109.87 187.117C111.814 187.081 113.016 186.339 113.158 184.536C113.37 182.167 113.193 179.762 113.193 177.747C109.446 177.429 106.158 177.182 102.481 176.863ZM104.249 143.523C104.709 139.563 105.133 136.062 105.557 132.527C102.835 135.638 100.219 138.679 100.572 143.204C101.845 143.31 102.941 143.417 104.249 143.523ZM97.6383 143.346C98.8756 139.81 99.9361 136.805 101.103 133.517C97.2848 135.78 95.3051 138.856 94.2799 143.098C95.7293 143.204 96.7899 143.275 97.6383 143.346ZM109.87 143.735C108.951 140.199 109.304 136.628 107.289 133.446C106.971 136.699 106.653 139.987 106.335 143.31C107.112 143.523 107.643 143.735 108.173 143.805C108.562 143.876 108.986 143.77 109.87 143.735ZM120.086 144.477C118.566 140.411 117.895 136.522 114.041 134.259C115.102 137.618 116.127 140.765 117.188 144.088C117.824 144.159 118.672 144.265 120.086 144.477ZM110.683 134.825C111.143 137.866 111.602 140.906 112.062 144.088C112.945 144.018 113.688 143.982 114.572 143.912C113.935 140.447 113.016 137.335 110.683 134.825ZM124.258 144.619C123.975 141.154 122.809 138.467 120.016 136.593C120.9 139.351 121.995 142.038 123.127 144.725C123.162 144.831 123.728 144.689 124.258 144.619Z" fill="black"/>
<path d="M61.2269 66.2344C66.5296 67.9315 71.4788 69.5225 76.5695 71.1489C75.4029 74.1895 74.2363 76.9472 73.2464 79.7757C69.0396 91.5493 65.257 103.5 63.0652 115.803C60.9441 127.612 60.2724 139.669 62.9238 151.442C65.6458 163.463 71.1607 174.105 81.3419 181.707C86.6093 185.667 92.5837 187.611 99.2298 187.187C100.962 187.081 102.376 187.399 103.896 188.389C108.633 191.536 112.522 190.864 116.375 186.374C122.031 187.399 127.935 188.071 133.627 189.591C139.106 191.041 144.586 192.844 149.641 195.39C158.196 199.703 166.362 204.83 174.811 209.391C181.422 212.926 188.316 215.719 195.704 217.346C208.218 220.104 220.839 221.341 233.636 221.129C234.06 221.129 234.52 221.2 235.298 221.235C235.651 222.932 236.181 224.629 236.288 226.362C236.5 229.579 236.57 232.832 236.57 236.085C236.57 238.559 236.146 238.913 233.742 239.408C233.212 239.514 232.646 239.585 232.081 239.585C219.531 239.62 207.052 239.337 194.75 236.438C186.053 234.387 177.286 232.69 168.519 231.029C163.251 230.039 158.09 230.64 153.105 232.902C151.585 233.61 150.489 234.529 149.606 235.872C145.257 242.272 143.278 249.414 143.384 257.051C143.454 261.612 143.949 266.172 144.268 270.733C144.374 272.148 144.55 273.597 144.692 275.082C139.212 277.133 133.839 278.547 128.253 278.901C122.456 279.29 116.658 279.502 110.86 279.396C103.26 279.254 95.6593 278.653 88.2355 277.027C85.7608 276.461 83.3923 275.365 81.0237 274.446C79.645 273.915 79.1501 272.89 79.0794 271.334C78.1249 250.298 73.9888 229.968 66.1761 210.381C62.7824 201.86 59.2472 193.445 55.0757 185.278C50.7982 176.899 48.4297 167.777 46.0965 158.69C43.3037 147.942 43.6572 137.017 43.8693 126.057C44.1168 114.531 46.5914 103.464 49.9851 92.5746C52.0355 85.963 53.6263 79.21 57.0201 73.0934C58.2927 70.7246 59.8128 68.5325 61.2269 66.2344Z" fill="white"/>
<path d="M95.624 147.482C104.25 147.942 112.487 147.022 121.077 148.366C121.431 151.3 121.148 154.27 121.042 157.24C120.865 161.518 119.875 165.584 117.825 169.403C116.446 171.948 114.466 173.433 111.638 173.964C105.24 175.166 98.9824 171.524 96.8613 165.372C94.8463 159.644 95.2705 153.74 95.624 147.482ZM103.225 151.406C99.442 149.886 98.2046 150.028 96.4017 152.078C97.5683 152.502 98.6642 152.891 99.7248 153.28C99.7601 153.74 99.6541 154.27 99.8662 154.624C100.22 155.225 100.75 155.685 101.174 156.215C101.704 155.755 102.553 155.366 102.73 154.801C103.083 153.705 103.083 152.467 103.225 151.406ZM114.042 154.023C113.936 154.659 113.689 155.331 113.83 155.897C114.007 156.533 114.572 157.063 114.961 157.629C115.527 157.205 116.34 156.851 116.587 156.286C117.082 155.119 117.294 153.811 117.613 152.644C114.82 151.513 114.396 151.513 112.275 152.326C112.168 152.361 112.168 152.715 112.062 153.104C112.663 153.386 113.335 153.705 114.042 154.023ZM107.608 153.104C106.053 155.791 105.628 158.195 105.876 160.67C105.911 161.2 106.866 161.836 107.502 162.119C108.457 162.544 109.588 161.66 109.128 160.811C108.032 158.867 108.704 156.922 108.669 154.977C108.669 154.553 108.209 154.129 107.608 153.104Z" fill="white"/>
<path d="M239.823 226.432C243.323 225.831 246.822 225.23 250.216 224.664C250.464 226.008 250.322 227.422 250.959 228.094C251.559 228.73 253.009 228.73 254.069 228.73C255.519 228.73 256.933 228.483 258.382 228.341C259.443 228.235 260.503 228.164 261.564 228.058C261.67 228.306 261.741 228.518 261.847 228.765C260.998 229.331 260.185 230.074 259.231 230.392C253.009 232.372 246.858 234.847 239.823 233.998C239.823 231.594 239.823 229.296 239.823 226.432Z" fill="white"/>
<path d="M67.4843 64.5724C70.4538 58.0315 73.1758 51.7381 79.4684 48.1318C79.7159 48.2733 79.9633 48.4147 80.1754 48.5561C79.5745 49.6521 78.9381 50.7128 78.3372 51.8089C77.9129 52.5867 77.4534 53.3645 77.1706 54.2131C76.3221 56.7233 77.0645 57.7487 79.6805 57.8194C80.2462 57.8547 80.7764 57.8194 81.837 57.8194C81.2713 59.0215 80.9885 60.1175 80.3522 60.8954C78.8321 62.6631 77.2059 64.3956 75.4737 65.9513C74.9434 66.4109 73.8475 66.4816 73.0698 66.3048C71.3729 65.9159 69.676 65.2795 67.4843 64.5724Z" fill="white"/>
<path d="M102.482 176.863C106.159 177.146 109.446 177.428 113.193 177.711C113.193 179.727 113.335 182.131 113.158 184.5C113.017 186.303 111.815 187.045 109.87 187.081C105.805 187.116 102.694 184.181 102.482 180.08C102.411 179.02 102.482 177.923 102.482 176.863Z" fill="white"/>
<path d="M104.25 143.522C102.942 143.416 101.846 143.31 100.573 143.24C100.219 138.679 102.835 135.673 105.558 132.562C105.133 136.027 104.709 139.562 104.25 143.522Z" fill="white"/>
<path d="M97.6391 143.345C96.7907 143.275 95.7302 143.204 94.2808 143.133C95.306 138.891 97.2856 135.779 101.104 133.552C99.9723 136.805 98.9118 139.81 97.6391 143.345Z" fill="white"/>
<path d="M109.87 143.734C108.987 143.77 108.562 143.84 108.174 143.805C107.643 143.734 107.148 143.522 106.335 143.31C106.653 139.987 106.972 136.699 107.29 133.446C109.34 136.628 108.951 140.199 109.87 143.734Z" fill="white"/>
<path d="M120.087 144.477C118.673 144.3 117.825 144.159 117.153 144.088C116.092 140.729 115.102 137.618 114.007 134.259C117.86 136.522 118.532 140.411 120.087 144.477Z" fill="white"/>
<path d="M110.684 134.825C113.017 137.335 113.901 140.446 114.572 143.911C113.689 143.982 112.982 144.017 112.062 144.088C111.603 140.906 111.143 137.865 110.684 134.825Z" fill="white"/>
<path d="M124.259 144.618C123.728 144.689 123.163 144.83 123.127 144.724C121.996 142.072 120.9 139.385 120.016 136.592C122.809 138.466 123.976 141.153 124.259 144.618Z" fill="white"/>
<path d="M103.225 151.407C103.083 152.467 103.083 153.705 102.73 154.765C102.518 155.331 101.704 155.72 101.174 156.18C100.715 155.649 100.184 155.19 99.8662 154.589C99.6541 154.235 99.7601 153.74 99.7248 153.245C98.6642 152.856 97.6037 152.467 96.4017 152.043C98.1693 150.028 99.442 149.922 103.225 151.407Z" fill="black"/>
<path d="M114.042 154.023C113.3 153.705 112.663 153.386 112.027 153.104C112.133 152.715 112.133 152.396 112.239 152.326C114.36 151.513 114.785 151.548 117.577 152.644C117.259 153.846 117.047 155.119 116.552 156.286C116.305 156.851 115.492 157.169 114.926 157.629C114.537 157.063 113.971 156.533 113.795 155.897C113.689 155.331 113.971 154.659 114.042 154.023Z" fill="black"/>
<path d="M107.608 153.104C108.209 154.129 108.669 154.553 108.669 155.013C108.704 156.957 108.032 158.902 109.128 160.846C109.588 161.695 108.492 162.579 107.502 162.155C106.866 161.872 105.911 161.235 105.876 160.705C105.664 158.195 106.088 155.791 107.608 153.104Z" fill="black"/>
<path d="M338.517 71.9028C350.078 74.6257 354.142 83.5441 356.825 93.962C358.088 91.91 359.034 90.4499 359.942 88.9898C363.967 82.5181 369.491 77.901 376.514 74.9808C380.538 73.284 380.499 73.1656 380.972 69.0616C381.328 68.9037 381.762 68.5486 382.196 68.4696C390.916 67.4831 399.517 67.2463 408.04 70.3243C414.392 72.6131 420.706 74.9808 426.466 78.4929C434.081 83.11 440.631 88.9898 445.327 96.8032C451.758 107.497 454.362 118.981 454.402 131.411C454.441 141.119 453.021 150.235 448.049 158.679C443.985 165.664 440.394 172.965 436.094 179.791C432.227 185.869 427.532 191.433 423.428 197.352C416.76 207.06 413.011 217.951 410.802 229.434C409.105 238.156 409.224 247.034 408.711 255.834C408.434 260.57 408.237 265.305 408.158 270.041C408.119 274.145 408.237 278.249 408.356 282.353C408.434 285.391 408.119 286.062 405.317 286.378C397.031 287.286 388.706 288.39 380.381 288.825C370.793 289.338 361.165 289.416 351.577 289.298C339.977 289.18 328.416 288.509 316.973 286.26C314.054 285.668 311.055 285.47 308.096 284.918C304.781 284.326 304.15 283.576 304.15 280.143C304.15 271.185 304.308 262.188 304.268 253.23C304.189 242.733 303.637 232.236 300.875 222.095C297.955 211.479 293.812 201.377 286.552 192.774C281.975 187.368 277.438 181.844 273.532 175.924C270.651 171.623 268.52 166.73 266.587 161.915C258.893 142.382 260.037 123.124 269.152 104.38C272.506 97.4741 277.753 91.8705 283.317 86.6615C288.762 81.5315 294.799 77.1118 301.467 73.5997C303.755 72.3764 306.241 71.5082 308.727 70.6795C316.934 67.9172 325.299 66.1414 333.979 66.0625C334.847 66.0625 335.715 66.023 336.584 66.1414C339.227 66.4571 339.661 67.1279 338.951 69.8903C338.951 70.3638 338.833 70.8373 338.517 71.9028ZM404.489 282.668C404.725 273.513 404.883 264.911 405.16 256.347C405.436 247.508 405.436 238.669 406.975 229.908C409.302 216.728 413.564 204.376 421.495 193.445C425.44 188 429.465 182.593 433.332 177.108C439.171 168.782 443.393 159.587 447.576 150.432C449.312 146.683 449.864 142.303 450.338 138.12C450.772 134.45 450.298 130.661 450.338 126.913C450.377 117.166 447.339 108.287 442.604 99.9207C437.869 91.5548 430.925 85.4382 422.599 80.8212C417.036 77.7037 411.078 75.5333 405.041 73.4813C398.136 71.153 391.113 71.4687 383.498 72.2185C385.076 77.3486 386.457 82.2418 388.114 87.0562C388.39 87.8454 389.732 88.6741 390.639 88.8319C398.215 89.8185 404.883 92.8176 411.394 96.7638C419.325 101.578 424.77 108.444 428.4 116.574C432.148 125.018 431.319 133.818 428.479 142.5C426.151 149.643 421.81 155.68 417.115 161.244C410.092 169.531 401.964 176.753 392.376 182.12C387.562 184.803 382.472 186.066 376.908 185.119C373.239 184.487 369.569 183.896 365.663 183.264C365.19 183.817 364.598 184.566 363.927 185.316C360.06 189.539 355.641 190.525 350.393 188.039C348.776 187.25 347.158 186.026 346.014 184.645C344.712 183.027 343.37 182.514 341.318 182.357C333.861 181.804 326.64 179.91 320.604 175.53C312.436 169.571 304.939 162.705 299.336 154.141C296.495 149.761 293.733 145.223 293.615 139.738C293.536 136.502 293.497 133.227 293.694 130.03C294.444 117.797 300.165 107.774 308.924 99.7234C314.646 94.4355 321.472 90.292 329.6 88.6741C331.336 82.5575 333.072 76.5199 334.847 70.4427C334.019 70.206 333.664 70.0086 333.309 70.0086C325.259 70.1665 317.447 71.8634 309.871 74.3889C300.204 77.6248 292.195 83.5835 284.974 90.5683C280.042 95.3037 275.347 100.394 272.387 106.708C263.943 124.505 262.918 142.658 270.296 161.008C272.111 165.506 274.084 170.005 276.767 173.991C280.673 179.752 285.092 185.198 289.59 190.525C297.245 199.601 301.704 210.296 304.702 221.542C307.464 231.921 308.096 242.694 308.096 253.427C308.056 261.399 308.056 269.37 308.017 277.381C308.017 278.604 308.017 279.827 308.017 281.169C340.292 287.009 372.253 286.93 404.489 282.668ZM362.743 114.245C369.964 114.956 374.58 118.744 377.619 124.703C381.209 131.727 384.129 138.948 385.589 146.762C387.443 156.706 389.337 166.611 388.864 176.753C388.824 177.542 389.022 178.292 389.101 179.2C389.771 178.923 390.126 178.805 390.442 178.608C391.113 178.252 391.744 177.858 392.376 177.463C402.713 170.715 411.788 162.744 418.693 152.326C421.416 148.222 423.941 144.118 425.283 139.422C427.295 132.319 427.768 125.058 424.809 118.192C423.231 114.482 420.587 111.167 418.259 107.813C414.826 102.801 409.421 100.197 404.449 97.1979C402.358 95.9351 399.991 95.0275 397.623 94.2777C393.441 92.936 389.14 91.7916 384.918 90.6077C383.695 93.0149 382.472 95.5799 381.051 98.066C380.302 99.3288 379.355 100.552 378.289 101.578C376.553 103.236 374.817 102.723 374.028 100.473C373.712 99.605 373.476 98.6974 373.081 97.3952C368.504 102.525 365.624 108.129 362.743 114.245ZM333.19 91.4364C331.257 91.831 329.639 91.9494 328.179 92.4624C321.432 94.9485 315.237 98.6185 310.305 103.749C303.755 110.536 298.784 118.547 297.916 128.294C297.403 134.055 296.495 140.014 299.218 145.539C300.481 148.104 301.901 150.59 303.479 152.957C308.49 160.534 315.474 166.217 322.379 171.939C323.089 172.531 323.997 172.886 325.141 173.517C325.259 172.531 325.338 171.939 325.378 171.386C325.536 163.296 325.772 155.207 325.812 147.117C325.851 140.803 326.956 134.726 329.481 128.965C332.914 121.112 338.596 116.061 347.237 114.679C348.381 114.482 349.525 114.245 350.551 114.048C348.5 109.826 346.606 105.958 344.712 102.131C340.174 104.498 337.609 103.472 335.794 98.6579C334.926 96.3297 334.137 94.0014 333.19 91.4364ZM385.115 180.857C385.155 173.201 385.115 165.901 383.774 158.679C381.998 149.13 380.381 139.619 376.238 130.661C372.805 123.203 368.386 117.639 359.35 117.876C359.113 117.876 358.877 117.757 358.6 117.718C352.919 117.205 347.237 117.876 342.186 120.362C333.94 124.348 328.929 134.884 330.113 145.302C332.046 140.961 335.4 139.58 339.069 138.948C340.095 135.949 338.99 132.477 341.989 129.635C342.344 131.451 342.581 132.674 343.015 134.805C344.12 132.635 344.791 131.293 345.501 129.951C347.631 130.977 344.869 134.253 348.105 134.213C348.973 133.029 347.789 131.096 349.762 130.306C350.196 131.766 350.551 133.069 351.025 134.726C352.09 133.069 350.67 131.293 352.682 130.148C353.274 131.727 353.826 133.148 354.655 135.397C355.089 133.227 355.326 131.964 355.602 130.661C355.838 130.661 356.036 130.661 356.272 130.661C356.864 131.964 357.456 133.305 358.088 134.608C358.285 134.568 358.443 134.529 358.64 134.45C358.837 133.148 359.034 131.806 359.232 130.504C359.429 130.504 359.626 130.464 359.824 130.464C360.415 131.727 360.968 132.95 361.599 134.292C362.704 133.029 361.244 130.977 363.256 130.306C365.308 131.017 363.099 134.608 366.176 134.687C366.492 133.424 366.807 132.201 367.163 131.017C367.478 131.017 367.833 130.977 368.149 130.977C370.438 133.503 369.53 137.173 370.793 140.093C370.99 140.251 371.187 140.448 371.384 140.487C374.817 141.356 377.303 143.408 377.895 146.88C378.566 150.945 376.829 154.181 373.318 156.351C371.976 157.18 370.477 157.811 369.135 158.443C368.504 160.218 368.149 161.955 367.32 163.494C365.19 167.44 365.624 171.702 365.545 175.885C365.505 177.582 366.255 178.844 367.794 179.436C373.397 181.409 379.118 181.804 385.115 180.857ZM381.051 77.3091C380.223 77.5853 379.513 77.7432 378.842 77.9799C371.858 80.7028 366.65 85.4382 362.507 91.5943C358.837 97.0005 357.496 102.88 357.772 109.234C357.811 109.905 358.443 110.733 359.034 111.167C359.271 111.325 360.258 110.615 360.731 110.141C361.165 109.707 361.323 109.076 361.639 108.523C363.809 104.893 365.86 101.223 368.188 97.7109C371.463 92.7781 373.278 92.6203 377.421 96.6849C380.302 93.0938 381.249 88.6346 382.945 84.5306C383.143 84.0176 383.024 83.2678 382.866 82.7154C382.353 80.979 381.722 79.2427 381.051 77.3091ZM340.766 100.236C341.595 99.0131 341.95 98.5396 342.226 98.0266C342.502 97.4741 342.66 96.8427 342.976 96.3297C344.001 94.6328 345.461 94.5145 346.487 96.1719C347.395 97.6319 347.947 99.3288 348.618 100.907C349.683 103.433 350.67 105.958 351.814 108.444C352.13 109.115 352.84 109.549 353.747 110.457C353.747 105.643 354.339 101.341 353.589 97.2768C352.721 92.6992 351.104 88.1216 349.012 83.9387C346.763 79.519 342.857 76.5988 337.57 75.3755C336.505 78.8481 335.479 82.1629 334.571 85.4777C334.374 86.188 334.65 87.1351 334.966 87.8849C336.228 90.8445 337.57 93.8041 338.911 96.7243C339.346 97.7109 339.937 98.6579 340.766 100.236ZM343.765 178.174C343.607 173.438 345.146 168.939 342.107 164.717C341.042 163.257 340.332 161.402 339.898 159.626C339.464 157.89 338.635 157.14 336.939 156.785C334.453 156.272 332.243 155.088 330.783 152.879C330.468 152.366 329.994 151.931 329.166 150.984C329.166 159.508 329.166 167.322 329.166 175.332C333.782 177.148 338.359 178.489 343.765 178.174ZM364.992 157.298C360.1 157.14 356.43 155.325 354.221 150.866C353.432 153.668 354.576 155.799 356.115 157.772C354.931 159.429 353.708 158.916 352.366 158.285C352.13 157.101 351.893 155.957 351.656 154.931C348.736 156.154 346.053 157.259 343.41 158.324C345.225 165.151 349.604 168.505 356.233 168.19C360.81 167.992 363.809 164.362 364.992 157.298ZM347.434 170.281C347.434 173.399 347.395 176.082 347.434 178.805C347.434 179.515 347.434 180.344 347.789 180.857C349.841 184.014 352.8 185.632 356.628 185.395C358.995 185.277 362.743 182.001 362.664 179.989C362.507 176.99 362.073 173.991 361.718 170.952C356.864 172.333 352.208 172.609 347.434 170.281ZM342.818 142.224C342.818 146.131 342.818 149.919 342.818 153.786C345.856 154.141 348.105 152.642 349.802 150.392C352.406 146.959 350.472 142.697 346.172 142.263C345.225 142.105 344.238 142.224 342.818 142.224ZM366.452 143.329C363.177 142.816 360.652 143.723 358.916 146.407C358.009 147.827 357.969 149.564 359.034 150.984C360.81 153.313 363.296 153.628 366.452 153.076C366.452 149.8 366.452 146.644 366.452 143.329ZM355.049 144.986C358.048 141.277 358.048 141.277 365.861 138.514C360.613 138.514 355.365 138.514 350.314 138.514C351.932 140.685 353.432 142.776 355.049 144.986ZM338.477 143.092C334.847 143.842 333.388 145.499 333.388 148.498C333.427 151.182 334.571 152.247 338.556 152.957C338.438 149.643 339.306 146.407 338.477 143.092ZM370.437 152.957C372.923 152.05 374.423 150.235 374.462 148.104C374.462 146.367 373.318 145.223 370.437 144.236C370.437 147.196 370.437 150.077 370.437 152.957ZM343.765 137.844C343.804 138.08 343.883 138.278 343.922 138.514C344.791 138.475 345.659 138.396 346.487 138.357C346.487 138.199 346.448 138.041 346.448 137.844C345.58 137.844 344.672 137.844 343.765 137.844Z" fill="black"/>
<path d="M404.489 282.669C372.253 286.931 340.293 287.01 308.056 281.011C308.056 279.67 308.056 278.446 308.056 277.223C308.056 269.252 308.096 261.28 308.135 253.27C308.175 242.497 307.543 231.763 304.742 221.385C301.743 210.138 297.285 199.483 289.63 190.368C285.132 185.04 280.713 179.594 276.806 173.833C274.123 169.847 272.111 165.309 270.336 160.85C262.957 142.461 263.983 124.308 272.427 106.551C275.425 100.276 280.121 95.1461 285.013 90.4107C292.234 83.4654 300.244 77.4672 309.911 74.2313C317.486 71.7058 325.299 70.0089 333.348 69.8511C333.703 69.8511 334.058 70.0484 334.887 70.2852C333.151 76.4017 331.375 82.4394 329.639 88.5165C321.511 90.1345 314.685 94.278 308.964 99.5658C300.244 107.616 294.523 117.639 293.733 129.873C293.536 133.108 293.576 136.344 293.655 139.58C293.812 145.065 296.535 149.603 299.376 153.984C304.979 162.547 312.436 169.413 320.643 175.372C326.68 179.752 333.901 181.646 341.358 182.199C343.41 182.357 344.751 182.87 346.053 184.488C347.197 185.869 348.776 187.092 350.433 187.881C355.641 190.368 360.1 189.42 363.967 185.159C364.637 184.448 365.229 183.659 365.703 183.107C369.609 183.738 373.278 184.33 376.948 184.961C382.472 185.908 387.562 184.685 392.415 181.962C402.003 176.595 410.131 169.374 417.154 161.087C421.85 155.523 426.19 149.485 428.518 142.342C431.319 133.661 432.188 124.821 428.439 116.416C424.809 108.247 419.364 101.421 411.433 96.6062C404.923 92.66 398.255 89.6609 390.679 88.6744C389.732 88.556 388.43 87.7273 388.154 86.8986C386.496 82.0842 385.116 77.2304 383.537 72.0609C391.152 71.3112 398.176 70.9955 405.081 73.3237C411.118 75.3757 417.076 77.5461 422.639 80.6636C430.964 85.3201 437.869 91.3972 442.644 99.7631C447.418 108.129 450.417 117.008 450.377 126.755C450.377 130.504 450.811 134.292 450.377 137.962C449.904 142.145 449.351 146.525 447.615 150.274C443.433 159.429 439.211 168.664 433.371 176.951C429.504 182.475 425.48 187.842 421.534 193.288C413.603 204.219 409.342 216.61 407.014 229.75C405.436 238.511 405.475 247.35 405.199 256.19C404.883 264.911 404.726 273.514 404.489 282.669Z" fill="white"/>
<path d="M385.116 180.857C379.118 181.804 373.397 181.37 367.794 179.279C366.255 178.687 365.506 177.424 365.545 175.727C365.624 171.505 365.19 167.282 367.321 163.336C368.149 161.836 368.504 160.061 369.136 158.285C370.477 157.614 371.937 157.022 373.318 156.193C376.869 154.023 378.566 150.787 377.895 146.723C377.303 143.21 374.817 141.198 371.385 140.33C371.148 140.29 370.99 140.054 370.793 139.935C369.53 137.015 370.477 133.345 368.149 130.819C367.834 130.819 367.479 130.859 367.163 130.859C366.847 132.082 366.532 133.306 366.176 134.529C363.138 134.45 365.308 130.898 363.257 130.149C361.244 130.819 362.744 132.871 361.599 134.134C360.968 132.793 360.376 131.53 359.824 130.306C359.627 130.306 359.429 130.346 359.232 130.346C359.035 131.648 358.837 132.99 358.64 134.292C358.443 134.332 358.285 134.371 358.088 134.45C357.496 133.148 356.904 131.806 356.273 130.504C356.036 130.504 355.839 130.504 355.602 130.504C355.365 131.767 355.089 133.069 354.655 135.239C353.826 133.029 353.274 131.609 352.682 129.991C350.709 131.135 352.09 132.95 351.025 134.568C350.552 132.911 350.157 131.609 349.762 130.149C347.79 130.977 348.973 132.911 348.105 134.055C344.87 134.095 347.632 130.819 345.501 129.793C344.83 131.135 344.12 132.477 343.015 134.647C342.581 132.516 342.344 131.332 341.989 129.478C338.951 132.319 340.095 135.792 339.07 138.791C335.4 139.422 332.046 140.803 330.113 145.144C328.929 134.726 333.94 124.229 342.187 120.204C347.237 117.758 352.919 117.087 358.601 117.56C358.837 117.6 359.074 117.718 359.35 117.718C368.386 117.521 372.845 123.085 376.238 130.504C380.381 139.462 381.999 149.011 383.774 158.522C385.116 165.901 385.155 173.241 385.116 180.857Z" fill="white"/>
<path d="M381.051 77.3091C381.683 79.2427 382.314 80.979 382.866 82.7154C383.024 83.2678 383.142 84.0176 382.945 84.5306C381.249 88.6346 380.302 93.0938 377.421 96.6849C373.278 92.6203 371.463 92.7781 368.188 97.7109C365.86 101.223 363.809 104.932 361.639 108.523C361.323 109.036 361.126 109.707 360.731 110.141C360.258 110.615 359.271 111.325 359.034 111.167C358.443 110.733 357.811 109.944 357.772 109.234C357.496 102.88 358.837 97.0005 362.507 91.5943C366.689 85.4382 371.897 80.7028 378.842 77.9799C379.512 77.7432 380.223 77.5853 381.051 77.3091Z" fill="white"/>
<path d="M340.766 100.236C339.898 98.658 339.346 97.7109 338.912 96.7243C337.57 93.8042 336.229 90.8445 334.966 87.8849C334.65 87.1351 334.374 86.188 334.571 85.4777C335.479 82.1235 336.544 78.8087 337.57 75.3755C342.857 76.5988 346.763 79.519 349.013 83.9387C351.104 88.1217 352.721 92.6992 353.59 97.2768C354.339 101.341 353.747 105.643 353.747 110.457C352.879 109.549 352.13 109.076 351.814 108.445C350.67 105.958 349.683 103.433 348.618 100.907C347.947 99.2894 347.395 97.632 346.487 96.1719C345.461 94.5145 344.041 94.6723 342.976 96.3297C342.66 96.8427 342.542 97.4741 342.226 98.0266C341.95 98.5396 341.595 99.0131 340.766 100.236Z" fill="white"/>
<path d="M343.765 178.174C338.359 178.49 333.782 177.109 329.166 175.293C329.166 167.283 329.166 159.469 329.166 150.945C329.994 151.892 330.468 152.326 330.783 152.839C332.243 155.089 334.413 156.233 336.939 156.746C338.596 157.101 339.464 157.851 339.898 159.587C340.332 161.363 341.042 163.218 342.107 164.678C345.146 168.94 343.607 173.439 343.765 178.174Z" fill="white"/>
<path d="M364.993 157.299C363.809 164.362 360.81 167.993 356.273 168.23C349.644 168.545 345.264 165.191 343.449 158.364C346.093 157.259 348.776 156.154 351.696 154.97C351.893 155.996 352.13 157.141 352.406 158.325C353.708 158.956 354.931 159.43 356.154 157.812C354.655 155.838 353.471 153.708 354.26 150.906C356.43 155.325 360.1 157.18 364.993 157.299Z" fill="white"/>
<path d="M347.434 170.281C352.208 172.609 356.864 172.333 361.718 170.992C362.033 174.03 362.507 177.029 362.664 180.028C362.743 182.041 358.995 185.277 356.628 185.435C352.84 185.632 349.841 184.053 347.789 180.896C347.434 180.344 347.434 179.515 347.434 178.844C347.395 176.082 347.434 173.399 347.434 170.281Z" fill="white"/>
<path d="M342.818 142.224C344.238 142.224 345.224 142.145 346.171 142.224C350.433 142.658 352.366 146.92 349.801 150.353C348.105 152.642 345.856 154.102 342.818 153.747C342.818 149.88 342.818 146.131 342.818 142.224ZM343.607 146.723C344.593 147.709 345.501 148.617 346.369 149.485C347.631 150.748 348.894 150.511 349.249 148.814C349.446 147.946 349.17 146.959 349.131 145.894C347.079 145.933 345.264 145.105 343.607 146.723Z" fill="white"/>
<path d="M366.452 143.329C366.452 146.644 366.452 149.761 366.452 153.076C363.296 153.629 360.849 153.273 359.034 150.985C357.93 149.564 357.969 147.828 358.916 146.407C360.613 143.763 363.177 142.855 366.452 143.329ZM364.479 151.221C365.545 149.525 366.65 148.025 364.913 146.525C363.532 145.342 361.007 146.17 359.942 147.986C361.323 149.012 362.743 149.998 364.479 151.221Z" fill="white"/>
<path d="M355.05 144.986C353.432 142.777 351.932 140.725 350.315 138.515C355.326 138.515 360.574 138.515 365.861 138.515C358.009 141.277 358.009 141.277 355.05 144.986Z" fill="white"/>
<path d="M338.477 143.092C339.306 146.407 338.399 149.643 338.596 152.958C334.611 152.287 333.427 151.221 333.427 148.499C333.388 145.499 334.887 143.842 338.477 143.092Z" fill="white"/>
<path d="M370.437 152.958C370.437 150.077 370.437 147.196 370.437 144.237C373.318 145.184 374.462 146.368 374.462 148.104C374.422 150.235 372.923 152.011 370.437 152.958Z" fill="white"/>
<path d="M343.764 137.844C344.672 137.844 345.579 137.844 346.447 137.844C346.447 138.002 346.487 138.159 346.487 138.357C345.619 138.396 344.751 138.475 343.922 138.515C343.883 138.278 343.843 138.041 343.764 137.844Z" fill="white"/>
<path d="M343.607 146.723C345.264 145.105 347.04 145.934 349.131 145.894C349.21 146.96 349.447 147.946 349.249 148.815C348.894 150.551 347.632 150.788 346.369 149.485C345.501 148.578 344.593 147.71 343.607 146.723Z" fill="black"/>
<path d="M364.48 151.221C362.744 149.998 361.363 148.972 359.942 147.986C360.968 146.17 363.493 145.302 364.914 146.525C366.65 148.064 365.545 149.564 364.48 151.221Z" fill="black"/>
<path d="M117.084 412.211C108.731 408.354 105.31 401.816 105.209 393.299C105.175 390.884 105.611 388.47 105.846 386.022C105.947 385.016 106.081 383.977 106.249 382.87C100.177 383.91 99.1037 382.703 100.311 376.331C96.5208 374.018 96.9233 370.53 97.9632 366.875C98.1309 366.272 98.3993 365.333 98.8018 365.232C101.485 364.595 101.184 361.41 103.23 360.27C105.645 358.928 107.155 359.13 109 361.309C109.402 361.779 109.637 362.382 110.107 363.221C112.119 360.706 113.159 358.291 115.876 357.554C118.593 356.816 120.573 357.855 122.384 359.8C124.363 358.057 125.906 355.877 128.925 356.346C131.743 356.782 132.817 359.498 135.232 360.672C137.11 359.532 139.022 358.493 141.404 359.13C143.954 359.834 144.457 362.114 145.228 364.092C146.402 364.092 147.342 364.025 148.281 364.092C152.004 364.461 153.648 367.479 151.703 370.665C150.998 371.838 150.562 372.878 150.864 374.219C150.965 374.621 150.897 375.057 150.897 375.493C150.965 379.551 150.596 380.154 147.275 381.462C147.543 385.217 147.878 388.906 148.08 392.561C148.415 399.1 145.698 404.498 141.438 409.226C140.398 410.366 139.995 411.372 140.23 412.881C140.465 414.424 140.398 416.033 140.498 417.945C141.773 418.213 143.115 418.414 144.39 418.749C150.394 420.325 156.533 420.594 162.672 421.063C176.123 422.035 189.609 421.968 203.06 421.566C211.95 421.331 220.839 420.527 229.729 420.057C231.942 419.956 234.156 420.191 236.37 420.392C237.075 420.459 238.081 420.661 238.35 421.13C239.255 422.706 240.597 422.572 241.939 422.337C244.555 421.935 247.172 421.465 249.755 420.862C251.868 420.359 252.908 418.515 254.25 417.006C255.055 416.1 256.028 415.027 257.101 414.759C260.489 413.887 261.999 415.027 262.603 418.548C262.737 419.286 262.737 420.024 262.838 420.996C263.542 421.063 264.246 421.164 264.917 421.164C267.266 421.097 269.58 420.929 271.895 420.962C273.035 420.962 274.209 421.197 275.283 421.566C281.019 423.611 282.126 430.15 277.463 434.14C275.014 436.253 272.264 437.594 269.077 438.365C261.127 440.277 253.109 441.719 245.025 442.725C243.482 442.926 241.939 443.395 240.06 443.798C240.06 446.38 240.06 448.894 240.06 451.409C240.06 452.583 239.993 453.723 239.926 454.897C239.859 456.204 239.188 457.21 237.947 457.512C236.102 457.948 234.089 458.652 232.379 458.283C228.856 457.512 225.368 457.713 221.946 458.049C203.664 459.96 185.348 460.262 166.966 459.926C164.45 459.893 161.9 460.228 158.982 460.396C158.982 464.219 158.948 467.907 158.982 471.562C159.015 473.037 160.391 473.306 161.397 473.775C167.267 476.491 173.373 478.637 179.746 479.945C189.843 482.024 200.008 483.499 210.272 484.136C213.962 484.371 217.686 484.438 221.376 484.673C224.73 484.874 225.032 485.277 225.133 488.764C225.166 489.703 225.2 490.675 225.267 491.614C225.267 491.815 225.435 491.983 225.602 492.352C228.051 492.385 230.299 491.949 231.741 489.535C232.01 489.099 232.379 488.697 232.781 488.361C234.324 487.02 236.069 486.316 238.048 487.087C239.926 487.825 240.698 489.435 240.899 491.346C240.966 491.983 240.899 492.587 240.899 493.592C241.972 493.458 243.012 493.324 244.019 493.19C247.91 492.654 251.768 491.882 255.659 491.648C259.886 491.379 262.2 495.135 260.154 498.891C259.315 500.399 258.007 501.808 256.632 502.847C253.009 505.597 248.682 506.804 244.254 507.475C238.819 508.313 233.351 509.051 227.917 509.822C227.414 509.889 226.911 510.023 226.307 510.157C226.307 513.175 226.34 516.126 226.307 519.077C226.273 522.832 225.77 523.671 222.08 524.039C216.814 524.609 211.513 524.978 206.247 525.18C196.485 525.481 186.724 525.347 177.063 523.939C173.306 523.402 169.515 522.832 165.322 522.229C165.557 524.073 165.758 525.716 166.026 527.326C166.63 531.182 167.234 535.071 167.905 538.928C168.207 540.705 168.676 542.448 169.012 544.192C169.213 545.232 169.381 546.271 169.448 547.311C169.582 549.054 168.811 550.161 166.999 550.429C163.108 550.999 159.25 551.703 155.359 552.039C143.182 553.112 130.972 552.642 118.795 552.441C109.67 552.273 100.613 551.435 91.6232 549.792C85.3502 548.652 79.1108 547.646 73.0727 545.567C72.2676 545.299 71.4961 544.963 70.691 544.662C68.0745 543.723 67.001 541.979 67.0681 539.095C67.1688 535.608 66.5985 532.121 66.632 528.633C66.6991 521.96 66.6656 515.254 67.2694 508.648C67.8061 502.881 68.846 497.113 70.1878 491.446C71.9322 484.136 74.012 476.927 76.2595 469.751C80.1507 457.344 86.5579 446.279 95.3467 436.722C100.647 430.955 106.752 425.959 113.025 421.264C116.078 418.984 117.352 416 117.084 412.211ZM155.862 470.523C156.063 466.901 156.13 463.648 156.466 460.396C156.734 457.78 156.868 457.68 159.619 457.479C163.946 457.177 168.307 457.009 172.635 456.875C183.872 456.573 195.11 456.439 206.348 456.037C214.063 455.735 221.778 455.064 229.527 454.628C231.808 454.494 234.089 454.595 236.773 454.595C236.907 444.2 236.739 434.006 235.901 423.343C233.855 423.31 231.976 423.142 230.131 423.243C222.818 423.679 215.539 424.416 208.226 424.651C193.265 425.087 178.337 425.254 163.376 424.215C156.499 423.712 149.623 423.444 142.947 421.398C140.264 420.594 140.129 420.728 138.721 423.276C137.513 425.489 135.802 426.931 133.32 427.3C130.234 427.769 127.181 427.669 124.263 426.361C121.579 425.154 118.929 423.813 117.956 420.795C115.038 423.276 112.253 425.556 109.57 427.937C105.444 431.592 101.116 435.046 97.3929 439.103C89.2079 448.023 83.2033 458.35 79.3456 469.852C74.381 484.74 70.4226 499.896 69.9195 515.69C69.6846 523.302 69.8859 530.913 69.8859 538.525C69.8859 540.101 70.5568 541.141 71.9993 541.644C72.7037 541.912 73.3746 542.18 74.0791 542.415C83.673 545.701 93.6694 547.042 103.666 548.115C110.174 548.819 116.782 548.887 123.357 549.121C136.205 549.624 149.019 549.524 161.8 548.082C163.208 547.914 164.617 547.478 166.093 547.176C164.181 538.391 164.315 529.572 160.86 521.692C158.579 521.122 156.533 520.653 154.487 520.049C151.032 519.077 147.576 518.004 144.121 517.031C133.085 513.913 122.921 509.218 114.098 501.707C108.765 497.147 104.437 491.949 101.787 485.411C101.586 484.908 101.184 484.438 101.184 483.969C101.184 483.432 101.418 482.628 101.821 482.393C102.223 482.192 103.129 482.393 103.465 482.728C104.136 483.499 104.706 484.438 105.108 485.411C108.262 492.821 113.964 498.086 120.237 502.646C129.697 509.554 140.733 513.108 151.904 516.226C155.963 517.367 160.156 518.071 164.315 518.808C169.85 519.747 175.385 520.954 180.987 521.29C190.414 521.86 199.84 521.994 209.266 521.927C213.862 521.893 218.558 521.86 223.254 520.384C223.053 509.52 223.019 498.756 221.778 487.993C221.107 487.892 220.604 487.724 220.101 487.691C214.197 487.288 208.26 487.054 202.356 486.484C190.414 485.344 178.606 483.466 167.2 479.509C161.263 477.43 155.795 474.446 150.596 470.925C150.025 470.556 149.455 469.45 149.623 468.947C150.025 467.706 151.099 468.108 152.004 468.544C153.246 469.215 154.453 469.818 155.862 470.523ZM110.677 378.008C109.905 381.965 109.067 385.72 108.463 389.543C107.49 395.612 108.966 401.078 113.126 405.739C113.83 406.51 114.635 407.281 115.541 407.751C122.351 411.272 129.361 411.372 136.372 408.489C137.681 407.952 138.989 407.047 139.928 405.974C144.926 400.139 145.765 393.265 144.591 385.989C144.289 384.077 143.517 382.233 142.914 380.221C139.559 382.535 139.224 382.434 137.379 379.249C137.077 378.746 136.641 378.377 136.104 377.773C133.219 381.898 130.905 378.612 128.691 377.337C126.913 378.209 126.074 380.59 123.927 379.852C122.283 379.282 120.841 378.209 119.298 377.337C115.205 380.523 115.004 380.523 110.677 378.008ZM149.891 367.714C148.851 367.446 147.912 367.043 146.973 367.043C143.819 367.01 143.618 366.943 142.444 364.226C141.203 361.309 140.398 361.007 137.714 362.483C135.567 363.69 134.36 363.623 132.515 362.08C131.877 361.544 131.341 360.873 130.703 360.27C128.691 358.325 127.617 358.358 125.604 360.303C123.089 362.785 121.982 362.885 119.533 360.504C118.526 359.532 117.654 359.431 116.413 359.901C115.038 360.437 114.199 361.343 113.528 362.684C112.052 365.668 109.201 365.903 107.591 363.321C107.49 363.153 107.356 362.952 107.222 362.818C106.014 361.51 104.136 361.645 103.767 363.288C103.398 364.964 102.425 365.702 101.116 366.54C99.0031 367.915 99.0031 372.174 101.15 373.314C102.894 374.219 102.995 375.46 102.794 377.002C102.66 378.109 102.425 379.215 102.257 380.255C104.068 380.892 104.739 380.054 105.209 378.88C105.679 377.706 106.081 376.466 106.786 375.46C108.429 373.213 110.476 373.079 112.421 375.024C113.159 375.761 113.629 376.767 114.132 377.505C118.593 374.32 118.627 373.146 124.263 377.069C126.946 373.817 129.898 373.951 132.582 376.432C134.091 375.896 135.332 375.057 136.406 375.225C137.748 375.46 138.922 376.533 140.163 377.237C142.679 375.258 142.645 375.292 145.396 377.304C146 377.74 146.838 377.907 147.677 378.243C148.314 376.231 147.845 374.588 147.845 372.945C147.945 371.402 149.019 369.893 149.891 367.714ZM240.027 440.411C241.805 440.076 243.247 439.707 244.69 439.573C252.808 438.634 260.791 437.091 268.742 435.213C271.425 434.576 273.639 433.302 275.685 431.558C277.296 430.217 277.396 428.44 276.994 426.629C276.625 424.886 275.014 424.55 273.572 424.249C272.767 424.047 271.895 424.114 271.023 424.114C268.372 424.181 265.722 424.349 263.072 424.383C260.12 424.416 259.751 424.014 259.651 421.164C259.617 420.526 259.751 419.856 259.584 419.252C259.382 418.615 259.013 417.676 258.577 417.576C258.074 417.475 257.37 418.146 256.799 418.515C256.632 418.615 256.565 418.85 256.43 419.018C254.485 422.203 251.701 424.014 247.91 424.416C245.126 424.684 242.341 425.154 239.49 425.523C239.691 430.452 239.859 435.281 240.027 440.411ZM226.072 506.569C234.224 506.469 241.704 505.094 249.017 503.082C251.298 502.445 253.478 501.137 255.458 499.796C257.001 498.756 258.309 497.247 257.236 494.9C255.894 494.9 254.619 494.766 253.411 494.934C250.392 495.336 247.373 495.873 244.321 496.309C243.18 496.476 242.006 496.677 240.865 496.677C237.981 496.644 237.343 495.873 237.779 492.989C237.947 491.815 238.316 490.508 236.974 489.904C235.7 489.334 234.861 490.407 234.089 491.312C233.955 491.48 233.821 491.648 233.72 491.815C232.68 493.626 231.003 494.397 229.058 494.766C228.018 494.967 227.011 495.202 226.072 495.403C226.072 499.192 226.072 502.747 226.072 506.569ZM120.673 413.351C120.438 414.759 120.204 415.664 120.17 416.603C120.103 418.816 120.707 420.795 122.686 422.069C125.437 423.846 128.422 424.651 131.743 424.383C133.823 424.215 135.198 423.243 136.272 421.432C138.083 418.448 137.345 415.363 137.211 411.808C131.743 413.82 126.342 414.357 120.673 413.351Z" fill="black"/>
<path d="M155.697 470.629C154.289 469.924 153.082 469.319 151.841 468.715C150.936 468.279 149.863 467.876 149.46 469.118C149.293 469.621 149.896 470.729 150.433 471.098C155.63 474.623 161.096 477.611 167.031 479.692C178.432 483.687 190.235 485.533 202.172 486.675C208.073 487.245 214.008 487.48 219.91 487.883C220.413 487.917 220.916 488.051 221.587 488.185C222.827 498.994 222.894 509.77 223.062 520.613C218.368 522.09 213.673 522.09 209.079 522.157C199.657 522.224 190.201 522.057 180.812 521.519C175.246 521.184 169.68 520.009 164.147 519.035C159.989 518.33 155.798 517.592 151.74 516.45C140.608 513.329 129.543 509.77 120.087 502.855C113.816 498.29 108.116 493.019 104.964 485.6C104.562 484.627 103.992 483.687 103.321 482.915C103.019 482.546 102.08 482.378 101.678 482.579C101.276 482.781 101.041 483.586 101.041 484.157C101.041 484.627 101.443 485.13 101.644 485.6C104.293 492.146 108.619 497.35 113.951 501.915C122.736 509.468 132.929 514.134 143.961 517.256C147.415 518.23 150.869 519.304 154.322 520.277C156.368 520.848 158.413 521.318 160.693 521.922C164.147 529.811 164.013 538.64 165.924 547.435C164.449 547.77 163.074 548.173 161.632 548.341C148.857 549.818 136.048 549.885 123.205 549.382C116.633 549.113 110.061 549.08 103.522 548.375C93.5299 547.301 83.5375 545.958 73.9475 542.668C73.2433 542.433 72.5727 542.131 71.8685 541.896C70.3931 541.359 69.7225 540.352 69.756 538.774C69.7896 531.154 69.5548 523.534 69.7896 515.913C70.2925 500.102 74.2493 484.929 79.2119 470.024C83.068 458.51 89.0702 448.171 97.2518 439.241C100.94 435.18 105.299 431.722 109.424 428.063C112.106 425.679 114.889 423.397 117.807 420.913C118.779 423.934 121.395 425.277 124.111 426.485C126.994 427.794 130.079 427.895 133.164 427.425C135.612 427.056 137.355 425.579 138.563 423.397C139.971 420.812 140.105 420.678 142.788 421.517C149.46 423.565 156.334 423.833 163.208 424.337C178.13 425.411 193.085 425.243 208.04 424.773C215.35 424.572 222.626 423.8 229.936 423.363C231.78 423.262 233.658 423.397 235.703 423.464C236.542 434.139 236.676 444.377 236.575 454.75C233.926 454.75 231.612 454.65 229.332 454.784C221.62 455.22 213.908 455.925 206.162 456.194C194.929 456.63 183.696 456.731 172.463 457.033C168.137 457.134 163.778 457.335 159.453 457.637C156.737 457.839 156.603 457.939 156.301 460.558C155.965 463.747 155.932 467.003 155.697 470.629Z" fill="white"/>
<path d="M110.393 377.816C114.753 380.323 114.922 380.289 119.045 377.147C120.6 377.983 122.053 379.086 123.709 379.654C125.838 380.389 126.683 378.016 128.508 377.147C130.773 378.417 133.071 381.693 135.978 377.582C136.518 378.183 136.991 378.584 137.262 379.052C139.121 382.228 139.459 382.328 142.838 380.022C143.447 381.994 144.224 383.832 144.528 385.771C145.711 393.025 144.866 399.877 139.83 405.693C138.884 406.763 137.566 407.666 136.248 408.201C129.151 411.075 122.121 410.941 115.26 407.465C114.348 406.997 113.537 406.228 112.827 405.459C108.636 400.847 107.183 395.398 108.129 389.314C108.771 385.537 109.65 381.76 110.393 377.816ZM116.409 385.504C116.409 385.47 116.511 385.871 116.544 386.272C116.646 387.409 117.018 388.579 118.369 388.378C119.248 388.245 120.33 387.509 120.769 386.707C122.087 384.367 121.073 382.629 118.403 382.295C117.66 382.194 116.916 382.128 116.173 382.161C114.99 382.228 113.266 381.726 113.199 383.531C113.199 384.033 114.888 384.601 116.409 385.504ZM136.214 385.537C136.383 386.64 136.417 387.61 136.687 388.479C137.127 389.816 138.445 390.083 139.425 389.08C140.337 388.144 141.047 385.27 140.236 384.367C139.492 383.531 138.208 383.03 137.059 382.763C135.944 382.495 134.727 382.629 133.578 382.83C133.037 382.93 132.564 383.565 131.415 384.434C133.443 384.902 134.727 385.203 136.214 385.537ZM125.906 387.409C124.858 390.15 124.554 392.59 124.791 394.997C124.825 395.532 126.413 396.133 127.359 396.301C127.9 396.401 128.914 395.899 129.151 395.398C129.691 394.195 128.475 393.86 127.731 393.326C127.562 393.225 127.495 392.991 127.393 392.824C127.258 391.186 128.339 389.314 125.906 387.409Z" fill="white"/>
<path d="M149.582 367.626C148.707 369.776 147.631 371.265 147.631 372.754C147.631 374.375 148.102 375.996 147.463 377.98C146.589 377.65 145.781 377.484 145.176 377.054C142.419 375.069 142.452 375.036 139.93 376.988C138.652 376.293 137.475 375.202 136.163 375.003C135.087 374.838 133.843 375.665 132.33 376.194C129.639 373.746 126.646 373.614 123.99 376.823C118.373 372.952 118.306 374.11 113.833 377.253C113.329 376.492 112.858 375.532 112.118 374.805C110.168 372.886 108.116 373.018 106.469 375.235C105.729 376.227 105.359 377.451 104.888 378.609C104.383 379.8 103.745 380.627 101.929 379.965C102.097 378.907 102.332 377.848 102.467 376.756C102.668 375.235 102.568 374.011 100.819 373.117C98.6665 371.993 98.6665 367.791 100.785 366.435C102.097 365.608 103.072 364.913 103.442 363.226C103.812 361.605 105.661 361.473 106.906 362.763C107.04 362.928 107.175 363.094 107.276 363.259C108.923 365.84 111.748 365.608 113.228 362.631C113.867 361.34 114.741 360.447 116.12 359.885C117.365 359.389 118.239 359.521 119.248 360.48C121.703 362.796 122.779 362.73 125.335 360.282C127.319 358.363 128.429 358.33 130.446 360.249C131.052 360.844 131.59 361.506 132.262 362.035C134.112 363.557 135.323 363.623 137.475 362.432C140.165 360.977 140.972 361.274 142.217 364.152C143.394 366.832 143.596 366.898 146.757 366.931C147.597 366.964 148.539 367.361 149.582 367.626Z" fill="white"/>
<path d="M240.16 440.251C239.992 435.115 239.825 430.282 239.657 425.315C242.505 424.946 245.286 424.509 248.067 424.207C251.82 423.838 254.634 422.026 256.578 418.803C256.678 418.636 256.779 418.401 256.946 418.3C257.516 417.931 258.22 417.26 258.722 417.36C259.158 417.461 259.56 418.401 259.727 419.038C259.895 419.643 259.761 420.314 259.794 420.952C259.895 423.804 260.263 424.207 263.212 424.174C265.859 424.14 268.506 423.972 271.153 423.905C271.99 423.872 272.862 423.838 273.699 424.039C275.14 424.375 276.748 424.677 277.117 426.422C277.519 428.235 277.418 430.014 275.81 431.356C273.766 433.068 271.555 434.377 268.874 435.015C260.933 436.894 252.959 438.472 244.851 439.378C243.376 439.546 241.936 439.915 240.16 440.251Z" fill="white"/>
<path d="M225.917 506.408C225.917 502.585 225.917 499.03 225.917 495.274C226.856 495.073 227.896 494.838 228.902 494.637C230.847 494.268 232.523 493.496 233.563 491.685C233.664 491.518 233.798 491.35 233.932 491.182C234.67 490.277 235.508 489.204 236.816 489.774C238.158 490.344 237.789 491.652 237.621 492.859C237.185 495.71 237.856 496.515 240.706 496.548C241.847 496.548 243.02 496.347 244.16 496.179C247.179 495.71 250.197 495.173 253.249 494.804C254.456 494.637 255.73 494.771 257.072 494.771C258.145 497.118 256.871 498.627 255.294 499.667C253.282 501.009 251.136 502.317 248.856 502.954C241.545 504.932 234.066 506.307 225.917 506.408Z" fill="white"/>
<path d="M120.573 413.271C126.241 414.25 131.64 413.744 137.106 411.752C137.24 415.297 137.978 418.403 136.167 421.441C135.06 423.264 133.719 424.21 131.64 424.412C128.353 424.716 125.335 423.906 122.585 422.083C120.607 420.8 120.003 418.808 120.07 416.58C120.104 415.634 120.372 414.689 120.573 413.271Z" fill="white"/>
<path d="M116.659 385.511C115.139 384.631 113.45 384.077 113.45 383.588C113.517 381.828 115.24 382.317 116.423 382.252C117.166 382.219 117.909 382.284 118.652 382.382C121.321 382.675 122.335 384.403 121.017 386.684C120.578 387.434 119.497 388.151 118.619 388.314C117.301 388.542 116.929 387.369 116.794 386.261C116.76 385.869 116.659 385.478 116.659 385.511Z" fill="black"/>
<path d="M136.052 385.686C134.567 385.349 133.285 385.047 131.261 384.576C132.408 383.702 132.847 383.063 133.42 382.962C134.567 382.761 135.782 382.626 136.895 382.895C138.042 383.164 139.325 383.702 140.067 384.509C140.877 385.417 140.168 388.341 139.257 389.249C138.279 390.258 136.963 390.022 136.524 388.644C136.254 387.77 136.221 386.795 136.052 385.686Z" fill="black"/>
<path d="M125.861 387.325C128.308 389.27 127.221 391.216 127.322 392.922C127.424 393.093 127.492 393.332 127.662 393.434C128.41 393.98 129.634 394.322 129.09 395.55C128.852 396.062 127.832 396.574 127.289 396.472C126.337 396.267 124.773 395.687 124.705 395.141C124.501 392.615 124.807 390.123 125.861 387.325Z" fill="black"/>
<path d="M591.622 123.48C593.6 127.689 595.746 131.518 597.261 135.601C600.501 144.144 599.996 153.108 599.239 161.988C599.028 164.387 597.597 166.701 596.672 169.058C595.241 172.846 592.842 176.423 593.347 180.632C593.642 180.968 593.768 181.263 593.979 181.305C602.942 183.199 608.622 189.427 613.882 196.245C619.816 203.862 627.179 208.66 637.237 208.66C656.257 208.702 675.277 208.913 694.297 209.081C695.769 209.081 697.242 208.955 698.673 209.123C702.67 209.502 706.331 209.123 709.109 205.756C709.614 205.167 710.413 204.788 711.128 204.494C714.369 203.063 716.557 204.41 716.893 207.903C716.935 208.408 716.935 208.955 717.02 209.881C719.039 209.881 721.017 209.754 722.995 209.923C724.973 210.049 726.95 210.344 728.886 210.806C730.99 211.312 732.463 212.616 732.8 214.847C733.178 217.119 732.042 218.887 730.191 219.813C726.277 221.749 722.322 223.685 718.198 225.031C709.067 228.061 699.514 227.093 690.131 227.556C677.254 228.23 664.336 228.693 651.459 229.24C650.155 229.282 648.851 229.45 647.378 229.576C646.536 234.627 648.009 239.803 645.905 244.937C635.932 245.569 625.917 246.2 615.439 246.831C614.892 254.785 614.261 262.571 613.798 270.357C613.504 274.986 613.504 279.658 613.251 284.287C613.083 287.57 612.283 288.327 609.001 288.958C587.961 293.125 566.753 294.051 545.419 292.578C539.233 292.157 533.131 290.305 527.03 289.169C525.389 288.874 524.884 287.738 524.926 286.265C524.968 284.119 525.22 282.014 525.136 279.868C524.631 263.244 524.421 246.621 523.495 230.039C522.696 216.025 519.624 202.432 514.406 189.343C513.564 187.239 512.639 185.177 511.544 183.199C507.673 176.255 506.453 168.721 506.158 160.936C506.074 158.537 505.948 156.138 505.695 153.781C505.317 149.994 506.411 148.437 510.114 147.847C510.619 147.763 511.124 147.679 511.629 147.595C512.134 143.428 512.26 139.304 513.186 135.348C516.51 121.039 525.136 111.444 539.149 106.646C548.322 103.49 557.664 101.975 567.342 102.101C588.508 102.395 609.674 102.69 630.798 102.901C634.375 102.943 637.952 102.564 641.571 102.522C643.044 102.48 644.011 101.89 644.895 100.712C645.737 99.5758 646.831 98.4395 648.051 97.7241C651.039 96.0827 653.606 97.5136 654.068 100.88C654.195 101.933 654.237 102.985 654.363 104.416C656.93 104.542 659.455 104.5 661.895 104.794C665.977 105.299 670.059 105.804 674.056 106.688C676.623 107.235 678.685 108.666 678.727 111.823C678.769 114.39 677.801 116.284 675.487 117.252C673.678 118.009 671.7 118.472 669.764 118.935C656.467 122.386 642.917 122.175 629.326 122.218C617.207 122.26 605.13 122.723 593.011 123.017C592.59 123.143 592.001 123.354 591.622 123.48ZM643.001 213.121C641.823 212.827 641.445 212.658 641.066 212.616C640.14 212.532 639.214 212.448 638.289 212.49C626.296 212.827 617.585 207.229 610.558 197.971C607.781 194.309 604.204 191.237 600.838 188.039C599.954 187.197 598.607 186.902 596.756 186.061C600.796 193.846 600.038 200.538 595.325 206.851C594.989 207.271 594.694 207.692 594.441 208.197C593.095 211.059 592.885 214.173 594.989 216.488C599.323 221.244 599.786 226.673 598.734 232.522C597.261 240.981 592.38 247.715 581.355 244.559C578.83 243.843 576.305 243.212 574.917 240.981C571.34 235.384 568.52 229.45 571.129 222.59C573.233 216.951 572.392 211.901 568.731 207.229C565.954 203.736 566.08 199.864 567.3 195.866C567.595 194.856 567.973 193.888 568.436 192.584C564.944 193.047 562.84 191.027 560.694 189.006C556.023 184.545 551.52 179.958 546.597 175.834C539.99 170.321 535.993 163.377 533.931 155.17C533.678 154.16 533.3 153.15 532.879 151.677C525.262 151.677 517.646 151.677 509.525 151.677C509.819 156.769 509.988 161.904 510.45 167.038C510.955 172.509 512.765 177.601 515.416 182.483C517.099 185.64 518.361 189.006 519.624 192.373C526.062 209.796 527.829 228.061 528.418 246.41C528.839 258.91 528.713 271.367 528.839 283.866C528.839 284.371 529.05 284.876 529.26 285.676C534.73 286.728 540.159 288.285 545.671 288.706C562.545 289.926 579.419 289.505 596.209 287.149C600.753 286.517 605.298 285.634 609.843 284.876C610.095 278.605 610.221 272.756 610.558 266.948C611.021 259.12 611.652 251.334 612.241 243.507C612.283 242.833 612.367 242.16 612.62 241.571C613.167 240.098 614.303 239.887 615.229 241.15C615.65 241.739 615.86 242.497 616.113 243.044C625.37 242.497 634.333 241.949 643.044 241.444C643.001 231.681 643.001 222.464 643.001 213.121ZM577.736 136.484C577.862 135.558 577.988 135.053 578.03 134.506C578.115 133.202 578.493 131.981 579.966 131.939C581.691 131.897 582.07 133.286 582.112 134.717C582.196 137.368 582.28 140.02 582.196 142.671C581.944 150.751 580.766 158.537 575.548 165.186C575.085 165.733 574.832 166.659 574.917 167.375C575.253 171.331 575.043 175.497 576.263 179.201C577.568 183.199 576.894 186.439 575.001 189.806C573.738 191.994 572.392 194.141 571.34 196.413C570.035 199.191 569.825 202.053 571.887 204.662C576.473 210.512 577.399 216.867 574.748 223.811C574.622 224.19 574.538 224.568 574.412 224.947C573.065 229.661 575.464 233.448 577.525 237.32C579.167 240.392 582.407 240.266 585.184 240.855C588.592 241.529 591.286 240.266 592.8 237.152C595.493 231.639 596.461 226.083 592.632 220.57C592.169 219.939 591.748 219.266 591.37 218.55C588.971 213.837 588.761 209.165 591.833 204.578C592.59 203.484 593.263 202.347 593.894 201.169C596.293 196.708 595.914 192.163 592.548 188.291C589.182 184.377 588.424 180.042 589.855 175.287C590.528 173.014 591.286 170.699 592.422 168.595C595.115 163.629 596.041 158.369 595.62 152.813C595.493 151.214 595.704 149.615 595.536 148.016C594.189 133.16 588.256 121.292 574.117 114.558C571.298 113.211 568.394 112.454 565.28 112.622C562.629 112.79 559.936 112.875 557.369 113.422C545.166 116.073 539.99 121.25 537.55 132.865C537.171 134.675 537.003 136.569 536.876 138.42C536.035 148.773 537.55 158.579 543.904 167.206C545.292 169.058 546.639 170.994 549.332 171.92C549.332 170.447 549.248 169.353 549.332 168.343C549.542 165.523 549.164 163.04 547.312 160.557C545.797 158.537 544.619 155.759 544.451 153.276C544.03 146.669 544.198 140.02 544.24 133.412C544.24 132.234 544.535 131.013 544.872 129.877C545.797 126.679 546.934 126.174 549.711 128.067C552.783 130.13 556.191 130.971 559.684 131.813C565.491 133.328 571.887 132.907 577.736 136.484ZM532.416 148.31C532.711 143.386 532.795 138.631 533.342 133.917C534.225 126.258 537.087 119.187 543.693 114.895C556.57 106.52 572.56 105.426 585.689 117.083C588.13 119.23 590.444 119.903 593.516 119.777C611.442 119.145 629.41 118.977 647.336 118.051C655.373 117.63 663.368 115.905 671.405 114.6C672.836 114.39 674.73 114.263 675.066 111.612C674.056 111.149 672.92 110.35 671.742 110.139C668.333 109.55 664.925 109.129 661.517 108.75C659.286 108.498 656.972 108.708 654.742 108.372C651.502 107.909 650.828 106.941 650.66 103.658C650.618 102.943 650.492 102.227 650.323 100.923C649.313 101.89 648.556 102.269 648.261 102.901C646.789 105.804 644.432 106.562 641.36 106.52C635.764 106.478 630.209 106.899 624.613 106.857C604.793 106.646 584.974 106.309 565.154 106.099C555.476 106.015 546.092 107.993 537.171 111.654C534.141 112.917 531.069 114.558 528.629 116.704C520.087 124.196 515.837 133.833 515.626 145.196C515.626 146.206 515.795 147.216 515.921 148.31C521.602 148.31 526.988 148.31 532.416 148.31ZM646.831 226.168C649.903 225.915 652.638 225.578 655.415 225.452C668.46 224.863 681.462 224.526 694.507 223.727C701.997 223.264 709.698 224.442 716.978 221.791C720.849 220.402 724.594 218.676 728.297 216.993C728.886 216.74 729.223 215.857 729.98 214.805C728.297 214.215 727.035 213.5 725.646 213.29C723.837 213.037 721.943 213.121 720.049 213.163C713.864 213.29 713.864 213.332 713.232 207.061C711.76 208.071 710.539 208.955 709.235 209.754C706.794 211.312 704.438 212.953 701.282 212.953C684.113 212.911 666.945 212.953 649.776 212.953C648.766 212.953 647.756 213.121 646.831 213.163C646.831 217.624 646.831 221.707 646.831 226.168ZM548.196 132.528C548.07 138.715 547.691 144.523 547.943 150.288C548.196 156.054 551.184 160.431 556.023 163.755C562.966 168.553 572.644 164.723 574.832 158.495C576.179 154.707 577.525 151.046 577.778 147.006C578.115 141.871 577.105 140.104 572.265 138.42C571.003 137.999 569.699 137.705 568.394 137.536C561.704 136.484 554.971 135.769 548.196 132.528ZM553.414 167.249C553.414 170.405 553.288 173.14 553.498 175.876C553.582 176.76 554.382 177.728 555.097 178.401C557.79 180.968 560.525 183.409 563.302 185.892C564.27 186.776 565.238 187.618 566.248 188.544C568.015 187.786 569.614 187.113 571.171 186.439C572.728 185.766 573.36 184.503 573.107 182.904C572.392 178.233 571.592 173.561 570.793 168.595C564.859 171.078 559.137 170.573 553.414 167.249Z" fill="black"/>
<path d="M643.001 213.121C643.001 222.422 643.001 231.681 643.001 241.487C634.291 241.992 625.286 242.539 616.07 243.086C615.818 242.497 615.608 241.781 615.187 241.192C614.261 239.929 613.125 240.098 612.578 241.613C612.367 242.244 612.241 242.917 612.199 243.549C611.61 251.377 610.979 259.162 610.516 266.99C610.179 272.798 610.053 278.648 609.801 284.918C605.256 285.676 600.711 286.56 596.167 287.191C579.377 289.548 562.503 289.926 545.629 288.748C540.117 288.369 534.688 286.77 529.218 285.718C529.008 284.918 528.797 284.413 528.797 283.908C528.671 271.409 528.755 258.91 528.376 246.453C527.787 228.061 525.978 209.839 519.582 192.415C518.361 189.049 517.057 185.682 515.374 182.525C512.765 177.644 510.955 172.551 510.408 167.08C509.903 161.946 509.777 156.812 509.483 151.719C517.604 151.719 525.22 151.719 532.837 151.719C533.3 153.192 533.636 154.202 533.889 155.212C535.951 163.419 539.948 170.363 546.555 175.876C551.478 180 555.981 184.63 560.652 189.049C562.798 191.069 564.86 193.089 568.394 192.626C567.931 193.931 567.595 194.898 567.258 195.909C566.038 199.907 565.954 203.736 568.689 207.271C572.35 211.943 573.191 216.993 571.087 222.632C568.52 229.492 571.34 235.384 574.874 241.024C576.305 243.254 578.788 243.885 581.313 244.601C592.38 247.715 597.219 241.024 598.692 232.565C599.701 226.757 599.281 221.286 594.946 216.53C592.842 214.215 593.011 211.101 594.399 208.239C594.61 207.776 594.946 207.314 595.283 206.893C599.996 200.58 600.753 193.888 596.714 186.103C598.565 186.986 599.912 187.281 600.796 188.081C604.162 191.279 607.739 194.351 610.516 198.013C617.543 207.271 626.296 212.869 638.246 212.532C639.172 212.49 640.098 212.574 641.024 212.658C641.402 212.658 641.781 212.827 643.001 213.121Z" fill="white"/>
<path d="M577.736 136.485C571.845 132.865 565.491 133.328 559.6 131.898C556.065 131.056 552.657 130.256 549.627 128.152C546.85 126.258 545.713 126.763 544.788 129.962C544.451 131.098 544.157 132.318 544.157 133.497C544.157 140.104 543.946 146.754 544.367 153.361C544.535 155.886 545.671 158.622 547.228 160.642C549.08 163.125 549.459 165.608 549.248 168.427C549.164 169.479 549.248 170.532 549.248 172.005C546.513 171.079 545.209 169.143 543.82 167.291C537.466 158.664 535.951 148.9 536.793 138.505C536.961 136.653 537.087 134.801 537.466 132.95C539.906 121.334 545.082 116.158 557.285 113.506C559.852 112.959 562.545 112.875 565.196 112.707C568.31 112.496 571.214 113.296 574.033 114.643C588.172 121.334 594.105 133.244 595.452 148.1C595.578 149.699 595.41 151.299 595.536 152.898C595.957 158.453 595.031 163.714 592.338 168.68C591.202 170.742 590.444 173.057 589.771 175.371C588.382 180.127 589.098 184.504 592.464 188.376C595.83 192.247 596.167 196.793 593.81 201.254C593.179 202.432 592.506 203.568 591.749 204.663C588.677 209.208 588.887 213.879 591.286 218.635C591.664 219.35 592.085 220.024 592.548 220.655C596.377 226.126 595.452 231.723 592.716 237.236C591.202 240.351 588.508 241.613 585.1 240.94C582.323 240.393 579.083 240.519 577.442 237.405C575.422 233.533 572.981 229.745 574.328 225.032C574.454 224.653 574.538 224.274 574.664 223.895C577.315 216.993 576.347 210.597 571.803 204.747C569.741 202.095 569.951 199.276 571.256 196.498C572.308 194.225 573.696 192.079 574.917 189.891C576.81 186.524 577.484 183.283 576.179 179.285C575.001 175.582 575.169 171.415 574.833 167.459C574.79 166.744 575.043 165.818 575.464 165.271C580.682 158.622 581.86 150.836 582.112 142.755C582.197 140.104 582.112 137.453 582.028 134.801C581.986 133.371 581.649 131.982 579.882 132.024C578.409 132.066 578.031 133.286 577.946 134.591C577.989 135.054 577.862 135.559 577.736 136.485Z" fill="white"/>
<path d="M532.416 148.311C526.988 148.311 521.602 148.311 515.921 148.311C515.795 147.216 515.626 146.206 515.626 145.196C515.837 133.833 520.129 124.196 528.629 116.705C531.07 114.558 534.141 112.917 537.171 111.655C546.092 107.993 555.434 105.973 565.154 106.099C584.974 106.31 604.793 106.646 624.613 106.857C630.209 106.899 635.764 106.478 641.36 106.52C644.474 106.562 646.831 105.805 648.261 102.901C648.556 102.27 649.313 101.891 650.323 100.923C650.492 102.227 650.618 102.943 650.66 103.658C650.828 106.941 651.502 107.909 654.742 108.372C656.972 108.709 659.244 108.498 661.517 108.751C664.925 109.129 668.376 109.55 671.742 110.139C672.92 110.35 674.014 111.107 675.066 111.612C674.73 114.264 672.836 114.39 671.405 114.6C663.41 115.863 655.415 117.631 647.336 118.051C629.41 118.977 611.442 119.188 593.516 119.777C590.444 119.861 588.13 119.23 585.689 117.083C572.56 105.468 556.57 106.52 543.693 114.895C537.087 119.188 534.225 126.258 533.342 133.918C532.795 138.631 532.711 143.387 532.416 148.311Z" fill="white"/>
<path d="M646.831 226.168C646.831 221.707 646.831 217.625 646.831 213.29C647.714 213.206 648.766 213.079 649.776 213.079C666.945 213.079 684.113 213.037 701.282 213.079C704.438 213.079 706.794 211.438 709.235 209.881C710.539 209.081 711.76 208.155 713.232 207.188C713.864 213.458 713.864 213.416 720.049 213.29C721.901 213.248 723.794 213.164 725.646 213.416C726.992 213.584 728.297 214.3 729.98 214.931C729.223 215.941 728.886 216.825 728.297 217.12C724.552 218.803 720.807 220.486 716.977 221.917C709.698 224.569 702.039 223.39 694.507 223.853C681.504 224.653 668.46 224.989 655.415 225.579C652.68 225.579 649.944 225.915 646.831 226.168Z" fill="white"/>
<path d="M548.196 132.528C554.971 135.811 561.703 136.484 568.394 137.494C569.699 137.705 571.003 137.957 572.265 138.378C577.105 140.062 578.115 141.829 577.778 146.963C577.525 151.004 576.179 154.707 574.832 158.453C572.602 164.723 562.924 168.511 556.023 163.713C551.184 160.389 548.196 156.012 547.943 150.246C547.691 144.523 548.07 138.715 548.196 132.528ZM571.466 157.485C571.466 153.95 570.709 152.435 568.1 151.677C565.827 151.004 563.471 150.499 561.114 150.414C558.884 150.372 556.654 150.919 554.466 151.382C552.993 151.677 551.478 152.35 551.646 154.16C551.815 156.054 553.624 156.012 555.013 156.264C555.77 156.391 556.612 156.264 557.411 156.348C560.315 156.601 563.176 156.896 566.08 157.148C567.847 157.316 569.657 157.401 571.466 157.485ZM550.931 136.947C550.594 137.158 549.879 137.579 549.29 138.168C549.164 138.294 549.585 139.346 549.879 139.43C551.899 139.809 552.53 141.198 553.035 142.923C553.119 143.26 554.844 143.513 554.887 143.428C555.391 142.124 556.023 140.735 555.981 139.388C555.939 138.715 554.676 137.915 553.835 137.452C553.203 137.073 552.278 137.158 550.931 136.947ZM572.223 145.28C573.865 146.248 574.664 145.154 574.664 143.765C574.664 142.545 574.412 140.777 573.612 140.272C572.013 139.262 569.951 139.051 568.184 140.524C569.572 142.166 570.919 143.723 572.223 145.28ZM561.409 142.418C560.988 142.376 560.567 142.334 560.147 142.334C559.936 144.102 559.473 145.869 559.642 147.595C559.768 149.11 560.946 149.404 562.335 148.31C562.04 146.332 561.746 144.354 561.409 142.418Z" fill="white"/>
<path d="M553.414 167.249C559.136 170.573 564.859 171.078 570.75 168.553C571.55 173.519 572.349 178.191 573.065 182.862C573.317 184.503 572.644 185.724 571.129 186.397C569.572 187.071 567.973 187.744 566.206 188.501C565.196 187.618 564.228 186.734 563.26 185.85C560.525 183.367 557.748 180.884 555.055 178.359C554.339 177.686 553.54 176.718 553.456 175.834C553.245 173.14 553.414 170.405 553.414 167.249Z" fill="white"/>
<path d="M571.466 157.485C569.656 157.359 567.847 157.317 566.037 157.148C563.134 156.896 560.273 156.601 557.369 156.349C556.57 156.265 555.77 156.433 554.971 156.265C553.582 156.012 551.773 156.054 551.604 154.16C551.436 152.351 552.951 151.677 554.424 151.383C556.612 150.962 558.884 150.373 561.072 150.415C563.429 150.457 565.785 151.004 568.057 151.677C570.708 152.435 571.466 153.95 571.466 157.485Z" fill="black"/>
<path d="M550.931 136.947C552.277 137.158 553.161 137.074 553.834 137.452C554.676 137.915 555.938 138.715 555.98 139.388C556.022 140.735 555.391 142.124 554.886 143.428C554.844 143.513 553.161 143.26 553.035 142.923C552.53 141.198 551.857 139.809 549.879 139.43C549.584 139.388 549.163 138.294 549.29 138.168C549.879 137.579 550.636 137.158 550.931 136.947Z" fill="black"/>
<path d="M572.223 145.28C570.919 143.723 569.572 142.166 568.184 140.525C569.951 139.052 572.013 139.22 573.612 140.272C574.411 140.777 574.664 142.587 574.664 143.765C574.664 145.154 573.864 146.248 572.223 145.28Z" fill="black"/>
<path d="M561.409 142.418C561.745 144.396 562.04 146.332 562.377 148.268C560.988 149.32 559.81 149.026 559.684 147.553C559.515 145.827 559.978 144.06 560.189 142.292C560.567 142.334 560.988 142.376 561.409 142.418Z" fill="black"/>
<path d="M378.386 446.493C375.16 446.139 372.564 445.786 369.967 445.55C357.929 444.489 345.891 444.332 333.813 445.471C330.784 445.746 327.991 446.611 325.316 448.104C321.736 450.148 317.762 450.58 313.789 450.187C308.399 449.676 307.534 448.065 309.816 443.349C306.078 442.485 302.301 441.738 298.603 440.638C297.423 440.284 296.125 439.302 295.574 438.241C294.473 436.119 295.417 433.879 297.817 433.25C301.869 432.189 306.039 431.049 310.209 430.814C321.5 430.146 332.83 430.146 344.16 429.556C353.326 429.085 362.571 428.613 371.659 427.355C389.008 424.958 406.279 421.972 423.864 419.182C423.628 415.016 424.611 411.283 425.949 407.511C426.421 406.135 425.949 403.934 425.083 402.638C421.7 397.451 422.33 392.499 425.634 387.705C426.972 385.74 426.932 383.775 426.539 381.653C426.342 380.435 425.91 379.256 425.634 378.038C423.942 370.414 428.742 363.694 436.571 362.987C439.521 362.712 441.882 361.965 444.085 359.725C448.137 355.599 452.543 355.206 457.697 357.996C459.585 359.018 461.434 359.215 463.44 358.704C464.778 358.35 466.076 357.957 467.414 357.721C474.18 356.542 480.278 361.179 480.632 368.017C480.75 370.375 481.38 372.222 482.914 374.03C486.337 377.999 487.438 382.557 484.999 387.508C483.937 389.67 484.212 391.281 485.707 393.246C488.382 396.665 488.697 400.751 486.533 404.445C484.842 407.353 485.156 409.829 486.455 412.501C487.163 413.955 487.871 415.37 488.54 416.667C495.464 417.02 502.151 417.531 508.839 417.61C519.894 417.767 530.988 417.846 542.043 417.649C560.572 417.335 579.102 416.745 597.631 416.352C601.604 416.274 605.578 416.47 609.59 416.51C611.4 416.549 613.17 416.706 613.761 418.828C614.233 420.479 613.328 422.129 611.203 423.308C609.118 424.408 606.955 425.312 604.87 426.294C606.05 431.167 605.381 432.385 600.7 433.643C597.277 434.547 593.618 435.018 590.432 433.604C584.137 430.814 577.882 431.639 571.43 432.7C560.415 434.547 549.321 436.158 538.266 437.887C535.709 438.28 533.152 438.791 530.359 439.302C530.359 446.572 530.359 453.606 530.359 460.679C527.644 461.112 525.205 461.505 522.766 461.937C521.428 462.173 520.13 462.487 518.832 462.88C514.15 464.334 511.121 467.36 509.036 471.84C506.518 477.263 504.433 482.764 503.332 488.698C500.027 506.421 498.414 524.34 497.588 542.338C497.313 547.801 497.273 553.223 497.155 558.686C497.077 563.716 495.621 565.366 490.389 565.366C480.317 565.406 470.207 565.445 460.136 565.209C450.458 564.973 440.741 564.423 431.063 563.873C428.467 563.716 425.87 563.205 423.313 562.694C420.559 562.105 420.126 561.476 420.008 558.607C419.772 552.163 419.654 545.679 419.3 539.273C418.71 529.135 418.002 518.957 417.294 508.818C416.979 504.495 416.822 500.133 416.271 495.85C415.76 491.802 415.091 487.716 413.95 483.825C412.337 478.048 408.364 474.158 403.131 471.289C398.017 468.46 392.667 467.713 386.962 467.831C380.038 467.949 379.999 467.674 379.606 460.797C379.409 456.082 378.858 451.405 378.386 446.493ZM525.913 422.247C519.265 421.147 512.655 421.775 506.125 421.382C499.673 421.029 493.182 420.479 486.769 420.871C480.239 421.225 473.826 419.81 467.099 420.361C467.296 424.172 466.312 427.473 464.424 430.46C463.204 432.425 461.513 433.997 459.113 434.193C451.363 434.822 444.754 430.224 444.478 422.797C444.439 421.972 444.242 421.186 444.046 419.928C422.998 423.229 402.187 426.491 381.494 429.713C380.943 434.154 383.068 460.954 384.169 464.255C385.821 464.255 387.592 464.373 389.283 464.216C395.617 463.705 401.243 465.945 406.869 468.381C409.347 469.442 411.157 471.211 412.848 473.294C417.923 479.463 419.222 486.969 420.126 494.475C421.031 501.98 421.307 509.565 421.779 517.11C422.566 529.488 423.274 541.867 423.982 554.285C424.061 555.817 423.982 557.389 423.982 558.843C434.446 561.319 487.792 562.812 493.064 560.808C493.3 555.424 493.457 549.962 493.772 544.539C494.834 527.091 495.896 509.643 499.004 492.353C500.499 483.943 502.624 475.966 506.715 468.421C508.8 464.57 511.554 461.858 515.606 460.404C519.186 459.147 522.845 457.968 526.779 456.671C526.149 445.511 527.329 433.957 525.913 422.247ZM443.652 415.999C444.242 412.894 443.849 410.419 442 408.021C440.702 406.292 439.797 404.131 439.167 402.048C437.2 395.604 438.144 389.002 438.262 382.439C438.262 381.85 438.931 381.221 439.285 380.671C441.41 381.221 443.298 381.889 445.226 382.203C452.032 383.382 458.838 383.186 465.683 382.4C466.824 382.282 467.925 381.575 469.027 381.064C470.561 380.278 471.623 380.671 472.095 382.36C472.253 382.95 472.253 383.579 472.253 384.207C472.213 388.294 472.253 392.421 472.056 396.507C471.82 402.009 471.033 407.353 467.492 411.951C466.745 412.934 466.942 414.663 466.588 416.392C472.764 416.352 478.35 417.335 484.133 416.903C483.937 416.156 483.897 415.763 483.74 415.488C481.458 411.087 480.357 406.842 483.465 402.166C484.802 400.162 484.448 397.411 482.717 395.525C479.963 392.538 479.727 389.434 481.498 385.976C483.229 382.557 482.599 379.374 480.121 376.662C477.878 374.226 476.895 371.632 476.777 368.292C476.659 363.498 472.449 360.551 467.729 361.494C466.509 361.73 465.329 362.201 464.109 362.398C461.395 362.83 458.759 362.909 456.162 361.415C452.189 359.097 449.12 359.411 446.131 362.83C443.77 365.541 441.134 366.445 437.633 366.445C432.047 366.445 428.231 371.357 429.175 376.82C429.411 378.156 429.962 379.453 430.158 380.789C430.63 383.854 430.906 386.919 428.821 389.709C426.185 393.206 425.791 396.861 428.349 400.751C430.316 403.738 430.512 406.96 429.017 410.34C428.349 411.872 428.034 413.562 427.483 415.488C433.187 416.981 438.38 416.942 443.652 415.999ZM608.214 420.911C608.135 420.636 608.056 420.321 607.978 420.046C604.004 420.046 600.031 420.007 596.057 420.046C579.81 420.282 563.523 419.85 547.314 421.54C542.515 422.05 537.637 421.618 532.758 421.657C531.814 421.657 530.87 421.815 529.729 421.893C530.005 426.609 530.28 431.049 530.516 435.608C533.506 435.097 536.181 434.586 538.856 434.154C549.675 432.464 560.493 430.932 571.273 429.085C578.197 427.906 584.963 427.12 591.769 429.91C594.917 431.207 598.339 430.932 601.565 429.635C600.463 425.194 600.936 424.251 605.027 422.404C606.089 421.933 607.151 421.382 608.214 420.911ZM378.032 442.446C377.717 438.162 377.442 434.311 377.127 430.381C376.144 430.381 375.514 430.263 374.963 430.381C362.493 432.975 349.786 432.896 337.157 433.329C328.227 433.643 319.257 433.761 310.366 434.193C307.18 434.35 303.993 435.136 300.846 435.726C300.138 435.844 299.508 436.433 298.84 436.787C298.879 437.062 298.879 437.298 298.918 437.573C302.144 438.241 305.37 439.066 308.635 439.498C314.694 440.323 315.441 441.424 312.884 446.729C316.936 447.083 320.792 446.807 324.332 444.607C327.715 442.524 331.492 441.895 335.387 441.66C336.882 441.581 338.377 441.384 339.832 441.384C347.897 441.384 355.962 441.345 364.027 441.502C368.59 441.581 373.114 442.092 378.032 442.446ZM468.594 386.722C459.231 386.526 450.615 386.369 441.685 386.172C441.685 388.766 441.685 391.556 441.685 394.385C441.685 399.926 443.377 404.72 447.311 408.847C453.448 415.37 463.008 413.916 466.47 405.703C466.942 404.563 467.453 403.384 467.532 402.166C468.004 397.058 468.279 391.91 468.594 386.722ZM447.665 414.584C447.822 417.728 447.665 420.479 448.137 423.072C448.452 424.801 449.435 426.609 450.655 427.906C454.943 432.464 461.08 431.089 462.693 425.116C463.48 422.208 463.283 419.064 463.558 415.645C457.854 417.413 452.936 416.313 447.665 414.584Z" fill="black"/>
<path d="M526.17 422.213C527.588 433.958 526.406 445.506 526.997 456.699C523.019 458.039 519.395 459.182 515.811 460.443C511.754 461.901 508.997 464.621 506.909 468.483C502.813 476.05 500.726 484.051 499.19 492.485C496.078 509.826 495.014 527.325 493.951 544.824C493.636 550.263 493.478 555.741 493.242 561.141C487.964 563.151 434.555 561.653 424.078 559.17C424.078 557.712 424.156 556.135 424.078 554.598C423.369 542.184 422.66 529.769 421.872 517.315C421.399 509.747 421.124 502.141 420.218 494.613C419.312 487.086 418.012 479.558 412.931 473.37C411.237 471.321 409.426 469.547 406.944 468.444C401.312 466 395.679 463.754 389.338 464.266C387.605 464.424 385.872 464.305 384.218 464.305C383.115 460.995 380.988 434.076 381.539 429.662C402.257 426.43 423.093 423.159 444.165 419.849C444.362 421.07 444.559 421.898 444.599 422.726C444.874 430.175 451.531 434.786 459.251 434.155C461.653 433.958 463.308 432.421 464.568 430.411C466.459 427.376 467.443 424.105 467.246 420.282C473.982 419.691 480.402 421.149 486.94 420.795C493.36 420.44 499.859 420.952 506.319 421.307C512.896 421.74 519.513 421.11 526.17 422.213Z" fill="white"/>
<path d="M443.745 416.03C438.523 416.932 433.301 417.011 427.687 415.559C428.237 413.636 428.551 411.948 429.218 410.418C430.71 407.043 430.514 403.786 428.551 400.842C425.999 396.957 426.391 393.307 429.022 389.815C431.142 387.028 430.828 384.007 430.357 380.906C430.16 379.572 429.611 378.277 429.375 376.943C428.394 371.527 432.241 366.622 437.816 366.582C441.31 366.582 443.941 365.68 446.297 362.972C449.28 359.597 452.343 359.244 456.308 361.559C458.899 363.05 461.53 362.972 464.239 362.54C465.456 362.344 466.634 361.873 467.851 361.638C472.562 360.657 476.763 363.6 476.881 368.427C476.959 371.763 477.98 374.353 480.218 376.786C482.692 379.454 483.32 382.672 481.592 386.087C479.825 389.54 480.061 392.64 482.809 395.623C484.537 397.507 484.929 400.254 483.555 402.255C480.454 406.925 481.553 411.163 483.83 415.559C483.987 415.873 484.026 416.226 484.223 416.972C478.451 417.403 472.876 416.422 466.712 416.461C467.026 414.695 466.83 413.008 467.615 412.027C471.11 407.396 471.895 402.098 472.17 396.604C472.366 392.523 472.327 388.441 472.366 384.321C472.366 383.693 472.366 383.065 472.209 382.476C471.738 380.789 470.717 380.396 469.146 381.181C468.086 381.731 466.987 382.398 465.809 382.515C459.017 383.3 452.186 383.457 445.394 382.319C443.47 382.005 441.585 381.338 439.465 380.789C439.151 381.338 438.444 381.927 438.444 382.555C438.327 389.108 437.384 395.701 439.347 402.137C439.976 404.217 440.879 406.376 442.174 408.102C443.941 410.496 444.294 412.929 443.745 416.03Z" fill="white"/>
<path d="M608.349 420.687C607.286 421.195 606.223 421.703 605.12 422.211C601.026 424.048 600.553 424.986 601.656 429.403C598.427 430.732 595.002 430.967 591.852 429.677C585.041 426.902 578.269 427.683 571.34 428.856C560.552 430.693 549.725 432.217 538.898 433.898C536.221 434.328 533.544 434.797 530.552 435.344C530.276 430.81 530.04 426.393 529.764 421.703C530.906 421.625 531.851 421.469 532.796 421.469C537.638 421.429 542.56 421.859 547.363 421.351C563.584 419.671 579.883 420.101 596.144 419.866C600.12 419.827 604.097 419.866 608.073 419.866C608.191 420.101 608.27 420.374 608.349 420.687Z" fill="white"/>
<path d="M378.129 442.546C373.215 442.191 368.655 441.677 364.133 441.598C356.074 441.44 348.015 441.479 339.956 441.479C338.462 441.479 336.968 441.677 335.513 441.756C331.621 441.993 327.847 442.625 324.466 444.719C320.928 446.932 317.075 447.169 313.026 446.853C315.621 441.48 314.874 440.373 308.78 439.583C305.517 439.148 302.293 438.319 299.07 437.647C299.03 437.37 299.03 437.133 298.991 436.857C299.659 436.501 300.288 435.948 300.996 435.79C304.141 435.197 307.326 434.407 310.51 434.249C319.434 433.814 328.358 433.696 337.282 433.38C349.902 432.945 362.6 433.024 375.063 430.416C375.652 430.298 376.281 430.416 377.225 430.416C377.539 434.368 377.815 438.24 378.129 442.546Z" fill="white"/>
<path d="M468.335 386.597C467.986 391.746 467.714 396.856 467.287 401.965C467.17 403.175 466.704 404.345 466.238 405.476C462.821 413.628 453.422 415.071 447.325 408.596C443.441 404.462 441.771 399.742 441.771 394.242C441.771 391.434 441.771 388.626 441.771 386.09C450.587 386.246 459.092 386.402 468.335 386.597ZM458.044 390.186C458.277 390.732 458.316 391.2 458.587 391.356C460.102 392.214 462.044 392.526 462.393 394.827C462.432 395.14 464.18 395.569 464.84 395.257C466.51 394.476 466.627 390.576 464.918 389.874C462.704 388.977 460.335 388.743 458.044 390.186ZM447.131 389.562C446.587 389.64 445.461 389.679 444.412 389.991C443.946 390.108 443.325 390.771 443.325 391.161C443.325 391.551 444.024 392.292 444.412 392.292C445.966 392.292 446.665 392.994 447.364 394.398C448.141 395.959 449.966 395.647 450.781 394.008C452.063 391.551 450.665 389.562 447.131 389.562ZM454.121 395.023C452.296 396.622 452.568 398.377 453.578 399.742C454.548 401.068 456.063 400.912 457.578 399.625C456.413 398.104 455.403 396.739 454.121 395.023Z" fill="white"/>
<path d="M447.859 414.314C453.037 416.047 457.831 417.111 463.355 415.378C463.086 418.805 463.278 421.956 462.511 424.87C460.938 430.857 454.955 432.196 450.774 427.667C449.585 426.367 448.664 424.555 448.319 422.822C447.821 420.223 447.974 417.465 447.859 414.314Z" fill="white"/>
<path d="M458.374 390.425C460.714 389.01 463.174 389.239 465.435 390.119C467.14 390.807 467.061 394.632 465.355 395.397C464.681 395.703 462.896 395.244 462.856 394.977C462.46 392.758 460.476 392.452 458.969 391.572C458.652 391.419 458.612 390.96 458.374 390.425Z" fill="black"/>
<path d="M447.125 389.411C450.59 389.411 451.961 391.484 450.743 394.044C449.943 395.71 448.153 396.076 447.392 394.451C446.707 392.987 446.021 392.256 444.498 392.256C444.117 392.256 443.432 391.484 443.432 391.077C443.432 390.63 444.041 389.98 444.498 389.858C445.488 389.533 446.592 389.492 447.125 389.411Z" fill="black"/>
<path d="M454.229 394.945C455.561 396.796 456.65 398.269 457.82 399.909C456.247 401.298 454.673 401.466 453.664 400.036C452.615 398.563 452.333 396.67 454.229 394.945Z" fill="black"/>
<path fill-rule="evenodd" clip-rule="evenodd" d="M278.112 359.265C277.25 361.47 276.94 363.812 277.009 365.811C277.113 378.799 287.483 387.826 299.851 385.965C312.013 384.139 320.867 371.771 318.662 359.575C316.457 347.241 304.985 340.281 292.995 344.002C285.243 346.379 280.971 352.133 278.112 359.265ZM286.897 365.983C286.828 371.633 291.135 375.905 296.44 375.94C303.951 375.974 310.187 368.084 308.499 360.677C307.19 354.924 301.918 351.513 296.303 353.339C289.895 355.406 286.966 359.023 286.897 365.983Z" fill="#0FCB8E"/>
<path fill-rule="evenodd" clip-rule="evenodd" d="M685.216 417.745H688.249C688.249 417.847 688.249 417.898 688.301 418C690.201 417.813 692.097 417.622 693.992 417.431C699.327 416.893 704.649 416.357 709.999 415.905C714.986 415.496 719.871 414.525 724.755 413.299C728.509 412.328 730 410.386 730 406.605C730 404.97 729.691 403.386 729.332 401.802C728.046 396.232 726.966 390.612 726.555 384.889C726.195 380.545 725.681 376.253 724.447 372.012C723.11 367.311 720.642 364.807 714.421 365.012C709.433 365.165 704.446 365.829 699.561 367.158C698.726 367.374 697.893 367.594 697.059 367.814C692.195 369.098 687.341 370.379 682.336 370.99C680.228 371.246 678.069 371.603 676.063 372.216C673.081 373.085 671.385 375.691 672.207 378.501C673.156 381.658 673.406 384.917 673.654 388.17C673.756 389.498 673.858 390.826 674.007 392.145C674.727 398.685 675.858 405.174 677.349 411.613C678.274 415.598 681.102 417.642 685.216 417.745ZM714.04 405.079C715.001 404.974 715.985 404.867 717 404.778C716.391 401.727 715.689 398.754 714.993 395.813C713.803 390.778 712.634 385.835 711.995 380.745C711.463 376.766 711.09 376.609 707.044 377.342C706.668 377.404 706.311 377.52 705.95 377.637C705.698 377.719 705.444 377.801 705.181 377.866C698.579 379.698 691.924 381.426 685.163 382.473C683.246 382.787 682.873 383.468 683.033 385.196C683.129 386.106 683.222 387.016 683.316 387.928C683.893 393.573 684.472 399.24 685.802 404.83L685.81 404.866C686.653 408.286 686.666 408.336 690.167 407.657C696.237 406.506 702.412 405.668 708.641 405.511C710.397 405.476 712.177 405.282 714.04 405.079Z" fill="#0FCB8E"/>
<path fill-rule="evenodd" clip-rule="evenodd" d="M149.284 86.4343C150.782 88.1409 152.287 89.8551 154.86 90C156.161 89.9606 157.276 89.4008 158.451 88.8113C158.522 88.7754 158.594 88.7395 158.666 88.7035C163.768 85.9432 168.996 83.3502 174.307 81.05C176.649 80.0462 178.824 78.6243 180.873 77.1605C183.759 75.0694 184.261 72.8946 182.546 69.7579C179.368 63.8609 176.147 57.964 172.927 52.067C172.475 51.2473 172.05 50.4141 171.625 49.581C170.988 48.3314 170.351 47.0817 169.623 45.8772C168.076 43.2424 165.734 42.4478 162.806 43.3679C160.715 44.0371 158.875 45.0826 157.16 46.3791C153.689 48.9721 149.883 50.8959 146.035 52.778C144.195 53.6562 142.438 54.7018 140.724 55.7892C139.385 56.5838 138.256 57.5876 137.294 58.8004C136.249 60.1387 135.663 61.6443 136.207 63.3591C136.96 65.7848 137.712 68.1686 139.385 70.2179C142.773 74.3166 145.408 78.917 147.583 83.7684C147.651 83.9141 147.716 84.0664 147.783 84.2209C148.003 84.7318 148.233 85.2651 148.586 85.6505C148.821 85.9077 149.052 86.1709 149.284 86.4343ZM155.48 77.0153C155.761 77.649 156.059 78.3188 156.783 78.9174C161.342 76.1989 166.193 73.8568 171.212 72.0167C172.299 71.6403 172.174 70.9293 171.672 70.0928C168.995 65.4087 166.319 60.7246 163.726 55.9986C163.015 54.6603 162.346 54.8276 161.384 55.6222C157.859 58.4657 153.76 60.3121 149.673 62.1529C149.492 62.2344 149.311 62.3159 149.13 62.3975C146.579 63.5685 146.537 63.6103 148.293 65.6596C151.054 68.9218 153.228 72.6022 155.194 76.408C155.297 76.6041 155.388 76.8078 155.48 77.0153Z" fill="#0FCB8E"/>
<path d="M35.0053 576.149C34.9649 574.711 35.4096 573.432 36.1374 572.274C39.4123 567.08 42.1211 561.567 45.1938 556.214C45.679 555.375 46.245 554.576 47.0132 553.936C48.2666 552.938 49.7221 552.738 51.1776 553.337C52.6735 553.976 53.3608 555.255 53.4012 556.853C53.4417 558.331 52.9565 559.729 52.4309 561.088C50.935 565.003 49.3582 568.878 47.1345 572.474C46.2855 573.792 46.1642 574.751 47.3366 576.029C52.1075 581.223 56.3122 586.856 60.7192 592.369C64.0749 596.564 68.0371 600.279 71.312 604.514C72.5653 606.152 73.8995 607.71 75.0316 609.428C76.6084 611.825 76.2041 614.422 74.223 615.98C72.161 617.578 69.3309 617.298 67.3498 615.141C66.1369 613.863 65.1665 612.344 63.994 611.106C54.6546 601.198 46.0833 590.611 36.9056 580.584C35.7735 579.305 34.9245 577.907 35.0053 576.149Z" fill="#0FCB8E"/>
<path d="M489.323 286.62C489.323 283.934 489.242 281.209 489.363 278.524C489.443 276.826 488.84 275.799 487.39 274.773C481.754 270.863 475.635 267.822 469.636 264.584C465.409 262.294 461.424 259.727 457.76 256.607C455.546 254.712 453.131 253.014 450.836 251.276C450.353 250.921 449.87 250.605 449.427 250.249C448.058 249.065 447.656 247.525 448.3 246.103C448.944 244.681 450.715 243.773 452.487 244.049C453.735 244.247 454.942 244.76 456.07 245.313C458.606 246.577 461.021 248.077 463.276 249.815C468.63 254.001 474.628 257.042 480.627 260.082C483.848 261.741 486.988 263.479 489.967 265.532C491.738 266.717 493.59 267.822 495.482 268.889C497.737 270.152 498.944 271.89 498.985 274.496C499.105 281.999 498.501 289.502 497.656 296.966C497.374 299.493 495.321 301.112 493.067 300.994C490.812 300.875 489.041 299.059 488.92 296.492C488.799 293.214 488.88 289.976 488.88 286.699C488.96 286.62 489.121 286.62 489.323 286.62Z" fill="#0FCB8E"/>
<path fill-rule="evenodd" clip-rule="evenodd" d="M354.053 568.106C353.422 575.103 358.528 580.714 365.557 580.745C373.721 580.777 381.191 573.969 381.884 565.868C382.546 558.429 377.125 552.756 369.655 553.008C361.617 553.292 354.778 559.879 354.053 568.106ZM361.712 567.413C360.924 570.691 362.689 572.992 365.936 572.96C369.623 572.929 373.5 569.588 374.257 565.805C374.919 562.464 372.775 560.163 369.434 560.573C366.125 560.983 362.468 564.229 361.712 567.413Z" fill="#0FCB8E"/>
</svg>
