<svg width="69" height="63" viewBox="0 0 69 63" fill="none" xmlns="http://www.w3.org/2000/svg">
<path d="M28.0011 62.2811C9.81577 59.206 -4.34014 37.4155 1.22679 20.3171C6.13099 5.25987 24.0247 1.09793 25.3501 0.806328C42.9522 -3.01099 64.4777 7.11551 67.9769 22.9415C72.1919 41.9486 49.7386 65.9659 28.0011 62.2811Z" fill="#724EFA"/>
<path d="M33.1703 48.0724L25.9863 52.2343C25.5092 52.4994 24.926 52.3403 24.6609 51.8897L15.3827 35.7986C15.2501 35.56 15.2236 35.2684 15.3032 35.0298C15.3297 34.9503 15.3562 34.8708 15.3562 34.7648C15.3562 34.6057 15.4092 34.4732 15.4887 34.3141L29.5916 9.89914C30.2013 8.81227 31.6063 8.44114 32.6932 9.07736L37.6504 11.9404C38.7373 12.5501 39.1084 13.955 38.4722 15.0419L27.2323 34.4997C26.9937 34.8973 26.9937 35.401 27.2323 35.7986L33.568 46.7734C33.78 47.1976 33.621 47.8073 33.1703 48.0724Z" fill="white"/>
<path d="M45.4704 38.9531C49.5698 38.9531 52.893 35.6299 52.893 31.5305C52.893 27.4311 49.5698 24.1079 45.4704 24.1079C41.371 24.1079 38.0479 27.4311 38.0479 31.5305C38.0479 35.6299 41.371 38.9531 45.4704 38.9531Z" fill="white"/>
</svg>
