<svg width="634" height="182" viewBox="0 0 634 182" fill="none" xmlns="http://www.w3.org/2000/svg">
<path d="M394.363 80.2688C390.402 78.4306 388.779 75.3137 388.732 71.2538C388.716 70.1029 388.923 68.952 389.034 67.7852C389.082 67.3057 389.145 66.8102 389.225 66.2827C386.345 66.7782 385.836 66.2028 386.409 63.1658C384.611 62.0629 384.802 60.4005 385.295 58.6583C385.375 58.3706 385.502 57.923 385.693 57.875C386.966 57.5713 386.823 56.0529 387.793 55.5094C388.939 54.87 389.654 54.9659 390.529 56.0049C390.72 56.2287 390.832 56.5164 391.054 56.916C392.009 55.7172 392.502 54.5663 393.791 54.2147C395.079 53.863 396.018 54.3585 396.877 55.2856C397.816 54.4544 398.547 53.4155 399.979 53.6393C401.315 53.847 401.825 55.1418 402.97 55.7012C403.861 55.1577 404.768 54.6622 405.897 54.9659C407.106 55.3016 407.345 56.3885 407.711 57.3316C408.268 57.3316 408.713 57.2996 409.158 57.3316C410.924 57.5074 411.704 58.946 410.781 60.4645C410.447 61.0239 410.24 61.5194 410.383 62.1588C410.431 62.3506 410.399 62.5584 410.399 62.7662C410.431 64.7003 410.256 64.988 408.681 65.6114C408.808 67.4016 408.968 69.1598 409.063 70.9021C409.222 74.019 407.933 76.5924 405.913 78.8462C405.42 79.3897 405.229 79.8692 405.34 80.5885C405.452 81.3237 405.42 82.091 405.468 83.0021C406.072 83.1299 406.708 83.2259 407.313 83.3857C410.161 84.137 413.072 84.2648 415.983 84.4886C422.363 84.9521 428.758 84.9202 435.137 84.7284C439.353 84.6165 443.569 84.2329 447.785 84.0091C448.835 83.9611 449.885 84.073 450.935 84.1689C451.269 84.2009 451.746 84.2968 451.873 84.5206C452.303 85.2718 452.939 85.2079 453.575 85.096C454.816 84.9042 456.057 84.6804 457.282 84.3927C458.284 84.1529 458.778 83.2738 459.414 82.5545C459.796 82.1229 460.257 81.6115 460.766 81.4836C462.373 81.068 463.089 81.6115 463.375 83.2898C463.439 83.6414 463.439 83.9931 463.487 84.4566C463.821 84.4886 464.155 84.5365 464.473 84.5365C465.587 84.5046 466.684 84.4247 467.782 84.4406C468.323 84.4406 468.88 84.5525 469.389 84.7284C472.109 85.7034 472.634 88.8203 470.423 90.7224C469.261 91.7294 467.957 92.3688 466.446 92.7364C462.675 93.6475 458.873 94.3348 455.039 94.8143C454.307 94.9102 453.575 95.134 452.685 95.3258C452.685 96.5566 452.685 97.7554 452.685 98.9542C452.685 99.5137 452.653 100.057 452.621 100.617C452.589 101.24 452.271 101.719 451.682 101.863C450.807 102.071 449.853 102.407 449.041 102.231C447.371 101.863 445.717 101.959 444.094 102.119C435.424 103.03 426.738 103.174 418.02 103.014C416.826 102.998 415.617 103.158 414.233 103.238C414.233 105.06 414.217 106.818 414.233 108.561C414.249 109.264 414.901 109.392 415.379 109.616C418.163 110.91 421.058 111.933 424.081 112.557C428.869 113.548 433.69 114.251 438.558 114.555C440.308 114.667 442.073 114.699 443.823 114.81C445.414 114.906 445.557 115.098 445.605 116.761C445.621 117.208 445.637 117.672 445.669 118.119C445.669 118.215 445.748 118.295 445.828 118.471C446.989 118.487 448.055 118.279 448.739 117.128C448.866 116.92 449.041 116.729 449.232 116.569C449.964 115.929 450.791 115.594 451.73 115.961C452.621 116.313 452.987 117.08 453.082 117.991C453.114 118.295 453.082 118.583 453.082 119.062C453.591 118.998 454.085 118.934 454.562 118.87C456.407 118.615 458.237 118.247 460.082 118.135C462.087 118.007 463.184 119.798 462.214 121.588C461.816 122.307 461.196 122.978 460.543 123.474C458.825 124.785 456.773 125.36 454.673 125.68C452.096 126.079 449.503 126.431 446.926 126.799C446.687 126.831 446.448 126.894 446.162 126.958C446.162 128.397 446.178 129.804 446.162 131.21C446.146 133 445.907 133.4 444.158 133.576C441.66 133.848 439.146 134.023 436.649 134.119C432.019 134.263 427.39 134.199 422.808 133.528C421.026 133.272 419.229 133 417.24 132.713C417.351 133.592 417.447 134.375 417.574 135.142C417.86 136.98 418.147 138.835 418.465 140.673C418.608 141.52 418.831 142.351 418.99 143.182C419.085 143.678 419.165 144.173 419.197 144.669C419.26 145.5 418.895 146.027 418.035 146.155C416.19 146.427 414.361 146.763 412.515 146.923C406.74 147.434 400.95 147.21 395.175 147.114C390.848 147.034 386.552 146.635 382.289 145.852C379.314 145.308 376.355 144.829 373.491 143.838C373.109 143.71 372.743 143.55 372.362 143.406C371.121 142.959 370.612 142.127 370.644 140.753C370.691 139.09 370.421 137.428 370.437 135.766C370.469 132.585 370.453 129.388 370.739 126.239C370.994 123.49 371.487 120.741 372.123 118.039C372.95 114.555 373.937 111.118 375.003 107.698C376.848 101.783 379.886 96.5087 384.055 91.9532C386.568 89.2039 389.463 86.8223 392.438 84.5845C393.886 83.4976 394.491 82.075 394.363 80.2688ZM412.754 108.065C412.849 106.339 412.881 104.788 413.04 103.238C413.167 101.991 413.231 101.943 414.536 101.847C416.588 101.703 418.656 101.624 420.708 101.56C426.038 101.416 431.367 101.352 436.696 101.16C440.355 101.016 444.014 100.696 447.689 100.489C448.771 100.425 449.853 100.473 451.126 100.473C451.189 95.5176 451.11 90.6585 450.712 85.5755C449.741 85.5595 448.851 85.4796 447.976 85.5276C444.508 85.7354 441.055 86.087 437.587 86.1989C430.492 86.4067 423.413 86.4866 416.317 85.9911C413.056 85.7513 409.795 85.6235 406.629 84.6484C405.356 84.2648 405.293 84.3288 404.624 85.5436C404.052 86.5985 403.24 87.2858 402.063 87.4616C400.6 87.6854 399.152 87.6375 397.768 87.0141C396.495 86.4387 395.238 85.7993 394.777 84.3607C393.393 85.5436 392.073 86.6305 390.8 87.7654C388.843 89.5076 386.791 91.154 385.025 93.0881C381.143 97.3398 378.296 102.263 376.466 107.745C374.112 114.842 372.234 122.067 371.996 129.596C371.884 133.224 371.98 136.853 371.98 140.481C371.98 141.232 372.298 141.728 372.982 141.967C373.316 142.095 373.634 142.223 373.968 142.335C378.518 143.902 383.259 144.541 388 145.052C391.086 145.388 394.22 145.42 397.338 145.532C403.431 145.772 409.508 145.724 415.57 145.036C416.238 144.957 416.906 144.749 417.606 144.605C416.699 140.417 416.763 136.213 415.124 132.457C414.042 132.185 413.072 131.961 412.102 131.674C410.463 131.21 408.824 130.699 407.186 130.235C401.952 128.749 397.131 126.511 392.947 122.93C390.418 120.757 388.366 118.279 387.109 115.162C387.014 114.922 386.823 114.699 386.823 114.475C386.823 114.219 386.934 113.835 387.125 113.724C387.316 113.628 387.745 113.724 387.904 113.883C388.223 114.251 388.493 114.699 388.684 115.162C390.179 118.695 392.884 121.204 395.859 123.378C400.345 126.671 405.579 128.365 410.877 129.852C412.802 130.395 414.79 130.731 416.763 131.082C419.388 131.53 422.013 132.105 424.669 132.265C429.14 132.537 433.61 132.601 438.08 132.569C440.26 132.553 442.487 132.537 444.714 131.834C444.619 126.655 444.603 121.524 444.014 116.393C443.696 116.345 443.458 116.265 443.219 116.249C440.419 116.057 437.603 115.945 434.803 115.674C429.14 115.13 423.54 114.235 418.131 112.349C415.315 111.358 412.722 109.935 410.256 108.257C409.986 108.081 409.715 107.554 409.795 107.314C409.986 106.722 410.495 106.914 410.924 107.122C411.513 107.442 412.086 107.73 412.754 108.065ZM391.325 63.965C390.959 65.8511 390.561 67.6413 390.275 69.4635C389.813 72.3567 390.513 74.9621 392.486 77.1839C392.82 77.5515 393.202 77.9191 393.632 78.1429C396.861 79.8212 400.186 79.8692 403.511 78.4946C404.131 78.2388 404.752 77.8072 405.197 77.2958C407.568 74.5145 407.965 71.2378 407.408 67.7692C407.265 66.8581 406.899 65.979 406.613 65.0199C405.022 66.1228 404.863 66.0749 403.988 64.5564C403.845 64.3166 403.638 64.1408 403.384 63.8531C402.015 65.8192 400.918 64.2527 399.868 63.6453C399.025 64.0609 398.627 65.1958 397.609 64.8441C396.829 64.5724 396.145 64.0609 395.413 63.6453C393.472 65.1638 393.377 65.1638 391.325 63.965ZM409.922 59.0579C409.429 58.93 408.983 58.7382 408.538 58.7382C407.043 58.7222 406.947 58.6902 406.39 57.3955C405.802 56.0049 405.42 55.861 404.147 56.5643C403.129 57.1398 402.556 57.1078 401.681 56.3725C401.379 56.1168 401.125 55.7971 400.822 55.5094C399.868 54.5823 399.359 54.5983 398.404 55.5254C397.211 56.7082 396.686 56.7562 395.525 55.6213C395.047 55.1577 394.634 55.1098 394.045 55.3336C393.393 55.5893 392.995 56.0209 392.677 56.6603C391.977 58.0828 390.625 58.1947 389.861 56.9639C389.813 56.884 389.75 56.7881 389.686 56.7242C389.113 56.1008 388.223 56.1647 388.048 56.948C387.873 57.7472 387.411 58.0988 386.791 58.4984C385.789 59.1538 385.789 61.1838 386.807 61.7272C387.634 62.1588 387.682 62.7502 387.586 63.4855C387.523 64.0129 387.411 64.5404 387.332 65.0359C388.191 65.3396 388.509 64.94 388.732 64.3806C388.954 63.8211 389.145 63.2297 389.479 62.7502C390.259 61.6793 391.229 61.6153 392.152 62.5424C392.502 62.8941 392.725 63.3736 392.963 63.7252C395.079 62.2067 395.095 61.6473 397.768 63.5174C399.041 61.967 400.44 62.0309 401.713 63.2137C402.429 62.958 403.018 62.5584 403.527 62.6383C404.163 62.7502 404.72 63.2617 405.309 63.5974C406.502 62.6543 406.486 62.6703 407.79 63.6293C408.077 63.8371 408.474 63.917 408.872 64.0769C409.174 63.1178 408.952 62.3346 408.952 61.5514C408.999 60.8161 409.508 60.0968 409.922 59.0579ZM452.669 93.7114C453.512 93.5516 454.196 93.3758 454.88 93.3118C458.73 92.8643 462.516 92.129 466.286 91.2339C467.559 90.9302 468.609 90.3228 469.58 89.4916C470.343 88.8523 470.391 88.0051 470.2 87.142C470.025 86.3108 469.261 86.151 468.577 86.0071C468.196 85.9112 467.782 85.9432 467.368 85.9432C466.111 85.9751 464.855 86.055 463.598 86.071C462.198 86.087 462.023 85.8952 461.975 84.5365C461.959 84.2328 462.023 83.9132 461.943 83.6255C461.848 83.3218 461.673 82.8742 461.466 82.8263C461.228 82.7783 460.893 83.098 460.623 83.2738C460.543 83.3218 460.512 83.4336 460.448 83.5136C459.525 85.0321 458.205 85.8952 456.407 86.087C455.087 86.2149 453.766 86.4387 452.414 86.6145C452.51 88.9641 452.589 91.2659 452.669 93.7114ZM446.051 125.248C449.916 125.2 453.464 124.545 456.932 123.586C458.014 123.282 459.048 122.659 459.987 122.019C460.718 121.524 461.339 120.805 460.83 119.686C460.193 119.686 459.589 119.622 459.016 119.702C457.584 119.893 456.153 120.149 454.705 120.357C454.164 120.437 453.607 120.533 453.066 120.533C451.698 120.517 451.396 120.149 451.603 118.775C451.682 118.215 451.857 117.592 451.221 117.304C450.616 117.032 450.219 117.544 449.853 117.975C449.789 118.055 449.726 118.135 449.678 118.215C449.185 119.078 448.389 119.446 447.467 119.622C446.973 119.718 446.496 119.829 446.051 119.925C446.051 121.732 446.051 123.426 446.051 125.248ZM396.066 80.8123C395.954 81.4836 395.843 81.9152 395.827 82.3627C395.795 83.4177 396.081 84.3607 397.02 84.9681C398.325 85.8153 399.74 86.1989 401.315 86.071C402.302 85.9911 402.954 85.5276 403.463 84.6644C404.322 83.2418 403.972 81.7713 403.909 80.077C401.315 81.036 398.754 81.2918 396.066 80.8123Z" fill="black"/>
<path d="M412.718 108.128C412.049 107.792 411.475 107.504 410.886 107.216C410.456 107.007 409.946 106.815 409.755 107.408C409.675 107.648 409.962 108.176 410.217 108.352C412.686 110.033 415.282 111.457 418.101 112.45C423.517 114.354 429.123 115.235 434.793 115.779C437.597 116.051 440.416 116.163 443.219 116.355C443.458 116.371 443.697 116.435 444.015 116.499C444.605 121.653 444.637 126.791 444.716 131.961C442.486 132.665 440.256 132.665 438.074 132.697C433.599 132.729 429.107 132.649 424.647 132.393C422.003 132.233 419.359 131.673 416.731 131.209C414.756 130.872 412.765 130.52 410.838 129.976C405.55 128.488 400.294 126.791 395.802 123.494C392.824 121.317 390.116 118.804 388.619 115.267C388.428 114.802 388.157 114.354 387.839 113.986C387.695 113.81 387.249 113.73 387.058 113.826C386.867 113.922 386.756 114.306 386.756 114.578C386.756 114.802 386.947 115.042 387.042 115.267C388.301 118.388 390.355 120.869 392.888 123.046C397.061 126.647 401.903 128.872 407.143 130.36C408.783 130.824 410.424 131.337 412.065 131.801C413.036 132.073 414.008 132.297 415.091 132.585C416.731 136.347 416.668 140.556 417.576 144.75C416.875 144.91 416.222 145.102 415.537 145.182C409.468 145.886 403.384 145.918 397.284 145.678C394.162 145.55 391.04 145.534 387.934 145.198C383.188 144.686 378.441 144.045 373.886 142.477C373.552 142.365 373.233 142.221 372.899 142.109C372.198 141.853 371.879 141.372 371.895 140.62C371.911 136.987 371.8 133.353 371.911 129.72C372.15 122.181 374.029 114.946 376.387 107.84C378.218 102.35 381.069 97.4198 384.956 93.1622C386.708 91.2254 388.778 89.5768 390.737 87.8322C392.012 86.6957 393.334 85.6073 394.719 84.4229C395.181 85.8634 396.424 86.5037 397.714 87.0799C399.084 87.7041 400.549 87.7521 402.014 87.528C403.177 87.352 404.005 86.6477 404.579 85.6073C405.248 84.3748 405.311 84.3108 406.585 84.711C409.755 85.6873 413.02 85.8154 416.285 86.0555C423.373 86.5677 430.477 86.4876 437.581 86.2636C441.053 86.1675 444.509 85.7994 447.981 85.5913C448.857 85.5433 449.749 85.6073 450.721 85.6393C451.119 90.7293 451.183 95.6111 451.135 100.557C449.877 100.557 448.778 100.509 447.695 100.573C444.031 100.781 440.368 101.117 436.689 101.245C431.353 101.453 426.017 101.501 420.681 101.645C418.627 101.693 416.556 101.789 414.501 101.934C413.211 102.03 413.148 102.078 413.004 103.326C412.845 104.847 412.829 106.399 412.718 108.128Z" fill="white"/>
<path d="M391.341 63.9593C393.403 65.1541 393.483 65.1382 395.432 63.6406C396.167 64.0389 396.855 64.5647 397.638 64.8355C398.644 65.186 399.044 64.0548 399.907 63.6406C400.978 64.246 402.064 65.8073 403.439 63.8477C403.695 64.1345 403.918 64.3257 404.046 64.5487C404.925 66.0622 405.085 66.11 406.683 65.0107C406.971 65.9507 407.338 66.8269 407.482 67.751C408.041 71.2081 407.642 74.4741 405.261 77.2462C404.813 77.756 404.19 78.1861 403.567 78.441C400.211 79.8111 396.887 79.7474 393.642 78.0905C393.211 77.8675 392.827 77.501 392.492 77.1346C390.51 74.9361 389.823 72.3392 390.27 69.4397C390.574 67.6394 390.989 65.8392 391.341 63.9593ZM394.186 67.6235C394.186 67.6076 394.234 67.7988 394.25 67.9899C394.298 68.5316 394.473 69.0892 395.113 68.9936C395.528 68.9299 396.04 68.5794 396.247 68.197C396.871 67.0818 396.391 66.2534 395.129 66.0941C394.777 66.0463 394.425 66.0144 394.074 66.0304C393.514 66.0622 392.699 65.8232 392.667 66.6835C392.667 66.9225 393.467 67.1934 394.186 67.6235ZM403.551 67.6394C403.631 68.1652 403.647 68.6272 403.774 69.0414C403.982 69.6787 404.605 69.8061 405.069 69.3282C405.5 68.8821 405.836 67.512 405.452 67.0818C405.101 66.6835 404.494 66.4446 403.95 66.3171C403.423 66.1897 402.847 66.2534 402.304 66.349C402.048 66.3968 401.825 66.6995 401.281 67.1137C402.24 67.3367 402.847 67.4801 403.551 67.6394ZM398.676 68.5316C398.181 69.838 398.037 71.001 398.149 72.1481C398.165 72.403 398.916 72.6897 399.364 72.7694C399.619 72.8172 400.099 72.5782 400.211 72.3392C400.466 71.7657 399.891 71.6064 399.539 71.3515C399.459 71.3037 399.428 71.1922 399.38 71.1125C399.316 70.3319 399.827 69.4397 398.676 68.5316Z" fill="white"/>
<path d="M409.843 59.0316C409.431 60.0649 408.924 60.7803 408.924 61.4957C408.924 62.2747 409.146 63.0537 408.845 64.0076C408.433 63.8486 408.052 63.7691 407.767 63.5624C406.468 62.6086 406.484 62.5927 405.295 63.5306C404.693 63.1968 404.138 62.6722 403.52 62.5768C403.013 62.4973 402.427 62.8947 401.714 63.1491C400.446 61.9727 399.036 61.9091 397.784 63.4511C395.138 61.5911 395.106 62.1475 392.999 63.6578C392.761 63.2922 392.539 62.8311 392.191 62.4814C391.272 61.5593 390.305 61.6229 389.529 62.6881C389.18 63.165 389.006 63.7532 388.784 64.3096C388.546 64.8819 388.245 65.2794 387.389 64.9614C387.469 64.4527 387.58 63.944 387.643 63.4193C387.738 62.6881 387.691 62.0998 386.867 61.6706C385.852 61.1301 385.852 59.1111 386.851 58.4593C387.469 58.0618 387.928 57.728 388.103 56.9172C388.277 56.1382 389.148 56.0746 389.735 56.6946C389.798 56.7741 389.861 56.8536 389.909 56.9331C390.685 58.1731 392.016 58.0618 392.714 56.631C393.015 56.011 393.427 55.5818 394.076 55.3115C394.663 55.073 395.075 55.1366 395.55 55.5977C396.707 56.7105 397.214 56.6787 398.418 55.5023C399.353 54.5802 399.876 54.5643 400.827 55.4864C401.112 55.7725 401.365 56.0905 401.682 56.3449C402.554 57.0762 403.124 57.108 404.138 56.5356C405.406 55.8361 405.786 55.9792 406.373 57.3623C406.927 58.65 407.022 58.6818 408.512 58.6977C408.908 58.7136 409.352 58.9044 409.843 59.0316Z" fill="white"/>
<path d="M446.163 125.27C446.163 123.476 446.163 121.807 446.163 120.044C446.608 119.95 447.101 119.84 447.578 119.745C448.5 119.572 449.295 119.21 449.787 118.36C449.835 118.281 449.899 118.202 449.962 118.124C450.312 117.699 450.709 117.195 451.329 117.463C451.965 117.73 451.79 118.344 451.711 118.911C451.504 120.249 451.822 120.627 453.173 120.642C453.714 120.642 454.27 120.548 454.81 120.469C456.241 120.249 457.672 119.997 459.118 119.824C459.691 119.745 460.295 119.808 460.93 119.808C461.439 120.91 460.835 121.618 460.088 122.106C459.134 122.736 458.117 123.35 457.036 123.649C453.571 124.578 450.026 125.223 446.163 125.27Z" fill="white"/>
<path d="M396.081 80.8361C398.802 81.2957 401.395 81.058 404.02 80.123C404.084 81.787 404.438 83.2448 403.569 84.671C403.037 85.5268 402.393 85.9705 401.395 86.0656C399.817 86.2082 398.368 85.8279 397.047 84.9721C396.097 84.37 395.807 83.435 395.839 82.3891C395.855 81.9454 395.984 81.5017 396.081 80.8361Z" fill="white"/>
<path d="M394.248 67.5666C393.539 67.1535 392.751 66.8934 392.751 66.664C392.782 65.8378 393.586 66.0673 394.138 66.0367C394.484 66.0214 394.831 66.052 395.178 66.0979C396.423 66.2356 396.896 67.0464 396.281 68.1173C396.076 68.4692 395.572 68.8058 395.162 68.8823C394.548 68.9894 394.374 68.4386 394.311 67.9185C394.295 67.7349 394.248 67.5513 394.248 67.5666Z" fill="black"/>
<path d="M403.532 67.649C402.839 67.4912 402.241 67.3492 401.297 67.1282C401.832 66.718 402.037 66.4182 402.304 66.3708C402.839 66.2761 403.406 66.213 403.925 66.3392C404.46 66.4655 405.058 66.718 405.404 67.0967C405.782 67.5227 405.452 68.8956 405.027 69.3217C404.57 69.7951 403.957 69.6846 403.752 69.0376C403.626 68.6273 403.61 68.1697 403.532 67.649Z" fill="black"/>
<path d="M398.54 68.4189C399.682 69.3321 399.174 70.2453 399.222 71.0463C399.27 71.1264 399.301 71.2386 399.381 71.2866C399.729 71.543 400.3 71.7032 400.047 72.2799C399.936 72.5202 399.46 72.7605 399.206 72.7125C398.762 72.6163 398.033 72.344 398.001 72.0877C397.906 70.9021 398.048 69.7326 398.54 68.4189Z" fill="black"/>
<path d="M518.534 97.3593C517.116 97.2038 515.974 97.0484 514.833 96.9447C509.54 96.4782 504.247 96.4091 498.937 96.9101C497.605 97.0311 496.377 97.4112 495.2 98.0678C493.626 98.9662 491.879 99.1563 490.132 98.9835C487.763 98.7589 487.382 98.0505 488.385 95.9771C486.742 95.597 485.082 95.2687 483.456 94.7849C482.937 94.6294 482.366 94.1975 482.124 93.731C481.64 92.7979 482.055 91.8131 483.11 91.5367C484.891 91.0702 486.725 90.5691 488.558 90.4654C493.523 90.1717 498.504 90.1717 503.486 89.9125C507.516 89.7052 511.581 89.4979 515.577 88.945C523.205 87.891 530.798 86.5779 538.53 85.3511C538.426 83.5197 538.859 81.8783 539.447 80.2196C539.654 79.6148 539.447 78.6473 539.066 78.0771C537.579 75.7964 537.855 73.6194 539.308 71.5115C539.896 70.6476 539.879 69.7837 539.706 68.8506C539.62 68.315 539.429 67.7967 539.308 67.2611C538.565 63.9091 540.675 60.9546 544.117 60.6436C545.414 60.5226 546.452 60.1944 547.421 59.2095C549.202 57.3953 551.14 57.2225 553.406 58.4493C554.236 58.8985 555.049 58.9849 555.931 58.7603C556.519 58.6048 557.09 58.432 557.678 58.3283C560.653 57.81 563.334 59.8488 563.49 62.8552C563.542 63.8919 563.818 64.7039 564.493 65.4987C565.998 67.2438 566.482 69.248 565.41 71.4251C564.943 72.3754 565.064 73.0838 565.721 73.9477C566.897 75.4508 567.036 77.2477 566.084 78.8719C565.341 80.1504 565.479 81.239 566.05 82.4139C566.361 83.0532 566.672 83.6752 566.966 84.2454C570.011 84.4009 572.951 84.6255 575.892 84.66C580.752 84.7291 585.63 84.7637 590.491 84.6773C598.638 84.5391 606.785 84.2799 614.932 84.1071C616.679 84.0726 618.426 84.159 620.19 84.1762C620.986 84.1935 621.764 84.2626 622.023 85.1956C622.231 85.9213 621.833 86.647 620.899 87.1653C619.982 87.6491 619.031 88.0465 618.114 88.4785C618.633 90.6209 618.339 91.1565 616.281 91.7094C614.776 92.1068 613.167 92.3142 611.766 91.6922C608.999 90.4654 606.248 90.8283 603.412 91.2948C598.568 92.1068 593.691 92.8152 588.83 93.5755C587.706 93.7483 586.581 93.9729 585.353 94.1975C585.353 97.3939 585.353 100.487 585.353 103.597C584.16 103.787 583.087 103.96 582.015 104.15C581.427 104.253 580.856 104.392 580.285 104.564C578.227 105.204 576.895 106.534 575.978 108.504C574.871 110.888 573.955 113.307 573.47 115.916C572.017 123.708 571.308 131.587 570.945 139.5C570.824 141.902 570.806 144.286 570.755 146.688C570.72 148.9 570.08 149.625 567.779 149.625C563.351 149.643 558.906 149.66 554.478 149.556C550.223 149.453 545.95 149.211 541.695 148.969C540.554 148.9 539.412 148.675 538.288 148.45C537.077 148.191 536.887 147.915 536.835 146.653C536.731 143.82 536.679 140.969 536.523 138.153C536.264 133.695 535.953 129.22 535.641 124.762C535.503 122.862 535.434 120.944 535.192 119.061C534.967 117.281 534.673 115.484 534.171 113.773C533.462 111.234 531.715 109.523 529.414 108.262C527.166 107.018 524.813 106.689 522.305 106.741C519.261 106.793 519.244 106.672 519.071 103.649C518.984 101.575 518.742 99.5191 518.534 97.3593ZM583.399 86.6988C580.476 86.215 577.57 86.4915 574.698 86.3187C571.862 86.1632 569.008 85.9213 566.188 86.0941C563.317 86.2496 560.497 85.6276 557.54 85.8695C557.626 87.5454 557.194 88.9968 556.363 90.3099C555.827 91.1738 555.083 91.8649 554.028 91.9513C550.621 92.2278 547.715 90.2063 547.594 86.9407C547.576 86.5779 547.49 86.2323 547.403 85.6794C538.149 87.1308 528.999 88.5648 519.901 89.9816C519.659 91.9341 520.593 103.718 521.077 105.169C521.804 105.169 522.582 105.221 523.326 105.152C526.111 104.927 528.584 105.912 531.058 106.983C532.147 107.45 532.943 108.227 533.687 109.143C535.918 111.856 536.489 115.156 536.887 118.456C537.285 121.756 537.406 125.091 537.613 128.408C537.959 133.85 538.27 139.293 538.582 144.753C538.616 145.427 538.582 146.118 538.582 146.757C543.183 147.846 566.638 148.502 568.956 147.621C569.059 145.254 569.129 142.852 569.267 140.468C569.734 132.797 570.201 125.125 571.568 117.523C572.225 113.825 573.159 110.318 574.958 107C575.875 105.307 577.085 104.115 578.867 103.476C580.441 102.923 582.05 102.405 583.779 101.834C583.503 96.9274 584.022 91.8477 583.399 86.6988ZM547.23 83.9516C547.49 82.5867 547.317 81.4981 546.504 80.4442C545.933 79.684 545.535 78.7337 545.259 77.8179C544.394 74.9843 544.809 72.0816 544.861 69.1962C544.861 68.937 545.155 68.6606 545.31 68.4187C546.244 68.6606 547.075 68.9543 547.922 69.0925C550.915 69.6109 553.907 69.5245 556.917 69.1789C557.418 69.1271 557.903 68.8161 558.387 68.5915C559.062 68.2459 559.529 68.4187 559.736 69.1616C559.805 69.4208 559.805 69.6973 559.805 69.9737C559.788 71.7706 559.805 73.5848 559.719 75.3817C559.615 77.8006 559.269 80.1505 557.713 82.172C557.384 82.6039 557.47 83.3642 557.315 84.1244C560.03 84.1071 562.487 84.5391 565.029 84.349C564.943 84.0207 564.925 83.848 564.856 83.727C563.853 81.7919 563.369 79.9258 564.735 77.8698C565.323 76.9886 565.168 75.7791 564.407 74.9498C563.196 73.6367 563.092 72.2717 563.87 70.7512C564.631 69.248 564.355 67.8485 563.265 66.6563C562.279 65.5851 561.847 64.4448 561.795 62.9761C561.743 60.8682 559.892 59.5724 557.816 59.987C557.28 60.0907 556.761 60.298 556.225 60.3844C555.031 60.5745 553.873 60.609 552.731 59.9525C550.984 58.9331 549.635 59.0713 548.32 60.5745C547.282 61.7667 546.123 62.1641 544.584 62.1641C542.128 62.1641 540.45 64.3238 540.865 66.7255C540.969 67.3129 541.211 67.8831 541.297 68.4705C541.505 69.8182 541.626 71.1659 540.709 72.3926C539.55 73.9304 539.377 75.5372 540.502 77.2478C541.367 78.5609 541.453 79.9777 540.796 81.4636C540.502 82.1374 540.363 82.8804 540.121 83.727C542.629 84.3836 544.913 84.3663 547.23 83.9516ZM619.585 86.1114C619.55 85.9904 619.515 85.8522 619.481 85.7313C617.734 85.7313 615.987 85.714 614.24 85.7313C607.096 85.8349 599.935 85.6449 592.808 86.3878C590.698 86.6124 588.553 86.4224 586.409 86.4397C585.993 86.4397 585.578 86.5088 585.077 86.5433C585.198 88.6167 585.319 90.5691 585.423 92.5733C586.737 92.3487 587.913 92.1241 589.09 91.9341C593.846 91.1911 598.603 90.5173 603.342 89.7052C606.387 89.1869 609.362 88.8413 612.354 90.068C613.738 90.6382 615.243 90.5173 616.661 89.9471C616.177 87.9947 616.385 87.58 618.183 86.7679C618.65 86.5606 619.117 86.3187 619.585 86.1114ZM518.379 95.5797C518.24 93.6964 518.119 92.0032 517.981 90.2754C517.548 90.2754 517.272 90.2235 517.03 90.2754C511.546 91.4157 505.959 91.3811 500.407 91.5712C496.48 91.7094 492.537 91.7613 488.628 91.9513C487.226 92.0205 485.825 92.366 484.442 92.6252C484.13 92.677 483.854 92.9362 483.559 93.0917C483.577 93.2126 483.577 93.3163 483.594 93.4372C485.012 93.731 486.431 94.0938 487.866 94.2839C490.53 94.6467 490.859 95.1305 489.735 97.463C491.516 97.6185 493.211 97.4976 494.768 96.53C496.256 95.6143 497.916 95.3378 499.629 95.2342C500.286 95.1996 500.943 95.1132 501.583 95.1132C505.129 95.1132 508.675 95.0959 512.221 95.165C514.227 95.1996 516.217 95.4242 518.379 95.5797ZM558.197 71.0795C554.08 70.9931 550.292 70.924 546.366 70.8376C546.366 71.978 546.366 73.2047 546.366 74.4487C546.366 76.8849 547.109 78.9928 548.839 80.807C551.537 83.6752 555.741 83.0359 557.263 79.4248C557.47 78.9237 557.695 78.4054 557.73 77.8698C557.937 75.6236 558.058 73.3602 558.197 71.0795ZM548.995 83.3296C549.064 84.7119 548.995 85.9213 549.202 87.0617C549.341 87.8219 549.773 88.6167 550.309 89.1869C552.195 91.1911 554.893 90.5864 555.602 87.9601C555.948 86.6816 555.862 85.2993 555.983 83.7961C553.475 84.5736 551.313 84.0898 548.995 83.3296Z" fill="black"/>
<path d="M583.512 86.6842C584.135 91.8482 583.616 96.9255 583.875 101.847C582.126 102.436 580.533 102.938 578.957 103.493C577.173 104.134 575.961 105.33 575.043 107.028C573.242 110.355 572.324 113.873 571.649 117.581C570.281 125.206 569.813 132.9 569.346 140.594C569.207 142.985 569.138 145.394 569.034 147.768C566.713 148.651 543.231 147.993 538.624 146.901C538.624 146.26 538.659 145.567 538.624 144.891C538.312 139.433 538.001 133.974 537.654 128.498C537.446 125.171 537.325 121.827 536.927 118.517C536.529 115.207 535.957 111.897 533.723 109.177C532.978 108.276 532.182 107.496 531.091 107.011C528.614 105.936 526.138 104.949 523.35 105.174C522.588 105.243 521.826 105.191 521.098 105.191C520.613 103.736 519.678 91.9002 519.921 89.9594C529.03 88.5384 538.191 87.1001 547.456 85.6445C547.543 86.1817 547.629 86.5456 547.647 86.9095C547.768 90.1846 550.695 92.2121 554.089 91.9348C555.145 91.8482 555.873 91.1724 556.427 90.2886C557.258 88.9543 557.691 87.516 557.604 85.8351C560.566 85.5752 563.388 86.2164 566.263 86.0604C569.086 85.9045 571.943 86.1297 574.784 86.2857C577.676 86.4763 580.585 86.199 583.512 86.6842Z" fill="white"/>
<path d="M547.271 83.9651C544.975 84.3619 542.679 84.3965 540.211 83.758C540.452 82.9126 540.59 82.1706 540.884 81.4977C541.54 80.0138 541.453 78.5816 540.59 77.2875C539.468 75.5793 539.641 73.9746 540.797 72.4389C541.73 71.2138 541.592 69.8852 541.384 68.5221C541.298 67.9355 541.056 67.366 540.953 66.7794C540.521 64.3982 542.213 62.2414 544.664 62.2241C546.201 62.2241 547.357 61.8273 548.393 60.6367C549.705 59.1528 551.051 58.9975 552.795 60.0155C553.934 60.6712 555.091 60.6367 556.282 60.4469C556.817 60.3606 557.335 60.1536 557.87 60.05C559.941 59.6187 561.788 60.9128 561.84 63.0351C561.875 64.5018 562.323 65.6406 563.307 66.7104C564.395 67.8837 564.671 69.2986 563.912 70.7997C563.135 72.3182 563.238 73.6813 564.447 74.9926C565.206 75.8209 565.379 77.0287 564.775 77.9087C563.411 79.962 563.894 81.8255 564.895 83.758C564.965 83.8961 564.982 84.0514 565.068 84.3792C562.531 84.569 560.079 84.1376 557.369 84.1549C557.507 83.3784 557.421 82.6365 557.766 82.2051C559.303 80.1691 559.648 77.8397 559.769 75.424C559.855 73.6295 559.838 71.835 559.855 70.0233C559.855 69.7472 559.855 69.4711 559.786 69.2123C559.579 68.4703 559.13 68.2978 558.439 68.6429C557.973 68.8845 557.49 69.1778 556.972 69.2296C553.986 69.5747 550.982 69.6437 547.996 69.1433C547.15 69.0052 546.321 68.7119 545.389 68.4703C545.251 68.7119 544.94 68.9707 544.94 69.2468C544.889 72.1283 544.474 75.0271 545.337 77.8569C545.614 78.7714 546.011 79.7204 546.58 80.4796C547.357 81.5322 547.512 82.602 547.271 83.9651Z" fill="white"/>
<path d="M619.644 86.0131C619.177 86.2365 618.709 86.4599 618.225 86.6833C616.424 87.491 616.217 87.9035 616.701 89.8454C615.282 90.4297 613.776 90.5328 612.391 89.9657C609.396 88.7455 606.419 89.0893 603.372 89.6048C598.629 90.4125 593.869 91.0828 589.108 91.8217C587.931 92.0108 586.754 92.217 585.438 92.4576C585.317 90.4641 585.213 88.5221 585.092 86.4599C585.594 86.4255 586.01 86.3568 586.425 86.3568C588.554 86.3396 590.718 86.5286 592.83 86.3052C599.962 85.5663 607.129 85.7553 614.278 85.6522C616.026 85.635 617.775 85.6522 619.523 85.6522C619.575 85.7553 619.61 85.8756 619.644 86.0131Z" fill="white"/>
<path d="M518.422 95.623C516.261 95.4666 514.256 95.2408 512.268 95.2061C508.725 95.1366 505.181 95.1539 501.638 95.1539C500.981 95.1539 500.324 95.2408 499.684 95.2756C497.973 95.3798 496.314 95.6577 494.827 96.5785C493.272 97.5513 491.578 97.6555 489.797 97.5166C490.938 95.154 490.61 94.6675 487.93 94.3201C486.496 94.129 485.078 93.7642 483.661 93.4689C483.644 93.3473 483.644 93.243 483.626 93.1214C483.92 92.9651 484.197 92.7219 484.508 92.6524C485.891 92.3918 487.291 92.0444 488.691 91.9749C492.615 91.7838 496.539 91.7316 500.462 91.5927C506.011 91.4016 511.594 91.4363 517.073 90.2898C517.333 90.2376 517.609 90.2898 518.024 90.2898C518.162 92.027 518.283 93.7294 518.422 95.623Z" fill="white"/>
<path d="M558.083 71.0237C557.929 73.2875 557.81 75.5341 557.622 77.7807C557.571 78.3124 557.366 78.8269 557.161 79.3242C555.658 82.9085 551.526 83.543 548.845 80.6962C547.138 78.8783 546.403 76.8032 546.403 74.3851C546.403 73.1503 546.403 71.9155 546.403 70.8008C550.279 70.8694 554.019 70.938 558.083 71.0237ZM553.558 72.6015C553.66 72.8416 553.677 73.0474 553.797 73.116C554.463 73.4933 555.317 73.6305 555.47 74.6423C555.487 74.7795 556.256 74.9682 556.546 74.831C557.28 74.488 557.332 72.773 556.58 72.4643C555.607 72.0699 554.565 71.967 553.558 72.6015ZM548.76 72.3271C548.521 72.3614 548.025 72.3786 547.564 72.5158C547.36 72.5672 547.086 72.8587 547.086 73.0302C547.086 73.2017 547.394 73.5276 547.564 73.5276C548.247 73.5276 548.555 73.8363 548.862 74.4537C549.204 75.1397 550.006 75.0025 550.365 74.2822C550.928 73.2017 550.314 72.3271 548.76 72.3271ZM551.833 74.7281C551.031 75.4312 551.15 76.203 551.594 76.8032C552.021 77.3863 552.687 77.3177 553.353 76.7517C552.841 76.0829 552.397 75.4827 551.833 74.7281Z" fill="white"/>
<path d="M549.08 83.2109C551.357 83.9729 553.465 84.4405 555.893 83.6785C555.775 85.1851 555.859 86.5706 555.522 87.8521C554.831 90.4844 552.2 91.0731 550.362 89.0816C549.839 88.5101 549.434 87.7135 549.282 86.9515C549.063 85.8086 549.131 84.5963 549.08 83.2109Z" fill="white"/>
<path d="M553.703 72.7065C554.732 72.0843 555.813 72.1852 556.808 72.572C557.558 72.8747 557.523 74.5564 556.773 74.8927C556.476 75.0272 555.691 74.8254 555.674 74.7077C555.5 73.7323 554.627 73.5978 553.965 73.211C553.825 73.1437 553.808 72.9419 553.703 72.7065Z" fill="black"/>
<path d="M548.757 72.2607C550.281 72.2607 550.884 73.172 550.348 74.2978C549.996 75.0304 549.209 75.1912 548.874 74.4765C548.573 73.8332 548.272 73.5116 547.602 73.5116C547.435 73.5116 547.133 73.172 547.133 72.9934C547.133 72.7968 547.401 72.5109 547.602 72.4573C548.037 72.3143 548.523 72.2965 548.757 72.2607Z" fill="black"/>
<path d="M551.881 74.6943C552.466 75.5083 552.945 76.1557 553.46 76.8771C552.768 77.4875 552.076 77.5615 551.633 76.9326C551.171 76.2852 551.047 75.4528 551.881 74.6943Z" fill="black"/>
<path d="M32.95 44.8866C33.7002 43.3685 34.3458 41.9201 35.1135 40.5242C36.0033 38.9188 37.1374 37.5053 38.6728 36.4409C39.7546 35.6905 40.9933 35.4811 41.5866 35.9697C42.2147 36.4932 42.1798 37.8194 41.4819 39.0409C41.2725 39.4248 41.0631 39.7913 40.8363 40.1926C42.8603 40.5765 43.2964 41.2571 42.616 43.1242C42.3543 43.8745 41.8308 44.5551 41.3074 45.1658C40.8014 45.7417 40.1384 46.1779 39.3707 46.8061C40.9236 47.6437 40.5921 48.6035 40.1733 49.6504C37.8004 55.5485 36.0033 61.6211 34.5203 67.7983C32.9325 74.3595 32.4091 81.0079 33.7351 87.6389C34.8692 93.3275 37.4864 98.3356 42.267 101.948C44.5876 103.71 47.606 104.653 50.293 104.443C50.2057 103.099 50.1534 101.738 50.0138 100.395C49.9789 100.046 49.8044 99.6269 49.5427 99.4001C47.2222 97.3061 46.6987 94.5141 46.5068 91.6174C46.4196 90.4134 46.5766 89.1919 46.5941 87.9879C46.6115 87.1677 47.0477 86.2429 46.0532 85.5972C45.9136 85.51 45.9485 85.0737 45.9834 84.812C46.4545 81.2173 48.269 78.6347 51.7062 77.3783C55.0387 76.1568 58.1444 76.785 60.8488 79.0361C62.4889 80.4146 63.6753 82.0898 63.937 84.3234C64.1464 86.0335 64.0941 86.2778 62.3667 87.063C62.3667 88.1275 62.3667 89.2792 62.3667 90.4308C62.3667 93.1181 61.8782 95.6833 60.5347 98.0564C60.2556 98.5276 60.0288 99.1034 59.61 99.4001C58.4934 100.185 58.3538 101.232 58.4585 102.454C58.5108 102.995 58.4585 103.553 58.4585 104.251C59.2611 104.356 59.9939 104.495 60.7441 104.548C64.3383 104.775 67.8104 105.56 71.2127 106.816C75.5223 108.404 79.5178 110.603 83.461 112.941C87.0552 115.07 90.6843 117.269 94.7496 118.386C97.9774 119.276 101.293 119.939 104.608 120.392C108.708 120.968 112.825 121.352 116.978 121.038C117.746 120.986 118.252 121.3 118.478 122.033C118.67 122.661 118.862 123.272 119.054 123.917C120.729 123.621 122.334 123.272 123.957 123.045C126.121 122.731 126.225 122.835 126.696 125.069C127.499 124.964 128.302 124.825 129.122 124.737C129.61 124.685 130.116 124.668 130.605 124.72C131.948 124.877 132.454 126.029 131.669 127.111C131.006 128.035 130.029 128.541 128.965 128.908C125.894 129.99 122.771 130.88 119.386 130.74C119.194 132.729 117.746 133.288 116.245 133.34C110.278 133.55 104.311 133.445 98.4485 132.276C94.296 131.438 90.1609 130.443 86.0083 129.571C83.7401 129.1 81.4371 128.786 79.1165 129.379C77.1275 129.902 75.7491 131.054 74.9291 132.991C73.2192 136.987 73.1494 141.123 73.6379 145.328C73.7601 146.428 73.9171 147.509 74.0218 148.609C74.1614 150.179 73.7252 150.738 72.1723 151.261C67.7232 152.709 63.1868 153.32 58.4934 153.198C54.2361 153.093 50.0138 152.867 45.8089 152.238C43.7152 151.924 41.7262 151.331 39.8767 150.267C38.8996 149.708 38.446 148.958 38.4285 147.876C38.3936 143.112 37.5562 138.453 36.7012 133.776C35.8812 129.449 34.8169 125.174 33.2291 121.038C31.3099 115.995 29.3732 110.952 26.8607 106.153C24.5402 101.756 23.2665 96.9397 22.0626 92.1235C21.1379 88.459 20.8238 84.7422 20.8936 80.973C20.9634 76.6803 20.8587 72.3528 21.7137 68.1124C22.2894 65.1983 22.9699 62.2842 23.8423 59.4573C24.924 55.9324 25.7266 52.3028 27.6459 49.0921C28.1519 48.237 28.6578 47.382 29.1464 46.5269C30.0013 45.0437 31.1878 44.241 32.95 44.8866ZM31.2052 46.2477C30.4899 47.382 29.757 48.4639 29.1289 49.5981C27.454 52.6169 26.6688 55.9499 25.6568 59.213C23.9819 64.5876 22.7605 70.0668 22.6384 75.738C22.5337 81.1475 22.3767 86.5395 23.7376 91.8443C24.8891 96.3289 26.0756 100.831 28.1693 104.967C30.2281 108.998 31.9729 113.151 33.6479 117.356C37.5038 127.023 39.5452 137.074 40.0163 147.44C40.0512 148.207 40.2954 148.713 40.9759 148.975C42.1623 149.429 43.3139 149.987 44.5352 150.249C48.2167 151.069 51.9505 151.366 55.7017 151.418C58.5632 151.471 61.442 151.366 64.286 151.174C67.0427 150.999 69.6948 150.284 72.3992 149.289C72.3294 148.539 72.2421 147.841 72.1898 147.143C72.0328 144.892 71.771 142.641 71.7536 140.39C71.7013 136.603 72.6783 133.096 74.8244 129.937C75.2606 129.292 75.8015 128.821 76.5517 128.472C79.0118 127.355 81.5417 127.058 84.1589 127.547C88.4859 128.367 92.8304 129.204 97.1051 130.217C103.177 131.647 109.336 131.805 115.53 131.77C115.809 131.77 116.088 131.735 116.35 131.682C117.536 131.456 117.746 131.264 117.746 130.042C117.746 128.437 117.728 126.849 117.606 125.243C117.554 124.388 117.292 123.551 117.118 122.713C116.734 122.678 116.507 122.643 116.298 122.661C109.981 122.765 103.753 122.155 97.5762 120.794C93.9296 119.991 90.5273 118.612 87.2646 116.867C83.0946 114.616 79.0642 112.086 74.8418 109.957C72.3468 108.701 69.6424 107.811 66.938 107.095C64.129 106.345 61.2152 106.014 58.4236 105.508C56.5218 107.724 54.6025 108.055 52.2645 106.502C51.5143 106.014 50.8164 105.857 49.9615 105.909C46.6813 106.101 43.7501 105.141 41.1329 103.204C36.108 99.4524 33.3862 94.2 32.0427 88.2671C30.7341 82.4388 31.0656 76.5058 32.1125 70.6776C33.1942 64.605 35.0611 58.7069 37.1374 52.8961C37.6259 51.5001 38.2017 50.139 38.7775 48.6384C36.265 47.8706 33.8224 47.0853 31.2052 46.2477ZM48.1818 86.3476C48.0073 89.4362 47.7979 92.3503 48.775 95.1947C49.8219 98.2135 52.9101 100.028 56.0681 99.435C57.4814 99.1732 58.4585 98.4403 59.1215 97.1839C60.1334 95.2994 60.622 93.2926 60.7092 91.1812C60.7616 89.7154 60.9011 88.2496 60.7267 86.8013C56.5043 86.1207 52.4216 86.5744 48.1818 86.3476ZM119.351 125.313C119.351 126.727 119.351 127.861 119.351 129.047C122.823 129.466 125.859 128.245 128.93 127.268C129.401 127.128 129.785 126.744 130.221 126.465C130.168 126.343 130.134 126.238 130.081 126.116C129.558 126.168 129.034 126.203 128.511 126.255C127.796 126.325 127.098 126.447 126.382 126.447C125.859 126.447 125.143 126.447 124.847 126.133C124.533 125.802 124.603 125.104 124.48 124.441C122.805 124.72 121.078 125.017 119.351 125.313ZM34.2934 45.4276C35.3752 45.7766 36.1952 46.0907 37.0502 46.2826C37.4166 46.3699 37.9749 46.335 38.2366 46.1081C39.0916 45.3403 39.8941 44.5027 40.6444 43.6128C40.9585 43.2289 41.098 42.6879 41.3772 42.0946C40.8538 42.0946 40.5746 42.1121 40.3129 42.0946C39.0043 42.0423 38.6379 41.5362 39.0741 40.3148C39.2137 39.896 39.4405 39.5121 39.6499 39.1282C39.9465 38.5872 40.2605 38.0463 40.5572 37.5228C40.435 37.453 40.3129 37.3832 40.2082 37.3134C37.1025 39.0933 35.759 42.1993 34.2934 45.4276ZM51.5666 100.848C51.5666 101.372 51.5492 101.913 51.5666 102.454C51.6539 104.461 53.2067 105.926 55.2132 105.909C56.1728 105.891 56.766 105.525 56.8358 104.635C56.9405 103.466 56.8533 102.279 56.8533 101.285C55.0038 101.128 53.3812 101.005 51.5666 100.848ZM52.439 84.3932C52.6658 82.4388 52.8752 80.7113 53.0846 78.9663C51.7411 80.5019 50.45 82.0025 50.6245 84.2361C51.2526 84.2885 51.7935 84.3408 52.439 84.3932ZM49.1763 84.3059C49.787 82.5609 50.3104 81.0777 50.8862 79.4549C49.0018 80.5717 48.0248 82.0898 47.5188 84.1838C48.2341 84.2361 48.7576 84.271 49.1763 84.3059ZM55.2132 84.4979C54.7596 82.7529 54.934 80.9904 53.9395 79.42C53.7825 81.0253 53.6255 82.6482 53.4684 84.2885C53.8523 84.3932 54.114 84.4979 54.3757 84.5328C54.5676 84.5677 54.777 84.5153 55.2132 84.4979ZM60.2556 84.8643C59.5053 82.8576 59.1738 80.9381 57.272 79.8213C57.7955 81.479 58.3014 83.0321 58.8249 84.6724C59.1389 84.7073 59.5577 84.7596 60.2556 84.8643ZM55.6145 80.1005C55.8413 81.6012 56.0681 83.1019 56.295 84.6724C56.7312 84.6375 57.0976 84.62 57.5337 84.5851C57.2197 82.875 56.766 81.3394 55.6145 80.1005ZM62.3144 84.9341C62.1748 83.224 61.5991 81.8978 60.2207 80.973C60.6569 82.3341 61.1978 83.6603 61.7561 84.9865C61.7735 85.0388 62.0527 84.969 62.3144 84.9341Z" fill="black"/>
<path d="M31.2054 46.248C33.8225 47.0856 36.2652 47.8709 38.7777 48.6736C38.2019 50.1743 37.6261 51.5354 37.1376 52.9314C35.0613 58.7422 33.1944 64.6402 32.1127 70.7128C31.0658 76.541 30.7343 82.4915 32.0429 88.3023C33.3864 94.2352 36.1082 99.4876 41.1331 103.239C43.7328 105.194 46.6815 106.154 49.9616 105.944C50.8166 105.892 51.5145 106.049 52.2647 106.537C54.6027 108.09 56.522 107.759 58.4238 105.543C61.2154 106.049 64.1292 106.38 66.9382 107.131C69.6426 107.846 72.347 108.736 74.842 109.992C79.0644 112.121 83.0948 114.652 87.2648 116.903C90.5275 118.648 93.9298 120.026 97.5764 120.829C103.753 122.19 109.982 122.801 116.298 122.696C116.507 122.696 116.734 122.731 117.118 122.748C117.292 123.586 117.554 124.424 117.606 125.279C117.711 126.867 117.746 128.472 117.746 130.077C117.746 131.299 117.536 131.473 116.35 131.718C116.088 131.77 115.809 131.805 115.53 131.805C109.336 131.822 103.177 131.683 97.1053 130.252C92.8131 129.24 88.4861 128.402 84.1591 127.582C81.5594 127.093 79.012 127.39 76.5519 128.507C75.8017 128.856 75.2608 129.31 74.8246 129.973C72.6785 133.131 71.7015 136.656 71.7538 140.425C71.7887 142.676 72.033 144.927 72.19 147.178C72.2423 147.876 72.3296 148.592 72.3994 149.325C69.695 150.337 67.0429 151.035 64.2862 151.209C61.4248 151.401 58.5634 151.506 55.7019 151.453C51.9507 151.384 48.1994 151.087 44.5354 150.284C43.3141 150.005 42.1451 149.464 40.9761 149.01C40.2956 148.749 40.0514 148.243 40.0165 147.475C39.5454 137.092 37.504 127.058 33.6481 117.391C31.9731 113.186 30.2283 109.033 28.1695 105.002C26.0583 100.866 24.8893 96.3641 23.7378 91.8795C22.3594 86.5747 22.5339 81.1827 22.6386 75.7733C22.7607 70.0846 23.9821 64.6228 25.657 59.2482C26.669 55.9851 27.4541 52.6522 29.1291 49.6333C29.7572 48.4642 30.5075 47.3823 31.2054 46.248Z" fill="white"/>
<path d="M48.182 86.3477C52.4393 86.5745 56.5046 86.1208 60.7443 86.7839C60.9188 88.2322 60.7792 89.698 60.7269 91.1638C60.6397 93.2753 60.1511 95.282 59.1392 97.1666C58.4587 98.423 57.4816 99.1559 56.0858 99.4176C52.9278 100.011 49.8396 98.2136 48.7927 95.1773C47.7982 92.3504 48.0075 89.4363 48.182 86.3477ZM51.9333 88.2846C50.0664 87.5342 49.4557 87.604 48.5659 88.6161C49.1416 88.8255 49.6825 89.0175 50.206 89.2094C50.2234 89.4363 50.1711 89.698 50.2757 89.8725C50.4502 90.1692 50.7119 90.396 50.9213 90.6578C51.183 90.4309 51.6018 90.239 51.689 89.9598C51.8635 89.4188 51.8635 88.8081 51.9333 88.2846ZM57.2723 89.5759C57.2199 89.89 57.0978 90.2215 57.1676 90.5007C57.2548 90.8148 57.534 91.0766 57.7259 91.3558C58.0051 91.1464 58.4064 90.9719 58.5285 90.6927C58.7728 90.1168 58.8774 89.4712 59.0345 88.8953C57.6561 88.3369 57.4467 88.3369 56.3999 88.7383C56.3475 88.7557 56.3475 88.9302 56.2952 89.1222C56.5918 89.2618 56.9233 89.4188 57.2723 89.5759ZM54.0968 89.1222C53.3291 90.4484 53.1197 91.635 53.2418 92.8565C53.2593 93.1182 53.7304 93.4323 54.0444 93.5719C54.5155 93.7813 55.0739 93.3451 54.847 92.9263C54.3062 91.9665 54.6377 91.0068 54.6202 90.047C54.6202 89.8376 54.3934 89.6282 54.0968 89.1222Z" fill="white"/>
<path d="M119.351 125.313C121.078 125.016 122.806 124.72 124.481 124.44C124.603 125.104 124.533 125.802 124.847 126.133C125.144 126.447 125.859 126.447 126.382 126.447C127.098 126.447 127.796 126.325 128.511 126.255C129.035 126.203 129.558 126.168 130.081 126.116C130.134 126.238 130.169 126.342 130.221 126.465C129.802 126.744 129.401 127.11 128.93 127.267C125.859 128.245 122.823 129.466 119.351 129.047C119.351 127.861 119.351 126.726 119.351 125.313Z" fill="white"/>
<path d="M34.2939 45.4277C35.7596 42.1994 37.103 39.0934 40.2087 37.3135C40.3308 37.3833 40.453 37.4531 40.5577 37.5229C40.2611 38.0638 39.947 38.5873 39.6504 39.1283C39.441 39.5122 39.2142 39.8961 39.0746 40.3149C38.6559 41.5538 39.0223 42.0598 40.3134 42.0947C40.5926 42.1122 40.8543 42.0947 41.3777 42.0947C41.0985 42.688 40.959 43.229 40.6449 43.6129C39.8947 44.4854 39.0921 45.3404 38.2371 46.1082C37.9754 46.3351 37.4345 46.37 37.0507 46.2827C36.2132 46.0908 35.3757 45.7767 34.2939 45.4277Z" fill="white"/>
<path d="M51.5668 100.849C53.3813 100.988 55.004 101.128 56.8534 101.267C56.8534 102.262 56.9232 103.449 56.836 104.618C56.7662 105.508 56.173 105.874 55.2133 105.892C53.2069 105.909 51.6715 104.461 51.5668 102.437C51.5319 101.913 51.5668 101.372 51.5668 100.849Z" fill="white"/>
<path d="M52.4393 84.3929C51.7938 84.3405 51.2529 84.2882 50.6248 84.2533C50.4503 82.0022 51.7414 80.519 53.0849 78.9834C52.8755 80.6935 52.6661 82.4385 52.4393 84.3929Z" fill="white"/>
<path d="M49.1771 84.3063C48.7583 84.2714 48.2349 84.2365 47.5195 84.2016C48.0255 82.1076 49.0026 80.572 50.8869 79.4727C50.3286 81.0781 49.8052 82.5613 49.1771 84.3063Z" fill="white"/>
<path d="M55.2135 84.4978C54.7773 84.5153 54.568 84.5502 54.376 84.5327C54.1143 84.4978 53.87 84.3931 53.4688 84.2884C53.6258 82.6482 53.7828 81.0253 53.9398 79.4199C54.9518 80.9904 54.7599 82.7529 55.2135 84.4978Z" fill="white"/>
<path d="M60.2559 84.8643C59.558 84.777 59.1392 84.7072 58.8077 84.6723C58.2843 83.0146 57.7958 81.479 57.2549 79.8213C59.1567 80.9381 59.4882 82.8576 60.2559 84.8643Z" fill="white"/>
<path d="M55.6147 80.1006C56.7663 81.3395 57.2025 82.8751 57.534 84.5852C57.0978 84.6201 56.7488 84.6376 56.2952 84.6725C56.0684 83.102 55.8416 81.6013 55.6147 80.1006Z" fill="white"/>
<path d="M62.3144 84.9338C62.0527 84.9687 61.7736 85.0385 61.7561 84.9861C61.1978 83.6774 60.6569 82.3512 60.2207 80.9727C61.5991 81.8975 62.1749 83.2237 62.3144 84.9338Z" fill="white"/>
<path d="M51.9333 88.2842C51.8635 88.8077 51.8635 89.4185 51.6891 89.942C51.5844 90.2212 51.1831 90.4131 50.9214 90.64C50.6945 90.3782 50.4328 90.1514 50.2758 89.8547C50.1711 89.6802 50.2235 89.4359 50.206 89.1916C49.6826 88.9997 49.1591 88.8077 48.5659 88.5983C49.4383 87.6037 50.0664 87.5513 51.9333 88.2842Z" fill="black"/>
<path d="M57.2723 89.5754C56.9059 89.4184 56.5919 89.2613 56.2778 89.1217C56.3302 88.9298 56.3302 88.7727 56.3825 88.7378C57.4294 88.3365 57.6387 88.3539 59.0171 88.8949C58.8601 89.4882 58.7554 90.1164 58.5111 90.6922C58.389 90.9714 57.9877 91.1285 57.7085 91.3553C57.5166 91.0761 57.2375 90.8144 57.1502 90.5003C57.0979 90.2211 57.2375 89.8895 57.2723 89.5754Z" fill="black"/>
<path d="M54.0969 89.1221C54.3935 89.6281 54.6204 89.8375 54.6204 90.0644C54.6378 91.0241 54.3063 91.9839 54.8472 92.9436C55.074 93.3624 54.5331 93.7986 54.0446 93.5892C53.7305 93.4496 53.2595 93.1355 53.242 92.8738C53.1373 91.6349 53.3467 90.4483 54.0969 89.1221Z" fill="black"/>
<path d="M174.884 54.5434C179.997 55.7474 181.794 59.6911 182.98 64.2979C183.538 63.3905 183.957 62.7448 184.359 62.0992C186.138 59.2374 188.581 57.1958 191.687 55.9045C193.466 55.1541 193.449 55.1018 193.658 53.287C193.815 53.2172 194.007 53.0601 194.199 53.0252C198.055 52.589 201.859 52.4843 205.627 53.8454C208.436 54.8575 211.228 55.9045 213.775 57.4575C217.143 59.4992 220.039 62.0992 222.115 65.5543C224.959 70.2832 226.111 75.3611 226.128 80.8578C226.146 85.1505 225.518 89.1814 223.319 92.9157C221.522 96.0043 219.934 99.2325 218.033 102.251C216.323 104.939 214.246 107.399 212.432 110.017C209.483 114.309 207.826 119.125 206.849 124.203C206.098 128.06 206.151 131.986 205.924 135.877C205.802 137.971 205.714 140.065 205.68 142.159C205.662 143.974 205.714 145.789 205.767 147.604C205.802 148.947 205.662 149.244 204.423 149.384C200.759 149.785 197.078 150.273 193.396 150.465C189.157 150.692 184.899 150.727 180.66 150.675C175.53 150.622 170.418 150.326 165.358 149.331C164.067 149.069 162.741 148.982 161.432 148.738C159.967 148.476 159.688 148.145 159.688 146.626C159.688 142.665 159.757 138.687 159.74 134.726C159.705 130.084 159.461 125.442 158.239 120.958C156.948 116.264 155.116 111.796 151.906 107.992C149.882 105.602 147.875 103.159 146.148 100.541C144.874 98.6393 143.932 96.4755 143.077 94.3466C139.675 85.7089 140.181 77.1933 144.211 68.9046C145.694 65.8509 148.015 63.373 150.475 61.0696C152.883 58.8012 155.552 56.8468 158.501 55.2937C159.513 54.7528 160.612 54.3689 161.711 54.0024C165.341 52.7809 169.039 51.9957 172.878 51.9608C173.262 51.9608 173.646 51.9434 174.03 51.9957C175.199 52.1353 175.39 52.4319 175.076 53.6534C175.076 53.8628 175.024 54.0722 174.884 54.5434ZM204.057 147.743C204.162 143.695 204.231 139.891 204.354 136.104C204.476 132.195 204.476 128.287 205.156 124.413C206.186 118.584 208.07 113.123 211.577 108.289C213.322 105.881 215.101 103.49 216.811 101.065C219.393 97.3829 221.26 93.317 223.11 89.2687C223.878 87.6109 224.122 85.674 224.331 83.8243C224.523 82.2015 224.314 80.5263 224.331 78.8685C224.349 74.5584 223.005 70.6322 220.911 66.9328C218.818 63.2334 215.747 60.5287 212.065 58.4871C209.605 57.1085 206.971 56.1488 204.301 55.2414C201.248 54.2118 198.142 54.3514 194.775 54.683C195.473 56.9515 196.083 59.1153 196.816 61.2441C196.938 61.5931 197.532 61.9596 197.933 62.0294C201.283 62.4656 204.231 63.7918 207.11 65.5368C210.617 67.6657 213.025 70.702 214.63 74.2967C216.288 78.0309 215.921 81.9223 214.665 85.7612C213.636 88.9197 211.716 91.5895 209.64 94.0499C206.535 97.7144 202.94 100.908 198.701 103.281C196.572 104.468 194.321 105.026 191.861 104.607C190.238 104.328 188.616 104.066 186.888 103.787C186.679 104.031 186.417 104.363 186.121 104.694C184.411 106.562 182.457 106.998 180.136 105.898C179.421 105.549 178.705 105.008 178.2 104.398C177.624 103.682 177.031 103.455 176.123 103.386C172.826 103.141 169.633 102.304 166.963 100.367C163.352 97.7319 160.036 94.6956 157.559 90.909C156.303 88.972 155.081 86.9653 155.029 84.5397C154.994 83.1088 154.977 81.6605 155.064 80.2471C155.395 74.8376 157.925 70.4053 161.799 66.8456C164.329 64.5073 167.347 62.675 170.941 61.9596C171.709 59.2549 172.477 56.585 173.262 53.8977C172.895 53.793 172.738 53.7058 172.581 53.7058C169.022 53.7756 165.567 54.5259 162.217 55.6427C157.943 57.0736 154.401 59.7086 151.208 62.7972C149.027 64.8912 146.951 67.1422 145.642 69.9342C141.908 77.8041 141.455 85.831 144.717 93.9452C145.52 95.9345 146.392 97.9238 147.579 99.6862C149.306 102.234 151.26 104.642 153.249 106.998C156.634 111.011 158.606 115.74 159.932 120.713C161.153 125.303 161.432 130.067 161.432 134.813C161.415 138.338 161.415 141.863 161.397 145.405C161.397 145.946 161.397 146.487 161.397 147.08C175.67 149.663 189.802 149.628 204.057 147.743ZM185.597 73.2671C188.79 73.5812 190.832 75.2564 192.175 77.8913C193.763 80.9974 195.054 84.1907 195.7 87.6458C196.52 92.0432 197.357 96.4231 197.148 100.908C197.13 101.257 197.217 101.588 197.252 101.99C197.549 101.867 197.706 101.815 197.846 101.728C198.142 101.571 198.421 101.396 198.701 101.222C203.272 98.2379 207.285 94.713 210.338 90.1063C211.542 88.2915 212.659 86.4767 213.252 84.4001C214.142 81.2592 214.351 78.0484 213.043 75.0121C212.345 73.3718 211.176 71.906 210.146 70.4228C208.628 68.2066 206.238 67.055 204.04 65.7288C203.115 65.1704 202.068 64.769 201.021 64.4375C199.172 63.8442 197.27 63.3381 195.403 62.8146C194.862 63.8791 194.321 65.0133 193.693 66.1127C193.362 66.6711 192.943 67.212 192.472 67.6657C191.704 68.3986 190.936 68.1717 190.587 67.1771C190.448 66.7932 190.343 66.3919 190.169 65.816C188.145 68.0845 186.871 70.5624 185.597 73.2671ZM172.529 63.1811C171.674 63.3556 170.959 63.4079 170.313 63.6348C167.33 64.7341 164.59 66.357 162.409 68.6254C159.513 71.6268 157.315 75.1691 156.931 79.4793C156.704 82.027 156.303 84.6619 157.507 87.1049C158.065 88.2391 158.693 89.3385 159.391 90.3855C161.607 93.7358 164.695 96.2486 167.748 98.7789C168.062 99.0406 168.464 99.1977 168.97 99.4768C169.022 99.0406 169.057 98.7789 169.074 98.5346C169.144 94.9573 169.249 91.3801 169.266 87.8029C169.284 85.0109 169.772 82.3236 170.889 79.7759C172.407 76.3034 174.919 74.0698 178.74 73.4591C179.246 73.3718 179.752 73.2671 180.206 73.1799C179.299 71.3127 178.461 69.6026 177.624 67.91C175.617 68.957 174.483 68.5033 173.681 66.3744C173.297 65.3449 172.948 64.3153 172.529 63.1811ZM195.49 102.723C195.508 99.3372 195.49 96.109 194.897 92.9157C194.112 88.6928 193.396 84.4874 191.564 80.5263C190.046 77.2282 188.092 74.7678 184.097 74.8725C183.992 74.8725 183.887 74.8202 183.765 74.8027C181.253 74.5759 178.74 74.8725 176.507 75.9718C172.861 77.7343 170.645 82.3934 171.168 87.0002C172.023 85.0807 173.506 84.4699 175.129 84.1907C175.582 82.8645 175.094 81.329 176.42 80.0726C176.577 80.8753 176.682 81.4162 176.873 82.3585C177.362 81.3988 177.659 80.8055 177.973 80.2122C178.915 80.6659 177.694 82.1142 179.124 82.0968C179.508 81.5733 178.985 80.7182 179.857 80.3692C180.049 81.0149 180.206 81.5907 180.415 82.3236C180.886 81.5907 180.258 80.8055 181.148 80.2994C181.41 80.9974 181.654 81.6256 182.021 82.6203C182.212 81.6605 182.317 81.1021 182.439 80.5263C182.544 80.5263 182.631 80.5263 182.736 80.5263C182.998 81.1021 183.259 81.6954 183.538 82.2713C183.626 82.2538 183.696 82.2364 183.783 82.2015C183.87 81.6256 183.957 81.0323 184.044 80.4565C184.132 80.4565 184.219 80.439 184.306 80.439C184.568 80.9974 184.812 81.5384 185.091 82.1317C185.58 81.5733 184.934 80.6659 185.824 80.3692C186.731 80.6833 185.754 82.2713 187.115 82.3062C187.255 81.7478 187.394 81.2068 187.551 80.6833C187.691 80.6833 187.848 80.6659 187.988 80.6659C189 81.7827 188.598 83.4055 189.157 84.6968C189.244 84.7666 189.331 84.8538 189.418 84.8713C190.936 85.2552 192.036 86.1626 192.297 87.6982C192.594 89.4955 191.826 90.9264 190.273 91.8861C189.68 92.2526 189.017 92.5318 188.424 92.811C188.145 93.5962 187.988 94.364 187.621 95.0446C186.679 96.7896 186.871 98.6742 186.836 100.524C186.819 101.274 187.15 101.833 187.831 102.094C190.308 102.967 192.838 103.141 195.49 102.723ZM193.693 56.934C193.327 57.0562 193.013 57.126 192.716 57.2307C189.628 58.4347 187.325 60.5287 185.493 63.2509C183.87 65.6415 183.277 68.2415 183.399 71.051C183.416 71.3476 183.696 71.7141 183.957 71.906C184.062 71.9758 184.498 71.6617 184.707 71.4523C184.899 71.2604 184.969 70.9812 185.109 70.7369C186.068 69.1315 186.976 67.5086 188.005 65.9556C189.453 63.7744 190.256 63.7046 192.088 65.5019C193.362 63.914 193.78 61.9421 194.531 60.1273C194.618 59.9005 194.565 59.569 194.496 59.3247C194.269 58.5569 193.99 57.7891 193.693 56.934ZM175.879 67.0724C176.245 66.5315 176.402 66.3221 176.525 66.0952C176.647 65.8509 176.716 65.5717 176.856 65.3449C177.31 64.5945 177.955 64.5422 178.409 65.2751C178.81 65.9207 179.054 66.6711 179.351 67.3691C179.822 68.4858 180.258 69.6026 180.764 70.702C180.904 70.9986 181.218 71.1906 181.619 71.5919C181.619 69.463 181.881 67.561 181.549 65.7637C181.166 63.7395 180.45 61.7153 179.526 59.8656C178.531 57.9112 176.804 56.6199 174.466 56.079C173.995 57.6146 173.541 59.0804 173.14 60.5461C173.052 60.8602 173.175 61.279 173.314 61.6106C173.872 62.9193 174.466 64.2281 175.059 65.5194C175.251 65.9556 175.513 66.3744 175.879 67.0724ZM177.205 101.536C177.135 99.4419 177.816 97.4527 176.472 95.5855C176.001 94.9399 175.687 94.1197 175.495 93.3345C175.303 92.5667 174.937 92.2351 174.187 92.0781C173.087 91.8512 172.11 91.3278 171.465 90.3506C171.325 90.1237 171.116 89.9318 170.749 89.513C170.749 93.2821 170.749 96.7372 170.749 100.28C172.791 101.082 174.815 101.676 177.205 101.536ZM186.592 92.3049C184.428 92.2351 182.806 91.4324 181.829 89.4606C181.48 90.6996 181.986 91.6418 182.666 92.5143C182.143 93.2472 181.602 93.0204 181.009 92.7412C180.904 92.2177 180.799 91.7116 180.695 91.2579C179.403 91.7989 178.217 92.2875 177.048 92.7586C177.851 95.7775 179.787 97.2607 182.718 97.1211C184.742 97.0339 186.068 95.4285 186.592 92.3049ZM178.828 98.046C178.828 99.4245 178.81 100.611 178.828 101.815C178.828 102.129 178.828 102.496 178.985 102.723C179.892 104.119 181.201 104.834 182.893 104.729C183.94 104.677 185.597 103.229 185.562 102.339C185.493 101.012 185.301 99.6862 185.144 98.3426C182.998 98.9534 180.939 99.0755 178.828 98.046ZM176.786 85.6391C176.786 87.3666 176.786 89.0418 176.786 90.7519C178.13 90.909 179.124 90.2459 179.874 89.2512C181.026 87.7331 180.171 85.8485 178.269 85.6565C177.851 85.5867 177.414 85.6391 176.786 85.6391ZM187.237 86.1277C185.789 85.9008 184.673 86.3022 183.905 87.4888C183.504 88.117 183.486 88.8848 183.957 89.513C184.742 90.5425 185.842 90.6821 187.237 90.4378C187.237 88.9895 187.237 87.5935 187.237 86.1277ZM182.195 86.8606C183.521 85.2203 183.521 85.2203 186.976 83.9988C184.655 83.9988 182.335 83.9988 180.101 83.9988C180.817 84.9585 181.48 85.8834 182.195 86.8606ZM174.867 86.023C173.262 86.3545 172.616 87.0874 172.616 88.4136C172.634 89.6002 173.14 90.0714 174.902 90.3855C174.85 88.9197 175.233 87.4888 174.867 86.023ZM189 90.3855C190.099 89.9841 190.762 89.1814 190.779 88.2391C190.779 87.4713 190.273 86.9653 189 86.529C189 87.8378 189 89.1116 189 90.3855ZM177.205 83.7021C177.222 83.8068 177.257 83.8941 177.275 83.9988C177.659 83.9813 178.042 83.9464 178.409 83.929C178.409 83.8592 178.391 83.7894 178.391 83.7021C178.008 83.7021 177.606 83.7021 177.205 83.7021Z" fill="black"/>
<path d="M195.491 102.723C192.839 103.142 190.309 102.95 187.831 102.025C187.151 101.763 186.819 101.205 186.837 100.455C186.871 98.5876 186.679 96.7205 187.622 94.9755C187.988 94.3124 188.145 93.5271 188.424 92.7419C189.017 92.4452 189.663 92.1835 190.274 91.817C191.844 90.8573 192.594 89.4264 192.298 87.6291C192.036 86.076 190.937 85.1861 189.419 84.8022C189.314 84.7847 189.244 84.68 189.157 84.6277C188.599 83.3364 189.017 81.7136 187.988 80.5968C187.848 80.5968 187.691 80.6142 187.552 80.6142C187.412 81.1552 187.273 81.6961 187.116 82.2371C185.772 82.2022 186.732 80.6317 185.825 80.3001C184.935 80.5968 185.598 81.5042 185.092 82.0626C184.813 81.4693 184.551 80.9109 184.307 80.3699C184.219 80.3699 184.132 80.3874 184.045 80.3874C183.958 80.9632 183.87 81.5565 183.783 82.1324C183.696 82.1498 183.626 82.1673 183.539 82.2022C183.277 81.6263 183.015 81.033 182.736 80.4572C182.632 80.4572 182.544 80.4572 182.44 80.4572C182.335 81.0156 182.213 81.5914 182.021 82.5512C181.655 81.574 181.41 80.9458 181.149 80.2303C180.276 80.7364 180.887 81.5391 180.416 82.2545C180.206 81.5216 180.032 80.9458 179.857 80.3001C178.985 80.6666 179.508 81.5216 179.125 82.0277C177.694 82.0451 178.915 80.5968 177.973 80.1431C177.676 80.7364 177.362 81.3297 176.874 82.2894C176.682 81.3471 176.577 80.8236 176.42 80.0035C175.077 81.2599 175.583 82.7955 175.129 84.1216C173.506 84.4008 172.023 85.0116 171.168 86.9311C170.645 82.3243 172.861 77.6826 176.507 75.9027C178.741 74.8209 181.253 74.5242 183.766 74.7336C183.87 74.7511 183.975 74.8034 184.097 74.8034C188.093 74.7162 190.064 77.1766 191.565 80.4572C193.397 84.4183 194.112 88.6412 194.897 92.8466C195.491 96.1097 195.508 99.3554 195.491 102.723Z" fill="white"/>
<path d="M193.693 56.9346C193.973 57.7896 194.252 58.5574 194.496 59.3252C194.566 59.5695 194.618 59.9011 194.531 60.1279C193.781 61.9427 193.362 63.9145 192.088 65.5025C190.256 63.7051 189.454 63.7749 188.005 65.9562C186.976 67.5092 186.069 69.1495 185.109 70.7374C184.97 70.9643 184.882 71.2609 184.708 71.4529C184.498 71.6623 184.062 71.9764 183.958 71.9066C183.696 71.7146 183.417 71.3656 183.399 71.0515C183.277 68.2421 183.87 65.6421 185.493 63.2514C187.342 60.5292 189.645 58.4353 192.716 57.2312C193.013 57.1265 193.327 57.0567 193.693 56.9346Z" fill="white"/>
<path d="M175.879 67.0725C175.496 66.3745 175.251 65.9557 175.059 65.5195C174.466 64.2282 173.873 62.9195 173.315 61.6107C173.175 61.2792 173.053 60.8604 173.14 60.5463C173.541 59.063 174.013 57.5972 174.466 56.0791C176.804 56.62 178.531 57.9113 179.526 59.8657C180.451 61.7154 181.166 63.7396 181.55 65.7638C181.881 67.5611 181.62 69.4632 181.62 71.5921C181.236 71.1907 180.904 70.9813 180.765 70.7021C180.259 69.6028 179.823 68.486 179.352 67.3692C179.055 66.6537 178.811 65.9208 178.409 65.2752C177.956 64.5423 177.328 64.6121 176.856 65.345C176.717 65.5718 176.665 65.851 176.525 66.0953C176.403 66.3222 176.246 66.5316 175.879 67.0725Z" fill="white"/>
<path d="M177.205 101.537C174.815 101.676 172.791 101.065 170.75 100.263C170.75 96.7204 170.75 93.2653 170.75 89.4961C171.116 89.9149 171.325 90.1068 171.465 90.3337C172.11 91.3283 173.07 91.8344 174.187 92.0612C174.92 92.2183 175.303 92.5498 175.495 93.3176C175.687 94.1029 176.001 94.923 176.472 95.5687C177.816 97.4533 177.135 99.4425 177.205 101.537Z" fill="white"/>
<path d="M186.592 92.3054C186.068 95.4289 184.742 97.0343 182.736 97.139C179.805 97.2786 177.868 95.7954 177.065 92.7765C178.234 92.2879 179.421 91.7994 180.712 91.2759C180.799 91.7296 180.904 92.2356 181.026 92.7591C181.602 93.0383 182.143 93.2477 182.684 92.5322C182.021 91.6598 181.497 90.7175 181.846 89.4785C182.806 91.4329 184.428 92.253 186.592 92.3054Z" fill="white"/>
<path d="M178.828 98.0469C180.939 99.0764 182.998 98.9543 185.144 98.361C185.284 99.7046 185.493 101.031 185.563 102.357C185.598 103.247 183.94 104.678 182.893 104.748C181.218 104.835 179.892 104.137 178.985 102.741C178.828 102.497 178.828 102.13 178.828 101.833C178.811 100.612 178.828 99.4254 178.828 98.0469Z" fill="white"/>
<path d="M176.787 85.6395C177.415 85.6395 177.851 85.6046 178.27 85.6395C180.154 85.8315 181.009 87.7161 179.875 89.2342C179.125 90.2463 178.13 90.892 176.787 90.7349C176.787 89.0248 176.787 87.3671 176.787 85.6395ZM177.136 87.6288C177.572 88.0651 177.973 88.4664 178.357 88.8503C178.915 89.4087 179.474 89.304 179.631 88.5537C179.718 88.1698 179.596 87.7335 179.578 87.2624C178.671 87.2798 177.868 86.9134 177.136 87.6288Z" fill="white"/>
<path d="M187.238 86.1283C187.238 87.5941 187.238 88.9726 187.238 90.4384C185.842 90.6827 184.76 90.5256 183.957 89.5136C183.469 88.8854 183.486 88.1176 183.905 87.4894C184.655 86.3202 185.789 85.9189 187.238 86.1283ZM186.365 89.6183C186.836 88.8679 187.325 88.2048 186.557 87.5417C185.946 87.0182 184.83 87.3847 184.359 88.1874C184.969 88.6411 185.597 89.0773 186.365 89.6183Z" fill="white"/>
<path d="M182.195 86.8608C181.48 85.8836 180.817 84.9762 180.102 83.999C182.317 83.999 184.638 83.999 186.976 83.999C183.504 85.2205 183.504 85.2205 182.195 86.8608Z" fill="white"/>
<path d="M174.867 86.0234C175.234 87.4892 174.833 88.9201 174.92 90.3859C173.158 90.0893 172.634 89.6181 172.634 88.4141C172.617 87.0879 173.28 86.355 174.867 86.0234Z" fill="white"/>
<path d="M189 90.3867C189 89.1129 189 87.839 189 86.5303C190.273 86.9491 190.779 87.4726 190.779 88.2404C190.762 89.1827 190.099 89.9679 189 90.3867Z" fill="white"/>
<path d="M177.205 83.7021C177.606 83.7021 178.008 83.7021 178.391 83.7021C178.391 83.7719 178.409 83.8417 178.409 83.929C178.025 83.9464 177.641 83.9813 177.275 83.9988C177.257 83.8941 177.24 83.7894 177.205 83.7021Z" fill="white"/>
<path d="M177.135 87.6286C177.868 86.9131 178.653 87.2796 179.578 87.2621C179.613 87.7333 179.717 88.1695 179.63 88.5534C179.473 89.3212 178.915 89.4259 178.357 88.8501C177.973 88.4487 177.571 88.0648 177.135 87.6286Z" fill="black"/>
<path d="M186.365 89.6183C185.598 89.0774 184.987 88.6237 184.359 88.1875C184.813 87.3848 185.929 87.0009 186.557 87.5418C187.325 88.2224 186.836 88.8854 186.365 89.6183Z" fill="black"/>
<path d="M294.336 77.5486C295.199 79.3848 296.136 81.0558 296.797 82.8369C298.21 86.5645 297.99 90.4756 297.66 94.3501C297.568 95.3967 296.944 96.4067 296.54 97.4349C295.915 99.0875 294.869 100.648 295.089 102.485C295.218 102.631 295.273 102.76 295.365 102.778C299.275 103.605 301.754 106.322 304.049 109.297C306.638 112.621 309.851 114.714 314.239 114.714C322.537 114.732 330.836 114.824 339.135 114.897C339.777 114.897 340.42 114.842 341.044 114.916C342.788 115.081 344.386 114.916 345.597 113.447C345.818 113.19 346.167 113.025 346.479 112.896C347.892 112.272 348.847 112.859 348.994 114.383C349.012 114.604 349.012 114.842 349.049 115.246C349.93 115.246 350.793 115.191 351.656 115.265C352.519 115.32 353.382 115.448 354.227 115.65C355.145 115.871 355.787 116.44 355.934 117.413C356.099 118.405 355.604 119.176 354.796 119.58C353.088 120.425 351.362 121.269 349.563 121.857C345.579 123.179 341.411 122.757 337.317 122.959C331.699 123.252 326.062 123.454 320.444 123.693C319.875 123.711 319.306 123.785 318.663 123.84C318.296 126.043 318.939 128.302 318.021 130.542C313.669 130.818 309.3 131.093 304.728 131.368C304.489 134.839 304.214 138.236 304.012 141.633C303.884 143.653 303.884 145.691 303.773 147.711C303.7 149.143 303.351 149.474 301.919 149.749C292.739 151.567 283.486 151.971 274.177 151.328C271.478 151.145 268.816 150.337 266.154 149.841C265.438 149.712 265.217 149.217 265.236 148.574C265.254 147.637 265.364 146.719 265.328 145.783C265.107 138.53 265.016 131.277 264.612 124.042C264.263 117.927 262.922 111.996 260.646 106.286C260.279 105.367 259.875 104.468 259.397 103.605C257.708 100.575 257.176 97.288 257.047 93.891C257.011 92.8444 256.955 91.7977 256.845 90.7694C256.68 89.1168 257.157 88.4374 258.773 88.1803C258.993 88.1436 259.214 88.1069 259.434 88.0702C259.654 86.2523 259.709 84.4528 260.113 82.7267C261.564 76.4836 265.328 72.297 271.442 70.2036C275.444 68.8265 279.52 68.1654 283.743 68.2205C292.978 68.3491 302.213 68.4776 311.43 68.5694C312.99 68.5878 314.551 68.4225 316.13 68.4041C316.772 68.3858 317.195 68.1287 317.58 67.6146C317.947 67.1188 318.425 66.623 318.957 66.3108C320.261 65.5947 321.381 66.219 321.583 67.688C321.638 68.1471 321.656 68.6061 321.711 69.2304C322.831 69.2855 323.933 69.2672 324.998 69.3957C326.778 69.6161 328.559 69.8364 330.304 70.222C331.424 70.4607 332.323 71.085 332.342 72.4622C332.36 73.5823 331.938 74.4086 330.928 74.8309C330.138 75.1615 329.275 75.3635 328.431 75.5654C322.629 77.0711 316.717 76.9793 310.787 76.9977C305.499 77.0161 300.23 77.218 294.942 77.3466C294.759 77.4017 294.502 77.4935 294.336 77.5486ZM316.754 116.66C316.24 116.532 316.075 116.458 315.909 116.44C315.505 116.403 315.102 116.366 314.698 116.385C309.465 116.532 305.665 114.09 302.598 110.05C301.387 108.452 299.826 107.112 298.357 105.716C297.972 105.349 297.384 105.221 296.576 104.853C298.339 108.25 298.008 111.17 295.952 113.924C295.805 114.108 295.677 114.292 295.567 114.512C294.979 115.761 294.887 117.119 295.805 118.129C297.696 120.204 297.898 122.573 297.439 125.125C296.797 128.816 294.667 131.754 289.857 130.377C288.755 130.065 287.653 129.789 287.047 128.816C285.487 126.374 284.257 123.785 285.395 120.792C286.313 118.331 285.946 116.128 284.349 114.09C283.137 112.565 283.192 110.876 283.724 109.132C283.853 108.691 284.018 108.269 284.22 107.699C282.696 107.901 281.778 107.02 280.842 106.139C278.804 104.192 276.839 102.191 274.691 100.391C271.809 97.9858 270.065 94.956 269.165 91.3754C269.055 90.9347 268.889 90.494 268.706 89.8513C265.383 89.8513 262.06 89.8513 258.516 89.8513C258.645 92.0732 258.718 94.3134 258.92 96.5536C259.14 98.9407 259.93 101.162 261.086 103.293C261.821 104.67 262.372 106.139 262.922 107.608C265.732 115.21 266.503 123.179 266.76 131.185C266.943 136.638 266.888 142.074 266.943 147.527C266.943 147.748 267.035 147.968 267.127 148.317C269.514 148.776 271.882 149.455 274.287 149.639C281.65 150.171 289.012 149.988 296.338 148.96C298.321 148.684 300.303 148.299 302.286 147.968C302.396 145.232 302.452 142.68 302.598 140.146C302.8 136.73 303.076 133.333 303.333 129.918C303.351 129.624 303.388 129.33 303.498 129.073C303.737 128.431 304.232 128.339 304.636 128.89C304.82 129.147 304.912 129.477 305.022 129.716C309.061 129.477 312.972 129.238 316.772 129.018C316.754 124.758 316.754 120.737 316.754 116.66ZM288.278 83.2225C288.333 82.8186 288.388 82.5982 288.406 82.3595C288.443 81.7903 288.608 81.2578 289.251 81.2394C290.003 81.221 290.169 81.827 290.187 82.4513C290.224 83.6081 290.26 84.765 290.224 85.9218C290.114 89.4473 289.6 92.8444 287.323 95.7456C287.121 95.9843 287.011 96.3883 287.047 96.7004C287.194 98.4265 287.103 100.244 287.635 101.86C288.204 103.605 287.91 105.019 287.084 106.488C286.533 107.442 285.946 108.379 285.487 109.37C284.918 110.582 284.826 111.831 285.726 112.969C287.727 115.522 288.131 118.295 286.974 121.324C286.919 121.49 286.882 121.655 286.827 121.82C286.24 123.877 287.286 125.529 288.186 127.219C288.902 128.559 290.316 128.504 291.527 128.761C293.014 129.055 294.19 128.504 294.85 127.145C296.026 124.74 296.448 122.316 294.777 119.91C294.575 119.635 294.391 119.341 294.226 119.029C293.18 116.972 293.088 114.934 294.428 112.933C294.759 112.455 295.052 111.96 295.328 111.445C296.374 109.499 296.209 107.516 294.74 105.827C293.272 104.119 292.941 102.228 293.565 100.153C293.859 99.161 294.19 98.1511 294.685 97.233C295.86 95.0662 296.264 92.7709 296.081 90.3471C296.026 89.6493 296.117 88.9516 296.044 88.2538C295.456 81.7719 292.868 76.5937 286.699 73.6558C285.469 73.0682 284.202 72.7376 282.843 72.8111C281.686 72.8845 280.511 72.9213 279.391 73.16C274.067 74.3168 271.809 76.5754 270.744 81.6434C270.579 82.4329 270.505 83.2592 270.45 84.0672C270.083 88.5843 270.744 92.8627 273.516 96.627C274.122 97.4349 274.71 98.2796 275.885 98.6836C275.885 98.0409 275.848 97.5635 275.885 97.1228C275.976 95.8925 275.811 94.8091 275.003 93.7258C274.342 92.8444 273.828 91.6325 273.755 90.5491C273.571 87.6662 273.645 84.765 273.663 81.8821C273.663 81.3679 273.792 80.8354 273.938 80.3396C274.342 78.9441 274.838 78.7238 276.05 79.5501C277.39 80.4498 278.877 80.8171 280.401 81.1843C282.935 81.8454 285.726 81.6617 288.278 83.2225ZM268.504 88.3823C268.632 86.2339 268.669 84.159 268.908 82.1024C269.293 78.7605 270.542 75.6756 273.424 73.8027C279.043 70.1486 286.019 69.6711 291.748 74.7575C292.813 75.694 293.822 75.9878 295.163 75.9327C302.984 75.6573 310.824 75.5838 318.645 75.1798C322.152 74.9962 325.64 74.2434 329.147 73.6741C329.771 73.5823 330.597 73.5272 330.744 72.3704C330.304 72.1684 329.808 71.8195 329.294 71.7277C327.807 71.4706 326.319 71.287 324.832 71.1218C323.859 71.0116 322.849 71.1034 321.876 70.9565C320.463 70.7545 320.169 70.3322 320.095 68.8999C320.077 68.5878 320.022 68.2756 319.949 67.7064C319.508 68.1287 319.177 68.294 319.049 68.5694C318.406 69.8364 317.378 70.1669 316.038 70.1486C313.596 70.1302 311.172 70.3138 308.731 70.2955C300.083 70.2036 291.436 70.0568 282.788 69.9649C278.565 69.9282 274.471 70.7912 270.579 72.3888C269.257 72.9396 267.916 73.6558 266.852 74.5922C263.124 77.8607 261.27 82.0657 261.178 87.0235C261.178 87.4642 261.252 87.9049 261.307 88.3823C263.785 88.3823 266.135 88.3823 268.504 88.3823ZM318.425 122.353C319.765 122.242 320.958 122.096 322.17 122.04C327.862 121.783 333.535 121.636 339.227 121.288C342.495 121.086 345.854 121.6 349.031 120.443C350.72 119.837 352.354 119.084 353.97 118.35C354.227 118.239 354.374 117.854 354.704 117.395C353.97 117.138 353.419 116.826 352.813 116.734C352.023 116.624 351.197 116.66 350.371 116.679C347.672 116.734 347.672 116.752 347.397 114.016C346.754 114.457 346.222 114.842 345.653 115.191C344.588 115.871 343.559 116.587 342.182 116.587C334.692 116.568 327.201 116.587 319.71 116.587C319.269 116.587 318.829 116.66 318.425 116.679C318.425 118.625 318.425 120.406 318.425 122.353ZM275.389 81.4965C275.334 84.1957 275.169 86.7297 275.279 89.2454C275.389 91.761 276.692 93.6707 278.804 95.1213C281.833 97.2146 286.056 95.5436 287.011 92.826C287.598 91.1734 288.186 89.5759 288.296 87.8131C288.443 85.5729 288.002 84.8017 285.891 84.0672C285.34 83.8836 284.771 83.755 284.202 83.6816C281.282 83.2225 278.345 82.9104 275.389 81.4965ZM277.666 96.6454C277.666 98.0225 277.61 99.2161 277.702 100.41C277.739 100.795 278.088 101.218 278.4 101.511C279.575 102.631 280.768 103.696 281.98 104.78C282.402 105.165 282.825 105.533 283.265 105.937C284.036 105.606 284.734 105.312 285.413 105.019C286.093 104.725 286.368 104.174 286.258 103.476C285.946 101.438 285.597 99.3997 285.248 97.233C282.659 98.3163 280.162 98.096 277.666 96.6454Z" fill="black"/>
<path d="M316.754 116.66C316.754 120.718 316.754 124.758 316.754 129.036C312.954 129.256 309.025 129.495 305.004 129.734C304.894 129.477 304.802 129.164 304.618 128.907C304.214 128.357 303.719 128.43 303.48 129.091C303.388 129.366 303.333 129.66 303.315 129.936C303.058 133.351 302.782 136.748 302.58 140.163C302.433 142.697 302.378 145.25 302.268 147.986C300.285 148.316 298.302 148.702 296.32 148.977C288.994 150.006 281.632 150.171 274.269 149.657C271.864 149.492 269.496 148.794 267.109 148.335C267.017 147.986 266.925 147.765 266.925 147.545C266.87 142.092 266.907 136.638 266.742 131.203C266.485 123.178 265.695 115.227 262.904 107.625C262.372 106.156 261.803 104.688 261.068 103.31C259.93 101.18 259.141 98.9585 258.902 96.5714C258.682 94.3312 258.627 92.091 258.498 89.8691C262.042 89.8691 265.365 89.8691 268.688 89.8691C268.89 90.5118 269.037 90.9525 269.147 91.3932C270.046 94.9739 271.791 98.0036 274.673 100.409C276.821 102.209 278.786 104.228 280.824 106.156C281.76 107.038 282.66 107.919 284.202 107.717C284 108.287 283.853 108.709 283.706 109.15C283.174 110.894 283.137 112.565 284.331 114.107C285.928 116.146 286.295 118.349 285.377 120.81C284.257 123.803 285.487 126.373 287.029 128.834C287.654 129.807 288.737 130.083 289.839 130.395C294.667 131.754 296.779 128.834 297.421 125.143C297.862 122.609 297.678 120.222 295.787 118.147C294.869 117.137 294.943 115.778 295.548 114.53C295.64 114.328 295.787 114.126 295.934 113.942C297.99 111.188 298.321 108.268 296.558 104.871C297.366 105.257 297.954 105.385 298.339 105.734C299.808 107.13 301.369 108.47 302.58 110.068C305.646 114.107 309.465 116.55 314.68 116.403C315.083 116.384 315.487 116.421 315.891 116.458C316.057 116.458 316.222 116.531 316.754 116.66Z" fill="white"/>
<path d="M288.277 83.2223C285.707 81.6431 282.935 81.8451 280.364 81.2208C278.822 80.8536 277.335 80.5047 276.013 79.5866C274.801 78.7603 274.306 78.9806 273.902 80.3761C273.755 80.8719 273.626 81.4044 273.626 81.9186C273.626 84.8014 273.534 87.7027 273.718 90.5856C273.791 91.6873 274.287 92.8808 274.967 93.7622C275.774 94.8456 275.94 95.929 275.848 97.1593C275.811 97.6183 275.848 98.0774 275.848 98.7201C274.654 98.3161 274.085 97.4714 273.479 96.6635C270.707 92.8992 270.046 88.6392 270.413 84.1037C270.487 83.2957 270.542 82.4878 270.707 81.6799C271.772 76.6119 274.03 74.3533 279.355 73.1965C280.475 72.9578 281.65 72.921 282.806 72.8476C284.165 72.7558 285.432 73.1047 286.662 73.6923C292.831 76.6119 295.42 81.8084 296.007 88.2903C296.062 88.988 295.989 89.6858 296.044 90.3836C296.227 92.8074 295.823 95.1027 294.648 97.2694C294.153 98.1692 293.822 99.1791 293.528 100.189C292.923 102.264 293.235 104.174 294.703 105.863C296.172 107.552 296.319 109.535 295.291 111.482C295.016 111.996 294.722 112.492 294.391 112.969C293.051 114.952 293.143 116.991 294.189 119.065C294.355 119.378 294.538 119.671 294.74 119.947C296.411 122.334 296.007 124.776 294.814 127.182C294.153 128.54 292.978 129.091 291.49 128.797C290.279 128.559 288.865 128.614 288.149 127.255C287.268 125.566 286.203 123.913 286.79 121.857C286.845 121.691 286.882 121.526 286.937 121.361C288.094 118.349 287.672 115.558 285.689 113.006C284.789 111.849 284.881 110.619 285.45 109.407C285.909 108.415 286.515 107.479 287.047 106.524C287.874 105.055 288.167 103.641 287.598 101.897C287.084 100.281 287.158 98.463 287.011 96.7369C286.992 96.4248 287.102 96.0208 287.286 95.7821C289.563 92.8808 290.077 89.4838 290.187 85.9583C290.224 84.8014 290.187 83.6446 290.15 82.4878C290.132 81.8635 289.985 81.2575 289.214 81.2759C288.571 81.2942 288.406 81.8268 288.369 82.396C288.388 82.598 288.333 82.8183 288.277 83.2223Z" fill="white"/>
<path d="M268.504 88.382C266.135 88.382 263.785 88.382 261.307 88.382C261.252 87.9046 261.178 87.4639 261.178 87.0232C261.27 82.0654 263.143 77.8604 266.851 74.5919C267.916 73.6554 269.257 72.9393 270.579 72.3884C274.471 70.7909 278.547 69.9095 282.788 69.9646C291.435 70.0564 300.083 70.2033 308.731 70.2951C311.172 70.3135 313.596 70.1299 316.038 70.1482C317.396 70.1666 318.425 69.8361 319.049 68.5691C319.177 68.2936 319.508 68.1284 319.948 67.7061C320.022 68.2753 320.077 68.5874 320.095 68.8996C320.169 70.3319 320.463 70.7542 321.876 70.9562C322.849 71.1031 323.841 71.0113 324.832 71.1214C326.319 71.2867 327.825 71.4703 329.294 71.7274C329.808 71.8192 330.285 72.1497 330.744 72.3701C330.597 73.5269 329.771 73.582 329.147 73.6738C325.658 74.2247 322.17 74.9959 318.645 75.1795C310.824 75.5835 302.984 75.6753 295.163 75.9324C293.822 75.9691 292.812 75.6937 291.748 74.7572C286.019 69.6892 279.042 70.1482 273.424 73.8023C270.542 75.6753 269.293 78.7602 268.908 82.1021C268.669 84.1587 268.632 86.2336 268.504 88.382Z" fill="white"/>
<path d="M318.425 122.352C318.425 120.405 318.425 118.624 318.425 116.733C318.81 116.696 319.269 116.641 319.71 116.641C327.201 116.641 334.692 116.623 342.183 116.641C343.56 116.641 344.588 115.925 345.653 115.245C346.222 114.897 346.754 114.493 347.397 114.07C347.672 116.806 347.672 116.788 350.371 116.733C351.179 116.714 352.005 116.678 352.813 116.788C353.401 116.861 353.97 117.174 354.704 117.449C354.374 117.89 354.227 118.275 353.97 118.404C352.336 119.138 350.702 119.873 349.031 120.497C345.855 121.654 342.513 121.14 339.227 121.342C333.553 121.691 327.862 121.838 322.17 122.095C320.977 122.095 319.783 122.242 318.425 122.352Z" fill="white"/>
<path d="M275.389 81.4961C278.345 82.9284 281.282 83.2222 284.202 83.6628C284.771 83.7547 285.34 83.8648 285.891 84.0485C288.002 84.7829 288.443 85.5542 288.296 87.7944C288.186 89.5571 287.598 91.173 287.011 92.8073C286.038 95.5433 281.815 97.1959 278.804 95.1026C276.692 93.6519 275.389 91.7423 275.279 89.2266C275.169 86.7293 275.334 84.1954 275.389 81.4961ZM285.542 92.3849C285.542 90.8425 285.212 90.1815 284.073 89.8509C283.082 89.5571 282.054 89.3368 281.025 89.3001C280.052 89.2817 279.079 89.5204 278.125 89.7224C277.482 89.8509 276.821 90.1447 276.894 90.9343C276.968 91.7606 277.757 91.7423 278.363 91.8524C278.694 91.9075 279.061 91.8524 279.41 91.8892C280.677 91.9993 281.925 92.1279 283.192 92.238C283.963 92.3115 284.753 92.3482 285.542 92.3849ZM276.582 83.4241C276.435 83.5159 276.123 83.6996 275.866 83.9566C275.811 84.0117 275.995 84.4708 276.123 84.5075C277.005 84.6728 277.28 85.2787 277.5 86.0316C277.537 86.1785 278.29 86.2887 278.308 86.2519C278.528 85.6827 278.804 85.0767 278.786 84.4891C278.767 84.1954 278.216 83.8465 277.849 83.6445C277.574 83.4792 277.17 83.5159 276.582 83.4241ZM285.872 87.0599C286.589 87.4822 286.937 87.0048 286.937 86.3988C286.937 85.8663 286.827 85.0951 286.478 84.8748C285.781 84.4341 284.881 84.3422 284.11 84.9849C284.716 85.7011 285.303 86.3805 285.872 87.0599ZM281.154 85.8112C280.97 85.7929 280.787 85.7745 280.603 85.7745C280.511 86.5457 280.309 87.3169 280.383 88.0698C280.438 88.7308 280.952 88.8594 281.558 88.382C281.429 87.5189 281.301 86.6559 281.154 85.8112Z" fill="white"/>
<path d="M277.665 96.6455C280.162 98.0961 282.659 98.3165 285.23 97.2147C285.579 99.3815 285.928 101.42 286.24 103.458C286.35 104.174 286.056 104.707 285.395 105C284.716 105.294 284.018 105.588 283.247 105.918C282.806 105.533 282.384 105.147 281.962 104.762C280.768 103.678 279.557 102.595 278.382 101.493C278.069 101.199 277.721 100.777 277.684 100.391C277.592 99.2162 277.665 98.0227 277.665 96.6455Z" fill="white"/>
<path d="M285.542 92.3856C284.753 92.3305 283.963 92.3121 283.174 92.2387C281.907 92.1285 280.658 92 279.392 91.8898C279.043 91.8531 278.694 91.9265 278.345 91.8531C277.739 91.7429 276.95 91.7613 276.876 90.935C276.803 90.1454 277.464 89.8516 278.106 89.7231C279.061 89.5394 280.052 89.2824 281.007 89.3007C282.035 89.3191 283.064 89.5578 284.055 89.8516C285.212 90.1821 285.542 90.8432 285.542 92.3856Z" fill="black"/>
<path d="M276.583 83.4238C277.17 83.5156 277.556 83.4789 277.849 83.6442C278.217 83.8462 278.767 84.195 278.786 84.4888C278.804 85.0764 278.529 85.6824 278.308 86.2516C278.29 86.2883 277.556 86.1782 277.501 86.0313C277.28 85.2784 276.986 84.6725 276.124 84.5072C275.995 84.4888 275.811 84.0114 275.866 83.9563C276.124 83.6993 276.454 83.5156 276.583 83.4238Z" fill="black"/>
<path d="M285.872 87.0599C285.303 86.3805 284.716 85.7011 284.11 84.985C284.881 84.3423 285.781 84.4157 286.478 84.8748C286.827 85.0951 286.937 85.8847 286.937 86.3988C286.937 87.0048 286.588 87.4822 285.872 87.0599Z" fill="black"/>
<path d="M281.154 85.8109C281.301 86.674 281.429 87.5186 281.576 88.3633C280.97 88.8223 280.456 88.6938 280.401 88.0511C280.328 87.2983 280.53 86.5271 280.621 85.7559C280.787 85.7742 280.97 85.7926 281.154 85.8109Z" fill="black"/>
<path d="M212.817 31.2714L220.735 18.7435C221.273 17.899 220.966 16.9136 220.043 16.421L189.447 0.233229C188.986 -0.0482968 188.448 -0.0483054 187.986 0.0924575C187.833 0.162839 187.679 0.162865 187.525 0.162865C187.218 0.162865 186.91 0.233238 186.68 0.374001L140.17 24.9371C138.094 25.9928 137.402 28.4562 138.555 30.3565L144.014 39.0134C145.167 40.9137 147.857 41.5472 149.933 40.4914L186.987 20.9254C187.756 20.5031 188.678 20.5031 189.447 20.9254L210.28 31.9049C211.203 32.3272 212.356 32.0456 212.817 31.2714Z" fill="#7F5DFF"/>
</svg>
