<svg width="293" height="169" viewBox="0 0 293 169" fill="none" xmlns="http://www.w3.org/2000/svg">
<path d="M53.3635 67.2698C49.4022 65.4316 47.7795 62.3147 47.7318 58.2547C47.7159 57.1039 47.9227 55.953 48.0341 54.7862C48.0818 54.3066 48.1454 53.8111 48.225 53.2837C45.3455 53.7792 44.8364 53.2038 45.4091 50.1668C43.6115 49.0639 43.8024 47.4015 44.2955 45.6592C44.3751 45.3715 44.5023 44.924 44.6933 44.876C45.9659 44.5723 45.8228 43.0538 46.7932 42.5104C47.9386 41.871 48.6545 41.9669 49.5295 43.0059C49.7204 43.2297 49.8318 43.5174 50.0545 43.917C51.009 42.7182 51.5022 41.5673 52.7908 41.2157C54.0794 40.864 55.018 41.3595 55.8771 42.2866C56.8157 41.4554 57.5475 40.4165 58.9792 40.6402C60.3156 40.848 60.8247 42.1427 61.9701 42.7022C62.861 42.1587 63.7678 41.6632 64.8973 41.9669C66.1063 42.3026 66.345 43.3895 66.7109 44.3326C67.2677 44.3326 67.7131 44.3006 68.1586 44.3326C69.9244 44.5084 70.7039 45.947 69.7812 47.4654C69.4472 48.0249 69.2403 48.5204 69.3835 49.1598C69.4312 49.3516 69.3994 49.5594 69.3994 49.7672C69.4312 51.7012 69.2563 51.989 67.6813 52.6123C67.8086 54.4026 67.9676 56.1608 68.0631 57.9031C68.2222 61.02 66.9336 63.5934 64.9132 65.8472C64.42 66.3906 64.2291 66.8702 64.3405 67.5895C64.4518 68.3247 64.42 69.092 64.4677 70.0031C65.0723 70.1309 65.7086 70.2268 66.3131 70.3867C69.1608 71.1379 72.0721 71.2658 74.9834 71.4896C81.3628 71.9531 87.758 71.9212 94.1374 71.7293C98.3532 71.6175 102.569 71.2338 106.785 71.0101C107.835 70.9621 108.885 71.074 109.935 71.1699C110.269 71.2019 110.746 71.2978 110.873 71.5215C111.303 72.2728 111.939 72.2089 112.576 72.097C113.816 71.9052 115.057 71.6814 116.282 71.3937C117.285 71.1539 117.778 70.2748 118.414 69.5555C118.796 69.1239 119.257 68.6124 119.766 68.4846C121.373 68.069 122.089 68.6124 122.375 70.2908C122.439 70.6424 122.439 70.9941 122.487 71.4576C122.821 71.4896 123.155 71.5375 123.473 71.5375C124.587 71.5056 125.684 71.4256 126.782 71.4416C127.323 71.4416 127.88 71.5535 128.389 71.7293C131.109 72.7044 131.634 75.8213 129.423 77.7234C128.262 78.7304 126.957 79.3697 125.446 79.7374C121.675 80.6485 117.873 81.3358 114.039 81.8153C113.307 81.9112 112.576 82.135 111.685 82.3268C111.685 83.5576 111.685 84.7564 111.685 85.9552C111.685 86.5147 111.653 87.0581 111.621 87.6175C111.589 88.2409 111.271 88.7205 110.682 88.8643C109.807 89.0721 108.853 89.4078 108.042 89.232C106.371 88.8643 104.717 88.9602 103.094 89.1201C94.4238 90.0311 85.7376 90.175 77.0197 90.0152C75.8265 89.9992 74.6175 90.159 73.2334 90.2389C73.2334 92.0611 73.2175 93.8194 73.2334 95.5617C73.2493 96.265 73.9016 96.3928 74.3788 96.6166C77.1629 97.9113 80.0582 98.9343 83.0809 99.5577C87.8694 100.549 92.6897 101.252 97.5578 101.556C99.3077 101.668 101.074 101.7 102.824 101.811C104.414 101.907 104.558 102.099 104.605 103.761C104.621 104.209 104.637 104.673 104.669 105.12C104.669 105.216 104.749 105.296 104.828 105.472C105.989 105.488 107.055 105.28 107.739 104.129C107.867 103.921 108.042 103.73 108.233 103.57C108.964 102.93 109.792 102.595 110.73 102.962C111.621 103.314 111.987 104.081 112.082 104.992C112.114 105.296 112.082 105.584 112.082 106.063C112.591 105.999 113.085 105.935 113.562 105.871C115.407 105.616 117.237 105.248 119.082 105.136C121.087 105.008 122.184 106.798 121.214 108.589C120.816 109.308 120.196 109.979 119.544 110.475C117.825 111.786 115.773 112.361 113.673 112.681C111.096 113.08 108.503 113.432 105.926 113.8C105.687 113.831 105.448 113.895 105.162 113.959C105.162 115.398 105.178 116.805 105.162 118.211C105.146 120.001 104.908 120.401 103.158 120.577C100.66 120.849 98.1464 121.024 95.6487 121.12C91.0193 121.264 86.3899 121.2 81.8082 120.529C80.0264 120.273 78.2287 120.001 76.2402 119.714C76.3515 120.593 76.447 121.376 76.5742 122.143C76.8606 123.981 77.1469 125.836 77.4651 127.674C77.6083 128.521 77.831 129.352 77.9901 130.183C78.0856 130.679 78.1651 131.174 78.1969 131.67C78.2606 132.501 77.8947 133.028 77.0356 133.156C75.1902 133.428 73.3607 133.764 71.5153 133.924C65.7404 134.435 59.9497 134.211 54.1748 134.115C49.8477 134.035 45.5523 133.636 41.2888 132.853C38.3139 132.309 35.3549 131.83 32.4913 130.839C32.1095 130.711 31.7436 130.551 31.3618 130.407C30.1209 129.959 29.6118 129.128 29.6436 127.754C29.6914 126.091 29.4209 124.429 29.4368 122.767C29.4687 119.586 29.4527 116.389 29.7391 113.24C29.9936 110.491 30.4868 107.742 31.1232 105.04C31.9504 101.556 32.9367 98.1191 34.0026 94.6985C35.848 88.7844 38.8866 83.5096 43.0547 78.9542C45.5682 76.2049 48.4636 73.8233 51.4385 71.5855C52.8862 70.4986 53.4908 69.076 53.3635 67.2698ZM71.7539 95.0662C71.8494 93.3399 71.8812 91.7894 72.0403 90.2389C72.1675 88.9922 72.2312 88.9442 73.5357 88.8483C75.5879 88.7045 77.656 88.6245 79.7082 88.5606C85.0377 88.4168 90.3671 88.3528 95.6965 88.161C99.3555 88.0171 103.014 87.6975 106.689 87.4897C107.771 87.4257 108.853 87.4737 110.126 87.4737C110.189 82.5186 110.11 77.6594 109.712 72.5765C108.742 72.5605 107.851 72.4806 106.976 72.5286C103.508 72.7363 100.055 73.088 96.5874 73.1999C89.4921 73.4077 82.4127 73.4876 75.3175 72.9921C72.0562 72.7523 68.7949 72.6245 65.6291 71.6494C64.3564 71.2658 64.2927 71.3297 63.6246 72.5445C63.0519 73.5995 62.2405 74.2868 61.0633 74.4626C59.5997 74.6864 58.152 74.6384 56.7679 74.0151C55.4952 73.4396 54.2385 72.8003 53.7771 71.3617C52.3931 72.5445 51.0726 73.6315 49.7999 74.7663C47.8432 76.5086 45.791 78.1549 44.0251 80.089C40.1434 84.3408 37.2957 89.2639 35.4662 94.7465C33.1117 101.843 31.2345 109.068 30.9959 116.597C30.8845 120.225 30.98 123.854 30.98 127.482C30.98 128.233 31.2981 128.729 31.9822 128.968C32.3163 129.096 32.6345 129.224 32.9686 129.336C37.5184 130.903 42.2592 131.542 47 132.053C50.0863 132.389 53.2203 132.421 56.3384 132.533C62.4314 132.773 68.5085 132.725 74.5697 132.037C75.2379 131.957 75.9061 131.75 76.6061 131.606C75.6993 127.418 75.7629 123.214 74.1243 119.458C73.0425 119.186 72.0721 118.962 71.1017 118.675C69.4631 118.211 67.8245 117.7 66.1859 117.236C60.9519 115.75 56.1316 113.512 51.9476 109.931C49.4181 107.758 47.3659 105.28 46.1091 102.163C46.0137 101.923 45.8228 101.7 45.8228 101.476C45.8228 101.22 45.9341 100.836 46.125 100.725C46.3159 100.629 46.7455 100.725 46.9046 100.884C47.2227 101.252 47.4932 101.7 47.6841 102.163C49.1795 105.696 51.884 108.205 54.8589 110.379C59.3451 113.672 64.5791 115.366 69.8767 116.852C71.8016 117.396 73.7902 117.732 75.7629 118.083C78.3878 118.531 81.0128 119.106 83.6695 119.266C88.1398 119.538 92.6102 119.602 97.0805 119.57C99.26 119.554 101.487 119.538 103.714 118.835C103.619 113.656 103.603 108.525 103.014 103.394C102.696 103.346 102.458 103.266 102.219 103.25C99.4191 103.058 96.6033 102.946 93.8033 102.675C88.1399 102.131 82.54 101.236 77.131 99.3499C74.3152 98.3589 71.7221 96.9363 69.2562 95.258C68.9858 95.0821 68.7154 94.5546 68.7949 94.3149C68.9858 93.7235 69.4949 93.9153 69.9244 94.1231C70.513 94.4428 71.0857 94.7305 71.7539 95.0662ZM50.3249 50.966C49.959 52.8521 49.5613 54.6423 49.275 56.4645C48.8136 59.3576 49.5136 61.963 51.4863 64.1848C51.8203 64.5525 52.2022 64.9201 52.6317 65.1439C55.8611 66.8222 59.1861 66.8702 62.511 65.4955C63.1314 65.2398 63.7519 64.8082 64.1973 64.2967C66.5677 61.5155 66.9654 58.2387 66.4086 54.7702C66.2654 53.8591 65.8995 52.98 65.6132 52.0209C64.0223 53.1238 63.8632 53.0759 62.9882 51.5574C62.8451 51.3176 62.6382 51.1418 62.3837 50.8541C61.0156 52.8201 59.9179 51.2537 58.8679 50.6463C58.0247 51.0619 57.627 52.1968 56.6089 51.8451C55.8293 51.5734 55.1453 51.0619 54.4135 50.6463C52.4726 52.1648 52.3771 52.1648 50.3249 50.966ZM68.9222 46.0588C68.429 45.931 67.9836 45.7392 67.5381 45.7392C66.0427 45.7232 65.9472 45.6912 65.3904 44.3965C64.8018 43.0059 64.42 42.862 63.1473 43.5653C62.1292 44.1407 61.5564 44.1088 60.6815 43.3735C60.3792 43.1178 60.1247 42.7981 59.8224 42.5104C58.8679 41.5833 58.3588 41.5993 57.4043 42.5264C56.2111 43.7092 55.6861 43.7571 54.5248 42.6223C54.0476 42.1587 53.6339 42.1108 53.0453 42.3346C52.3931 42.5903 51.9953 43.0219 51.6772 43.6612C50.9772 45.0838 49.6249 45.1957 48.8613 43.9649C48.8136 43.885 48.75 43.7891 48.6863 43.7252C48.1136 43.1018 47.2227 43.1657 47.0477 43.9489C46.8727 44.7481 46.4114 45.0998 45.791 45.4994C44.7887 46.1548 44.7887 48.1847 45.8069 48.7282C46.6341 49.1598 46.6818 49.7512 46.5864 50.4865C46.5228 51.0139 46.4114 51.5414 46.3318 52.0369C47.1909 52.3406 47.5091 51.941 47.7318 51.3816C47.9545 50.8221 48.1454 50.2307 48.4795 49.7512C49.259 48.6802 50.2295 48.6163 51.1522 49.5434C51.5022 49.895 51.7249 50.3746 51.9635 50.7262C54.0794 49.2077 54.0953 48.6483 56.7679 50.5184C58.0406 48.968 59.4406 49.0319 60.7133 50.2147C61.4292 49.959 62.0178 49.5594 62.5269 49.6393C63.1632 49.7512 63.72 50.2627 64.3087 50.5983C65.5018 49.6553 65.4859 49.6713 66.7904 50.6303C67.0768 50.8381 67.4745 50.918 67.8722 51.0779C68.1745 50.1188 67.9517 49.3356 67.9517 48.5524C67.9995 47.8171 68.5085 47.0978 68.9222 46.0588ZM111.669 80.7124C112.512 80.5526 113.196 80.3767 113.88 80.3128C117.73 79.8653 121.516 79.13 125.287 78.2349C126.559 77.9312 127.609 77.3238 128.58 76.4926C129.343 75.8532 129.391 75.0061 129.2 74.1429C129.025 73.3118 128.262 73.1519 127.577 73.0081C127.196 72.9122 126.782 72.9441 126.368 72.9441C125.112 72.9761 123.855 73.056 122.598 73.072C121.198 73.088 121.023 72.8962 120.975 71.5375C120.959 71.2338 121.023 70.9142 120.944 70.6264C120.848 70.3227 120.673 69.8752 120.466 69.8272C120.228 69.7793 119.894 70.0989 119.623 70.2748C119.544 70.3227 119.512 70.4346 119.448 70.5145C118.525 72.033 117.205 72.8962 115.407 73.088C114.087 73.2159 112.766 73.4396 111.414 73.6155C111.51 75.9651 111.589 78.2668 111.669 80.7124ZM105.051 112.249C108.917 112.201 112.464 111.546 115.932 110.587C117.014 110.283 118.048 109.66 118.987 109.02C119.719 108.525 120.339 107.805 119.83 106.687C119.194 106.687 118.589 106.623 118.016 106.703C116.585 106.894 115.153 107.15 113.705 107.358C113.164 107.438 112.607 107.534 112.067 107.534C110.698 107.518 110.396 107.15 110.603 105.776C110.682 105.216 110.857 104.593 110.221 104.305C109.617 104.033 109.219 104.545 108.853 104.976C108.789 105.056 108.726 105.136 108.678 105.216C108.185 106.079 107.389 106.447 106.467 106.623C105.973 106.719 105.496 106.83 105.051 106.926C105.051 108.733 105.051 110.427 105.051 112.249ZM55.0657 67.8132C54.9544 68.4846 54.843 68.9161 54.8271 69.3637C54.7953 70.4186 55.0816 71.3617 56.0202 71.9691C57.3247 72.8163 58.7406 73.1999 60.3156 73.072C61.3019 72.9921 61.9542 72.5285 62.4632 71.6654C63.3223 70.2428 62.9723 68.7723 62.9087 67.078C60.3156 68.037 57.7543 68.2928 55.0657 67.8132Z" fill="black"/>
<path d="M71.7174 95.1269C71.0484 94.7908 70.475 94.5026 69.8857 94.2145C69.4557 94.0065 68.946 93.8144 68.7549 94.4066C68.6752 94.6467 68.9619 95.1749 69.2168 95.351C71.6855 97.0316 74.2817 98.4562 77.1009 99.4485C82.5163 101.353 88.1228 102.234 93.7931 102.778C96.5963 103.05 99.4155 103.162 102.219 103.354C102.458 103.37 102.697 103.434 103.015 103.498C103.604 108.652 103.636 113.79 103.716 118.96C101.486 119.664 99.2563 119.664 97.0742 119.696C92.5985 119.728 88.1069 119.648 83.6472 119.392C81.0032 119.232 78.3592 118.672 75.7312 118.208C73.7561 117.872 71.7652 117.519 69.8379 116.975C64.55 115.487 59.2938 113.79 54.8023 110.493C51.8238 108.316 49.1161 105.803 47.6189 102.266C47.4278 101.801 47.157 101.353 46.8384 100.985C46.6951 100.809 46.2491 100.729 46.058 100.825C45.8669 100.921 45.7554 101.305 45.7554 101.577C45.7554 101.801 45.9465 102.042 46.0421 102.266C47.3003 105.387 49.355 107.868 51.8875 110.045C56.0605 113.646 60.9025 115.871 66.1427 117.359C67.7833 117.823 69.4238 118.336 71.0644 118.8C72.0359 119.072 73.0075 119.296 74.0906 119.584C75.7312 123.346 75.6674 127.555 76.5753 131.749C75.8745 131.909 75.2215 132.101 74.5366 132.181C68.4682 132.885 62.3838 132.917 56.2835 132.677C53.1617 132.549 50.0399 132.533 46.934 132.197C42.1876 131.685 37.4411 131.045 32.8858 129.476C32.5514 129.364 32.2328 129.22 31.8983 129.108C31.1975 128.852 30.879 128.372 30.8949 127.619C30.9108 123.986 30.7993 120.352 30.9108 116.719C31.1497 109.18 33.0292 101.945 35.3865 94.8388C37.2182 89.3487 40.0692 84.4188 43.9555 80.1612C45.7076 78.2245 47.7782 76.5758 49.7373 74.8312C51.0115 73.6947 52.3335 72.6063 53.7192 71.4219C54.1811 72.8624 55.4234 73.5027 56.7136 74.0789C58.0833 74.7031 59.5487 74.7511 61.014 74.5271C62.1767 74.351 63.005 73.6467 63.5784 72.6063C64.2473 71.3739 64.311 71.3098 65.5853 71.71C68.7549 72.6864 72.02 72.8144 75.2852 73.0545C82.373 73.5667 89.4767 73.4867 96.5804 73.2626C100.053 73.1665 103.509 72.7984 106.981 72.5903C107.857 72.5423 108.749 72.6063 109.721 72.6384C110.119 77.7283 110.183 82.6101 110.135 87.556C108.877 87.556 107.778 87.508 106.694 87.572C103.031 87.7801 99.3677 88.1162 95.6885 88.2443C90.3527 88.4524 85.017 88.5004 79.6812 88.6444C77.6265 88.6924 75.556 88.7885 73.5013 88.9325C72.2112 89.0286 72.1474 89.0766 72.0041 90.3251C71.8448 91.8456 71.8289 93.3982 71.7174 95.1269Z" fill="white"/>
<path d="M50.3412 50.9593C52.4028 52.1541 52.4827 52.1382 54.4324 50.6406C55.1675 51.0389 55.8547 51.5647 56.6378 51.8355C57.6446 52.186 58.0442 51.0548 58.9071 50.6406C59.9779 51.246 61.0646 52.8073 62.439 50.8477C62.6947 51.1345 62.9184 51.3257 63.0463 51.5487C63.9252 53.0622 64.085 53.11 65.6832 52.0107C65.9708 52.9507 66.3384 53.8269 66.4822 54.751C67.0416 58.2081 66.642 61.4741 64.2608 64.2462C63.8134 64.756 63.1901 65.1861 62.5668 65.441C59.2108 66.8111 55.8867 66.7474 52.6425 65.0905C52.211 64.8675 51.8275 64.501 51.4919 64.1346C49.5102 61.9361 48.823 59.3392 49.2705 56.4397C49.5741 54.6394 49.9896 52.8392 50.3412 50.9593ZM53.1859 54.6235C53.1859 54.6076 53.2338 54.7988 53.2498 54.9899C53.2978 55.5316 53.4735 56.0892 54.1128 55.9936C54.5283 55.9299 55.0397 55.5794 55.2475 55.197C55.8707 54.0818 55.3913 53.2534 54.1288 53.0941C53.7772 53.0463 53.4256 53.0144 53.074 53.0304C52.5147 53.0622 51.6996 52.8232 51.6677 53.6835C51.6677 53.9225 52.4667 54.1934 53.1859 54.6235ZM62.5509 54.6394C62.6308 55.1652 62.6467 55.6272 62.7746 56.0414C62.9823 56.6787 63.6056 56.8061 64.0691 56.3282C64.5006 55.8821 64.8362 54.512 64.4526 54.0818C64.101 53.6835 63.4937 53.4446 62.9504 53.3171C62.423 53.1897 61.8477 53.2534 61.3043 53.349C61.0486 53.3968 60.8249 53.6995 60.2815 54.1137C61.2404 54.3367 61.8477 54.4801 62.5509 54.6394ZM57.6766 55.5316C57.1812 56.838 57.0373 58.001 57.1492 59.1481C57.1652 59.403 57.9163 59.6897 58.3638 59.7694C58.6195 59.8172 59.0989 59.5782 59.2108 59.3392C59.4665 58.7657 58.8912 58.6064 58.5396 58.3515C58.4597 58.3037 58.4277 58.1922 58.3798 58.1125C58.3158 57.3319 58.8272 56.4397 57.6766 55.5316Z" fill="white"/>
<path d="M68.8428 46.0316C68.4308 47.0649 67.9237 47.7803 67.9237 48.4957C67.9237 49.2747 68.1455 50.0537 67.8445 51.0076C67.4325 50.8486 67.0522 50.7691 66.767 50.5624C65.4676 49.6086 65.4835 49.5927 64.295 50.5306C63.6929 50.1968 63.1383 49.6722 62.5203 49.5768C62.0133 49.4973 61.427 49.8947 60.7139 50.1491C59.4462 48.9727 58.036 48.9091 56.7842 50.4511C54.1379 48.5911 54.1062 49.1475 51.9988 50.6578C51.7611 50.2922 51.5392 49.8311 51.1906 49.4814C50.2716 48.5593 49.305 48.6229 48.5285 49.6881C48.1799 50.165 48.0056 50.7532 47.7838 51.3096C47.5461 51.8819 47.245 52.2794 46.3894 51.9614C46.4686 51.4527 46.5795 50.944 46.6429 50.4193C46.738 49.6881 46.6904 49.0998 45.8665 48.6706C44.8523 48.1301 44.8523 46.1111 45.8506 45.4593C46.4686 45.0618 46.9281 44.728 47.1024 43.9172C47.2767 43.1382 48.1483 43.0746 48.7345 43.6946C48.7979 43.7741 48.8613 43.8536 48.9088 43.9331C49.6853 45.1731 51.0163 45.0618 51.7135 43.631C52.0146 43.011 52.4266 42.5818 53.0763 42.3115C53.6626 42.073 54.0745 42.1366 54.5499 42.5977C55.7067 43.7105 56.2137 43.6787 57.418 42.5023C58.3529 41.5802 58.8758 41.5643 59.8265 42.4864C60.1118 42.7725 60.3653 43.0905 60.6822 43.3449C61.5537 44.0762 62.1242 44.108 63.1383 43.5356C64.406 42.8361 64.7863 42.9792 65.3725 44.3623C65.9271 45.65 66.0222 45.6818 67.5117 45.6977C67.9079 45.7136 68.3515 45.9044 68.8428 46.0316Z" fill="white"/>
<path d="M105.163 112.27C105.163 110.475 105.163 108.806 105.163 107.043C105.608 106.949 106.101 106.839 106.578 106.744C107.5 106.571 108.295 106.209 108.787 105.359C108.835 105.28 108.899 105.201 108.962 105.123C109.312 104.698 109.709 104.194 110.329 104.462C110.965 104.729 110.79 105.343 110.711 105.91C110.504 107.248 110.822 107.626 112.173 107.641C112.714 107.641 113.27 107.547 113.811 107.468C115.241 107.248 116.672 106.996 118.118 106.823C118.691 106.744 119.295 106.807 119.93 106.807C120.439 107.909 119.835 108.617 119.088 109.105C118.134 109.735 117.117 110.349 116.036 110.648C112.571 111.577 109.026 112.222 105.163 112.27Z" fill="white"/>
<path d="M55.0808 67.8361C57.8022 68.2957 60.3949 68.058 63.0197 67.123C63.0841 68.787 63.4384 70.2448 62.5688 71.671C62.0374 72.5268 61.3933 72.9705 60.3949 73.0656C58.8167 73.2082 57.3674 72.8279 56.047 71.9721C55.0969 71.37 54.807 70.435 54.8392 69.3891C54.8553 68.9454 54.9842 68.5017 55.0808 67.8361Z" fill="white"/>
<path d="M53.2479 54.5666C52.5388 54.1535 51.7508 53.8934 51.7508 53.664C51.7823 52.8378 52.586 53.0673 53.1376 53.0367C53.4843 53.0214 53.831 53.052 54.1777 53.0979C55.4227 53.2356 55.8955 54.0464 55.2809 55.1173C55.076 55.4692 54.5717 55.8058 54.162 55.8823C53.5474 55.9894 53.374 55.4386 53.311 54.9185C53.2952 54.7349 53.2479 54.5513 53.2479 54.5666Z" fill="black"/>
<path d="M62.5316 54.648C61.8391 54.4902 61.2411 54.3482 60.2968 54.1273C60.8319 53.717 61.0365 53.4172 61.304 53.3698C61.8391 53.2752 62.4057 53.212 62.925 53.3383C63.4601 53.4645 64.0582 53.717 64.4044 54.0957C64.7821 54.5218 64.4516 55.8946 64.0267 56.3207C63.5703 56.7941 62.9565 56.6836 62.7519 56.0366C62.626 55.6264 62.6103 55.1687 62.5316 54.648Z" fill="black"/>
<path d="M57.5401 55.418C58.6819 56.3311 58.1744 57.2443 58.222 58.0453C58.2696 58.1254 58.3013 58.2376 58.3806 58.2857C58.7295 58.542 59.3004 58.7022 59.0466 59.2789C58.9356 59.5192 58.4599 59.7596 58.2061 59.7115C57.7621 59.6154 57.0326 59.343 57.0009 59.0867C56.9058 57.9012 57.0485 56.7317 57.5401 55.418Z" fill="black"/>
<path d="M177.534 84.3593C176.116 84.2038 174.974 84.0484 173.833 83.9447C168.54 83.4782 163.247 83.4091 157.937 83.9101C156.605 84.0311 155.377 84.4112 154.2 85.0678C152.626 85.9662 150.879 86.1563 149.132 85.9835C146.763 85.7589 146.382 85.0505 147.385 82.9771C145.742 82.597 144.082 82.2687 142.456 81.7849C141.937 81.6294 141.366 81.1975 141.124 80.731C140.64 79.7979 141.055 78.8131 142.11 78.5367C143.891 78.0702 145.725 77.5691 147.558 77.4654C152.523 77.1717 157.504 77.1717 162.486 76.9125C166.516 76.7052 170.581 76.4979 174.577 75.945C182.205 74.891 189.798 73.5779 197.53 72.3511C197.426 70.5197 197.859 68.8783 198.447 67.2196C198.654 66.6148 198.447 65.6473 198.066 65.0771C196.579 62.7964 196.855 60.6194 198.308 58.5115C198.896 57.6476 198.879 56.7837 198.706 55.8506C198.62 55.315 198.429 54.7967 198.308 54.2611C197.565 50.9091 199.675 47.9546 203.117 47.6436C204.414 47.5226 205.452 47.1944 206.421 46.2095C208.202 44.3953 210.14 44.2225 212.406 45.4493C213.236 45.8985 214.049 45.9849 214.931 45.7603C215.519 45.6048 216.09 45.432 216.678 45.3283C219.653 44.81 222.334 46.8488 222.49 49.8552C222.542 50.8919 222.818 51.7039 223.493 52.4987C224.998 54.2438 225.482 56.248 224.41 58.4251C223.943 59.3754 224.064 60.0838 224.721 60.9477C225.897 62.4508 226.036 64.2477 225.084 65.8719C224.341 67.1504 224.479 68.239 225.05 69.4139C225.361 70.0532 225.672 70.6752 225.966 71.2454C229.011 71.4009 231.951 71.6255 234.892 71.66C239.752 71.7291 244.63 71.7637 249.491 71.6773C257.638 71.5391 265.785 71.2799 273.932 71.1071C275.679 71.0726 277.426 71.159 279.19 71.1762C279.986 71.1935 280.764 71.2626 281.023 72.1956C281.231 72.9213 280.833 73.647 279.899 74.1653C278.982 74.6491 278.031 75.0465 277.114 75.4785C277.633 77.6209 277.339 78.1565 275.281 78.7094C273.776 79.1068 272.167 79.3142 270.766 78.6922C267.999 77.4654 265.248 77.8283 262.412 78.2948C257.568 79.1068 252.691 79.8152 247.83 80.5755C246.706 80.7483 245.581 80.9729 244.353 81.1975C244.353 84.3939 244.353 87.4867 244.353 90.5967C243.16 90.7868 242.087 90.9595 241.015 91.1496C240.427 91.2533 239.856 91.3915 239.285 91.5643C237.227 92.2036 235.895 93.534 234.978 95.5037C233.871 97.888 232.955 100.307 232.47 102.916C231.017 110.708 230.308 118.587 229.945 126.5C229.824 128.902 229.806 131.286 229.755 133.688C229.72 135.9 229.08 136.625 226.779 136.625C222.351 136.643 217.906 136.66 213.478 136.556C209.223 136.453 204.95 136.211 200.695 135.969C199.554 135.9 198.412 135.675 197.288 135.45C196.077 135.191 195.887 134.915 195.835 133.653C195.731 130.82 195.679 127.969 195.523 125.153C195.264 120.695 194.953 116.22 194.641 111.762C194.503 109.862 194.434 107.944 194.192 106.061C193.967 104.281 193.673 102.484 193.171 100.773C192.462 98.2336 190.715 96.5231 188.414 95.2618C186.166 94.0178 183.813 93.6895 181.305 93.7413C178.261 93.7931 178.244 93.6722 178.071 90.6485C177.984 88.5752 177.742 86.5191 177.534 84.3593ZM242.399 73.6988C239.476 73.215 236.57 73.4915 233.698 73.3187C230.862 73.1632 228.008 72.9213 225.188 73.0941C222.317 73.2496 219.497 72.6276 216.54 72.8695C216.626 74.5454 216.194 75.9968 215.363 77.3099C214.827 78.1738 214.083 78.8649 213.028 78.9513C209.621 79.2278 206.715 77.2063 206.594 73.9407C206.576 73.5779 206.49 73.2323 206.403 72.6794C197.149 74.1308 187.999 75.5648 178.901 76.9816C178.659 78.9341 179.593 90.7177 180.077 92.169C180.804 92.169 181.582 92.2209 182.326 92.1517C185.111 91.9271 187.584 92.912 190.058 93.9832C191.147 94.4497 191.943 95.2272 192.687 96.143C194.918 98.8556 195.489 102.156 195.887 105.456C196.285 108.756 196.406 112.091 196.613 115.408C196.959 120.85 197.27 126.293 197.582 131.753C197.616 132.427 197.582 133.118 197.582 133.757C202.183 134.846 225.638 135.502 227.956 134.621C228.059 132.254 228.129 129.852 228.267 127.468C228.734 119.797 229.201 112.125 230.568 104.523C231.225 100.825 232.159 97.3179 233.958 94.0005C234.875 92.3072 236.085 91.115 237.867 90.4758C239.441 89.9229 241.05 89.4045 242.779 88.8343C242.503 83.9274 243.022 78.8477 242.399 73.6988ZM206.23 70.9516C206.49 69.5867 206.317 68.4981 205.504 67.4442C204.933 66.684 204.535 65.7337 204.259 64.8179C203.394 61.9843 203.809 59.0816 203.861 56.1962C203.861 55.937 204.155 55.6606 204.31 55.4187C205.244 55.6606 206.075 55.9543 206.922 56.0925C209.915 56.6109 212.907 56.5245 215.917 56.1789C216.418 56.1271 216.903 55.8161 217.387 55.5915C218.062 55.2459 218.529 55.4187 218.736 56.1616C218.805 56.4208 218.805 56.6973 218.805 56.9737C218.788 58.7706 218.805 60.5848 218.719 62.3817C218.615 64.8006 218.269 67.1505 216.713 69.172C216.384 69.6039 216.47 70.3642 216.315 71.1244C219.03 71.1071 221.487 71.5391 224.029 71.349C223.943 71.0207 223.925 70.848 223.856 70.727C222.853 68.7919 222.369 66.9258 223.735 64.8698C224.323 63.9886 224.168 62.7791 223.407 61.9498C222.196 60.6367 222.092 59.2717 222.87 57.7512C223.631 56.248 223.355 54.8485 222.265 53.6563C221.279 52.5851 220.847 51.4448 220.795 49.9761C220.743 47.8682 218.892 46.5724 216.816 46.987C216.28 47.0907 215.761 47.298 215.225 47.3844C214.031 47.5745 212.873 47.609 211.731 46.9525C209.984 45.9331 208.635 46.0713 207.32 47.5745C206.282 48.7667 205.123 49.1641 203.584 49.1641C201.128 49.1641 199.45 51.3238 199.865 53.7255C199.969 54.3129 200.211 54.8831 200.297 55.4705C200.505 56.8182 200.626 58.1659 199.709 59.3926C198.55 60.9304 198.377 62.5372 199.502 64.2478C200.367 65.5609 200.453 66.9777 199.796 68.4636C199.502 69.1374 199.363 69.8804 199.121 70.727C201.629 71.3836 203.913 71.3663 206.23 70.9516ZM278.585 73.1114C278.55 72.9904 278.515 72.8522 278.481 72.7313C276.734 72.7313 274.987 72.714 273.24 72.7313C266.096 72.8349 258.935 72.6449 251.808 73.3878C249.698 73.6124 247.553 73.4224 245.409 73.4397C244.993 73.4397 244.578 73.5088 244.077 73.5433C244.198 75.6167 244.319 77.5691 244.423 79.5733C245.737 79.3487 246.913 79.1241 248.09 78.9341C252.846 78.1911 257.603 77.5173 262.342 76.7052C265.387 76.1869 268.362 75.8413 271.354 77.068C272.738 77.6382 274.243 77.5173 275.661 76.9471C275.177 74.9947 275.385 74.58 277.183 73.7679C277.65 73.5606 278.117 73.3187 278.585 73.1114ZM177.379 82.5797C177.24 80.6964 177.119 79.0032 176.981 77.2754C176.548 77.2754 176.272 77.2235 176.03 77.2754C170.546 78.4157 164.959 78.3811 159.407 78.5712C155.48 78.7094 151.537 78.7613 147.628 78.9513C146.226 79.0205 144.825 79.366 143.442 79.6252C143.13 79.677 142.854 79.9362 142.559 80.0917C142.577 80.2126 142.577 80.3163 142.594 80.4372C144.012 80.731 145.431 81.0938 146.866 81.2839C149.53 81.6467 149.859 82.1305 148.735 84.463C150.516 84.6185 152.211 84.4976 153.768 83.53C155.256 82.6143 156.916 82.3378 158.629 82.2342C159.286 82.1996 159.943 82.1132 160.583 82.1132C164.129 82.1132 167.675 82.0959 171.221 82.165C173.227 82.1996 175.217 82.4242 177.379 82.5797ZM217.197 58.0795C213.08 57.9931 209.292 57.924 205.366 57.8376C205.366 58.978 205.366 60.2047 205.366 61.4487C205.366 63.8849 206.109 65.9928 207.839 67.807C210.537 70.6752 214.741 70.0359 216.263 66.4248C216.47 65.9237 216.695 65.4054 216.73 64.8698C216.937 62.6236 217.058 60.3602 217.197 58.0795ZM207.995 70.3296C208.064 71.7119 207.995 72.9213 208.202 74.0617C208.341 74.8219 208.773 75.6167 209.309 76.1869C211.195 78.1911 213.893 77.5864 214.602 74.9601C214.948 73.6816 214.862 72.2993 214.983 70.7961C212.475 71.5736 210.313 71.0898 207.995 70.3296Z" fill="black"/>
<path d="M242.512 73.6842C243.135 78.8482 242.616 83.9255 242.875 88.8468C241.126 89.436 239.533 89.9385 237.957 90.493C236.173 91.1342 234.961 92.3298 234.043 94.028C232.242 97.3551 231.324 100.873 230.649 104.581C229.281 112.206 228.813 119.9 228.346 127.594C228.207 129.985 228.138 132.394 228.034 134.768C225.713 135.651 202.231 134.993 197.624 133.901C197.624 133.26 197.659 132.567 197.624 131.891C197.312 126.433 197.001 120.974 196.654 115.498C196.446 112.171 196.325 108.827 195.927 105.517C195.529 102.207 194.957 98.8974 192.723 96.1768C191.978 95.2757 191.182 94.4959 190.091 94.0107C187.614 92.9363 185.138 91.9486 182.35 92.1739C181.588 92.2432 180.826 92.1912 180.098 92.1912C179.613 90.7356 178.678 78.9002 178.921 76.9594C188.03 75.5384 197.191 74.1001 206.456 72.6445C206.543 73.1817 206.629 73.5456 206.647 73.9095C206.768 77.1846 209.695 79.2121 213.089 78.9348C214.145 78.8482 214.873 78.1724 215.427 77.2886C216.258 75.9543 216.691 74.516 216.604 72.8351C219.566 72.5752 222.388 73.2164 225.263 73.0604C228.086 72.9045 230.943 73.1297 233.784 73.2857C236.676 73.4763 239.585 73.199 242.512 73.6842Z" fill="white"/>
<path d="M206.271 70.9651C203.975 71.3619 201.679 71.3965 199.211 70.758C199.452 69.9126 199.591 69.1706 199.884 68.4977C200.54 67.0138 200.454 65.5816 199.591 64.2875C198.469 62.5793 198.641 60.9746 199.798 59.4389C200.73 58.2138 200.592 56.8852 200.385 55.5221C200.298 54.9355 200.057 54.366 199.953 53.7794C199.521 51.3982 201.213 49.2414 203.664 49.2241C205.201 49.2241 206.357 48.8273 207.393 47.6367C208.705 46.1528 210.051 45.9975 211.795 47.0155C212.934 47.6712 214.091 47.6367 215.282 47.4469C215.817 47.3606 216.335 47.1536 216.87 47.05C218.941 46.6187 220.789 47.9128 220.84 50.0351C220.875 51.5018 221.324 52.6406 222.308 53.7104C223.395 54.8837 223.671 56.2986 222.912 57.7997C222.135 59.3182 222.239 60.6813 223.447 61.9926C224.206 62.8209 224.379 64.0287 223.775 64.9087C222.411 66.962 222.895 68.8255 223.896 70.758C223.965 70.8961 223.982 71.0514 224.068 71.3792C221.531 71.569 219.08 71.1376 216.369 71.1549C216.508 70.3784 216.421 69.6365 216.766 69.2051C218.303 67.1691 218.648 64.8397 218.769 62.424C218.855 60.6295 218.838 58.835 218.855 57.0233C218.855 56.7472 218.855 56.4711 218.786 56.2123C218.579 55.4703 218.13 55.2978 217.44 55.6429C216.974 55.8845 216.49 56.1778 215.972 56.2296C212.986 56.5747 209.982 56.6437 206.996 56.1433C206.15 56.0052 205.322 55.7119 204.389 55.4703C204.251 55.7119 203.941 55.9707 203.941 56.2468C203.889 59.1283 203.475 62.0271 204.338 64.8569C204.614 65.7714 205.011 66.7204 205.581 67.4796C206.357 68.5322 206.513 69.602 206.271 70.9651Z" fill="white"/>
<path d="M278.644 73.0131C278.177 73.2365 277.709 73.4599 277.225 73.6833C275.424 74.491 275.216 74.9035 275.701 76.8454C274.282 77.4297 272.776 77.5328 271.391 76.9657C268.396 75.7455 265.419 76.0893 262.372 76.6048C257.629 77.4125 252.869 78.0828 248.108 78.8217C246.931 79.0108 245.754 79.217 244.438 79.4576C244.317 77.4641 244.213 75.5221 244.092 73.4599C244.594 73.4255 245.009 73.3568 245.425 73.3568C247.554 73.3396 249.718 73.5286 251.83 73.3052C258.962 72.5663 266.128 72.7553 273.278 72.6522C275.026 72.635 276.774 72.6522 278.523 72.6522C278.575 72.7553 278.609 72.8756 278.644 73.0131Z" fill="white"/>
<path d="M177.421 82.624C175.261 82.4676 173.256 82.2418 171.268 82.207C167.724 82.1375 164.181 82.1549 160.637 82.1549C159.981 82.1549 159.324 82.2418 158.684 82.2765C156.973 82.3808 155.314 82.6587 153.827 83.5794C152.271 84.5523 150.577 84.6565 148.797 84.5175C149.938 82.1549 149.609 81.6685 146.93 81.3211C145.496 81.13 144.078 80.7652 142.661 80.4698C142.644 80.3482 142.644 80.244 142.626 80.1224C142.92 79.966 143.197 79.7228 143.508 79.6534C144.891 79.3928 146.291 79.0453 147.691 78.9758C151.615 78.7847 155.538 78.7326 159.462 78.5936C165.011 78.4026 170.594 78.4373 176.073 77.2907C176.333 77.2386 176.609 77.2907 177.024 77.2907C177.162 79.0279 177.283 80.7304 177.421 82.624Z" fill="white"/>
<path d="M217.083 58.0237C216.929 60.2875 216.81 62.5341 216.622 64.7807C216.571 65.3124 216.366 65.8269 216.161 66.3242C214.658 69.9085 210.526 70.543 207.845 67.6962C206.138 65.8783 205.404 63.8032 205.404 61.3851C205.404 60.1503 205.404 58.9155 205.404 57.8008C209.28 57.8694 213.019 57.938 217.083 58.0237ZM212.558 59.6015C212.661 59.8416 212.678 60.0474 212.797 60.116C213.463 60.4933 214.317 60.6305 214.471 61.6423C214.488 61.7795 215.256 61.9682 215.546 61.831C216.281 61.488 216.332 59.773 215.58 59.4643C214.607 59.0699 213.566 58.967 212.558 59.6015ZM207.76 59.3271C207.521 59.3614 207.026 59.3786 206.565 59.5158C206.36 59.5672 206.087 59.8587 206.087 60.0302C206.087 60.2017 206.394 60.5276 206.565 60.5276C207.248 60.5276 207.555 60.8363 207.862 61.4537C208.204 62.1397 209.006 62.0025 209.365 61.2822C209.929 60.2017 209.314 59.3271 207.76 59.3271ZM210.834 61.7281C210.031 62.4312 210.15 63.203 210.594 63.8032C211.021 64.3863 211.687 64.3177 212.353 63.7517C211.841 63.0829 211.397 62.4827 210.834 61.7281Z" fill="white"/>
<path d="M208.08 70.2109C210.357 70.9729 212.465 71.4405 214.893 70.6785C214.775 72.1851 214.86 73.5706 214.522 74.8521C213.831 77.4844 211.2 78.0731 209.362 76.0816C208.839 75.5101 208.434 74.7135 208.283 73.9515C208.063 72.8086 208.131 71.5963 208.08 70.2109Z" fill="white"/>
<path d="M212.703 59.7075C213.732 59.0852 214.813 59.1861 215.808 59.5729C216.558 59.8756 216.523 61.5573 215.773 61.8937C215.476 62.0282 214.691 61.8264 214.674 61.7087C214.5 60.7333 213.627 60.5988 212.965 60.212C212.825 60.1447 212.808 59.9429 212.703 59.7075Z" fill="black"/>
<path d="M207.758 59.2617C209.281 59.2617 209.884 60.173 209.348 61.2988C208.996 62.0314 208.21 62.1922 207.875 61.4774C207.573 60.8342 207.272 60.5125 206.602 60.5125C206.435 60.5125 206.134 60.173 206.134 59.9943C206.134 59.7978 206.401 59.5119 206.602 59.4583C207.038 59.3153 207.523 59.2975 207.758 59.2617Z" fill="black"/>
<path d="M210.881 61.6953C211.466 62.5092 211.945 63.1567 212.46 63.8781C211.768 64.4885 211.076 64.5625 210.633 63.9336C210.171 63.2862 210.047 62.4537 210.881 61.6953Z" fill="black"/>
</svg>
