<svg width="211" height="211" viewBox="0 0 211 211" fill="none" xmlns="http://www.w3.org/2000/svg">
<rect width="211" height="211" fill="white"/>
<path d="M168.232 104.833L170.838 85.3143C171.018 83.9961 170.1 82.9772 168.713 82.8945L122.792 80.3347C122.079 80.2508 121.43 80.5495 120.951 80.9754C120.804 81.1457 120.619 81.2311 120.433 81.3164C120.062 81.4871 119.73 81.7427 119.53 82.0407L77.0164 137.508C75.0966 139.934 75.6285 143.292 78.0753 144.946L89.4694 152.367C91.9162 154.021 95.5159 153.293 97.4357 150.866L131.307 106.68C132.001 105.743 133.115 105.231 134.277 105.314L165.521 107.006C166.869 107.003 168.105 106.024 168.232 104.833Z" fill="#7F5DFF"/>
<path d="M147.035 126.825C149.355 129.318 151.536 131.744 153.838 134.111C158.393 138.808 163.02 143.41 167.57 148.066C173.315 153.919 179.03 159.863 184.774 165.717C185.576 166.544 186.49 167.269 187.327 168.048C188.356 168.971 188.81 170.061 189.048 171.438C189.352 173.575 188.812 175.191 187.076 176.507C186.34 177.039 185.664 177.691 185.083 178.415C184.065 179.671 182.707 180.334 181.241 180.842C178.877 181.648 176.975 181.49 175.056 179.411C170.794 174.672 166.233 170.232 161.743 165.697C160.649 164.612 159.411 163.719 158.353 162.587C155.071 159.034 151.903 155.379 148.663 151.82C145.728 148.603 142.709 145.397 139.697 142.234C138.387 140.838 136.964 139.543 135.488 138.171C134.74 138.62 133.95 139.074 133.166 139.57C127.504 143.025 121.371 145.265 114.856 146.019C104.177 147.237 94.0622 145.21 84.8655 139.419C65.7246 127.387 60.4593 102.353 73.2503 83.2198C82.1609 69.8539 94.9795 62.9449 111 62.3365C120.943 61.9503 129.998 64.6403 138.088 70.4603C154.884 82.5261 159.595 104.86 149.281 123.086C148.592 124.252 147.826 125.473 147.035 126.825ZM110.304 128.11C117.423 127.098 124.018 123.596 128.759 118.176C132.986 113.343 135.532 107.808 135.716 101.283C136.022 91.1059 128.969 82.0601 117.724 80.4936C107.358 79.1015 98.6989 82.8114 91.7544 90.4679C87.1326 95.5284 84.5682 101.537 84.7908 108.517C85.031 115.923 88.3352 121.738 94.6679 125.414C99.5056 128.19 104.829 128.973 110.304 128.11Z" fill="black"/>
<path fill-rule="evenodd" clip-rule="evenodd" d="M48.1631 90.7252C48.1374 90.6534 48.1022 90.5554 48.0671 90.4154C47.7603 90.1403 47.3001 89.7276 46.7839 89.3289C45.2629 88.2433 43.7559 87.1541 42.2489 86.065C40.742 84.9759 39.2351 83.8868 37.7141 82.8011C35.7744 81.4684 33.7787 80.1497 31.7831 78.831C30.4294 77.9382 29.2265 78.1222 28.2442 79.4242C27.5844 80.3153 26.9153 81.1688 26.2208 82.0545C26.0733 82.2427 25.9246 82.4324 25.7746 82.6242C23.7962 85.1731 24.003 86.2359 26.7393 87.6624C28.8614 88.7734 30.9835 89.8844 33.1477 90.9263C36.1633 92.5174 39.2348 94.0946 42.2924 95.6166C43.1859 96.0968 44.2894 96.4656 45.0893 95.3853C45.7334 94.5154 46.347 93.6103 46.9639 92.7004C47.3685 92.1036 47.7746 91.5047 48.1916 90.9122C48.2159 90.8723 48.1983 90.8232 48.1631 90.7252ZM27.8236 84.8681C28.6374 83.843 29.3952 82.8318 30.4618 81.3913C30.4731 81.3994 30.4845 81.4074 30.4959 81.4155C30.5188 81.3851 30.5419 81.3546 30.5651 81.324C33.0391 83.1033 35.4395 84.8377 37.8327 86.5677C38.5081 87.0393 39.1828 87.51 39.8575 87.9808C41.4111 89.0648 42.9647 90.1487 44.5276 91.2434C44.5029 91.279 44.4783 91.3146 44.4537 91.3502C44.5115 91.3918 44.5693 91.4335 44.6272 91.4752C44.4753 91.7017 44.3212 91.9194 44.1751 92.1259C43.9508 92.4428 43.7453 92.7331 43.5955 92.9876C40.7597 91.5167 37.961 90.0543 35.1476 88.5843C34.9509 88.4815 34.754 88.3786 34.5571 88.2757C32.3345 87.159 30.0995 86.0299 27.8236 84.8681Z" fill="black"/>
<path fill-rule="evenodd" clip-rule="evenodd" d="M67.6149 57.1445C68.5166 56.2068 69.4265 55.2604 69.2086 53.5424C69.1503 53.4755 69.0887 53.4024 69.0237 53.3253C68.7102 52.9536 68.3174 52.4879 67.8364 52.1664C66.476 50.8781 65.1011 49.6022 63.7252 48.3253C61.4947 46.2553 59.2613 44.1827 57.0826 42.0511C54.8345 39.8078 53.9456 38.7987 53.0208 38.7648C52.0893 38.7306 51.1214 39.686 48.6911 41.3661C46.5262 42.8573 46.3956 43.5423 48.2777 45.265C52.7214 49.2516 57.3078 53.084 61.8942 56.9163L61.8944 56.9165C62.5032 57.4163 63.3254 57.8033 64.0768 58.1488C65.2533 58.7436 66.3478 58.5287 67.2466 57.5326C67.3673 57.4021 67.491 57.2734 67.6149 57.1445ZM56.7201 45.7627C59.8033 48.6539 62.84 51.5015 65.9809 54.4102C65.8852 54.5079 65.7965 54.6038 65.7098 54.7001C65.7346 54.7235 65.7595 54.7468 65.7843 54.7702C65.4653 55.1441 65.1463 55.5181 64.7441 56.0306C59.6965 52.5898 55.2314 48.6502 50.8911 44.2676C50.936 44.2292 50.9799 44.1912 51.023 44.1536C50.9147 44.0456 50.8063 43.9372 50.6981 43.8284C50.9731 43.5835 51.2265 43.3522 51.4722 43.1279C51.8888 42.7477 52.283 42.3879 52.7223 42.0167C54.0713 43.2788 55.4 44.5248 56.7201 45.7627Z" fill="black"/>
<path fill-rule="evenodd" clip-rule="evenodd" d="M96.6409 42.0304C97.1676 44.3831 97.7017 46.7685 98.227 49.2115C98.854 49.2144 99.4293 49.2243 99.9713 49.2336C100.966 49.2507 101.848 49.2659 102.731 49.2327C105.102 49.0706 105.459 48.6105 105.174 46.2423C104.545 41.3901 103.916 36.5379 103.109 31.6848C102.303 26.8318 102.243 26.8315 97.0866 27.0959C94.1825 27.1977 93.5874 27.7144 94.1667 30.5459C94.9235 34.359 95.7722 38.1501 96.6409 42.0304ZM100.374 46.2774C99.2727 41.0766 98.1715 35.8181 97.0124 30.2706C97.3388 30.2348 97.6279 30.1988 97.9019 30.1646C98.4739 30.0933 98.9798 30.0303 99.6211 29.9943C99.6291 30.0339 99.6371 30.0736 99.6451 30.1131C99.6569 30.1118 99.6688 30.1104 99.6807 30.109C99.7908 30.6475 99.9093 31.178 100.027 31.7033C100.22 32.5656 100.409 33.4143 100.553 34.2627C101.132 37.6192 101.651 40.9754 102.112 44.2744C102.167 44.7182 102.223 45.189 102.045 45.5473C101.884 45.9781 101.434 46.2824 100.374 46.2774Z" fill="black"/>
</svg>
