<svg width="1599" height="1599" viewBox="0 0 1599 1599" fill="none" xmlns="http://www.w3.org/2000/svg">
<path d="M843.931 1244.71C842.874 1250.36 841.842 1256.04 840.711 1261.69C840.22 1264.1 839.261 1266.41 838.917 1268.82C837.688 1277.96 839.802 1281.62 847.887 1286.19C856.022 1290.81 864.157 1295.51 871.972 1300.64C888.709 1311.63 891.928 1330.7 888.193 1346.79C887.726 1348.73 886.964 1350.63 886.521 1352.59C884.826 1360.01 885.121 1366.75 889.987 1373.5C895.025 1380.51 899.031 1388.35 902.742 1396.19C906.846 1404.79 907.78 1414.17 907.51 1423.64C907.264 1431.45 901.488 1434.3 894.681 1430.61C889.643 1427.89 884.137 1425.9 878.706 1423.96C853.221 1414.94 827.194 1407.88 800.504 1403.56C792.837 1402.31 784.948 1402.28 777.182 1401.57C774.724 1401.35 772.93 1402.13 771.209 1403.78C768.309 1406.56 765.262 1409.16 762.215 1411.82C750.688 1421.79 737.614 1429.24 722.573 1431.5C709.105 1433.51 695.121 1433.29 682.194 1428.4C674.33 1425.43 668.948 1428.58 663.123 1432.16C661.059 1433.44 659.289 1435.23 657.593 1437C643.265 1451.97 626.48 1462.88 606.45 1468.66C591.803 1472.88 576.86 1472.42 561.918 1471.48C554.127 1470.99 546.41 1469.91 539.013 1467.01C536.211 1465.9 532.943 1465.76 529.846 1465.61C523.186 1465.26 520.531 1463.08 520.163 1456.37C519.917 1451.92 519.868 1447.37 520.605 1443.02C522.498 1431.7 526.454 1421.18 533.213 1411.64C538.349 1404.39 542.626 1396.51 547.172 1388.86C552.21 1380.41 550.367 1372.18 546.091 1364.07C544.641 1361.32 543.068 1358.59 541.815 1355.74C538.276 1347.68 537.981 1339.27 539.799 1330.82C541.839 1321.38 545.476 1312.54 550.293 1304.13C552.505 1300.27 554.324 1296.19 556.167 1292.14C559.067 1285.82 558.576 1279.56 555.405 1273.46C554.054 1270.88 552.849 1268.21 551.178 1265.87C542.92 1254.37 545.009 1242.55 550.392 1230.98C554.693 1221.69 561.525 1214.29 570.716 1209.47C574.28 1207.61 575.681 1204.48 576.983 1201.19C580.227 1193.11 585.143 1186.42 592.245 1181.29C596.841 1177.97 601.707 1175.41 607.359 1174.55C609.793 1174.18 612.176 1173.42 614.609 1173.3C621.491 1172.88 625.816 1169.22 629.576 1163.62C635.008 1155.48 640.98 1147.74 649.582 1142.34C663.467 1133.64 679.147 1135.6 689.887 1148.01C691.926 1150.37 693.819 1152.88 695.76 1155.31C700.209 1160.91 703.502 1161.9 710.309 1159.15C716.331 1156.69 722.327 1154.35 728.938 1154.08C731.175 1153.98 733.411 1153.76 735.623 1153.89C748.206 1154.5 754.768 1159.93 757.914 1172.19C758.258 1173.5 758.504 1174.8 758.774 1176.13C760.568 1184.46 760.593 1184.8 769.342 1184.06C779.197 1183.2 788.954 1182.76 798.563 1185.64C824.687 1193.43 840.736 1210.43 842.776 1238C842.948 1240.24 843.046 1242.45 843.169 1244.69C843.464 1244.61 843.685 1244.66 843.931 1244.71ZM664.254 1420.76C653.243 1415.48 646.583 1406.95 639.112 1399.31C625.644 1385.55 617.337 1368.93 611.955 1350.75C609.178 1341.36 607.138 1331.73 604.632 1322.24C603.206 1316.86 601.707 1311.5 599.962 1306.25C598.537 1301.97 599.569 1300.27 603.968 1299.17C609.989 1297.69 615.986 1296.05 621.835 1293.98C629.822 1291.18 637.687 1288.01 645.551 1284.84C656.094 1280.62 666.687 1276.46 677.058 1271.84C684.996 1268.3 692.565 1263.93 700.479 1260.32C703.428 1258.97 706.844 1258.23 710.088 1258.11C724.318 1257.61 737.884 1261.55 751.548 1264.79C759.978 1266.78 768.309 1269.14 776.764 1271.1C782.465 1272.43 785.906 1275.63 787.184 1281.48C789.101 1290.2 790.895 1298.92 793.058 1307.6C800.037 1335.66 796.892 1362.47 783.621 1388.15C783.129 1389.08 782.908 1390.17 782.416 1391.62C787.479 1391.96 792.075 1392.28 795.884 1392.55C798.243 1383.14 800.062 1374.22 802.741 1365.57C806.673 1352.81 806.993 1340.18 802.987 1327.45C802.446 1325.76 801.684 1323.96 801.832 1322.29C801.979 1320.74 802.839 1318.61 804.019 1317.99C806.132 1316.89 806.919 1319.12 807.754 1320.7C811.687 1328.34 813.923 1336.28 813.898 1345.07C813.849 1354.09 813.284 1362.86 809.696 1371.27C808.737 1373.5 807.877 1375.89 807.558 1378.3C806.87 1383.48 804.633 1388.59 806.452 1394.17C811.318 1395.06 816.037 1395.94 820.976 1396.85C820.976 1393.51 820.804 1390.85 821.026 1388.22C821.493 1382.7 821.738 1377.09 822.844 1371.66C826.088 1355.76 826.162 1340.21 819.502 1325.07C819.232 1324.46 819.01 1323.82 818.74 1323.2C817.732 1321.01 817.118 1318.7 819.797 1317.43C822.476 1316.15 823.975 1318.31 825.056 1320.25C826.678 1323.18 828.3 1326.15 829.382 1329.3C834.174 1343.13 834.567 1357.24 831.52 1371.54C830.463 1376.53 829.578 1381.64 829.406 1386.73C828.915 1400.9 830.266 1399.63 842.087 1402.11C842.235 1402.13 842.407 1401.89 842.628 1401.74C842.309 1397.61 841.547 1393.46 841.743 1389.33C842.161 1380.21 842.997 1371.1 843.734 1361.98C844.668 1350.36 845.479 1338.76 838.819 1328.21C837.885 1326.72 836.951 1325.02 836.754 1323.32C836.558 1321.8 837.344 1320.18 837.713 1318.58C839.163 1319.29 841.129 1319.66 841.965 1320.82C848.06 1329.25 852.901 1338.27 852.287 1349.15C851.721 1359.15 851.058 1369.18 850.517 1379.18C850.247 1384.07 849.755 1389.01 850.198 1393.88C850.615 1398.45 851.746 1403.26 856.44 1405.65C859.291 1407.1 862.486 1407.91 866.344 1409.28C865.754 1407.42 865.607 1406.58 865.238 1405.84C858.406 1392.48 856.661 1378.57 858.848 1363.63C860.692 1351.09 861.847 1338.17 853.835 1326.74C853.589 1326.37 853.417 1325.93 853.319 1325.51C852.827 1323.28 854.72 1321.46 856.907 1322.34C858.283 1322.91 859.512 1324.04 860.52 1325.14C864.182 1329.25 866.295 1334.01 867.254 1339.47C868.999 1349.52 868.433 1359.47 867.008 1369.47C864.845 1384.69 869.392 1398.15 877.772 1410.56C878.927 1412.26 880.918 1413.76 882.835 1414.54C887.554 1416.46 892.469 1417.93 897.999 1419.83C897.261 1413.24 897.114 1406.9 894.238 1401.3C889.864 1392.8 885.219 1384.39 880.107 1376.31C876.593 1370.73 874.7 1365.03 875.708 1358.59C876.421 1353.97 877.625 1349.45 878.608 1344.88C880.943 1333.97 880.697 1323.32 872.857 1314.55C869.367 1310.62 864.894 1307.43 860.421 1304.6C854.204 1300.67 847.617 1297.35 841.154 1293.84C832.945 1289.36 828.571 1282.51 828.964 1273.14C829.16 1268.75 829.775 1264.2 831.225 1260.07C835.476 1247.81 833.633 1235.77 830.217 1223.9C829.013 1219.72 826.776 1215.42 823.876 1212.23C811.49 1198.61 796.13 1191.66 777.378 1193.08C772.487 1193.45 767.572 1193.79 762.657 1193.7C756.341 1193.57 752.679 1190.67 750.934 1184.65C750.074 1181.66 749.681 1178.53 749.017 1175.49C746.953 1166.03 743.463 1163.32 733.682 1163.13C726.776 1162.98 720.558 1165.14 714.365 1167.89C704.46 1172.32 694.753 1170.77 688.412 1161.31C686.815 1158.9 684.922 1156.66 683.03 1154.48C675.19 1145.33 664.573 1143.98 654.325 1150.3C647.001 1154.8 641.963 1161.41 637.711 1168.39C632.231 1177.4 624.833 1182.25 614.487 1182.91C614.044 1182.93 613.602 1183.03 613.159 1183.06C604.902 1183.57 598.094 1187.36 592.687 1193.25C589.443 1196.82 586.937 1201.17 584.626 1205.44C582.243 1209.84 579.637 1213.55 575.017 1216.13C568.087 1219.99 562.68 1225.77 559.141 1232.97C554.398 1242.6 552.259 1252.31 559.288 1262.01C560.984 1264.35 562.139 1267.05 563.515 1269.61C566.489 1275.06 568.209 1281.13 566.833 1287.03C565.211 1293.89 562.213 1300.42 559.46 1306.96C557.052 1312.71 553.832 1318.12 551.522 1323.89C546.509 1336.42 546.558 1348.71 554.496 1360.26C554.742 1360.63 554.938 1361.05 555.11 1361.44C559.682 1371.59 561.893 1381.88 555.97 1392.23C551.006 1400.93 546.042 1409.68 540.389 1417.93C534.81 1426.07 531.468 1434.92 529.87 1444.45C529.231 1448.26 529.772 1452.29 529.772 1456.07C534.515 1456.86 538.792 1457.55 543.265 1458.29C543.387 1456.86 543.535 1456 543.559 1455.12C543.707 1440.74 547.983 1427.96 557.715 1417.1C559.632 1414.96 561.328 1412.48 562.459 1409.85C568.136 1396.56 572.24 1383.02 568.087 1368.3C567.325 1365.64 567.767 1362.57 567.964 1359.72C568.136 1357.58 569.291 1355.44 571.724 1356.03C573.002 1356.35 574.427 1358.27 574.82 1359.72C576.074 1364.44 577.106 1369.25 577.794 1374.09C580.424 1392.53 575.558 1409.24 564.376 1423.69C555.676 1434.94 552.259 1447.13 553.046 1461.73C557.912 1461.01 562.213 1464.11 566.882 1462.17C564.793 1449.68 564.597 1444.99 568.971 1436.46C572.904 1428.8 577.868 1421.55 583.029 1414.59C587.551 1408.52 589.91 1402.01 589.345 1394.66C588.952 1389.63 587.944 1384.49 586.322 1379.7C584.11 1373.19 583.152 1366.67 584.43 1359.96C584.7 1358.59 586.519 1357.51 587.6 1356.3C588.731 1357.48 590.107 1358.51 590.943 1359.87C591.459 1360.7 591.065 1362.08 591.336 1363.16C592.442 1367.9 593.326 1372.72 594.875 1377.34C600.159 1393.02 600.355 1407.81 589.345 1421.6C584.798 1427.3 581.087 1433.76 577.598 1440.2C573.665 1447.42 574.526 1455.09 576.885 1463.37C584.381 1462.81 591.582 1462.27 599.962 1461.63C595.661 1455.48 595.293 1449.76 595.71 1443.91C596.153 1437.57 598.34 1431.79 600.994 1426.07C603.722 1420.22 606.647 1414.3 608.097 1408.08C610.456 1397.88 606.72 1388.64 600.994 1380.34C596.153 1373.33 596.153 1365.67 597.013 1357.83C597.16 1356.52 599.102 1355.44 600.208 1354.24C601.289 1355.44 602.444 1356.6 603.378 1357.9C603.722 1358.37 603.599 1359.2 603.624 1359.87C603.82 1366.72 606.057 1372.64 609.94 1378.52C618.64 1391.67 620.36 1405.82 613.577 1420.52C611.906 1424.15 609.915 1427.72 608.711 1431.52C607.065 1436.78 605.762 1442.19 604.853 1447.64C604.165 1451.77 605.934 1455.39 608.932 1458.46C614.978 1456.69 620.409 1454.48 624.071 1451.31C623.359 1444.52 621.786 1438.7 622.425 1433.15C623.26 1426.17 625.865 1419.41 627.807 1412.58C628.471 1410.24 629.921 1408.47 632.673 1409.11C635.868 1409.85 635.893 1412.43 635.524 1414.99C635.376 1416.07 634.86 1417.1 634.565 1418.18C633.214 1423.12 631.567 1427.99 630.658 1433C629.871 1437.32 629.429 1441.87 631.887 1446.22C644.519 1440.47 651.032 1427.37 664.254 1420.76ZM611.808 1308.02C616.33 1329.54 619.771 1350.5 629.847 1369.94C637.564 1384.83 648.205 1397.1 660.862 1407.2C678.262 1421.08 699.152 1424.62 721.025 1421.87C730.954 1420.61 739.826 1416.02 747.837 1410.37C757.299 1403.71 766.835 1396.73 773.004 1386.63C784.702 1367.46 788.708 1346.28 786.201 1324.26C784.726 1311.23 780.991 1298.48 778.361 1285.6C777.845 1283.12 776.592 1281.77 774.109 1281.16C757.668 1277.1 741.3 1272.83 724.809 1268.92C714.979 1266.58 705.64 1267.35 696.522 1272.85C682.342 1281.38 666.736 1286.96 651.4 1293.02C638.547 1298.11 625.57 1302.81 611.808 1308.02Z" fill="black"/>
<path d="M657.274 1316C652.727 1318.21 648.721 1320.2 644.715 1322.1C642.43 1323.18 639.923 1324.26 638.276 1321.33C636.924 1318.93 638.374 1316.94 640.39 1315.68C647.566 1311.19 654.767 1306.71 662.066 1302.46C664.646 1300.96 667.424 1301.43 669.242 1303.94C671.061 1306.44 672.953 1309.02 674.01 1311.87C675.337 1315.46 673.887 1318.83 671.085 1320.72C668.087 1322.73 664.057 1322.59 661.132 1320.15C659.78 1319.02 658.699 1317.57 657.274 1316Z" fill="black"/>
<path d="M743.536 1297.28C739.064 1298.95 734.984 1300.59 730.806 1302.02C728.938 1302.66 726.923 1303.27 725.006 1303.17C723.753 1303.1 721.836 1301.95 721.59 1300.91C721.32 1299.88 722.401 1297.82 723.458 1297.25C727.537 1295.04 731.814 1293.15 736.09 1291.28C740.145 1289.49 744.225 1287.74 748.353 1286.17C752.531 1284.57 754.399 1285.26 756.095 1289.61C757.373 1292.85 758.135 1296.37 758.577 1299.81C758.946 1302.71 757.348 1304.99 754.448 1305.88C751.327 1306.84 748.747 1305.88 746.953 1303.1C745.871 1301.48 744.937 1299.71 743.536 1297.28Z" fill="black"/>
<path d="M707.016 1396.26C701.708 1395.65 695.637 1391.67 694.458 1387.17C694.114 1385.87 694.335 1383.73 695.195 1382.99C695.957 1382.33 698.709 1382.5 699.275 1383.26C704.092 1389.8 710.432 1387.24 716.454 1386.38C719.304 1385.96 722.106 1385.1 724.932 1384.49C727.316 1383.97 729.626 1384.24 730.388 1386.9C731.273 1389.94 729.258 1391.49 726.604 1392.11C720.091 1393.56 713.554 1394.88 707.016 1396.26Z" fill="black"/>
<path d="M711.588 1339.67C709.351 1335.71 707.262 1332.32 705.518 1328.76C704.633 1326.96 704.19 1324.46 706.722 1323.72C707.926 1323.37 710.163 1324.38 711.072 1325.49C713.996 1329.1 716.651 1332.96 719.133 1336.89C721.271 1340.28 720.927 1342.32 717.953 1345.1C716.184 1346.74 714.218 1348.24 712.178 1349.57C710.335 1350.77 707.901 1350.9 706.968 1348.81C706.304 1347.38 706.771 1345 707.533 1343.48C708.221 1342.03 709.99 1341.09 711.588 1339.67Z" fill="black"/>
<path d="M397.999 526.33C408.64 536.946 413.457 550.068 418.643 562.847C422.575 572.554 425.033 582.875 428.105 592.754C433.807 593.884 439.557 594.867 445.234 596.194C449.879 597.251 454.107 599.217 457.056 603.296C457.867 604.402 459.12 605.213 460.201 606.097C480.157 622.439 481.632 646.816 467.894 667.237C461.307 677.043 452.607 684.415 441.548 688.74C436.362 690.779 432.922 693.458 432.307 699.626C431.89 703.705 430.071 707.809 428.203 711.544C421.961 723.905 415.768 736.315 408.837 748.307C403.504 757.547 396.033 765.312 386.669 770.596C371.481 779.172 355.531 786.151 338.057 788.461C315.423 791.459 293.525 788.093 272.512 779.418C264.943 776.297 257.595 772.537 250.418 768.532C246.953 766.59 244.151 766.615 240.539 767.893C229.258 771.874 218.002 775.978 206.451 779C187.823 783.866 171.676 779.541 157.127 766.173C142.283 752.509 137.564 735.947 138.031 716.779C138.473 699.823 144.716 685.766 157.692 674.806C159.806 673.012 162.214 671.513 164.991 669.523C163.836 665.96 163.173 661.905 161.305 658.514C157.102 650.871 155.235 642.737 155.087 634.235C154.841 620.178 155.013 606.097 155.013 591.918C153.318 590.493 151.327 588.994 149.533 587.274C147.763 585.553 146.633 584.03 147.001 580.811C147.419 577.124 145.183 573.193 144.323 569.31C143.364 564.985 142.651 560.611 141.84 556.236C140.734 550.265 144.126 547.021 148.918 544.711C150.172 544.097 151.548 543.335 152.9 543.335C159.904 543.311 162.116 538.052 164.647 533.014C167.498 527.387 170.005 521.489 173.495 516.279C182.244 503.255 194.335 494.236 208.688 487.994C227.931 479.639 248.059 473.864 268.482 469.613C287.111 465.73 306.207 464.747 325.204 467.794C337.074 469.687 347.47 474.995 356.637 482.736C357.006 483.03 357.35 483.35 357.718 483.645C367.205 491.73 367.205 491.73 378.485 487.38C385.662 484.603 391.314 486.422 394.091 493.425C397.114 501.019 399.301 508.981 401.562 516.869C402.619 520.457 401.366 523.774 397.999 526.33ZM173.839 665.812C176.788 664.485 179.319 663.379 181.826 662.224C185.439 660.553 188.929 658.489 192.689 657.26C207.41 652.444 222.107 647.431 237.762 646.448C251.746 645.563 265.213 646.276 277.993 653.476C292.272 661.512 301.807 673.406 307.288 688.224C310.778 697.685 310.532 708.08 308.984 718.179C308.762 719.556 308.271 720.907 307.656 722.185C301.734 734.497 292.567 743.392 280.156 749.216C272.832 752.657 265.852 756.834 257.791 761.159C259.241 762.069 259.782 762.486 260.372 762.806C274.085 769.638 288.143 775.462 303.454 777.722C317.757 779.836 332.134 780.573 346.094 776.42C355.949 773.471 365.534 769.441 374.971 765.214C386.473 760.078 395.025 751.404 401.366 740.591C405.396 733.71 409.378 726.756 412.941 719.605C416.333 712.798 420.044 706.04 421.494 698.447C420.634 698.176 420.191 697.881 419.773 697.906C418.84 697.98 417.906 698.152 417.021 698.397C404.757 702.01 392.248 703.755 379.493 703.755C377.379 703.755 375.266 704.221 373.177 704.148C368.286 703.951 363.125 704.443 358.579 703.017C351.009 700.634 343.44 697.709 336.607 693.704C321.69 685.005 315.496 670.801 315.054 654.139C314.931 649.421 316.234 644.015 318.691 640.034C328.497 624.135 341.67 611.258 358.677 603.419C374.111 596.317 390.429 591.746 407.854 593.466C410.975 593.761 414.17 593.417 418.078 593.343C416.628 587.863 415.448 583.415 414.17 578.648C411.442 579.484 409.378 579.926 407.461 580.737C400.334 583.784 393.452 587.47 386.129 589.952C357.03 599.806 328.35 611.037 298.391 618.261C285.833 621.284 273.397 624.97 260.667 627.01C244.889 629.565 229.209 632.342 213.849 636.741C200.086 640.673 186.495 645.244 171.995 645.907C170.447 645.981 168.948 646.694 166.81 647.259C169.218 653.476 171.406 659.325 173.839 665.812ZM178.779 675.101C180.622 678.664 181.998 681.368 183.448 684.071C193.205 702.255 206.083 718.032 220.853 732.285C227.931 739.117 235.525 745.408 242.972 751.895C244.987 753.664 247.125 754.5 250.001 753.075C263.223 746.489 276.715 740.37 288.217 730.811C296.13 724.249 299.989 716.386 299.596 705.696C299.178 694.343 296.376 684.464 288.61 676.109C288.29 675.765 287.996 675.396 287.725 675.027C278.312 662.495 265.656 656.769 250.074 656.499C224.785 656.056 201.659 663.551 178.779 675.101ZM420.781 603.32C412.548 603.32 405.519 603.124 398.49 603.37C382.172 603.91 367.057 608.751 353.467 617.598C344.816 623.225 337.418 630.45 330.512 638.289C325.278 644.236 324.27 650.748 325.229 657.826C328.202 679.795 344.349 691.443 367.77 693.605C384.556 695.154 401.464 692.328 417.881 687.634C422.845 686.209 425.5 683.727 425.549 678.443C425.696 663.207 426.63 647.922 425.942 632.711C425.5 623.225 422.723 613.863 420.781 603.32ZM387.947 516.549C386.276 511.266 385.072 507.236 383.72 503.279C382.712 500.281 380.599 498.365 377.33 499.053C371.678 500.257 366.001 501.584 360.471 503.329C352.213 505.933 344.177 509.3 335.846 511.708C310.188 519.203 284.457 526.477 258.701 533.653C245.38 537.364 231.962 540.779 218.592 544.244C214.955 545.178 211.17 545.596 207.656 546.849C193.475 551.911 179.074 554.123 164.057 551.739C159.412 551.002 154.743 551.445 150.688 554.467C149.729 563.24 153.686 570.735 154.989 578.501C168.088 582.015 185.119 581.277 196.965 577.198C202.716 575.232 208.59 573.487 214.537 572.283C229.701 569.236 245.282 567.737 260.077 563.437C278.927 557.957 297.973 552.87 316.209 545.252C334.371 537.659 353.123 531.466 371.53 524.413C376.937 522.324 382.024 519.425 387.947 516.549ZM355.261 494.875C346.487 485.611 336.779 479.959 325.474 477.821C307.239 474.38 288.807 475.634 270.866 479.295C251.131 483.325 231.74 488.928 213.013 496.767C191.804 505.663 178.385 521.341 170.079 542.549C177.009 544.294 183.497 543.728 189.912 542.057C199.201 539.624 208.491 537.093 217.781 534.685C221.418 533.751 225.154 533.235 228.767 532.203C247.494 526.895 266.172 521.44 284.874 516.107C300.677 511.61 316.529 507.334 332.282 502.714C339.704 500.552 346.905 497.75 355.261 494.875ZM234.64 758.972C208.319 735.48 184.456 711.446 170.324 679.574C162.386 683.211 157.422 688.592 153.735 695.375C146.559 708.571 146.879 722.406 150.196 736.438C153.637 751.01 163.861 760.177 176.346 766.934C180.081 768.949 184.8 769.564 189.15 769.932C205.173 771.309 219.28 764.6 234.64 758.972ZM436.19 679.082C448.651 675.322 455.188 668.958 461.627 657.654C467.378 647.578 469.073 636.938 463.126 625.511C458.727 617.033 451.698 611.848 444.276 607.203C440.59 604.893 435.502 603.345 430.366 604.598C439.656 628.976 437.198 653.795 436.19 679.082Z" fill="black"/>
<path d="M354.548 724.372C356.072 726.756 357.694 728.157 357.497 729.238C356.269 736.389 355.433 744.056 347.249 747.103C341.572 749.241 335.723 750.912 329.874 752.608C327.662 753.247 325.548 752.583 324.688 750.175C323.828 747.742 325.18 745.874 327.22 745.014C331.545 743.196 335.92 741.476 340.417 740.198C345.086 738.895 348.06 736.045 350.125 731.843C351.23 729.631 352.656 727.567 354.548 724.372Z" fill="black"/>
<path d="M325.646 715.329C324.564 714.665 321.394 713.879 320.632 712.061C318.396 706.728 317.118 701.027 315.545 695.424C315.373 694.785 315.373 693.827 315.742 693.384C316.7 692.254 317.757 690.927 319.035 690.558C319.674 690.362 321.369 691.934 321.738 693.016C322.795 696.087 323.434 699.307 324.245 702.477C324.859 704.885 325.793 706.703 328.816 706.826C331.421 706.925 333.338 708.448 332.92 711.373C332.478 714.69 329.75 714.985 325.646 715.329Z" fill="black"/>
<path d="M251.598 687.585C248.281 687.88 245.258 688.322 242.235 688.396C239.556 688.469 236.804 687.978 236.361 684.66C235.943 681.392 238.278 680.262 241.006 679.524C245.749 678.247 250.443 676.821 255.162 675.445C260.692 673.823 263.592 674.806 266 680.188C267.598 683.776 268.581 687.732 269.269 691.615C269.834 694.711 269.269 697.93 265.607 699.11C262.191 700.216 258.873 699.528 256.71 696.579C254.818 693.949 253.491 690.927 251.598 687.585Z" fill="black"/>
<path d="M357.326 650.945C354.082 652.223 351.255 653.329 348.429 654.41C347.127 654.901 345.701 655.786 344.448 655.639C342.826 655.442 340.761 654.754 339.901 653.55C339.311 652.714 339.926 649.937 340.884 649.274C348.478 644.04 356.834 640.452 365.878 638.535C366.665 638.363 367.746 638.805 368.508 639.272C373.005 641.926 375.365 651.977 372.612 656.523C369.958 660.897 363.863 661.291 360.791 657.162C359.538 655.491 358.727 653.525 357.326 650.945Z" fill="black"/>
<path d="M1012.92 441.536C1001.45 439.619 990.683 437.825 979.894 436.031C973.652 434.999 967.434 433.795 961.167 432.91C954.925 432.026 948.633 431.288 942.342 430.772C940.843 430.65 939.073 431.338 937.746 432.124C935.461 433.5 933.249 435.073 931.283 436.891C919.904 447.311 906.067 452.57 891.248 455.224C885.325 456.28 879.107 455.789 873.012 455.887C851.656 456.207 833.076 448.834 816.29 435.982C810.294 431.387 803.461 427.873 799.505 421.041C797.44 417.453 795.302 413.89 793.533 410.155C792.279 407.501 790.633 405.928 787.684 405.314C777.902 403.274 768.195 400.989 758.438 398.9C745.363 396.098 732.239 393.42 719.165 390.618C714.643 389.66 710.195 388.358 705.673 387.35C700.143 386.121 698.742 384.721 699.037 378.921C699.283 374.572 699.725 370.099 700.954 365.921C710.711 332.304 714.471 297.556 720.885 263.325C723.81 247.745 727.054 232.239 730.372 216.757C733.616 201.546 740.104 187.588 748.067 174.416C756.349 160.728 767.998 150.849 783.211 144.829C798.669 138.71 814.078 132.861 830.643 130.428C857.726 126.447 884.539 127.455 911.4 132.763C930.349 136.523 947.626 144.19 964.264 153.43C975.299 159.573 986.505 165.962 995.992 174.146C1006.24 182.992 1015.43 193.436 1023.47 204.372C1032.12 216.118 1035.24 230.469 1037.4 244.796C1040.77 267.085 1037.48 288.98 1034.06 310.998C1030.62 333.14 1027.33 355.428 1026 377.766C1024.97 395.214 1021.21 411.973 1017.91 428.929C1017 433.598 1016.17 438.562 1012.92 441.536ZM781.318 393.518C782.916 386.072 781.736 379.658 780.581 373.171C779.475 366.954 778.639 360.663 778.295 354.372C777.681 342.945 777.73 331.493 777.116 320.066C776.231 303.454 776.378 286.891 778.762 270.402C781.441 251.824 784.341 233.271 786.897 214.668C788.568 202.43 788.937 202.406 800.758 206.19C819.289 212.112 837.745 218.502 856.964 222.114C864.386 223.515 871.71 225.358 879.132 226.734C889.429 228.651 899.727 230.666 910.098 232.042C920.223 233.369 930.447 234.524 940.646 234.745C958.341 235.114 975.397 239.635 992.748 242.093C999.924 243.125 1001.62 245.361 1000.46 252.463C997.417 271.213 994.198 289.938 990.905 308.664C989.111 318.739 986.997 328.765 985.031 338.792C983.728 345.451 982.868 352.234 981.05 358.77C978.248 368.87 974.758 378.749 969.449 387.891C968.491 389.537 967.754 391.306 966.746 393.346C971.686 395.41 970.26 399.293 969.818 402.807C968.958 409.54 967.926 416.249 966.943 423.154C969.228 423.867 970.727 424.334 972.915 425.022C973.382 421.434 973.701 418.313 974.193 415.242C975.544 406.813 976.921 398.408 978.371 389.979C978.715 387.94 979.722 385.974 982.18 386.514C984.589 387.055 984.441 389.169 984.22 391.282C983.286 400.227 982.45 409.196 981.664 418.141C981.492 420.083 981.492 422.049 981.664 423.99C981.885 426.693 983.556 427.013 986.333 426.054C986.751 423.67 987.513 421.09 987.562 418.485C987.783 405.977 991.617 394.108 993.633 381.919C993.977 379.806 994.96 377.692 997.27 378.479C998.572 378.921 1000.07 381.231 1000.07 382.706C1000.1 385.826 999.531 389.07 998.597 392.068C995.23 402.955 995.992 414.283 994.714 425.391C994.616 426.251 995.083 427.16 995.5 428.954C996.95 427.676 998.4 427.037 998.695 426.054C999.359 423.744 999.752 421.262 999.752 418.829C999.752 404.036 1004.57 390.029 1006.83 375.604C1007.22 373.097 1007.52 369.509 1011.16 369.952C1014.89 370.394 1014.15 374.031 1013.83 376.488C1012.88 383.983 1011.4 391.405 1010.39 398.9C1009.04 408.951 1007.94 419.026 1006.73 429.249C1010.76 429.052 1010.59 426.595 1010.86 424.457C1013.96 399.047 1017.05 373.638 1020.15 348.228C1021.94 333.459 1023.27 318.616 1025.66 303.946C1028.51 286.277 1030.4 268.657 1028.56 250.792C1027.06 236.342 1024.13 221.942 1015.75 210.024C1008.38 199.531 999.654 189.578 989.897 181.297C970.383 164.734 947.577 153.356 923.246 145.713C894.664 136.744 865.271 135.441 835.583 139.128C818.207 141.29 802.012 147.016 785.963 153.749C772.078 159.573 761.682 168.96 754.456 181.96C746.961 195.451 740.964 209.557 738.212 224.866C736.737 233.025 734.795 241.085 733.321 249.244C729.217 272.049 724.572 294.78 721.451 317.707C719.018 335.646 716.142 353.364 710.465 370.591C709.875 372.384 709.728 374.301 709.261 376.587C711.89 377.226 714.151 377.766 716.437 378.331C716.928 377.226 717.395 376.611 717.494 375.972C719.19 362.923 720.762 349.85 722.581 336.801C723.22 332.23 724.449 327.733 725.506 323.236C726.071 320.853 727.693 318.911 730.175 319.968C731.502 320.533 732.215 322.819 732.879 324.465C733.198 325.276 732.829 326.382 732.706 327.365C731.33 338.251 729.88 349.113 728.529 359.999C727.668 366.954 726.931 373.933 726.095 381.305C729.512 382.042 732.215 382.607 734.746 383.148C736.098 372.63 737.327 362.973 738.58 353.34C739.465 346.582 740.301 339.799 741.333 333.041C741.751 330.215 742.758 327.66 746.69 329.085C746.69 335.376 746.985 341.691 746.617 347.958C745.953 359.63 744.921 371.279 744.085 382.951C744.036 383.59 744.601 384.254 745.019 385.237C746.813 385.409 748.656 385.605 750.745 385.802C751.04 383.738 751.335 382.091 751.507 380.42C752.859 366.585 754.186 352.75 755.513 338.915C755.636 337.71 755.415 336.285 755.956 335.327C756.57 334.221 757.848 332.82 758.905 332.771C759.912 332.722 761.461 334.049 761.903 335.13C762.517 336.629 762.517 338.497 762.419 340.168C762.075 346.508 761.608 352.823 761.141 359.139C760.527 367.396 759.789 375.653 759.224 383.934C759.028 386.981 759.789 389.414 764.115 388.136C764.361 386.048 764.631 383.91 764.877 381.747C765.712 373.982 766.351 366.216 767.482 358.476C767.924 355.477 766.868 350.243 771.832 350.858C775.838 351.349 774.388 355.92 774.24 358.918C773.798 367.691 773.134 376.439 772.692 385.212C772.569 387.571 772.889 389.93 773.012 392.707C775.961 392.977 778.295 393.223 781.318 393.518ZM815.43 338.472C820.468 330.019 828.038 324.17 835.755 318.813C847.822 310.458 860.626 306.035 874.315 315.84C877.412 318.051 880.631 317.339 884.096 316.577C899.211 313.235 904.495 315.029 913.096 326.873C917.52 332.943 920.764 339.873 924.5 346.459C926.072 349.211 927.572 351.988 929.071 354.789C930.816 358.058 933.15 358.426 936.345 356.706C950.477 349.137 961.954 339.136 968.368 323.9C976.724 304.044 982.966 283.549 987.267 262.465C987.98 258.951 988.226 255.314 988.717 251.48C987.046 250.989 985.94 250.522 984.785 250.374C966.206 247.917 947.601 245.41 928.997 243.1C917.889 241.7 906.682 240.913 895.598 239.291C884.022 237.571 872.545 235.31 861.068 233C852.712 231.305 844.406 229.363 836.197 227.127C824.007 223.785 811.916 220.099 798.645 216.216C790.756 259.172 792.181 300.063 815.43 338.472ZM859.913 339.873C858.537 349.015 861.339 353.856 869.35 355.011C879.427 356.46 887.07 355.453 888.299 344.149C879.55 339.529 870.309 337.882 859.913 339.873ZM962.028 403.397C961.659 403.323 961.29 403.274 960.946 403.2C957.112 408.852 953.278 414.504 949.051 420.722C953.155 421.188 956.154 421.533 959.275 421.877C960.233 415.34 961.143 409.368 962.028 403.397Z" fill="black"/>
<path d="M859.913 339.873C870.309 337.882 879.55 339.529 888.299 344.149C887.07 355.477 879.427 356.485 869.35 355.011C861.363 353.856 858.537 349.014 859.913 339.873Z" fill="white"/>
<path d="M936.862 277.381C930.718 276.619 925.188 275.956 919.634 275.243C918.184 275.047 916.512 275.096 915.382 274.359C913.957 273.425 912.974 271.803 911.794 270.476C913.17 269.321 914.448 267.994 915.947 267.06C916.685 266.593 917.84 266.79 918.823 266.79C930.57 266.863 942.17 268.092 953.5 271.164C959.89 272.909 961.02 274.752 960.013 281.116C959.152 286.646 956.695 291.315 952.173 294.657C948.609 297.286 944.505 298.073 940.425 296.131C936.297 294.19 935.633 290.283 935.879 286.179C936.075 283.549 936.469 280.92 936.862 277.381Z" fill="black"/>
<path d="M832.019 261.334C825.26 260.253 819.288 259.245 813.292 258.385C810.662 258.017 808.18 257.206 808.032 254.355C807.836 250.964 810.588 249.76 813.415 249.711C817.027 249.662 820.714 249.858 824.277 250.473C831.921 251.775 839.588 253.126 847.109 254.994C852.221 256.247 853.523 258.557 852.122 263.62C851.115 267.257 849.468 270.918 847.305 274.014C844.848 277.529 840.743 278.118 836.737 276.939C832.781 275.784 832.142 272.294 832.019 268.731C831.945 266.593 832.019 264.431 832.019 261.334Z" fill="black"/>
<path d="M881.442 299.35C883.875 301.243 887.906 301.98 886.308 306.28C885.276 309.032 880.877 309.721 876.552 308.222C873.75 307.239 872.644 305.297 873.258 302.619C874.561 296.967 875.986 291.315 877.731 285.81C878.1 284.63 880.091 283.967 881.344 283.082C882.057 284.458 883.458 285.884 883.359 287.186C883.015 291.241 882.131 295.271 881.442 299.35Z" fill="black"/>
<path d="M1275.38 1265C1257.64 1264.21 1239.87 1263.8 1222.15 1262.49C1210.8 1261.66 1199.57 1259.13 1188.21 1258.12C1177.6 1257.19 1167.49 1254.21 1157.25 1251.78C1154.37 1251.09 1151.62 1249.94 1148.84 1249C1146.24 1248.12 1143.71 1246.94 1141.05 1246.4C1120.75 1242.39 1103.62 1232.27 1088.19 1218.97C1085.04 1216.27 1082.46 1212.78 1080.13 1209.32C1077.05 1204.72 1077.25 1200 1081.11 1195.95C1083.94 1192.95 1087.55 1190.52 1091.21 1188.55C1099.57 1184.03 1108.17 1180 1116.62 1175.67C1118.29 1174.81 1119.77 1173.56 1121.29 1172.41C1124.95 1169.65 1126.06 1166.09 1124.49 1161.77C1123.41 1158.79 1122.32 1155.79 1121.22 1152.84C1118.22 1144.88 1119.5 1137.51 1123.99 1130.48C1125.59 1128 1127.31 1125.49 1128.25 1122.74C1129.03 1120.46 1129.38 1117.68 1128.86 1115.37C1124.73 1097.45 1125.99 1079.64 1129.28 1061.82C1133.92 1036.59 1141.35 1012.01 1151 988.346C1161.15 963.477 1173.39 939.542 1192.46 919.785C1201.78 910.127 1212.81 903.099 1224.93 898.061C1236.85 893.097 1249.65 890.763 1262.63 890.075C1271.18 889.632 1279.37 891.205 1287.6 893.564C1305 898.577 1320.61 906.981 1333.85 919.023C1345.11 929.246 1355.09 940.845 1360.52 955.589C1363.66 964.116 1367.45 972.373 1370.77 980.851C1375.21 992.204 1376.88 1004.25 1377.47 1016.24C1378.88 1045.11 1376.66 1073.67 1369.09 1101.78C1365.63 1114.61 1363.81 1127.88 1361.23 1140.95C1359.8 1148.2 1358.18 1155.45 1356.95 1162.72C1356.51 1165.35 1356.41 1168.2 1356.98 1170.78C1358.77 1178.84 1358.48 1186.68 1355.82 1194.55C1354.27 1199.14 1353.41 1203.96 1351.92 1208.58C1349.88 1214.85 1351.82 1220.15 1355.21 1225.31C1359.36 1231.63 1363.42 1237.97 1367.42 1244.36C1370.59 1249.4 1369.59 1252.93 1364.52 1255.93C1357.74 1259.94 1350.15 1261.12 1342.6 1261.68C1325.52 1262.96 1308.39 1263.75 1291.29 1264.58C1286 1264.83 1280.69 1264.63 1275.41 1264.63C1275.38 1264.73 1275.38 1264.85 1275.38 1265ZM1085.61 1202.95C1089.1 1206.86 1091.28 1210.03 1094.13 1212.39C1108.59 1224.45 1124.39 1233.96 1143.21 1237.6C1145.89 1238.12 1148.42 1239.25 1151.05 1240.06C1154.67 1241.19 1158.33 1242.2 1161.92 1243.4C1171.18 1246.52 1180.74 1248 1190.4 1249.13C1200.48 1250.33 1210.45 1252.62 1220.56 1253.16C1243.36 1254.34 1266.22 1255.37 1289.05 1255.24C1307.63 1255.12 1326.23 1253.35 1344.79 1252.03C1349.48 1251.71 1354.37 1251.19 1358.92 1248.27C1354.84 1241.85 1351.1 1235.78 1347.15 1229.84C1342.48 1222.78 1340.39 1215.34 1342.8 1206.98C1344.42 1201.3 1345.92 1195.58 1347.54 1189.88C1349.19 1184.13 1349.68 1178.4 1347.52 1172.63C1345.08 1172.9 1342.97 1173.51 1340.95 1173.22C1339.58 1173.02 1337.86 1171.84 1337.27 1170.61C1336.85 1169.75 1337.73 1167.69 1338.67 1166.88C1340.39 1165.38 1342.77 1164.62 1344.54 1163.17C1346.04 1161.91 1347.74 1160.27 1348.18 1158.5C1349.83 1152.16 1351.01 1145.72 1352.28 1139.28C1354.99 1125.81 1357 1112.17 1360.44 1098.88C1367.25 1072.61 1369.56 1045.95 1368.43 1019.01C1367.91 1006.38 1366.15 993.728 1361.23 981.809C1358.08 974.192 1354.74 966.647 1351.84 958.956C1346.71 945.243 1337.27 934.603 1326.63 925.265C1316.97 916.787 1306.13 909.881 1293.69 905.482C1281.14 901.035 1268.7 898.258 1255.23 900.052C1230.16 903.443 1208.93 913.297 1192.66 933.497C1176.93 953.058 1165.97 975.101 1157.17 998.274C1152.01 1011.89 1148.18 1025.99 1143.83 1039.93C1137.88 1059.05 1134.73 1078.58 1135.15 1098.66C1135.18 1100.33 1135.08 1102.22 1135.79 1103.62C1138.54 1109.05 1140.34 1115.05 1145.03 1119.35C1146.73 1120.92 1148.23 1122.74 1149.75 1124.49C1151.25 1126.21 1152.23 1128.07 1150.27 1130.06C1148.3 1132.03 1146.33 1131.07 1144.61 1129.65C1142.38 1127.8 1140.26 1125.79 1137.78 1123.58C1136.48 1126.21 1135.47 1128.49 1134.22 1130.68C1132.87 1133.06 1131.17 1135.25 1129.89 1137.68C1127.83 1141.61 1127.61 1145.74 1129.23 1149.95C1130.43 1153.09 1131.64 1156.26 1132.62 1159.5C1135.1 1167.66 1133.6 1172.77 1126.75 1177.84C1123.38 1180.32 1119.5 1182.09 1115.84 1184.18C1108.51 1188.35 1101.11 1192.43 1093.86 1196.73C1091.26 1198.28 1088.97 1200.4 1085.61 1202.95Z" fill="black"/>
<path d="M1173.74 1062.63C1173.91 1046.46 1177.13 1030.71 1180.18 1014.94C1181.55 1007.88 1182.93 1000.81 1184.72 993.851C1188.38 979.647 1194.53 967.237 1207.06 958.145C1216.45 951.313 1225.27 943.818 1235.65 938.313C1252.28 929.491 1269.02 929.835 1285.71 937.379C1298.49 943.154 1309.4 951.534 1319.84 961.143C1334.32 974.462 1342.65 990.803 1349.06 1008.64C1351.77 1016.19 1352.41 1023.81 1349.56 1031.62C1348.11 1035.55 1347.76 1039.88 1346.71 1043.96C1342.31 1060.91 1338.37 1077.99 1333.16 1094.7C1330.36 1103.7 1325.45 1112.03 1321.32 1120.58C1320.04 1123.23 1318.1 1125.57 1316.8 1128.22C1309.3 1143.43 1296.25 1152.01 1281.06 1157.83C1276.98 1159.38 1272.48 1160.12 1268.09 1160.56C1253.78 1162.01 1239.65 1159.95 1226.11 1155.82C1206.74 1149.9 1191.73 1138.35 1183.25 1119.08C1175.29 1100.94 1173.52 1082 1173.74 1062.63ZM1182.9 1065.07C1182.93 1082.49 1184.53 1099.54 1191.87 1115.81C1199.32 1132.3 1212.35 1142.11 1228.91 1147.07C1240.78 1150.63 1253.22 1152.75 1265.82 1151.52C1282.05 1149.95 1295.56 1142.94 1304.93 1129.7C1320.56 1107.58 1329.13 1082.44 1334.05 1056C1334.44 1053.91 1333.78 1051.45 1333.02 1049.39C1330.12 1041.55 1324.88 1035.11 1319.87 1028.55C1311.22 1017.25 1301.83 1006.83 1289.07 999.773C1274.8 991.885 1260.05 986.134 1243.49 985.962C1231.37 985.84 1220.01 989.034 1209.35 994.391C1203.75 997.193 1198.61 1001 1193.45 1004.59C1192.22 1005.45 1191.19 1007.19 1190.89 1008.72C1187.28 1027.32 1182.71 1045.85 1182.9 1065.07ZM1193.91 993.113C1195.98 991.688 1196.77 991.074 1197.65 990.582C1212.2 982.35 1227.49 976.624 1244.49 976.747C1255.85 976.845 1266.66 979.475 1277.13 983.751C1292.39 989.968 1306.38 998.053 1317.21 1010.73C1321.2 1015.38 1324.93 1020.24 1328.72 1025.06C1331.69 1028.84 1334.54 1032.73 1337.64 1036.78C1341.79 1026.9 1343.24 1017.56 1338.91 1007.64C1332.55 993.064 1325.79 979.18 1313.65 967.95C1304.04 959.054 1294.06 951.19 1282.32 945.735C1267.91 939.075 1253.61 938.78 1239.09 946.349C1227.09 952.591 1217.26 961.536 1206.69 969.596C1201.46 973.577 1198.31 979.057 1195.59 984.783C1194.58 986.896 1194.6 989.476 1193.91 993.113Z" fill="black"/>
<path d="M1310.75 1186.17C1307.36 1185.6 1304.85 1185.28 1302.42 1184.69C1301.78 1184.55 1300.9 1183.46 1300.97 1182.9C1301.07 1181.99 1301.68 1180.83 1302.42 1180.42C1303.45 1179.83 1304.83 1179.8 1306.06 1179.56C1311 1178.6 1315.99 1177.86 1320.85 1176.56C1323.26 1175.92 1325.18 1175.85 1326.16 1178.21C1327.19 1180.66 1325.59 1182.53 1323.48 1183.14C1319.08 1184.47 1314.51 1185.31 1310.75 1186.17Z" fill="black"/>
<path d="M1298.31 1039.93C1297.01 1042.63 1296.05 1044.96 1294.8 1047.13C1292.81 1050.49 1289.27 1051.97 1286.32 1050.96C1283.77 1050.08 1282.56 1047.72 1283.1 1043.56C1283.42 1041.11 1284.08 1038.6 1285.02 1036.29C1287.35 1030.56 1291.11 1028.67 1297.06 1030.59C1301.63 1032.06 1306.03 1034.2 1310.46 1036.12C1312.42 1036.98 1313.7 1038.8 1312.57 1040.64C1311.78 1041.94 1309.52 1043.39 1308.19 1043.17C1304.95 1042.63 1301.85 1041.18 1298.31 1039.93Z" fill="black"/>
<path d="M1214.9 1020.1C1213.11 1023.68 1211.76 1027.25 1209.67 1030.29C1207.43 1033.54 1205.22 1033.27 1202.42 1030.47C1198.93 1026.95 1199.08 1022.95 1200.7 1018.77C1202.71 1013.63 1205.81 1010.86 1210.43 1011.54C1215.74 1012.35 1220.97 1014.1 1226.06 1015.94C1227.24 1016.39 1228.47 1018.97 1228.3 1020.42C1228 1022.8 1225.69 1023.76 1223.43 1023.12C1220.41 1022.31 1217.51 1021.05 1214.9 1020.1Z" fill="black"/>
<path d="M1241.72 1092.39C1235.4 1091.75 1229.33 1091.11 1223.97 1087.8C1221.88 1086.49 1220.04 1084.65 1218.47 1082.76C1217.88 1082.05 1217.85 1079.98 1218.44 1079.39C1219.3 1078.53 1220.92 1078.19 1222.25 1078.16C1223.16 1078.14 1224.09 1079.02 1225 1079.54C1234.61 1084.97 1244.52 1085.51 1254.69 1081.24C1255.28 1080.99 1255.87 1080.38 1256.36 1080.45C1257.89 1080.7 1259.83 1080.74 1260.79 1081.68C1262.41 1083.28 1261.55 1085.36 1260.03 1086.67C1258.62 1087.87 1256.93 1089 1255.18 1089.47C1250.76 1090.67 1246.21 1091.46 1241.72 1092.39Z" fill="black"/>
<path d="M1242.8 1064.35C1238.59 1064.55 1235.4 1059.95 1237.19 1056.1C1239.06 1052.09 1241.13 1048.18 1243.12 1044.25C1243.49 1043.51 1243.8 1042.53 1244.44 1042.14C1245.4 1041.52 1246.83 1040.81 1247.69 1041.13C1248.47 1041.45 1249.36 1043.17 1249.16 1044.06C1248.55 1046.93 1247.56 1049.71 1246.56 1052.48C1245.7 1054.84 1244.79 1056.88 1246.07 1059.64C1247.25 1062.19 1245.45 1064.23 1242.8 1064.35Z" fill="black"/>
<path d="M739.712 743.726C739.512 737.926 740.412 731.126 742.912 724.726C751.212 704.026 763.612 687.325 786.112 680.425C820.912 669.625 854.212 689.825 860.612 725.625C867.012 761.025 841.312 796.926 806.012 802.226C770.112 807.626 740.012 781.426 739.712 743.726Z" fill="#0FCB8E"/>
<path d="M1381.21 813.925C1379.21 813.925 1377.31 813.925 1375.31 813.925C1367.31 813.725 1361.81 809.725 1360.01 801.925C1357.11 789.325 1354.91 776.625 1353.51 763.825C1352.51 754.925 1352.61 745.825 1350.01 737.125C1348.41 731.625 1351.71 726.525 1357.51 724.825C1361.41 723.625 1365.61 722.925 1369.71 722.425C1381.11 721.025 1392.11 717.825 1403.21 714.925C1412.71 712.325 1422.41 711.025 1432.11 710.725C1444.21 710.325 1449.01 715.225 1451.61 724.425C1454.01 732.725 1455.01 741.125 1455.71 749.625C1456.51 760.825 1458.61 771.825 1461.11 782.725C1461.81 785.825 1462.41 788.925 1462.41 792.125C1462.41 799.525 1459.51 803.325 1452.21 805.225C1442.71 807.625 1433.21 809.525 1423.51 810.325C1409.41 811.525 1395.41 813.025 1381.31 814.425C1381.21 814.225 1381.21 814.125 1381.21 813.925Z" fill="#0FCB8E"/>
<path d="M546.613 455.925C539.513 455.525 535.813 450.125 531.613 445.525C530.513 444.325 529.913 442.525 529.213 441.025C524.013 429.425 517.713 418.425 509.613 408.625C505.613 403.725 503.813 398.025 502.013 392.225C500.713 388.125 502.113 384.525 504.613 381.325C506.913 378.425 509.613 376.025 512.813 374.125C516.913 371.525 521.113 369.025 525.513 366.925C534.713 362.425 543.813 357.825 552.113 351.625C556.213 348.525 560.613 346.025 565.613 344.425C572.613 342.225 578.213 344.125 581.913 350.425C584.813 355.225 587.113 360.325 589.813 365.225C597.513 379.325 605.213 393.425 612.813 407.525C616.913 415.025 615.713 420.225 608.813 425.225C603.913 428.725 598.713 432.125 593.113 434.525C580.413 440.025 567.913 446.225 555.713 452.825C552.713 454.325 549.913 455.825 546.613 455.925Z" fill="#0FCB8E"/>
<path d="M938.513 1239.73C916.213 1239.63 900.013 1221.83 902.013 1199.63C904.313 1173.53 926.013 1152.63 951.513 1151.73C975.213 1150.93 992.413 1168.93 990.313 1192.53C988.113 1218.23 964.413 1239.83 938.513 1239.73Z" fill="#0FCB8E"/>
<path d="M138.013 1005.93C137.913 1002.33 139.013 999.125 140.813 996.225C148.913 983.225 155.613 969.425 163.213 956.025C164.413 953.925 165.813 951.925 167.713 950.325C170.813 947.825 174.413 947.325 178.013 948.825C181.713 950.425 183.413 953.625 183.513 957.625C183.613 961.325 182.413 964.825 181.113 968.225C177.413 978.025 173.513 987.725 168.013 996.725C165.913 1000.03 165.613 1002.43 168.513 1005.63C180.313 1018.63 190.713 1032.73 201.613 1046.53C209.913 1057.03 219.713 1066.33 227.813 1076.93C230.913 1081.03 234.213 1084.93 237.013 1089.23C240.913 1095.23 239.913 1101.73 235.013 1105.63C229.913 1109.63 222.913 1108.93 218.013 1103.53C215.013 1100.33 212.613 1096.53 209.713 1093.43C186.613 1068.63 165.413 1042.13 142.713 1017.03C139.913 1013.83 137.813 1010.33 138.013 1005.93Z" fill="#0FCB8E"/>
<path d="M1298.01 424.925C1298.01 418.125 1297.81 411.225 1298.11 404.425C1298.31 400.125 1296.81 397.525 1293.21 394.925C1279.21 385.025 1264.01 377.325 1249.11 369.125C1238.61 363.325 1228.71 356.825 1219.61 348.925C1214.11 344.125 1208.11 339.825 1202.41 335.425C1201.21 334.525 1200.01 333.725 1198.91 332.825C1195.51 329.825 1194.51 325.925 1196.11 322.325C1197.71 318.725 1202.11 316.425 1206.51 317.125C1209.61 317.625 1212.61 318.925 1215.41 320.325C1221.71 323.525 1227.71 327.325 1233.31 331.725C1246.61 342.325 1261.51 350.025 1276.41 357.725C1284.41 361.925 1292.21 366.325 1299.61 371.525C1304.01 374.525 1308.61 377.325 1313.31 380.025C1318.91 383.225 1321.91 387.625 1322.01 394.225C1322.31 413.225 1320.81 432.225 1318.71 451.125C1318.01 457.525 1312.91 461.625 1307.31 461.325C1301.71 461.025 1297.31 456.425 1297.01 449.925C1296.71 441.625 1296.91 433.425 1296.91 425.125C1297.11 424.925 1297.51 424.925 1298.01 424.925Z" fill="#0FCB8E"/>
<path d="M357.813 1104.43C359.713 1082.53 369.813 1069.83 392.513 1069.33C411.713 1068.93 428.313 1086.33 427.913 1104.93C427.513 1123.63 411.713 1138.73 392.613 1138.53C373.313 1138.33 357.713 1123.03 357.813 1104.43Z" fill="#0FCB8E"/>
<path d="M1148.91 705.125C1148.91 707.625 1147.81 710.625 1146.61 713.525C1137.81 736.625 1124.21 756.725 1107.91 775.025C1105.21 778.125 1102.21 781.125 1098.61 783.225C1092.11 787.225 1085.31 786.325 1080.71 781.125C1076.41 776.125 1076.51 768.525 1081.41 763.125C1084.81 759.325 1089.11 756.325 1092.41 752.425C1103.81 739.425 1115.71 726.825 1124.71 711.925C1127.61 707.125 1130.61 702.425 1134.41 698.225C1137.01 695.325 1140.11 693.625 1144.21 695.225C1147.71 696.725 1149.11 699.625 1148.91 705.125Z" fill="#0FCB8E"/>
<path d="M952.212 869.825C947.912 869.925 944.512 868.325 942.512 864.525C940.412 860.425 941.212 856.525 943.912 852.925C945.912 850.325 948.512 848.425 951.512 847.425C967.112 842.025 980.212 832.125 993.912 823.325C998.612 820.325 1003.41 817.425 1008.21 814.425C1009.41 813.625 1010.71 812.925 1012.11 812.425C1019.21 809.425 1026.01 811.225 1029.41 817.125C1032.81 822.925 1030.91 829.825 1024.71 834.425C1023.71 835.125 1022.71 835.825 1021.61 836.325C1008.91 842.125 997.712 850.425 986.412 858.425C977.912 864.525 968.312 867.725 958.012 869.425C956.112 869.625 954.112 869.725 952.212 869.825Z" fill="#0FCB8E"/>
<path d="M1192.51 576.925C1192.81 569.325 1191.81 561.525 1190.31 553.925C1189.81 551.025 1189.61 548.225 1190.61 545.325C1193.61 537.125 1203.01 534.625 1209.61 540.425C1213.01 543.425 1214.71 547.525 1215.91 551.725C1220.01 566.725 1220.51 581.925 1218.51 597.225C1217.71 603.225 1216.71 609.225 1215.91 615.225C1214.61 624.725 1209.31 630.225 1201.71 629.625C1193.91 629.025 1189.21 622.325 1189.81 612.525C1190.61 600.825 1192.91 589.025 1192.51 576.925Z" fill="#0FCB8E"/>
<path d="M755.512 928.425C751.812 928.625 748.212 928.825 744.612 927.925C738.912 926.525 735.413 922.425 735.213 917.225C735.013 911.925 738.013 907.725 743.913 906.125C752.113 903.825 760.612 902.625 769.012 901.425C782.712 899.425 795.912 894.825 809.612 892.325C811.312 892.025 813.012 891.625 814.612 891.525C822.612 891.125 828.612 895.425 829.612 902.325C830.612 909.425 826.513 915.425 818.713 917.125C812.113 918.625 805.412 919.925 798.812 921.725C784.612 925.525 770.112 927.625 755.512 928.425Z" fill="#0FCB8E"/>
<path d="M608.613 959.325C618.813 959.325 625.313 970.125 620.613 979.225C619.713 980.925 618.513 982.525 617.213 983.925C610.213 991.825 604.813 1000.63 600.513 1010.33C597.113 1018.03 594.713 1025.73 593.813 1034.03C593.413 1037.43 592.813 1040.83 591.113 1043.83C587.513 1049.93 580.213 1050.23 576.113 1044.43C574.613 1042.23 573.713 1039.63 573.113 1037.03C570.813 1027.43 570.913 1017.93 573.713 1008.23C578.513 992.025 587.213 978.125 597.413 965.025C600.413 961.425 604.313 959.725 608.613 959.325Z" fill="#0FCB8E"/>
<path d="M1207.41 483.825C1207.51 490.025 1204.41 494.825 1199.21 496.825C1193.81 498.925 1189.11 497.325 1185.11 493.725C1182.91 491.725 1181.61 489.125 1180.41 486.425C1173.11 469.925 1165.71 453.525 1154.51 439.125C1153.31 437.625 1152.41 435.825 1151.71 434.025C1149.81 429.025 1150.81 424.325 1154.31 421.325C1157.71 418.325 1162.51 418.025 1167.21 420.925C1172.61 424.325 1177.31 428.525 1181.61 433.225C1185.61 437.525 1189.01 442.325 1191.61 447.625C1196.31 457.225 1200.91 466.925 1205.51 476.625C1206.61 478.925 1207.51 481.525 1207.41 483.825Z" fill="#0FCB8E"/>
<path d="M399.113 1311.93C402.613 1312.23 405.513 1313.43 407.513 1316.03C412.013 1321.83 418.013 1326.03 423.913 1330.23C425.713 1331.53 427.413 1332.83 428.813 1334.43C431.913 1338.03 432.413 1343.43 430.213 1347.33C427.913 1351.53 422.513 1354.53 417.813 1352.83C404.613 1347.83 394.613 1338.53 388.913 1325.83C386.013 1319.03 392.113 1311.63 399.113 1311.93Z" fill="#10CB8E"/>
<path d="M796.112 773.125C780.712 773.025 768.213 760.625 768.413 744.225C768.613 724.025 777.113 713.525 795.713 707.525C812.013 702.225 827.312 712.125 831.112 728.825C836.012 750.325 817.912 773.225 796.112 773.125Z" fill="white"/>
<path d="M1436.51 787.525C1430.91 788.025 1425.81 788.825 1420.81 788.925C1409.11 789.225 1397.51 790.825 1386.11 793.025C1379.51 794.325 1379.51 794.225 1377.91 787.625C1375.01 775.225 1374.01 762.625 1372.71 750.125C1372.41 746.825 1373.11 745.525 1376.71 744.925C1389.41 742.925 1401.91 739.625 1414.31 736.125C1415.51 735.825 1416.61 735.325 1417.81 735.125C1425.41 733.725 1426.11 734.025 1427.11 741.625C1429.01 757.025 1433.41 771.725 1436.51 787.525Z" fill="white"/>
<path d="M551.213 429.425C548.913 427.525 548.413 425.325 547.413 423.425C542.713 414.325 537.513 405.525 530.913 397.725C526.713 392.825 526.813 392.725 532.913 389.925C543.113 385.325 553.413 380.825 562.213 373.725C564.513 371.825 566.113 371.425 567.813 374.625C574.013 385.925 580.413 397.125 586.813 408.325C588.013 410.325 588.313 412.025 585.713 412.925C573.713 417.325 562.113 422.925 551.213 429.425Z" fill="white"/>
<path d="M939.713 1215.03C929.413 1215.13 923.813 1207.83 926.313 1197.43C928.713 1187.33 940.313 1177.03 950.813 1175.73C961.413 1174.43 968.213 1181.73 966.113 1192.33C963.713 1204.33 951.413 1214.93 939.713 1215.03Z" fill="#FEFFFF"/>
<path d="M404.813 1104.03C404.913 1107.43 403.513 1110.13 400.913 1112.23C396.513 1115.63 391.613 1116.13 386.613 1113.63C381.613 1111.13 378.213 1105.33 379.313 1101.43C380.513 1097.13 388.113 1093.03 393.713 1093.73C399.913 1094.33 404.613 1098.63 404.813 1104.03Z" fill="#FCFEFE"/>
</svg>
