<svg width="48" height="48" viewBox="0 0 48 48" fill="none" xmlns="http://www.w3.org/2000/svg">
<circle cx="24" cy="24" r="23" fill="white" stroke="black" stroke-width="2"/>
<path d="M22.7375 26.3592C23.6564 23.085 24.5687 19.8439 25.4942 16.5697C24.886 16.5037 24.3108 16.5037 23.7489 16.6819C23.5638 16.7413 23.3787 16.7875 23.1936 16.8602C22.8631 16.9856 22.6118 16.913 22.3805 16.6423C21.7194 15.87 20.8864 15.5069 19.8551 15.5861C19.0949 15.6455 18.3412 15.7116 17.7066 16.2066C17.5281 16.3453 17.3099 16.4707 17.0852 16.3189C16.834 16.1538 16.8075 15.8964 16.8802 15.6323C17.1909 14.5233 17.614 13.4672 18.295 12.5298C19.3461 11.0908 20.655 9.91575 22.2086 9.0642C23.3324 8.45029 24.562 8.12024 25.8578 8.03442C27.6163 7.909 29.2491 8.33808 30.8424 9.02459C31.5431 9.32165 32.2042 9.67151 32.819 10.127C33.7776 10.8267 34.4453 11.7707 35.0997 12.7278C35.774 13.7114 36.2566 14.8072 36.6731 15.9228C37.235 17.4146 37.3408 18.9593 37.2747 20.5304C37.2681 20.7614 37.1822 20.9463 36.9376 20.9991C36.7194 21.0519 36.5674 20.9529 36.4682 20.7548C36.4285 20.6756 36.3624 20.5964 36.2831 20.5436C34.7758 19.4676 33.1165 18.9065 31.2522 19.0385C30.9415 19.0583 30.6242 19.1573 30.3267 19.263C30.0292 19.3686 29.897 19.362 29.6921 19.1243C29.6193 19.0385 29.5598 18.9461 29.4871 18.8537C28.8194 17.9757 28.5021 17.7249 27.3981 17.2298C26.4197 20.3125 25.8776 23.5075 24.8926 26.6298C25.2826 26.7619 25.6462 26.8807 26.0032 27.0061C26.856 27.3032 27.7022 27.6002 28.555 27.8907C30.1152 28.4254 31.5762 29.1779 33.0305 29.9304C34.1412 30.4981 35.0799 31.3167 36.0385 32.1022C36.2038 32.2408 36.3294 32.4454 36.4351 32.6435C36.7855 33.2772 36.369 34.0759 35.6418 34.0825C35.0667 34.0891 34.4849 33.9967 33.9098 33.9373C33.7247 33.9175 33.5925 33.9241 33.6057 34.1749C34.756 34.1947 35.8997 34.3202 37.0235 33.9967C37.1623 33.9571 37.3078 33.9373 37.4532 33.9241C38.7423 33.7987 39.4695 35.2179 38.9274 36.1619C38.2663 37.3237 37.2747 37.997 35.9525 38.129C35.2452 38.195 34.6105 38.3601 34.009 38.7627C33.328 39.2182 32.5942 39.5879 31.7679 39.7463C31.2985 39.8321 30.8622 39.8189 30.3994 39.6407C29.4673 39.2776 28.5352 39.2512 27.603 39.7397C26.6643 40.2282 25.633 40.4526 24.5885 40.545C23.8613 40.6111 23.22 40.3602 22.7044 39.8453C22.4069 39.5483 22.0565 39.37 21.6731 39.2446C21.1244 39.0598 20.6154 39.0928 20.1063 39.4229C19.2403 39.9906 18.2751 40.2678 17.224 40.2414C16.5497 40.2216 15.9746 40.0302 15.4655 39.5615C15.1151 39.238 14.6987 38.974 14.3086 38.6967C13.8326 38.3601 13.2773 38.2545 12.722 38.1488C11.7502 37.9706 10.8049 37.7198 9.95868 37.1785C9.03977 36.5844 8.66295 35.8318 8.9935 34.6568C9.05299 34.4522 9.01994 34.2806 8.90095 34.1155C8.71584 33.8515 8.52412 33.5874 8.36546 33.3102C8.06137 32.7689 7.94898 32.2078 8.20019 31.6005C8.36546 31.211 8.57701 30.8876 8.97366 30.7225C9.77358 30.3859 10.5735 30.0492 11.3866 29.7324C11.5585 29.6664 11.7701 29.6466 11.9552 29.6598C12.2791 29.6862 12.4047 29.97 12.1998 30.2077C11.7701 30.7159 11.7238 31.3299 11.7502 31.9306C11.7701 32.3728 12.0477 32.7359 12.4179 33.0065C13.1187 33.5148 13.9054 33.8383 14.7515 34.0165C15.6176 34.1947 16.4968 34.3334 17.3893 34.3004C17.581 34.2938 17.7727 34.3334 17.9644 34.3532C18.414 34.3994 18.8635 34.4918 19.3064 34.4786C20.7079 34.4258 22.0698 34.6766 23.4316 34.9275C24.4629 35.1123 25.481 35.3764 26.5122 35.548C27.3717 35.6932 28.2377 35.7592 29.1037 35.8384C29.4673 35.8714 29.7582 35.7592 30.2011 35.5084C30.1482 35.4688 30.1019 35.4028 30.0557 35.4028C29.6392 35.383 29.2227 35.3896 28.8128 35.3433C28.317 35.2905 27.8146 35.2377 27.3452 35.0925C25.6462 34.571 23.9076 34.241 22.1359 34.1155C21.1046 34.0429 20.0799 33.9109 19.0552 33.8515C18.2222 33.8053 17.3761 33.8119 16.5431 33.8185C15.763 33.8251 14.9961 33.7855 14.2756 33.4356C14.1764 33.3894 14.064 33.3696 13.9516 33.3432C13.0063 33.1254 12.4642 32.4983 12.1733 31.6137C12.0609 31.2638 12.1006 30.9008 12.2262 30.5707C12.4708 29.9238 12.8873 29.4155 13.469 29.0195C14.269 28.4716 15.0755 27.9369 15.9878 27.6068C17.7595 26.9731 19.5444 26.3328 21.4616 26.3064C21.8714 26.2866 22.2681 26.3328 22.7375 26.3592ZM26.2412 16.7083C25.9768 17.6325 25.7388 18.4972 25.4876 19.3554C24.7009 22.0552 23.9142 24.7551 23.1275 27.455C22.9887 27.9303 22.8366 28.4055 22.6846 28.8808C22.592 29.1647 22.4466 29.2835 22.2549 29.2505C22.0433 29.2109 21.9441 29.0129 22.0036 28.7026C22.0433 28.498 22.1094 28.2999 22.1689 28.0953C22.2615 27.7784 22.354 27.4616 22.4598 27.1183C22.321 27.1051 22.2218 27.0853 22.1293 27.0853C21.1773 27.0721 20.2253 27.1513 19.2998 27.3956C17.6669 27.8312 16.0539 28.3197 14.5664 29.1647C14.0508 29.4617 13.5814 29.7588 13.2443 30.2473C13.0195 30.5707 12.7881 30.914 12.927 31.3167C13.0856 31.7787 13.3963 32.221 13.8392 32.386C14.6458 32.6897 15.4523 33.0065 16.358 32.9537C17.2703 32.9009 18.1958 32.9273 19.1147 32.9735C20.1791 33.0263 21.2302 33.1584 22.2945 33.2376C24.0861 33.363 25.8379 33.6997 27.5502 34.241C27.9005 34.3532 28.2707 34.4192 28.6343 34.4588C28.7864 34.4786 28.9847 34.406 29.1169 34.307C29.4276 34.0891 29.7185 33.8317 30.0623 33.5544C30.0424 33.4092 30.0028 33.2046 29.9896 32.9999C29.9697 32.6501 29.9301 32.287 29.9763 31.9438C30.0424 31.4157 30.4193 31.277 30.8424 31.5939C31.1531 31.8249 31.4638 32.0626 31.7216 32.3464C32.0323 32.6963 32.3695 32.7095 32.7661 32.5775C32.8719 32.5445 32.9777 32.5049 33.0834 32.4719C33.8172 32.2078 34.042 32.32 34.2139 33.1122C34.67 33.1518 35.1394 33.1914 35.5889 33.2244C35.741 32.9141 35.6022 32.7623 35.4303 32.6303C35.2915 32.5247 35.1262 32.4388 35.0006 32.32C34.2337 31.6269 33.4074 31.013 32.4885 30.5377C31.6158 30.0822 30.7366 29.6532 29.8375 29.2505C28.8657 28.8214 27.8741 28.4386 26.8957 28.0359C26.823 28.0029 26.7436 27.9897 26.6643 27.9699C26.261 27.8577 25.8578 27.7586 25.4611 27.6398C25.2297 27.5738 25.005 27.488 24.7471 27.4022C24.6877 27.587 24.6414 27.7388 24.5951 27.8907C24.4761 28.3263 24.3703 28.762 24.2447 29.1911C24.2051 29.3297 24.1522 29.4683 24.0728 29.5805C23.9737 29.7258 23.8018 29.7984 23.6497 29.706C23.544 29.64 23.458 29.4947 23.425 29.3759C23.3985 29.2637 23.4514 29.1251 23.4845 28.9996C23.9869 27.0853 24.5025 25.1776 24.9918 23.2633C25.3686 21.7978 25.6925 20.3257 26.0627 18.8603C26.2214 18.2398 26.4395 17.6325 26.6312 17.0186C26.6511 16.9658 26.6312 16.8998 26.6312 16.8271C26.499 16.7941 26.3866 16.7545 26.2412 16.7083ZM30.1482 36.525C29.6392 36.525 29.1698 36.5448 28.707 36.525C27.0411 36.4457 25.4281 36.0365 23.8018 35.7196C22.2813 35.4292 20.774 35.0661 19.2073 35.1519C19.0949 35.1585 18.9825 35.1519 18.8701 35.1387C17.5083 34.9869 16.1464 34.8681 14.7912 34.6634C13.7269 34.505 12.7352 34.1023 11.8957 33.4092C11.2346 32.8613 10.904 32.155 11.1222 31.2638C11.1751 31.0658 11.2081 30.8678 11.261 30.5971C10.5867 30.8612 9.98512 31.112 9.37031 31.3431C8.83484 31.5477 8.66295 32.2804 8.8745 32.6897C8.98027 32.8877 9.09266 33.0858 9.21165 33.2772C9.33065 33.4686 9.45626 33.6535 9.58186 33.8449C9.76697 34.1353 9.80663 34.439 9.68103 34.769C9.37032 35.5678 9.72069 36.1091 10.2562 36.4721C11.0098 36.9804 11.856 37.2379 12.7352 37.3699C13.7335 37.5217 14.6193 37.898 15.4126 38.5119C15.6176 38.6703 15.8291 38.8155 16.0142 39.0004C16.3448 39.3304 16.748 39.4493 17.1976 39.4625C17.9843 39.4823 18.7379 39.3238 19.432 38.941C19.6171 38.842 19.7956 38.7363 19.9741 38.6307C20.4237 38.3667 20.9062 38.2875 21.4153 38.3865C22.1226 38.5251 22.7639 38.7891 23.2862 39.3172C23.6167 39.6539 24.0464 39.8189 24.5224 39.7661C25.4743 39.6671 26.4131 39.4889 27.2659 39.04C28.3897 38.4459 29.5268 38.4855 30.6771 38.9014C30.9944 39.0136 31.2919 39.0334 31.6158 38.9674C32.343 38.8288 32.9975 38.5053 33.5991 38.1026C34.3263 37.6207 35.0997 37.4161 35.9592 37.3501C36.9971 37.2709 37.7705 36.7032 38.2663 35.8054C38.577 35.2443 38.2135 34.6634 37.5788 34.67C37.4003 34.67 37.2218 34.6964 37.0566 34.736C36.3955 34.8945 35.7278 34.9803 35.0469 34.9671C34.7956 34.9605 34.551 35.0067 34.2932 35.0265C34.4915 35.812 34.2403 36.0827 33.4603 35.9639C33.2553 35.9308 33.0504 35.8912 32.8388 35.8582C32.2901 35.7658 32.2967 35.779 32.0125 36.2675C31.834 36.5712 31.6224 36.8616 31.3844 37.1125C30.9878 37.5283 30.2011 37.3567 30.1879 36.7296C30.1879 36.6768 30.168 36.6174 30.1482 36.525ZM30.1813 9.71111C30.3598 10.5032 30.5911 11.2426 30.6969 12.0017C30.9217 13.6982 30.8225 15.4013 30.6374 17.0978C30.5911 17.5071 30.5647 17.9163 30.5184 18.385C31.6026 18.1606 32.6008 18.2464 33.6057 18.4378C34.6105 18.6293 35.4898 19.1111 36.3955 19.6854C36.4087 19.4742 36.4285 19.3554 36.4285 19.23C36.4285 17.2364 35.6881 15.4607 34.7295 13.7708C34.3725 13.1437 33.9296 12.5628 33.4933 11.9885C32.6339 10.8729 31.4836 10.1666 30.1813 9.71111ZM28.945 9.47347C27.6559 10.1534 26.3734 10.8465 25.3884 12.0149C24.41 13.1767 23.782 14.4903 23.2531 15.9228C23.3589 15.9096 23.4051 15.9096 23.4514 15.8964C25.0843 15.4277 26.6048 15.6983 28.0394 16.5631C28.3302 16.7347 28.6277 16.8932 28.912 17.0846C29.1963 17.276 29.4607 17.5005 29.7516 17.7249C29.778 17.6589 29.8045 17.6193 29.8111 17.5797C29.9367 16.1868 30.0887 14.8006 30.0226 13.3946C29.9697 12.345 29.8573 11.3152 29.5004 10.3184C29.388 10.028 29.2756 9.72432 28.945 9.47347ZM17.8917 15.1373C18.7379 14.8138 19.5312 14.761 20.3377 14.7742C21.0385 14.7874 21.6731 14.959 22.2218 15.4079C22.3408 15.5069 22.4664 15.5861 22.6317 15.7049C23.0614 14.2395 23.663 12.9457 24.5554 11.7773C25.4545 10.5957 26.6312 9.79033 27.96 9.0576C23.8282 8.01462 19.2006 11.269 17.8917 15.1373ZM33.4801 35.1453C33.2553 34.8879 33.1099 34.7096 32.9446 34.5314C32.6339 34.1947 32.6273 33.9637 32.9248 33.6138C33.0041 33.5214 33.0702 33.429 33.1892 33.2772C32.8124 33.3432 32.5083 33.3762 32.2174 33.4554C31.9265 33.5346 31.7348 33.4686 31.5497 33.231C31.3316 32.9471 31.0605 32.7029 30.6771 32.4983C30.7035 32.7953 30.7167 33.0329 30.7498 33.2706C30.8027 33.7063 30.6969 34.0627 30.2937 34.3004C30.2011 34.3532 30.1284 34.4522 30.0094 34.5578C30.9019 34.6502 30.9944 34.7624 30.9812 35.5876C30.9746 35.812 30.9481 36.0497 31.0275 36.3929C31.2456 36.0167 31.4109 35.746 31.5629 35.4688C31.7282 35.1717 31.9662 35.0265 32.31 35.0529C32.6669 35.0793 33.0173 35.1057 33.4801 35.1453Z" fill="black"/>
<path d="M26.2414 16.708C26.3803 16.7542 26.4993 16.7938 26.6381 16.8334C26.6381 16.906 26.6513 16.9721 26.6381 17.0249C26.4464 17.6388 26.2282 18.2461 26.0695 18.8666C25.6993 20.332 25.3688 21.8041 24.9986 23.2695C24.5094 25.1839 23.9937 27.0916 23.4913 29.0059C23.4583 29.1314 23.4054 29.2634 23.4318 29.3822C23.4583 29.5076 23.5508 29.6463 23.6566 29.7123C23.8086 29.8047 23.9805 29.7321 24.0797 29.5868C24.159 29.468 24.2119 29.3294 24.2516 29.1974C24.3772 28.7617 24.4829 28.326 24.6019 27.8969C24.6416 27.7451 24.6945 27.5933 24.754 27.4085C25.0118 27.4943 25.2366 27.5801 25.468 27.6461C25.8712 27.7649 26.2745 27.8639 26.6711 27.9762C26.7505 27.996 26.8298 28.0092 26.9025 28.0422C27.8875 28.4448 28.8792 28.8277 29.8443 29.2568C30.7434 29.6529 31.6227 30.0885 32.4953 30.544C33.4142 31.0193 34.2406 31.6332 35.0074 32.3263C35.1396 32.4451 35.2983 32.531 35.4371 32.6366C35.609 32.7686 35.7544 32.9204 35.5958 33.2307C35.1462 33.1911 34.6769 33.1515 34.2207 33.1185C34.0488 32.3263 33.8241 32.2075 33.0903 32.4781C32.9845 32.5178 32.8787 32.5508 32.7729 32.5838C32.3763 32.7158 32.0391 32.696 31.7284 32.3527C31.4706 32.0689 31.1599 31.8312 30.8492 31.6002C30.4261 31.2833 30.0493 31.422 29.9832 31.9501C29.9369 32.2933 29.9832 32.6564 29.9964 33.0062C30.0096 33.2109 30.0493 33.4155 30.0691 33.5607C29.7253 33.838 29.4345 34.0954 29.1238 34.3133C28.9915 34.4057 28.7998 34.4783 28.6412 34.4651C28.2776 34.4255 27.9074 34.3595 27.557 34.2473C25.8448 33.706 24.0929 33.3693 22.3014 33.2439C21.2436 33.1713 20.1859 33.0392 19.1215 32.9798C18.2026 32.9336 17.2837 32.9006 16.3648 32.96C15.4591 33.0128 14.646 32.696 13.8461 32.3923C13.4032 32.2273 13.0925 31.785 12.9338 31.3229C12.8016 30.9269 13.0263 30.577 13.2511 30.2536C13.5883 29.7651 14.0576 29.468 14.5733 29.171C16.0607 28.3194 17.6738 27.8309 19.3066 27.4019C20.2322 27.1576 21.1775 27.0784 22.1361 27.0916C22.2286 27.0916 22.3212 27.1114 22.4666 27.1246C22.3675 27.4679 22.2683 27.7847 22.1758 28.1016C22.1163 28.2996 22.0502 28.5043 22.0105 28.7089C21.951 29.0191 22.0502 29.2172 22.2617 29.2568C22.4468 29.2964 22.5989 29.171 22.6914 28.8871C22.8435 28.4118 22.9955 27.9366 23.1343 27.4613C23.921 24.7614 24.7077 22.0615 25.4944 19.3617C25.739 18.4969 25.9836 17.6322 26.2414 16.708Z" fill="white"/>
<path d="M30.148 36.525C30.1679 36.6174 30.1943 36.6768 30.1943 36.7428C30.2075 37.3699 30.9942 37.5416 31.3909 37.1257C31.6289 36.8683 31.8404 36.5778 32.0189 36.2808C32.3098 35.7989 32.2965 35.7857 32.8452 35.8715C33.0502 35.9045 33.2551 35.9507 33.4667 35.9771C34.2467 36.0959 34.498 35.8253 34.2996 35.0397C34.5508 35.0199 34.8021 34.9737 35.0533 34.9803C35.7342 34.9935 36.4019 34.9011 37.063 34.7493C37.2349 34.7097 37.4133 34.6833 37.5852 34.6833C38.2199 34.6833 38.5835 35.2576 38.2728 35.8187C37.7703 36.723 37.0035 37.2841 35.9656 37.3633C35.1062 37.4294 34.3327 37.634 33.6055 38.1159C33.0039 38.5185 32.356 38.842 31.6222 38.9806C31.2917 39.0466 31.0008 39.0268 30.6835 38.9146C29.5332 38.4987 28.4028 38.4591 27.2723 39.0532C26.4261 39.5021 25.4808 39.6804 24.5288 39.7794C24.0594 39.8256 23.6297 39.6671 23.2926 39.3305C22.7703 38.8024 22.1291 38.5383 21.4217 38.3997C20.9061 38.3007 20.4301 38.3799 19.9805 38.644C19.802 38.7496 19.6169 38.8552 19.4385 38.9542C18.7443 39.3371 17.9973 39.4955 17.204 39.4757C16.7544 39.4625 16.3512 39.3437 16.0206 39.0136C15.8355 38.8354 15.624 38.6836 15.4191 38.5251C14.6258 37.9046 13.7399 37.535 12.7417 37.3831C11.8624 37.2445 11.0162 36.9937 10.2626 36.4854C9.72712 36.1223 9.37674 35.581 9.68745 34.7823C9.81306 34.4588 9.77339 34.1486 9.58829 33.8581C9.46929 33.6667 9.33708 33.4819 9.21808 33.2904C9.09909 33.099 8.9867 32.9076 8.88093 32.7029C8.66938 32.2936 8.84126 31.5609 9.37674 31.3563C9.98494 31.1186 10.5931 30.8744 11.2674 30.6104C11.2079 30.881 11.1749 31.079 11.1286 31.2771C10.9038 32.1616 11.241 32.8746 11.9021 33.4224C12.7351 34.1156 13.7333 34.5182 14.7976 34.6767C16.1529 34.8813 17.5147 35.0001 18.8765 35.152C18.9889 35.1652 19.1013 35.1718 19.2137 35.1652C20.7805 35.0793 22.2877 35.4424 23.8082 35.7329C25.4345 36.0431 27.0475 36.459 28.7135 36.5382C29.1696 36.5382 29.6324 36.525 30.148 36.525Z" fill="white"/>
<path d="M30.1812 9.71094C31.4835 10.1664 32.6272 10.8727 33.4866 11.9883C33.9295 12.5626 34.3658 13.1435 34.7228 13.7707C35.6814 15.4606 36.4218 17.2363 36.4218 19.2298C36.4218 19.3552 36.402 19.4741 36.3887 19.6853C35.4897 19.111 34.6104 18.6291 33.599 18.4377C32.6007 18.2462 31.5959 18.167 30.5117 18.3849C30.5514 17.9228 30.5844 17.5069 30.6307 17.0976C30.8092 15.4011 30.915 13.698 30.6902 12.0015C30.591 11.2424 30.3663 10.5031 30.1812 9.71094Z" fill="white"/>
<path d="M28.9449 9.47363C29.2754 9.71787 29.3812 10.0215 29.4936 10.3252C29.8572 11.3154 29.9696 12.3517 30.0158 13.4013C30.082 14.8008 29.9365 16.1936 29.8043 17.5864C29.7977 17.626 29.7712 17.6656 29.7448 17.7317C29.4539 17.5072 29.1895 17.2828 28.9052 17.0913C28.6276 16.8999 28.3235 16.7481 28.0326 16.5699C26.598 15.7051 25.0775 15.4345 23.4447 15.9031C23.3984 15.9163 23.3521 15.9163 23.2463 15.9295C23.7752 14.4971 24.4032 13.1835 25.3816 12.0217C26.3733 10.8533 27.6558 10.1536 28.9449 9.47363Z" fill="white"/>
<path d="M17.8916 15.1373C19.2006 11.2624 23.8281 8.01466 27.9665 9.05765C26.6378 9.79038 25.461 10.5957 24.562 11.7773C23.6695 12.9457 23.0613 14.2462 22.6382 15.705C22.4729 15.5862 22.3473 15.5004 22.2283 15.408C21.6796 14.9591 21.045 14.7809 20.3442 14.7743C19.5311 14.7611 18.7378 14.8139 17.8916 15.1373Z" fill="white"/>
<path d="M33.48 35.1451C33.0172 35.1055 32.6668 35.0791 32.3164 35.0527C31.9727 35.0263 31.7347 35.1715 31.5694 35.4686C31.4174 35.7458 31.2521 36.0165 31.0339 36.3927C30.9546 36.0495 30.9811 35.8184 30.9877 35.5874C31.0009 34.7622 30.9083 34.65 30.0159 34.5576C30.1349 34.452 30.2076 34.3596 30.3001 34.3002C30.7034 34.0625 30.8092 33.7061 30.7563 33.2704C30.7298 33.0327 30.71 32.7951 30.6836 32.498C31.067 32.6961 31.3314 32.9469 31.5562 33.2308C31.7413 33.4684 31.933 33.5344 32.2239 33.4552C32.5148 33.376 32.8189 33.343 33.1957 33.277C33.0767 33.4288 33.004 33.5212 32.9313 33.6136C32.6338 33.9635 32.6404 34.2011 32.9511 34.5312C33.1097 34.7028 33.2552 34.8877 33.48 35.1451Z" fill="white"/>
</svg>
