<svg width="48" height="48" viewBox="0 0 48 48" fill="none" xmlns="http://www.w3.org/2000/svg">
<circle cx="24" cy="24" r="23" fill="white" stroke="black" stroke-width="2"/>
<path d="M32.0607 28.9205C32.0607 29.8139 32.0607 30.6026 32.0607 31.4235C32.1672 31.4718 32.2902 31.5121 32.405 31.5764C32.8396 31.8018 33.1348 32.1237 33.1594 32.6308C33.1922 33.178 33.2168 33.7253 33.225 34.2726C33.2414 35.013 32.9052 35.5925 32.3066 36.0271C31.1915 36.84 29.9533 37.4356 28.6578 37.9104C26.6079 38.6589 24.4924 38.9084 22.2949 38.7877C20.9173 38.7072 19.6136 38.3772 18.2934 38.0875C17.6539 37.9426 17.0061 37.8219 16.3583 37.677C16.1041 37.6207 15.8581 37.5321 15.6203 37.4436C14.7922 37.1297 14.2756 36.5824 14.2346 35.6569C14.2182 35.2062 14.087 34.7716 14.0706 34.3209C14.0542 33.8139 14.1936 33.339 14.6528 33.0332C14.8742 32.8803 14.8578 32.671 14.866 32.4618C14.866 31.7133 14.8824 30.9728 14.8742 30.2243C14.8414 26.989 14.8168 23.7536 14.7512 20.5182C14.7266 19.3673 14.579 18.2083 14.497 17.0574C14.4724 16.7436 14.497 16.4297 14.4724 16.1158C14.456 15.9226 14.3986 15.7375 14.3576 15.5524C14.292 15.2305 14.1526 14.9005 14.1854 14.5866C14.2674 13.7094 14.4314 12.8321 15.0874 12.148C15.2104 12.0192 15.3088 11.8744 15.4236 11.7295C15.9811 11.0293 16.6617 10.5545 17.5637 10.3211C19.2364 9.88646 20.8681 9.89451 22.5081 10.482C23.0328 10.6752 23.6478 10.6269 24.2136 10.7235C25.6075 10.9488 27.0097 10.8925 28.4036 10.8603C29.6172 10.8281 30.6831 11.1983 31.6753 11.8422C32.241 12.2044 32.528 12.7114 32.5362 13.3713C32.5444 14.3935 32.5362 15.4076 32.5362 16.4699C33.0282 16.647 33.5202 16.7918 33.9958 16.985C35.7177 17.7013 37.0214 18.8602 37.784 20.5665C37.9808 21.0011 38.0874 21.4518 38.0792 21.9347C38.071 22.3693 38.0874 22.7958 38.1038 23.2304C38.1448 24.655 37.456 25.7817 36.5623 26.828C36.3983 27.0211 36.1933 27.1902 36.0047 27.3592C35.2749 28.0272 34.455 28.5181 33.43 28.6308C32.9708 28.663 32.5362 28.8159 32.0607 28.9205ZM15.6941 19.0614C15.6941 19.2788 15.6941 19.4075 15.6941 19.5443C15.7515 21.4276 15.8335 23.3109 15.8499 25.1862C15.8745 27.5765 15.8581 29.9748 15.8335 32.3652C15.8335 32.7837 15.9565 33.0573 16.2927 33.3068C16.9487 33.7897 17.6867 34.0714 18.4492 34.2967C20.04 34.7555 21.6389 35.1982 23.328 35.1499C23.3854 35.1499 23.451 35.1579 23.5084 35.166C24.2956 35.2545 25.0663 35.1901 25.8207 34.9808C26.3209 34.844 26.8375 34.7635 27.3294 34.6106C27.7394 34.4819 28.1576 34.3128 28.5184 34.0794C28.953 33.8058 29.3302 33.4597 29.7319 33.1378C29.9615 32.9527 30.2239 32.7917 30.4207 32.5744C30.5847 32.3974 30.7569 32.172 30.8061 31.9467C30.9127 31.4316 30.9865 30.9004 30.9865 30.3773C30.9865 27.3592 30.9947 24.333 31.2571 21.323C31.2653 21.2103 31.2407 21.1057 31.2325 20.9769C31.1177 20.9769 31.0357 20.9769 30.9619 20.9769C30.0599 21.0011 29.7811 20.7838 29.5844 19.9307C29.5106 19.6087 29.445 19.2948 29.3794 18.981C28.7644 19.0212 28.215 19.0454 27.6574 19.0936C27.477 19.1097 27.3049 19.158 27.1327 19.2224C26.6407 19.4156 26.2881 19.7295 26.1979 20.2767C26.1569 20.5665 26.0995 20.8562 26.0093 21.1379C25.7633 21.9669 25.3779 22.7153 24.599 23.1821C23.7872 23.6731 22.7786 23.4719 22.2949 22.6751C21.6061 21.5323 20.9665 20.3653 20.2777 19.1661C18.8264 19.327 17.3013 19.5443 15.6941 19.0614ZM30.6831 20.0192C30.8553 19.8502 31.0029 19.7858 31.0357 19.6812C31.1505 19.327 31.2489 18.9729 31.3063 18.6107C31.3719 18.1681 31.3637 17.7093 31.4211 17.2667C31.5933 15.9548 31.5605 14.643 31.4539 13.3311C31.4375 13.138 31.3227 12.8885 31.1669 12.7838C30.6257 12.4217 30.0517 12.0756 29.3794 12.0031C28.9612 11.9549 28.543 11.9227 28.1248 11.9388C26.5833 12.0112 25.0499 11.9146 23.5166 11.7295C22.9836 11.6651 22.4507 11.649 21.9341 11.4478C20.4171 10.8523 18.8838 10.9649 17.3587 11.4639C17.1783 11.5203 16.9979 11.6329 16.8503 11.7537C16.1451 12.309 15.6859 13.0414 15.3744 13.8542C15.276 14.1037 15.2514 14.3935 15.2514 14.6591C15.2432 15.15 15.3908 15.2949 15.8827 15.311C16.3255 15.3271 16.7601 15.319 17.2029 15.2949C17.6047 15.2788 17.9572 15.3673 18.2606 15.6168C18.482 15.8019 18.728 15.8985 19.0232 15.8904C19.4496 15.8743 19.794 16.0675 20.0974 16.3331C20.5565 16.7355 20.9337 17.2184 21.0813 17.7818C21.3765 18.8924 21.9095 19.8824 22.4835 20.8643C22.7048 21.2345 22.9016 21.6208 23.1312 21.991C23.4182 22.4498 23.82 22.5302 24.2218 22.1681C24.4678 21.9508 24.681 21.661 24.804 21.3713C24.9843 20.9367 25.0909 20.4779 25.1893 20.0192C25.3369 19.2948 25.7633 18.7798 26.4111 18.4337C26.9113 18.16 27.4524 18.0474 28.0182 18.0152C28.3134 17.9991 28.6168 17.9749 28.912 17.9266C29.8057 17.7657 30.3305 18.1279 30.4863 19.0132C30.5437 19.319 30.6011 19.6248 30.6831 20.0192ZM15.0628 33.6931C14.8988 34.1277 14.9398 34.4899 15.0136 34.8521C15.0546 35.0452 15.1284 35.2384 15.1284 35.4235C15.1366 36.0754 15.5055 36.4215 16.0959 36.5985C16.2681 36.6549 16.4403 36.7032 16.6125 36.7354C17.1619 36.848 17.7031 36.9527 18.2524 37.0653C19.4824 37.3148 20.6877 37.6609 21.9505 37.7655C25.2303 38.0472 28.256 37.3551 31.0767 35.7213C31.3473 35.5603 31.6343 35.3994 31.8557 35.1821C32.0279 35.013 32.2246 34.7635 32.2328 34.5462C32.2656 33.9426 32.2082 33.331 32.1672 32.7273C32.159 32.6469 32.0607 32.5181 32.0033 32.5181C31.9049 32.5181 31.7573 32.5744 31.7163 32.6549C31.4867 33.1137 31.0767 33.3953 30.6913 33.7092C30.3223 34.007 29.9779 34.337 29.5844 34.6026C29.1662 34.9004 28.7398 35.2545 28.2642 35.3913C27.1819 35.7132 26.0667 36.0593 24.9434 36.1317C23.2132 36.2444 21.4667 36.2042 19.7776 35.6971C19.4004 35.5845 19.0068 35.4959 18.6214 35.3913C17.4161 35.0774 16.2517 34.675 15.317 33.8219C15.276 33.7817 15.194 33.7656 15.0628 33.6931ZM32.3886 17.4759C32.3558 17.8301 32.3312 18.1359 32.2984 18.4417C32.2492 18.8683 32.2246 19.2948 32.1426 19.7134C32.077 20.0111 32.1016 20.2848 32.2 20.5665C32.3312 20.5665 32.4214 20.5665 32.5198 20.5665C33.635 20.5182 34.6435 21.1379 34.9879 22.1681C35.4307 23.488 35.0945 24.2767 34.1188 24.8884C33.6432 25.1862 33.0692 25.3552 32.5362 25.5725C32.3968 25.6288 32.241 25.653 32.0934 25.6932C32.0934 26.4014 32.0934 27.0775 32.0934 27.7938C32.487 27.7133 32.8396 27.6006 33.1922 27.5765C34.0204 27.5121 34.6517 27.0936 35.2503 26.5785C35.3979 26.4497 35.5455 26.3129 35.6849 26.168C36.5131 25.2988 37.087 24.3169 37.0378 23.0695C37.0214 22.6992 37.046 22.321 37.005 21.9508C36.9722 21.6208 36.923 21.2828 36.7919 20.985C35.9473 19.1097 34.3894 18.0796 32.3886 17.4759ZM20.1384 18.2164C19.8678 17.6289 19.671 17.1138 19.1626 16.985C18.5804 16.8482 17.99 16.7918 17.5227 16.3894C17.4981 16.3653 17.4489 16.3572 17.4079 16.3572C16.7601 16.3653 16.1123 16.3733 15.4154 16.3894C15.4645 17.0011 15.5137 17.5323 15.5629 18.1037C16.3665 18.2003 17.0963 18.3291 17.826 18.3532C18.5558 18.3613 19.2856 18.2727 20.1384 18.2164ZM32.1918 21.5403C32.1918 22.5222 32.1918 23.5041 32.1918 24.5584C32.8478 24.4216 33.4546 24.2123 33.9056 23.7133C34.0122 23.5926 34.0696 23.3994 34.0942 23.2385C34.2008 22.3693 33.635 21.3954 32.1918 21.5403Z" fill="black"/>
<path d="M18.702 25.6952C18.7544 27.0615 18.8067 28.4193 18.8591 29.7856C18.8721 30.0232 18.9768 30.3117 18.4665 30.4051C18.1393 30.4645 17.93 30.2778 17.9038 29.8025C17.8122 28.1732 17.7468 26.5353 17.6944 24.906C17.6683 23.7518 17.6683 22.5892 17.6944 21.4351C17.6944 21.1974 17.5636 20.8071 18.1786 20.8156C18.6889 20.8241 18.5843 21.189 18.6104 21.4181C18.6628 21.9527 18.6628 22.4958 18.6759 23.0305C18.6889 23.9215 18.6759 24.8126 18.6759 25.6952C18.6889 25.6952 18.702 25.6952 18.702 25.6952Z" fill="black"/>
<path d="M22.0133 32.8162C21.4523 32.6908 21.553 32.4317 21.5386 32.2227C21.4811 31.4118 21.4235 30.6009 21.4091 29.7817C21.366 27.767 21.3372 25.7523 21.3228 23.7377C21.3228 23.5621 21.1214 23.2612 21.5961 23.2194C22.1715 23.1776 22.0708 23.512 22.0996 23.7043C22.488 26.3793 22.5312 29.0711 22.4448 31.7545C22.4592 32.2812 22.3585 32.4818 22.0133 32.8162Z" fill="black"/>
<path d="M25.3757 23.2158C25.5106 23.4942 25.605 23.6334 25.6455 23.7807C26.1849 26.1796 26.0905 28.5867 26.0635 31.002C26.0635 31.2476 26.1175 31.6078 25.5511 31.616C24.9442 31.6242 25.0521 31.2558 25.0521 31.0183C25.0386 29.9049 25.0656 28.7914 25.0386 27.6697C25.0116 26.5726 24.9307 25.4837 24.8902 24.3866C24.8768 24.1246 24.8902 23.8708 24.9442 23.6088C24.9577 23.5106 25.133 23.4205 25.3757 23.2158Z" fill="black"/>
<path d="M29.2916 20.8236C29.3654 21.0045 29.513 21.1935 29.513 21.3743C29.5868 22.9934 29.6422 24.6043 29.6606 26.2234C29.6606 26.4453 29.8821 26.8069 29.1624 26.8152C28.3321 26.8316 28.4982 26.4535 28.5166 26.2152C28.5904 24.5385 28.6827 22.8619 28.7934 21.1853C28.7934 21.062 28.941 20.9387 29.0148 20.8154C29.1071 20.8236 29.1993 20.8236 29.2916 20.8236Z" fill="black"/>
</svg>
