<svg width="48" height="48" viewBox="0 0 48 48" fill="none" xmlns="http://www.w3.org/2000/svg">
<circle cx="24" cy="24" r="23" fill="white" stroke="black" stroke-width="2"/>
<path d="M19.5888 16.9991C20.1878 16.8722 20.7867 16.7454 21.3947 16.6366C23.6816 16.1926 25.9684 16.1382 28.219 16.8269C28.7816 16.9991 29.3352 17.2437 29.925 17.4703C30.0158 17.2981 30.1156 17.1078 30.2154 16.9175C31.0957 15.2593 32.1483 13.746 33.7727 12.7221C34.054 12.5499 34.3535 12.3868 34.6621 12.2871C35.6694 11.9428 36.359 12.2871 36.6857 13.2839C37.1032 14.5253 37.321 15.7939 37.3663 17.1078C37.4389 19.2101 36.9126 21.122 35.7783 22.889C35.6966 23.0159 35.6512 23.2243 35.6875 23.3693C35.8962 24.221 36.1412 25.0728 36.3953 26.0152C36.6857 25.979 37.0306 25.9427 37.3663 25.8793C38.0016 25.7615 38.3736 25.9155 38.4462 26.3324C38.5098 26.7039 38.2466 26.9576 37.6204 27.0845C37.2393 27.166 36.8491 27.2204 36.477 27.2838C36.3953 28.054 36.3227 28.7699 36.2411 29.5492C36.3863 29.5854 36.5496 29.6488 36.713 29.676C36.9126 29.7123 37.1122 29.7123 37.3028 29.7395C37.8201 29.821 38.056 30.0657 37.9925 30.4463C37.9381 30.8087 37.6204 30.999 37.1122 30.9356C36.6948 30.8812 36.2864 30.8087 35.8418 30.7362C35.4879 31.4611 35.143 32.1679 34.7528 32.9563C35.1702 33.1828 35.5786 33.4275 36.0051 33.6449C36.2592 33.7809 36.5315 33.8715 36.7856 34.0074C37.2211 34.243 37.3573 34.533 37.2121 34.8501C37.0578 35.1854 36.6767 35.2941 36.2411 35.0857C35.624 34.7867 35.0251 34.4514 34.4261 34.1343C34.3081 34.0708 34.1992 33.9983 34.054 33.9168C33.8816 34.1071 33.7274 34.2883 33.564 34.4605C32.7836 35.3032 31.867 35.9375 30.769 36.2909C30.0521 36.5265 29.3261 36.7168 28.6092 36.9433C27.5837 37.2695 26.522 37.2876 25.4602 37.3058C23.7542 37.333 22.0572 37.3783 20.3602 37.1608C18.5089 36.9252 16.8846 36.2003 15.3963 35.1038C14.8609 34.7142 14.3164 34.3336 13.7265 33.9077C13.4271 34.1161 13.1095 34.3336 12.7918 34.5601C12.6648 34.6508 12.5468 34.7504 12.4198 34.8411C12.2201 34.977 12.0114 35.0132 11.8027 34.8501C11.5758 34.6689 11.5667 34.4061 11.7029 34.1977C11.8571 33.9621 12.0659 33.7627 12.2746 33.5634C12.4651 33.3822 12.6829 33.2281 12.8917 33.0469C12.5468 32.3673 12.2111 31.7058 11.8662 31.0262C11.5123 31.0896 11.1675 31.1621 10.8226 31.2165C10.6502 31.2437 10.4687 31.2708 10.2963 31.2708C9.86976 31.2799 9.62474 31.1349 9.56121 30.845C9.49769 30.555 9.67011 30.3375 10.0966 30.2107C10.5776 30.0657 11.0767 29.9479 11.594 29.812C11.594 28.7971 11.594 27.8184 11.594 26.7673C11.1312 26.6495 10.6502 26.5136 10.1602 26.3958C10.0513 26.3686 9.94236 26.3686 9.83346 26.3414C9.57936 26.2689 9.37972 26.133 9.41602 25.834C9.44324 25.5803 9.62474 25.4353 9.86976 25.4353C10.2872 25.4353 10.7046 25.4715 11.1221 25.5078C11.358 25.5349 11.594 25.6074 11.7664 25.6437C12.4833 24.2301 13.173 22.8528 13.9171 21.3848C13.7538 21.0677 13.545 20.6327 13.3 20.2249C12.8644 19.5091 12.6376 18.7298 12.4833 17.9324C12.2201 16.5369 12.0749 15.1324 12.1657 13.7188C12.202 13.148 12.3109 12.5771 12.4651 12.0243C12.7102 11.0457 13.6721 10.7104 14.4797 11.3085C15.0061 11.6981 15.478 12.1784 15.968 12.6315C16.6668 13.2748 17.3746 13.9091 18.0371 14.5797C18.3728 14.924 18.6451 15.3318 18.9082 15.7395C19.1533 16.1201 19.3529 16.546 19.5888 16.9991ZM14.7701 33.0288C14.9698 33.21 15.1241 33.3731 15.2965 33.4909C16.7938 34.542 18.391 35.3485 20.2332 35.6475C21.9755 35.9284 23.7179 35.865 25.4693 35.8378C26.4857 35.8197 27.5021 35.7925 28.4912 35.4754C29.0811 35.2851 29.68 35.122 30.2699 34.9407C31.1501 34.6598 31.9033 34.1524 32.5204 33.4728C32.6202 33.364 32.6838 33.2372 32.7745 33.0922C32.4932 32.911 32.2572 32.7479 32.0122 32.6029C31.7581 32.4488 31.6129 32.2314 31.74 31.9414C31.867 31.6424 32.1483 31.6242 32.4206 31.6877C32.6293 31.742 32.829 31.8508 33.0286 31.9414C33.1829 32.0048 33.3371 32.0864 33.5459 32.177C33.8181 31.6424 34.0631 31.1349 34.3626 30.5369C33.927 30.5097 33.6275 30.4916 33.3281 30.4734C32.8108 30.4281 32.5386 30.2378 32.5386 29.9297C32.5386 29.6126 32.7927 29.4314 33.3281 29.4132C33.7909 29.3951 34.2446 29.4132 34.7074 29.4132C34.8708 28.8333 35.0613 28.3168 34.9343 27.6734C34.6711 27.7188 34.4443 27.7641 34.2083 27.8003C33.8635 27.8547 33.5096 27.9362 33.1556 27.9544C32.8925 27.9634 32.6838 27.8275 32.6202 27.5557C32.5567 27.2838 32.6838 27.0754 32.9197 26.9576C33.0921 26.876 33.2918 26.8217 33.4823 26.7673C33.9452 26.6404 34.408 26.5136 34.9071 26.3867C34.771 25.2903 34.653 24.2392 34.0813 23.3602C33.4551 22.3997 32.7019 21.5298 31.9669 20.6508C31.7581 20.4062 31.4677 20.2159 31.1864 20.0437C30.533 19.6269 29.8797 19.2101 29.199 18.8385C28.7181 18.5758 28.2008 18.3492 27.6836 18.1952C25.5691 17.5699 23.4547 17.724 21.3131 18.0955C19.6433 18.3855 18.2186 19.1194 16.9027 20.1162C16.6032 20.3427 16.3219 20.5965 16.086 20.8864C15.0605 22.1641 14.1894 23.5505 13.5087 25.0456C13.3545 25.3718 13.2728 25.7343 13.1458 26.0968C13.3363 26.1693 13.4361 26.2236 13.536 26.2417C13.8627 26.3052 14.1894 26.3595 14.516 26.4048C15.0333 26.4773 15.2874 26.7039 15.242 27.0754C15.2057 27.4469 14.9153 27.6281 14.389 27.5919C14.1077 27.5738 13.8173 27.5103 13.536 27.456C13.3454 27.4197 13.1548 27.3744 12.9733 27.3382C12.7737 27.9453 12.7737 28.8243 12.9733 29.4586C13.1185 29.4314 13.2637 29.4042 13.4089 29.3679C13.6902 29.2954 13.9625 29.1958 14.2438 29.1414C14.6522 29.0599 14.9516 29.2139 15.0515 29.531C15.1513 29.8573 14.9879 30.1382 14.5977 30.2922C14.4525 30.3466 14.2983 30.3738 14.1531 30.4191C13.8445 30.5097 13.536 30.6094 13.173 30.7181C13.3726 31.2618 13.536 31.7511 13.9716 32.1498C14.4162 31.7783 14.8246 31.4158 15.2602 31.0806C15.5596 30.854 15.8773 30.8812 16.1041 31.1168C16.3219 31.3433 16.331 31.6786 16.0951 31.9595C15.9862 32.0954 15.841 32.2042 15.7048 32.3129C15.4326 32.5213 15.1241 32.7569 14.7701 33.0288ZM35.3245 13.5104C34.0813 13.4289 31.6492 16.5279 30.9595 18.1861C31.3135 18.4036 31.6855 18.6211 32.0667 18.8476C32.1756 18.6754 32.2482 18.5667 32.3208 18.458C32.5476 18.1046 32.7564 17.7421 33.0104 17.4068C33.2464 17.0897 33.5731 16.8903 33.9905 17.0353C34.3807 17.1712 34.5169 17.5065 34.5169 17.878C34.5078 18.313 34.4806 18.757 34.3807 19.1829C34.2718 19.6541 34.0813 20.1071 33.9179 20.6236C34.2265 21.0224 34.5532 21.4573 34.8889 21.9013C36.5224 19.636 36.35 15.8936 35.3245 13.5104ZM18.4454 17.4703C18.028 16.392 17.2113 15.2955 16.3401 14.5253C15.6595 13.9272 15.0152 13.2929 14.3436 12.6858C14.144 12.5046 13.9171 12.3506 13.6902 12.1693C12.8554 14.0722 13.4634 19.0379 14.6612 20.4424C15.0333 20.0165 15.4054 19.5816 15.7865 19.1557C15.6595 18.9473 15.5506 18.757 15.4417 18.5667C15.1604 18.0774 15.0424 17.5337 15.0696 16.9809C15.0968 16.4101 15.6413 16.1473 16.1132 16.4644C16.2584 16.5641 16.3764 16.7 16.4853 16.836C16.8029 17.2256 17.1114 17.6243 17.4472 18.0593C17.7739 17.8599 18.1006 17.6696 18.4454 17.4703Z" fill="black"/>
<path d="M14.7698 33.0294C15.1146 32.7575 15.4232 32.5129 15.7317 32.2682C15.8678 32.1595 16.013 32.0417 16.1219 31.9148C16.3579 31.6339 16.3488 31.3077 16.131 31.0721C15.9132 30.8365 15.5865 30.8093 15.2871 31.0358C14.8515 31.3711 14.4431 31.7336 13.9984 32.1051C13.5538 31.7064 13.3904 31.2171 13.1998 30.6734C13.5538 30.5646 13.8714 30.465 14.1799 30.3744C14.3251 30.329 14.4794 30.3019 14.6246 30.2475C15.0148 30.0934 15.1782 29.8125 15.0783 29.4863C14.9785 29.1692 14.679 29.0151 14.2707 29.0967C13.9894 29.1511 13.7171 29.2507 13.4358 29.3232C13.2906 29.3595 13.1454 29.3867 13.0002 29.4138C12.8006 28.7705 12.7915 27.8915 13.0002 27.2935C13.1817 27.3297 13.3723 27.3841 13.5628 27.4113C13.8442 27.4656 14.1255 27.5291 14.4159 27.5472C14.9422 27.5834 15.2326 27.4022 15.2689 27.0307C15.3052 26.6501 15.0602 26.4326 14.5429 26.3601C14.2162 26.3148 13.8895 26.2605 13.5628 26.197C13.4539 26.1789 13.3632 26.1245 13.1726 26.052C13.2906 25.6896 13.3813 25.3362 13.5356 25.0009C14.2162 23.5058 15.0874 22.1284 16.1129 20.8417C16.3488 20.5517 16.6301 20.289 16.9296 20.0715C18.2545 19.0747 19.6792 18.3408 21.3399 18.0508C23.4816 17.6793 25.6051 17.5252 27.7104 18.1505C28.2368 18.3045 28.745 18.531 29.2259 18.7938C29.9065 19.1653 30.5599 19.5822 31.2133 19.999C31.4946 20.1802 31.785 20.3615 31.9937 20.6061C32.7197 21.4941 33.482 22.364 34.1082 23.3155C34.6799 24.1944 34.7979 25.2546 34.934 26.342C34.4349 26.4779 33.972 26.5957 33.5092 26.7226C33.3187 26.777 33.119 26.8313 32.9466 26.9129C32.7016 27.0307 32.5836 27.2391 32.6471 27.5109C32.7107 27.7918 32.9194 27.9278 33.1825 27.9096C33.5365 27.8915 33.8813 27.819 34.2352 27.7556C34.4712 27.7194 34.698 27.674 34.9612 27.6287C35.0882 28.263 34.8977 28.7795 34.7343 29.3685C34.2715 29.3685 33.8178 29.3595 33.355 29.3685C32.8286 29.3867 32.5655 29.5679 32.5655 29.885C32.5655 30.2022 32.8377 30.3925 33.355 30.4287C33.6544 30.4559 33.9539 30.465 34.3895 30.4922C34.09 31.0993 33.8359 31.5977 33.5728 32.1323C33.364 32.0326 33.2098 31.9601 33.0555 31.8967C32.8558 31.8061 32.6562 31.6973 32.4475 31.643C32.1752 31.5795 31.8939 31.5976 31.7669 31.8967C31.6398 32.1866 31.7759 32.4041 32.0391 32.5582C32.2841 32.7122 32.5201 32.8663 32.8014 33.0475C32.7107 33.1925 32.6381 33.3193 32.5473 33.4281C31.9211 34.1077 31.177 34.6151 30.2968 34.896C29.7069 35.0863 29.108 35.2404 28.5181 35.4306C27.538 35.7478 26.5216 35.775 25.4962 35.7931C23.7448 35.8203 22.0024 35.8837 20.26 35.6028C18.4269 35.3128 16.8298 34.4973 15.3233 33.4462C15.1237 33.3737 14.9785 33.2106 14.7698 33.0294ZM24.8156 30.8274C25.2421 30.2656 25.6686 29.3957 25.8229 28.7795C26.0588 27.8281 25.5416 27.1213 24.5615 27.1666C24.017 27.1938 23.4725 27.3206 22.9462 27.4838C22.3563 27.674 22.2202 28.0003 22.32 28.6164C22.4471 29.3957 22.7647 30.0844 23.3999 30.6553C23.164 30.9452 22.9825 31.2261 22.7465 31.4436C22.3835 31.7789 22.0205 31.7517 21.6213 31.4436C21.3944 31.2714 21.1494 31.1174 20.9134 30.9724C20.7047 30.8365 20.496 30.8184 20.3145 31.0087C20.1239 31.1989 20.1784 31.3983 20.2691 31.6158C20.859 33.0203 22.9643 33.3103 23.772 32.1232C23.8446 32.0235 23.9353 31.942 24.0351 31.8514C24.2166 32.0235 24.3437 32.1685 24.498 32.2954C25.7231 33.265 27.2295 32.6216 27.8738 31.7064C28.0916 31.3983 28.0553 31.063 27.8284 30.8637C27.6015 30.6643 27.3112 30.7006 26.9935 30.9543C26.93 31.0087 26.8665 31.0811 26.803 31.1355C26.0135 31.7789 25.4236 31.6883 24.8156 30.8274ZM19.9333 23.986C19.8063 23.6055 19.7337 23.1796 19.525 22.8443C19.1529 22.2372 18.4451 22.3006 18.0821 22.9168C17.6556 23.6417 17.7372 24.7563 18.2545 25.4087C18.6356 25.8889 19.2074 25.8889 19.4887 25.3453C19.6974 24.9465 19.77 24.4754 19.9333 23.986ZM27.4473 24.43C27.4836 24.7019 27.5017 24.9284 27.5562 25.1368C27.6651 25.5355 27.9373 25.7802 28.3548 25.8255C28.7268 25.8708 29.0807 25.6715 29.1987 25.2365C29.3258 24.7834 29.3802 24.2941 29.3711 23.8139C29.353 23.397 29.0263 23.1252 28.6542 23.0618C28.2459 22.9983 27.8556 23.1796 27.6832 23.5873C27.5562 23.8592 27.5108 24.1763 27.4473 24.43Z" fill="white"/>
<path d="M35.3246 13.5107C36.35 15.903 36.5225 19.6363 34.8799 21.8926C34.5442 21.4486 34.2175 21.0227 33.9089 20.6149C34.0814 20.0984 34.2719 19.6454 34.3717 19.1742C34.4716 18.7483 34.4988 18.3043 34.5079 17.8693C34.5169 17.4978 34.3808 17.1625 33.9815 17.0266C33.5641 16.8816 33.2374 17.09 33.0015 17.3981C32.7474 17.7334 32.5386 18.0958 32.3118 18.4492C32.2392 18.558 32.1666 18.6667 32.0577 18.8389C31.6765 18.6123 31.3045 18.3858 30.9506 18.1774C31.6493 16.5282 34.0814 13.4201 35.3246 13.5107Z" fill="white"/>
<path d="M18.4452 17.4709C18.1003 17.6702 17.7737 17.8605 17.447 18.0508C17.1112 17.6249 16.8027 17.2262 16.485 16.8275C16.3761 16.6916 16.2582 16.5557 16.113 16.456C15.6411 16.1388 15.0966 16.4016 15.0694 16.9725C15.0422 17.5343 15.1601 18.0689 15.4414 18.5583C15.5503 18.7486 15.6683 18.9388 15.7863 19.1473C15.4051 19.5822 15.0331 20.0081 14.661 20.434C13.4631 19.0385 12.8551 14.0728 13.69 12.1699C13.9169 12.3512 14.1438 12.5052 14.3434 12.6864C15.0149 13.2935 15.6592 13.9278 16.3398 14.5259C17.211 15.2961 18.0278 16.3926 18.4452 17.4709Z" fill="white"/>
<path d="M24.8159 30.8273C25.4239 31.679 26.0137 31.7697 26.7942 31.1263C26.8577 31.0719 26.9212 30.9994 26.9848 30.9451C27.3024 30.6823 27.5837 30.6551 27.8196 30.8544C28.0465 31.0538 28.0828 31.3891 27.865 31.6972C27.2207 32.6124 25.7052 33.2557 24.4892 32.2862C24.3349 32.1684 24.1988 32.0143 24.0264 31.8421C23.9356 31.9418 23.8358 32.0143 23.7632 32.114C22.9555 33.301 20.8593 33.0111 20.2603 31.6065C20.1696 31.3891 20.1151 31.1897 20.3057 30.9994C20.4963 30.8182 20.705 30.8363 20.9046 30.9632C21.1406 31.1172 21.3856 31.2713 21.6125 31.4344C22.0118 31.7425 22.3748 31.7606 22.7377 31.4344C22.9737 31.2169 23.1552 30.936 23.3911 30.646C22.765 30.0752 22.4383 29.3865 22.3112 28.6072C22.2114 27.991 22.3475 27.6648 22.9374 27.4745C23.4547 27.3114 24.0082 27.1845 24.5527 27.1574C25.5237 27.1121 26.05 27.8098 25.8141 28.7703C25.6689 29.3955 25.2424 30.2654 24.8159 30.8273Z" fill="black"/>
<path d="M19.934 23.9855C19.7797 24.4839 19.698 24.946 19.4893 25.3447C19.208 25.8884 18.6363 25.8884 18.2551 25.4082C17.7378 24.7558 17.6562 23.6322 18.0827 22.9163C18.4457 22.3001 19.1444 22.2367 19.5256 22.8438C19.7252 23.1791 19.7978 23.605 19.934 23.9855Z" fill="black"/>
<path d="M27.4478 24.4295C27.5113 24.1758 27.5567 23.8677 27.6746 23.5868C27.847 23.179 28.2373 22.9978 28.6456 23.0612C29.0268 23.1246 29.3534 23.3874 29.3625 23.8133C29.3807 24.2845 29.3171 24.7738 29.1901 25.236C29.0631 25.68 28.7182 25.8703 28.3462 25.825C27.9287 25.7797 27.6565 25.535 27.5476 25.1363C27.5022 24.9188 27.4841 24.7013 27.4478 24.4295Z" fill="black"/>
</svg>
