<svg width="48" height="48" viewBox="0 0 48 48" fill="none" xmlns="http://www.w3.org/2000/svg">
<circle cx="24" cy="24" r="23" fill="white" stroke="black" stroke-width="2"/>
<path d="M27.2544 32.5832C27.1415 33.0257 27.0893 33.3902 26.959 33.7199C26.2117 35.6635 24.5259 36.132 22.7619 35.4813C22.1189 35.2383 21.7278 34.6743 21.5019 34.0409C21.3368 33.5637 21.2499 33.0604 21.1283 32.5659C21.0848 32.3837 21.0414 32.2101 20.9979 31.9845C20.0942 32.2448 19.2339 32.4444 18.3389 32.3663C17.4439 32.2882 16.5923 32.08 15.7842 31.6114C15.5669 31.8457 15.3931 32.0453 15.202 32.2448C14.3417 33.1385 12.4387 33.3902 11.4567 32.6353C10.5791 31.9585 10.1707 30.978 10.0925 29.876C10.0577 29.3468 10.0577 28.8175 10.0925 28.2882C10.1881 26.9606 10.2402 25.6244 10.4401 24.3055C10.7268 22.3879 11.0657 20.4617 11.7174 18.6222C12.3257 16.9042 13.4293 15.5245 14.6893 14.249C15.089 13.8499 15.6191 13.7545 16.1491 13.7111C16.74 13.659 17.3396 13.6851 17.9044 13.902C18.2346 14.0234 18.4692 13.9887 18.7473 13.7284C19.0949 13.3987 19.5207 13.1384 19.9552 12.9215C21.7887 12.0191 23.7351 11.8109 25.7164 12.1926C27.4891 12.5397 29.0358 13.3467 29.983 14.9953C30.0264 15.0647 30.0872 15.1254 30.1568 15.2122C30.9041 14.761 31.7035 14.518 32.5638 14.4833C33.7977 14.4226 34.7014 14.9866 35.301 16.0018C36.1526 17.4508 36.7695 18.9953 37.1519 20.6352C37.5603 22.3966 37.7341 24.184 37.8992 25.9715C38.0035 27.1081 38.0817 28.2448 38.1077 29.3901C38.1251 30.3359 37.8905 31.1949 37.2649 31.9845C36.5436 32.8869 34.8057 32.8869 34.1714 32.0192C33.9889 31.7676 33.7716 31.5333 33.5631 31.2904C31.6774 32.8088 29.6093 33.3555 27.2544 32.5832ZM24.0132 13.3467C22.8227 13.2425 21.7452 13.5289 20.6938 13.954C19.7814 14.3271 19.147 14.9432 18.7734 15.8629C18.1825 17.3467 17.748 18.8651 17.7393 20.4703C17.7393 20.8261 17.6872 21.1905 17.6872 21.5463C17.6872 21.9628 17.5047 22.2404 17.1224 22.3706C16.6531 22.5181 16.3403 22.8565 16.0188 23.1949C14.6545 24.6526 14.3156 26.4053 14.5242 28.3142C14.5502 28.5745 14.6806 28.8522 14.8283 29.0691C15.341 29.7893 15.984 30.3706 16.8008 30.7177C18.0521 31.247 19.3208 31.2383 20.5721 30.7264C21.1543 30.4834 21.7105 30.1624 22.284 29.8847C23.0052 29.5376 23.7525 29.4422 24.4911 29.7806C25.1863 30.093 25.8554 30.4487 26.5245 30.8131C27.4282 31.3077 28.3754 31.6982 29.4181 31.6201C29.983 31.5767 30.5304 31.3771 31.0865 31.2557C31.8773 31.0735 32.4334 30.5789 32.8766 29.9281C33.2329 29.4075 33.398 28.8261 33.5196 28.2188C33.9194 26.2665 33.4154 24.6699 31.7122 23.5159C31.382 23.2903 31.0692 23.0387 30.765 22.7784C30.3914 22.4573 30.2523 22.0322 30.2437 21.5376C30.2089 19.62 29.8613 17.7545 29.0619 16.0018C28.6795 15.1688 28.0973 14.5354 27.2718 14.1015C26.2291 13.5462 25.1516 13.2252 24.0132 13.3467ZM17.8523 14.9085C17.3135 14.8651 16.8877 14.787 16.4706 14.7957C16.0362 14.8044 15.6017 14.8911 15.2715 15.2556C14.1418 16.4877 13.1686 17.7979 12.708 19.4291C12.5343 20.0539 12.3952 20.6959 12.2388 21.338C11.6045 24.0452 11.4133 26.8044 11.3351 29.5724C11.3177 30.2752 11.6045 30.8392 11.9781 31.3858C12.0563 31.4986 12.1954 31.6114 12.317 31.6461C13.2989 31.8978 14.1158 31.9151 14.6458 30.7871C14.4373 30.5528 14.22 30.3186 14.0202 30.0843C13.5249 29.5029 13.2468 28.8175 13.2468 28.0539C13.2468 27.4205 13.2468 26.7784 13.3511 26.1624C13.69 24.0712 14.7327 22.4313 16.714 21.3554C16.4098 19.1688 16.9573 17.0603 17.8523 14.9085ZM34.2756 30.1624C34.4147 30.3619 34.5537 30.5442 34.6927 30.7264C34.797 30.8565 34.9013 30.9954 35.0229 31.1168C35.4487 31.568 35.9527 31.542 36.3872 31.0821C36.7956 30.6483 36.926 30.119 36.8912 29.5637C36.813 28.106 36.7435 26.6569 36.5871 25.2079C36.4393 23.8456 36.2395 22.4834 35.9788 21.1385C35.692 19.6374 35.1011 18.2317 34.3973 16.8781C34.0932 16.2881 33.676 15.7848 32.9983 15.6981C32.1467 15.594 31.3212 15.7588 30.5912 16.21C30.7911 16.9823 31.0257 17.7111 31.1561 18.4486C31.3212 19.3771 31.4515 20.3228 31.5123 21.2686C31.5384 21.7111 31.747 21.9454 32.0598 22.1884C32.5725 22.5875 33.0938 22.9953 33.5718 23.4465C34.5103 24.3142 34.9013 25.4335 34.9274 26.683C34.9534 27.889 34.7449 29.0431 34.2756 30.1624ZM24.2044 31.0995C24.2218 31.3771 24.2391 31.6027 24.2565 31.8283C24.2826 32.1233 24.326 32.4184 24.3174 32.7134C24.3174 32.9737 24.1696 33.1559 23.8916 33.1819C23.6135 33.208 23.431 33.0518 23.3963 32.7915C23.3354 32.3489 23.3094 31.9064 23.2746 31.4726C23.2572 31.299 23.2485 31.1168 23.2312 30.8479C22.7272 31.1168 22.3101 31.3424 21.9016 31.5594C22.0754 32.2101 22.2058 32.7828 22.3883 33.3468C22.5968 34.0236 23.0226 34.4748 23.7786 34.5442C24.5954 34.6223 25.2732 34.3793 25.6469 33.6418C25.8467 33.2427 25.8989 32.7568 25.9944 32.3056C26.0205 32.2014 25.9771 32.0105 25.8989 31.9585C25.3862 31.6288 24.9082 31.2383 24.2044 31.0995Z" fill="black"/>
<path d="M24.0131 13.3467C25.1514 13.2166 26.229 13.5463 27.263 14.0929C28.0885 14.5268 28.6707 15.1602 29.0531 15.9931C29.8525 17.7545 30.2001 19.6114 30.2349 21.529C30.2436 22.0235 30.3826 22.4487 30.7562 22.7697C31.0604 23.03 31.3732 23.2817 31.7034 23.5073C33.3979 24.6613 33.9019 26.2578 33.5108 28.2101C33.3892 28.8175 33.2241 29.3988 32.8678 29.9194C32.4246 30.5702 31.8685 31.0648 31.0778 31.247C30.5216 31.3685 29.9742 31.5767 29.4093 31.6114C28.3666 31.6895 27.4194 31.2991 26.5157 30.8045C25.8466 30.44 25.1688 30.0843 24.4823 29.7719C23.7437 29.4335 22.9964 29.529 22.2752 29.8761C21.7017 30.1537 21.1542 30.4748 20.5633 30.7177C19.312 31.2296 18.0434 31.2383 16.7921 30.709C15.9752 30.362 15.3322 29.7806 14.8195 29.0604C14.6631 28.8435 14.5414 28.5659 14.5154 28.3056C14.3068 26.3967 14.6457 24.6439 16.01 23.1862C16.3315 22.8478 16.6443 22.5094 17.1136 22.3619C17.5046 22.2405 17.6784 21.9541 17.6784 21.5376C17.6784 21.1819 17.7218 20.8175 17.7305 20.4617C17.7479 18.8478 18.1737 17.3381 18.7646 15.8543C19.1296 14.9346 19.7639 14.3098 20.685 13.9454C21.7451 13.5289 22.8139 13.2426 24.0131 13.3467ZM23.8567 26.5094C23.4396 26.6136 22.9269 26.709 22.4316 26.8826C22.0579 27.004 21.8928 27.299 22.0145 27.6201C22.2752 28.3142 22.5793 28.9823 23.2745 29.3728C23.596 29.555 23.9349 29.5724 24.2477 29.4335C24.5866 29.2774 24.9342 29.0865 25.2123 28.8348C26.0465 28.08 25.7945 27.0127 24.717 26.6743C24.4737 26.5962 24.2217 26.5789 23.8567 26.5094ZM22.3273 22.6916C22.2926 22.3533 22.2839 22.0929 22.2317 21.85C22.1362 21.4335 21.7973 21.1819 21.3541 21.1385C20.9457 21.0951 20.5807 21.2687 20.4243 21.6504C20.1723 22.2405 20.042 22.8652 20.2158 23.5073C20.2766 23.7415 20.4243 23.9758 20.5981 24.1494C21.1108 24.6526 21.832 24.5051 22.084 23.8457C22.2231 23.4552 22.2578 23.0214 22.3273 22.6916ZM28.3318 22.4487C28.2536 22.1277 28.2189 21.7979 28.0885 21.529C27.8365 21.0083 27.1153 20.8782 26.759 21.3034C26.481 21.6331 26.2376 22.0409 26.1334 22.4487C25.9856 22.978 26.0117 23.542 26.4462 23.9845C26.9676 24.5051 27.7236 24.4097 28.0016 23.7329C28.1754 23.3337 28.2276 22.8912 28.3318 22.4487Z" fill="white"/>
<path d="M17.852 14.9085C16.957 17.0603 16.4009 19.1688 16.7224 21.3467C14.7325 22.4226 13.6984 24.0625 13.3595 26.1536C13.2552 26.7784 13.2552 27.4118 13.2552 28.0452C13.2552 28.8087 13.5246 29.4942 14.0286 30.0756C14.2372 30.3185 14.4457 30.5528 14.6543 30.7784C14.1242 31.9064 13.3074 31.889 12.3254 31.6374C12.1951 31.6027 12.0648 31.4899 11.9866 31.3771C11.6129 30.8304 11.3261 30.2664 11.3435 29.5636C11.4217 26.7957 11.6129 24.0365 12.2472 21.3293C12.395 20.6959 12.534 20.0538 12.7165 19.4204C13.1683 17.7978 14.1416 16.4876 15.2712 15.2555C15.6014 14.8911 16.0359 14.813 16.4791 14.7957C16.8962 14.787 17.3133 14.8564 17.852 14.9085Z" fill="white"/>
<path d="M34.2753 30.1625C34.7446 29.0432 34.9531 27.8891 34.927 26.6917C34.901 25.4336 34.5099 24.323 33.5715 23.4553C33.0935 23.0128 32.5809 22.605 32.0595 22.1971C31.7467 21.9542 31.5468 21.7199 31.512 21.2774C31.4512 20.3316 31.3209 19.3858 31.1558 18.4574C31.0254 17.7112 30.7908 16.991 30.5909 16.2188C31.3209 15.7676 32.1464 15.6027 32.998 15.7069C33.6757 15.7936 34.0928 16.2969 34.397 16.8869C35.1008 18.2405 35.6917 19.6461 35.9785 21.1472C36.2305 22.4922 36.439 23.8544 36.5868 25.2167C36.7432 26.6657 36.8127 28.1234 36.8909 29.5725C36.917 30.1278 36.7953 30.6571 36.3869 31.0909C35.9524 31.5508 35.4484 31.5768 35.0226 31.1256C34.9097 31.0041 34.7967 30.874 34.6924 30.7352C34.5534 30.5443 34.4144 30.3534 34.2753 30.1625Z" fill="white"/>
<path d="M24.2043 31.0992C24.9081 31.238 25.386 31.6285 25.89 31.9495C25.9682 32.0016 26.0117 32.1838 25.9856 32.2966C25.89 32.7478 25.8466 33.225 25.638 33.6328C25.2644 34.379 24.5866 34.6133 23.7698 34.5352C23.0051 34.4658 22.588 34.0146 22.3794 33.3378C22.2056 32.7738 22.0666 32.2011 21.8928 31.5504C22.3099 31.3248 22.727 31.1079 23.2223 30.8389C23.2397 31.1079 23.2484 31.2814 23.2658 31.4636C23.3005 31.9061 23.3266 32.3486 23.3874 32.7825C23.4222 33.0428 23.6047 33.1903 23.8827 33.173C24.1608 33.1469 24.3085 32.9647 24.3085 32.7044C24.3085 32.4094 24.2651 32.1144 24.2477 31.8194C24.239 31.6024 24.2216 31.3768 24.2043 31.0992Z" fill="white"/>
<path d="M23.8567 26.5098C24.2216 26.5792 24.4736 26.5965 24.7169 26.6746C25.7944 27.0044 26.0464 28.0803 25.2122 28.8352C24.9342 29.0868 24.5953 29.2777 24.2477 29.4339C23.9349 29.5727 23.596 29.5554 23.2745 29.3732C22.5793 28.9827 22.2665 28.3146 22.0145 27.6204C21.8928 27.2994 22.0579 27.0044 22.4316 26.8829C22.9269 26.7093 23.4396 26.6139 23.8567 26.5098ZM23.8219 28.4534C24.1695 28.2625 24.5258 28.1931 24.5779 27.7679C24.1521 27.5423 23.7524 27.6117 23.2397 27.7419C23.4656 28.0109 23.6394 28.2278 23.8219 28.4534Z" fill="black"/>
<path d="M22.3271 22.6915C22.2576 23.0299 22.2228 23.455 22.0751 23.8455C21.8231 24.5049 21.1019 24.6524 20.5892 24.1492C20.4154 23.9843 20.2764 23.7414 20.2068 23.5071C20.0331 22.8737 20.1634 22.249 20.4154 21.6503C20.5805 21.2685 20.9368 21.095 21.3452 21.1384C21.7884 21.1817 22.1186 21.4334 22.2228 21.8498C22.2923 22.0928 22.2923 22.3444 22.3271 22.6915Z" fill="black"/>
<path d="M28.3321 22.4484C28.2279 22.8823 28.1757 23.3335 28.0019 23.7326C27.7152 24.4094 26.9592 24.5135 26.4465 23.9842C26.0033 23.5417 25.9859 22.9777 26.1337 22.4484C26.2466 22.0406 26.4899 21.6328 26.7593 21.3031C27.1156 20.8779 27.8368 21.0081 28.0888 21.5287C28.2192 21.8064 28.2539 22.1274 28.3321 22.4484Z" fill="black"/>
<path d="M23.8218 28.453C23.6393 28.2274 23.4656 28.0105 23.2396 27.7415C23.7523 27.6114 24.152 27.5333 24.5778 27.7676C24.5257 28.1927 24.1694 28.2621 23.8218 28.453Z" fill="white"/>
</svg>
