<svg width="48" height="48" viewBox="0 0 48 48" fill="none" xmlns="http://www.w3.org/2000/svg">
<circle cx="24" cy="24" r="23" fill="white" stroke="black" stroke-width="2"/>
<g clip-path="url(#clip0_972_3688)">
<path d="M25 12.2969C18.37 12.2969 13 17.8063 13 24.6016C13 30.0392 16.438 34.6504 21.205 36.2756C21.805 36.3915 22.025 36.0111 22.025 35.684C22.025 35.3917 22.015 34.6176 22.01 33.5922C18.672 34.3346 17.968 31.9413 17.968 31.9413C17.422 30.5211 16.633 30.1417 16.633 30.1417C15.546 29.3788 16.717 29.3942 16.717 29.3942C17.922 29.4804 18.555 30.6616 18.555 30.6616C19.625 32.5432 21.364 31.9997 22.05 31.6849C22.158 30.8892 22.467 30.3468 22.81 30.0392C20.145 29.7316 17.344 28.6734 17.344 23.9586C17.344 22.6154 17.809 21.5182 18.579 20.6569C18.444 20.3462 18.039 19.0952 18.684 17.4002C18.684 17.4002 19.689 17.0701 21.984 18.6615C22.944 18.3877 23.964 18.2523 24.984 18.2462C26.004 18.2523 27.024 18.3877 27.984 18.6615C30.264 17.0701 31.269 17.4002 31.269 17.4002C31.914 19.0952 31.509 20.3462 31.389 20.6569C32.154 21.5182 32.619 22.6154 32.619 23.9586C32.619 28.6857 29.814 29.7264 27.144 30.0289C27.564 30.3981 27.954 31.1528 27.954 32.3053C27.954 33.9521 27.939 35.2748 27.939 35.6747C27.939 35.9977 28.149 36.3823 28.764 36.2592C33.565 34.6452 37 30.031 37 24.6016C37 17.8063 31.627 12.2969 25 12.2969" fill="black"/>
</g>
<defs>
<clipPath id="clip0_972_3688">
<rect width="24" height="24" fill="white" transform="translate(13 12)"/>
</clipPath>
</defs>
</svg>
