<svg width="48" height="48" viewBox="0 0 48 48" fill="none" xmlns="http://www.w3.org/2000/svg">
<circle cx="24" cy="24" r="23" fill="white" stroke="black" stroke-width="2"/>
<path d="M17.6241 20.6883C17.7938 20.4041 17.9713 20.143 18.1025 19.8666C18.7043 18.6147 19.2907 17.3629 19.8849 16.1111C20.0083 15.8577 20.1241 15.6042 20.2784 15.3662C20.8108 14.5598 21.567 14.1681 22.5237 14.0375C23.7274 13.8763 24.4836 14.5214 25.1394 15.3585C25.8493 16.2493 26.5206 17.1786 27.215 18.0848C27.3925 18.3229 27.6008 18.5379 27.8092 18.776C28.0406 18.6839 28.2413 18.5917 28.4573 18.5303C29.607 18.1923 30.0314 18.6301 30.3631 19.3059C30.5638 19.7206 30.8878 20.0739 31.181 20.4425C31.3894 20.7113 31.644 20.9341 31.8446 21.2028C32.9943 22.7772 34.3291 24.1596 35.9726 25.2271C36.127 25.3269 36.2581 25.4652 36.4279 25.6034C36.5513 25.5804 36.6979 25.5573 36.8445 25.5343C37.7087 25.4191 38.4572 25.6572 39.0204 26.3253C39.7149 27.1471 40.5173 27.8459 41.4355 28.4142C42.1454 28.852 42.6238 30.1192 42.4077 30.8948C42.2303 31.5323 41.7287 31.9086 41.1115 32.0161C40.1701 32.1851 39.2133 32.331 38.2643 32.377C37.3229 32.4231 36.397 32.523 35.4711 32.6996C34.7535 32.8378 34.0205 32.9377 33.2952 32.9684C31.698 33.0222 30.1008 33.0682 28.5036 32.8532C27.4079 32.7073 26.2891 32.715 25.1857 32.6074C24.3293 32.523 23.4805 32.3463 22.624 32.2235C22.408 32.1927 22.1842 32.2235 21.9682 32.2388C21.6132 32.2695 21.2583 32.3386 20.9034 32.354C19.9312 32.3924 18.959 32.4308 17.9867 32.569C17.03 32.6996 16.0346 32.5921 15.0624 32.5614C13.8587 32.523 12.655 32.4154 11.4513 32.4154C10.1088 32.4231 8.78933 32.2542 7.4699 32.0545C6.86034 31.9623 6.50541 31.6321 6.45911 31.0254C6.38967 30.1115 6.32022 29.1822 6.72145 28.3221C6.90664 27.9227 7.17669 27.5541 7.43904 27.1931C7.62422 26.9397 7.84798 26.7093 8.06403 26.4712C8.22606 26.2946 8.38038 26.0488 8.58871 25.9797C9.01309 25.8261 9.17513 25.4959 9.38346 25.158C10.3557 23.5759 11.3973 22.0476 12.6396 20.6499C12.9328 20.3197 13.1334 19.8973 13.4112 19.5517C13.6812 19.2214 13.959 18.8759 14.3062 18.6378C14.9235 18.2077 15.4636 18.3383 15.9189 18.9373C16.0655 19.1293 16.1966 19.3366 16.3432 19.5363C16.675 19.9894 17.0685 20.3734 17.6241 20.6883ZM23.0484 31.2251C23.5191 31.2942 23.9666 31.3787 24.4141 31.4247C26.3045 31.6014 28.195 31.7934 30.0854 31.9239C31.0036 31.9854 31.9295 31.9316 32.8477 31.9393C33.7196 31.947 34.5683 31.8395 35.4171 31.6398C36.2581 31.4401 37.1223 31.3787 37.9865 31.3403C38.9433 31.3019 39.8923 31.1406 40.8414 31.0177C41.0883 30.987 41.3198 30.8641 41.3892 30.5953C41.4895 30.2036 41.2272 29.4817 40.8491 29.259C39.8615 28.683 39.0282 27.9381 38.3183 27.0549C37.8245 26.4482 37.0374 26.3714 36.4587 26.7784C36.0112 27.0933 35.502 27.1778 34.9618 27.1855C33.8199 27.1855 32.7088 27.0779 31.6749 26.548C31.073 26.2408 30.448 26.2408 29.8153 26.4559C29.7227 26.4866 29.6378 26.5096 29.5452 26.548C28.573 26.9013 27.5931 26.8629 26.6055 26.5788C26.266 26.4789 25.911 26.4021 25.5638 26.3176C25.2089 26.2332 24.8462 26.2408 24.5144 26.4098C23.874 26.7477 23.2953 27.1394 23.0175 27.8613C22.7089 28.6677 22.246 29.3589 21.3509 29.7582C22.1765 29.9886 22.8169 30.3419 23.0484 31.2251ZM14.7306 25.565C14.9698 25.6956 15.1241 25.7724 15.2707 25.8568C15.834 26.1717 16.3895 26.502 16.7136 27.0779C16.8988 27.4082 17.1457 27.5771 17.4929 27.6539C18.0639 27.7768 18.6272 27.8997 19.1982 28.0226C19.7537 28.1378 20.2321 28.3528 20.4867 28.9058C20.5021 28.9441 20.5716 28.9672 20.6256 29.0056C21.0191 28.8136 21.3123 28.5218 21.4435 28.1147C21.6364 27.5311 21.8293 26.9397 21.9142 26.333C22.0531 25.3653 22.5083 24.6204 23.249 24.006C23.4188 23.8601 23.5885 23.7065 23.7274 23.5375C24.7999 22.1705 25.8647 20.7958 26.9218 19.4518C26.0962 18.3383 25.2552 17.194 24.3987 16.0727C24.1595 15.7655 23.8586 15.5044 23.5654 15.2356C23.4728 15.1511 23.3339 15.0897 23.2182 15.082C22.2845 15.0052 21.4821 15.1895 20.9883 16.2186C20.6719 16.8791 20.371 17.5396 20.0469 18.1923C19.5222 19.2445 19.0053 20.3043 18.4497 21.3411C18.1951 21.8172 17.8324 22.232 17.5547 22.7004C17.0531 23.5298 16.405 24.221 15.6411 24.8047C15.317 25.0197 15.0547 25.2809 14.7306 25.565ZM21.2274 30.9486C21.1812 30.9179 21.1349 30.8718 21.0886 30.8564C20.3247 30.6721 19.8617 30.1652 19.5917 29.4587C19.4914 29.1976 19.3139 29.0747 19.0515 29.0209C18.8124 28.9749 18.5654 28.9518 18.334 28.8904C17.7707 28.7445 17.1997 28.6216 16.6596 28.4142C16.405 28.3144 16.1426 28.084 16.0037 27.8459C15.7414 27.3851 15.3633 27.0779 14.9312 26.8015C14.6149 26.5941 14.3062 26.5634 13.9744 26.7016C13.6967 26.8168 13.4189 26.932 13.1488 27.0549C12.6087 27.3007 12.0918 27.2623 11.5902 26.9627C11.3819 26.8399 11.1736 26.7093 10.9575 26.6018C10.3402 26.2869 9.3063 26.5096 8.86649 27.0472C8.61958 27.3467 8.3418 27.6309 8.10261 27.9458C7.93286 28.1685 7.77854 28.4066 7.6628 28.6523C7.3233 29.3973 7.4236 30.1806 7.47762 30.9716C7.60107 31.0024 7.68595 31.0331 7.77854 31.0484C8.8742 31.1943 9.96987 31.3633 11.081 31.3787C12.6242 31.4017 14.1596 31.5092 15.6951 31.563C16.4436 31.586 17.1997 31.5783 17.9482 31.5399C18.4343 31.5169 18.9127 31.4094 19.3911 31.3556C19.7306 31.3249 20.0701 31.3249 20.4018 31.3172C20.7259 31.3172 21.0191 31.2404 21.2274 30.9486ZM22.8787 26.1333C22.925 26.1564 22.9713 26.1794 23.0175 26.2024C23.1719 26.0949 23.3262 25.9874 23.4728 25.8799C24.229 25.3116 25.0546 25.1349 25.9728 25.3807C26.266 25.4575 26.5592 25.5113 26.8524 25.5957C27.6703 25.8261 28.4727 25.8568 29.2906 25.565C29.6378 25.4421 30.0159 25.373 30.3863 25.3269C31.0653 25.2348 31.6903 25.4421 32.2921 25.7263C33.2412 26.1717 34.2365 26.1794 35.3862 26.141C35.147 25.9567 35.0159 25.8568 34.8924 25.757C34.3677 25.3346 33.8045 24.9506 33.3261 24.4745C31.7983 22.9539 30.4403 21.2796 29.1517 19.4826C28.874 19.4211 28.5808 19.567 28.3338 19.759C27.8555 20.1507 27.3616 20.5424 26.9681 21.0109C25.7876 22.4086 24.6919 23.8908 23.4033 25.1964C23.3262 25.2732 23.2413 25.3653 23.195 25.4575C23.0793 25.6725 22.979 25.9029 22.8787 26.1333ZM15.0161 19.4058C14.6226 19.5747 14.4297 19.8128 14.2522 20.0816C14.0053 20.4579 13.7738 20.8496 13.4883 21.1952C12.5239 22.3625 11.5516 23.5298 10.7569 24.8277C10.6412 25.0121 10.51 25.181 10.3865 25.3653C10.6875 25.4729 10.9421 25.542 11.1813 25.6495C11.4359 25.7647 11.6828 25.8952 11.9297 26.0335C12.4081 26.2869 13.3109 26.1103 13.5809 25.6572C14.013 24.9122 14.6072 24.3286 15.2707 23.791C16.0269 23.1843 16.5593 22.4009 17.0068 21.5177C16.1581 20.9801 15.5331 20.2736 15.0161 19.4058Z" fill="black"/>
</svg>
