<svg width="48" height="48" viewBox="0 0 48 48" fill="none" xmlns="http://www.w3.org/2000/svg">
<circle cx="24" cy="24" r="23" fill="white" stroke="black" stroke-width="2"/>
<path d="M14.3795 23.8104C14.3304 22.5362 14.2519 20.9875 14.2126 19.4389C14.2028 18.939 14.2126 18.4293 14.2911 17.9392C14.4188 17.1159 14.7819 16.8414 15.6261 16.9002C16.274 16.9492 16.912 17.0472 17.5501 17.0864C19.1305 17.1845 20.7011 17.2629 22.2814 17.3609C23.5281 17.4393 23.6851 17.5765 23.6655 18.8312C23.6263 21.9775 23.5477 25.1336 23.4888 28.28C23.4692 29.2602 23.4888 30.2305 23.4692 31.2107C23.4496 32.2595 23.0667 32.6417 22.036 32.6515C19.955 32.6613 17.874 32.6711 15.7832 32.6613C14.7132 32.6613 14.4777 32.3673 14.3991 31.2989C14.2224 28.8975 14.3893 26.4961 14.3795 23.8104ZM22.3305 18.7135C20.0532 18.5763 17.8249 18.4489 15.5869 18.3215C15.9501 22.6636 15.3611 26.9764 15.7439 31.3185C17.8838 31.3185 20.0041 31.3185 22.1735 31.3185C22.3305 27.1332 22.4581 22.9969 22.3305 18.7135Z" fill="black"/>
<path d="M32.0975 25.0162C32.0975 27.1628 32.0975 29.3094 32.0975 31.4657C32.0975 32.3283 31.7932 32.7204 30.9293 32.9262C29.722 33.2104 28.5146 33.181 27.2974 32.9948C26.5906 32.887 25.8741 32.8086 25.1673 32.6812C24.5587 32.5733 24.4409 32.3479 24.5489 31.7206C24.5783 31.5638 24.5882 31.3873 24.5882 31.2305C24.6176 27.153 24.6471 23.0657 24.6765 18.9882C24.6765 18.6549 24.7059 18.3217 24.7354 17.9884C24.7648 17.6062 24.9612 17.3709 25.3538 17.3121C25.7563 17.2631 26.1587 17.1945 26.5612 17.1945C27.9256 17.1847 29.2901 17.1945 30.6545 17.2043C30.7526 17.2043 30.8508 17.2043 30.9392 17.2043C32.0484 17.2729 32.3429 17.5571 32.3232 18.6549C32.284 20.7819 32.2251 22.8991 32.1662 25.026C32.1465 25.0162 32.1171 25.0162 32.0975 25.0162ZM25.8642 18.4883C25.8642 22.8207 25.8642 27.0844 25.8642 31.4069C27.5428 31.6814 29.2115 32.093 30.8312 31.6422C30.8999 27.2118 30.9686 22.8795 31.0471 18.4981C29.2802 18.4883 27.6017 18.4883 25.8642 18.4883Z" fill="black"/>
<path d="M19.3663 36.1211C17.1675 36.1211 14.9589 36.1113 12.7601 36.1309C12.0239 36.1407 11.2779 36.2289 10.5417 36.2779C10.4435 36.2877 10.3552 36.2877 10.257 36.2975C9.67785 36.3073 9.44227 36.1799 9.41282 35.8565C9.38337 35.5526 9.60914 35.288 10.1392 35.2096C11.111 35.0625 12.0828 34.8959 13.0546 34.8861C16.2154 34.8469 19.3762 34.9057 22.5369 34.8469C26.002 34.7783 29.4769 34.6607 32.942 34.494C34.758 34.4058 36.5543 34.151 38.3703 33.9844C38.5372 33.9647 38.704 33.955 38.8709 33.9746C39.1948 34.004 39.4206 34.1706 39.4501 34.5038C39.4893 34.8371 39.3126 35.0625 38.9985 35.1311C38.4881 35.239 37.9678 35.337 37.4476 35.3958C36.3973 35.5036 35.3567 35.5918 34.3064 35.6702C29.3198 35.9937 24.3431 36.2191 19.3663 36.1211Z" fill="black"/>
<path d="M24.4214 14.4108C21.4079 14.4108 18.3944 14.401 15.3808 14.4108C13.9967 14.4108 12.6029 14.45 11.2188 14.4794C11.1501 14.4794 11.0716 14.4794 11.0028 14.4696C10.6887 14.45 10.4237 14.3519 10.4041 13.9893C10.3844 13.6658 10.6298 13.509 10.8949 13.4698C11.6998 13.3619 12.5047 13.2443 13.3194 13.2149C17.1183 13.0287 20.9269 13.0287 24.7257 13.1169C26.8558 13.1659 28.9859 13.0875 31.116 13.0679C32.3332 13.0581 33.5602 13.0091 34.7774 13.0189C35.8081 13.0287 36.829 13.0875 37.8597 13.1463C38.2916 13.1757 38.4879 13.3717 38.4879 13.6854C38.4781 13.9893 38.2621 14.1853 37.84 14.2147C37.2903 14.2441 36.7406 14.2539 36.1909 14.2637C32.3921 14.3225 28.5835 14.3813 24.7846 14.4304C24.6668 14.4304 24.549 14.4304 24.4214 14.4304C24.4214 14.4304 24.4214 14.4206 24.4214 14.4108Z" fill="black"/>
<path d="M34.2476 18.1647C34.2476 22.4088 34.2476 26.6431 34.2476 30.9362C34.9936 31.0146 35.72 31.0832 36.4563 31.1616C36.7704 31.191 37.0845 31.2008 37.379 31.2695C37.7814 31.3577 38.0072 31.6615 37.9679 31.9752C37.9287 32.2986 37.6342 32.5241 37.2219 32.5045C36.6526 32.4849 36.0734 32.4358 35.5041 32.3966C34.9838 32.3574 34.4538 32.3182 33.9335 32.279C33.2758 32.23 33.0599 32.034 33.0599 31.4067C33.0697 27.4958 33.0991 23.5752 33.1089 19.6643C33.1089 19.3114 33.0501 18.9586 33.0304 18.6057C33.0206 18.4195 33.001 18.2235 33.0206 18.0372C33.109 17.1747 33.3347 16.9591 34.2084 16.9394C35.2587 16.9296 36.309 16.9591 37.3593 16.9787C37.4968 16.9787 37.644 17.0081 37.7814 17.0571C38.0366 17.1355 38.1643 17.3315 38.1741 17.5962C38.1741 17.8706 38.0268 18.047 37.7814 18.1352C37.6538 18.1843 37.4968 18.2039 37.3593 18.2039C36.4072 18.1843 35.4452 18.1647 34.493 18.1352C34.4341 18.1254 34.3654 18.145 34.2476 18.1647Z" fill="black"/>
<path d="M12.1121 18.5569C11.8373 18.5275 11.6115 18.4981 11.3759 18.4687C11.1894 18.4393 10.9636 18.4491 10.8262 18.3511C10.6692 18.2432 10.5121 18.0178 10.5121 17.8512C10.5121 17.6845 10.6986 17.4199 10.8459 17.3709C11.5526 17.1748 12.2692 17.2337 12.9661 17.4297C13.2999 17.5277 13.398 17.8512 13.398 18.1844C13.398 18.6157 13.3784 19.047 13.3784 19.4782C13.3882 22.0071 13.3981 24.5359 13.4079 27.0746C13.4079 28.5742 13.4079 30.0837 13.398 31.5833C13.398 32.2303 13.2508 32.4557 12.6324 32.6027C12.171 32.7105 11.69 32.7693 11.2189 32.838C11.052 32.8576 10.8851 32.8478 10.7182 32.838C10.2765 32.7889 10.0017 32.5243 10.0115 32.1714C10.0213 31.848 10.2667 31.6127 10.6986 31.5637C11.1894 31.5049 11.69 31.4559 12.2201 31.3971C12.1907 27.0844 12.1514 22.8402 12.1121 18.5569Z" fill="black"/>
<path d="M14.4485 15.7928C14.4093 16.028 14.4191 16.2633 14.3209 16.4397C14.2424 16.5769 14.0363 16.7337 13.889 16.7337C13.7418 16.7337 13.4767 16.5769 13.4571 16.4593C13.3884 16.0182 13.3589 15.5673 13.3982 15.1263C13.408 14.989 13.6927 14.7832 13.8498 14.7832C14.0068 14.7832 14.2424 14.9596 14.3209 15.1165C14.4191 15.3125 14.4093 15.5771 14.4485 15.7928Z" fill="black"/>
<path d="M30.2421 15.8322C30.2323 16.0479 30.2715 16.2831 30.1832 16.4595C30.1046 16.6262 29.8985 16.7928 29.7316 16.8222C29.6138 16.8418 29.3684 16.6262 29.339 16.4987C29.2703 16.0871 29.2506 15.6558 29.2801 15.2343C29.2899 14.9893 29.4764 14.7834 29.7611 14.8031C30.0359 14.8227 30.1832 15.0089 30.2126 15.2735C30.2322 15.4598 30.2126 15.6558 30.2126 15.842C30.2224 15.8322 30.2323 15.8322 30.2421 15.8322Z" fill="black"/>
<path d="M18.3255 15.4497C18.3157 14.842 18.463 14.5871 18.8163 14.597C19.1501 14.6068 19.3071 14.8518 19.3169 15.4105C19.3169 15.6751 19.3562 15.9496 19.2777 16.1946C19.2286 16.3613 19.0225 16.5475 18.8556 16.5965C18.62 16.6651 18.4728 16.4691 18.4041 16.2436C18.3942 16.1946 18.3746 16.1554 18.3746 16.1064C18.3452 15.881 18.3353 15.6653 18.3255 15.4497Z" fill="black"/>
<path d="M24.6379 16.0089C24.6183 16.2245 24.6575 16.4402 24.5888 16.597C24.5201 16.744 24.3434 16.9204 24.206 16.9303C24.0686 16.9401 23.8134 16.7734 23.7937 16.6558C23.725 16.2245 23.6858 15.7737 23.7152 15.3326C23.725 15.1855 23.9508 14.9601 24.1079 14.9209C24.3827 14.8523 24.5299 15.0973 24.579 15.3326C24.6281 15.5678 24.6183 15.8031 24.6379 16.0089Z" fill="black"/>
<path d="M12.2197 15.7247C12.1117 15.9697 12.0626 16.2638 11.8859 16.4598C11.5816 16.7833 11.1693 16.646 11.1006 16.2049C11.0515 15.9011 11.0417 15.5874 11.0614 15.2836C11.0908 14.9307 11.3166 14.7347 11.6209 14.7543C11.9252 14.7837 12.0921 14.9699 12.1215 15.264C12.1411 15.4012 12.1215 15.5482 12.1215 15.6953C12.151 15.7051 12.1902 15.7149 12.2197 15.7247Z" fill="black"/>
<path d="M32.9518 15.6556C32.9322 15.8419 32.9322 16.0379 32.8929 16.2143C32.834 16.4691 32.6769 16.6848 32.4021 16.5966C32.2352 16.5476 32.0291 16.3515 31.9996 16.1947C31.9309 15.8811 31.9505 15.538 31.98 15.2048C32.0094 14.9205 32.196 14.7245 32.5101 14.7539C32.7947 14.7735 32.9223 14.9597 32.9518 15.2244C32.9616 15.3714 32.9518 15.5184 32.9518 15.6556Z" fill="black"/>
<path d="M27.4054 15.9006C27.3955 16.077 27.425 16.3025 27.3563 16.4985C27.3072 16.6455 27.1403 16.8514 27.0127 16.8612C26.8851 16.871 26.6495 16.6847 26.6299 16.5573C26.5612 16.1162 26.5317 15.6654 26.5612 15.2145C26.571 15.0576 26.7869 14.8224 26.9342 14.793C27.2189 14.7342 27.3366 14.9792 27.3661 15.2341C27.3857 15.4399 27.3857 15.6556 27.4054 15.9006Z" fill="black"/>
<path d="M21.8399 15.9402C21.8301 16.0187 21.8399 16.2441 21.7614 16.4303C21.7123 16.5578 21.5454 16.7146 21.4178 16.7244C21.2902 16.7342 21.0546 16.597 21.0448 16.4891C20.9761 16.0775 20.927 15.6462 20.9565 15.2247C20.9663 15.0875 21.2215 14.8719 21.3884 14.8424C21.6632 14.7934 21.8006 15.0287 21.8399 15.2933C21.8595 15.4698 21.8399 15.6364 21.8399 15.9402Z" fill="black"/>
<path d="M16.8238 15.4602C16.7943 15.7249 16.7943 15.9699 16.7158 16.1954C16.6667 16.3228 16.49 16.4992 16.3722 16.4894C16.2152 16.4796 15.9698 16.3326 15.9501 16.215C15.8814 15.8229 15.852 15.4112 15.8912 15.0192C15.9109 14.8819 16.1759 14.6957 16.3428 14.6761C16.4606 14.6565 16.6471 14.8623 16.7354 15.0094C16.8336 15.1368 16.8041 15.323 16.8238 15.4602Z" fill="black"/>
<path d="M34.9838 15.7929C34.9544 15.9301 34.9446 16.1066 34.8758 16.2438C34.7188 16.5476 34.2378 16.5868 34.1396 16.2732C34.0219 15.9105 34.0415 15.4988 34.0709 15.1166C34.0808 15.0186 34.3163 14.8519 34.4341 14.8617C34.5912 14.8813 34.7875 15.0088 34.8562 15.146C34.9544 15.3224 34.9446 15.5577 34.9838 15.7929Z" fill="black"/>
<path d="M24.3132 33.7589C24.2936 33.8275 24.2641 34.0235 24.1856 34.1804C24.0678 34.396 23.8519 34.4548 23.6457 34.3372C23.3512 34.1804 23.3218 33.8667 23.3709 33.5923C23.4003 33.3864 23.5083 33.1218 23.6752 33.014C23.9893 32.8081 24.323 33.1414 24.3132 33.7589Z" fill="black"/>
<path d="M13.2902 33.6813C13.3 33.2305 13.4865 32.9658 13.781 32.9658C14.0755 32.9658 14.262 33.2207 14.262 33.6225C14.262 33.7205 14.262 33.8088 14.2423 33.9068C14.1933 34.1616 14.0558 34.3576 13.781 34.3674C13.4963 34.3772 13.3785 34.1616 13.3196 33.9166C13.3 33.8186 13.3 33.7205 13.2902 33.6813Z" fill="black"/>
<path d="M36.0437 15.5284C36.0535 15.4108 36.0241 15.2736 36.083 15.1853C36.1713 15.0383 36.3087 14.8325 36.4363 14.8227C36.5738 14.8129 36.7897 14.9795 36.8388 15.1265C36.9173 15.3422 36.9173 15.597 36.9075 15.8322C36.8977 16.0577 36.7701 16.2537 36.5149 16.2733C36.2204 16.2929 36.0928 16.0969 36.0535 15.8322C36.0633 15.7244 36.0535 15.6362 36.0437 15.5284Z" fill="black"/>
<path d="M18.5715 33.4749C18.5715 33.1907 18.6598 32.9555 18.9936 32.9359C19.2881 32.9162 19.455 33.1221 19.4648 33.5043C19.4648 33.5729 19.4648 33.6416 19.455 33.72C19.4353 33.9944 19.3764 34.2394 19.0329 34.2688C18.758 34.2983 18.6108 34.1022 18.5715 33.6906C18.5617 33.6122 18.5715 33.5435 18.5715 33.4749Z" fill="black"/>
<path d="M16.8535 33.5834C16.8535 34.0049 16.6768 34.2695 16.4019 34.2793C16.1173 34.2892 15.9406 34.0441 15.9308 33.6128C15.921 33.2011 16.1173 32.9463 16.4118 32.9659C16.6768 32.9855 16.8535 33.2306 16.8535 33.5834Z" fill="black"/>
<path d="M20.9076 33.6124C20.9076 33.2596 21.1137 32.9949 21.3886 33.0341C21.7027 33.0733 21.8303 33.2988 21.8499 33.583C21.8794 33.9555 21.6438 34.2594 21.3591 34.2496C21.0941 34.23 20.9076 33.9751 20.9076 33.6124Z" fill="black"/>
<path d="M11.2287 33.7297C11.2385 33.4455 11.3269 33.2103 11.6704 33.2005C11.9747 33.1907 12.1318 33.4553 12.1023 33.8866C12.0827 34.259 11.8864 34.4942 11.6213 34.4648C11.3661 34.4354 11.2091 34.1512 11.2287 33.7297Z" fill="black"/>
<path d="M27.1897 33.788C27.1995 34.2389 27.0228 34.4938 26.7578 34.5134C26.4829 34.533 26.3062 34.2977 26.2964 33.9155C26.2866 33.5332 26.4633 33.2979 26.7578 33.3175C27.0915 33.3568 27.1799 33.592 27.1897 33.788Z" fill="black"/>
<path d="M31.2039 33.7004C31.2137 33.426 31.2529 33.1613 31.5867 33.1123C31.8615 33.0633 32.0873 33.328 32.0971 33.6612C32.1069 34.0043 31.9106 34.2689 31.6259 34.2493C31.302 34.2199 31.2235 33.9749 31.2039 33.7004Z" fill="black"/>
<path d="M36.0928 33.2983C36.0829 33.0042 36.1713 32.769 36.4854 32.7102C36.7308 32.6612 36.9664 32.916 36.9664 33.2101C36.9664 33.5433 36.7701 33.8276 36.5149 33.8374C36.24 33.8472 36.0928 33.6512 36.0928 33.2983Z" fill="black"/>
<path d="M34.5613 33.4649C34.5514 33.7198 34.4729 33.955 34.149 33.9942C33.8643 34.0236 33.668 33.7884 33.668 33.4257C33.668 33.0925 33.8839 32.818 34.1588 32.867C34.4631 32.9258 34.5711 33.1513 34.5613 33.4649Z" fill="black"/>
<path d="M29.2899 33.3086C29.5255 33.6026 29.7022 33.7497 29.7709 33.9359C29.8494 34.1809 29.6335 34.426 29.3979 34.4162C29.0936 34.4064 28.966 34.1907 28.9856 33.9457C28.9856 33.7791 29.1328 33.6222 29.2899 33.3086Z" fill="black"/>
</svg>
