<svg width="48" height="48" viewBox="0 0 48 48" fill="none" xmlns="http://www.w3.org/2000/svg">
<circle cx="24" cy="24" r="23" fill="white" stroke="black" stroke-width="2"/>
<path d="M38.922 21.0639C39.2585 23.801 38.6636 26.3514 37.3552 28.7346C36.1699 30.8929 34.52 32.5988 32.1373 33.4812C31.9178 33.5656 31.6984 33.6499 31.4753 33.6826C30.9355 33.7717 30.438 33.4685 30.2735 32.9694C30.1096 32.4788 30.3338 31.9615 30.8272 31.7025C30.9357 31.6431 31.0633 31.6083 31.1817 31.5656C32.3929 31.1619 33.393 30.4613 34.2557 29.5279C35.8589 27.7734 36.6924 25.6652 36.8181 23.3462C36.9045 21.7135 36.7385 20.0636 36.3419 18.4642C35.8478 16.4562 34.9035 14.7041 33.3504 13.2969C32.6571 12.6698 31.8693 12.179 31.0431 11.76C30.2169 11.341 29.3758 10.9577 28.4542 10.7876C27.8748 10.6804 27.3291 10.4325 26.7497 10.3253C26.1353 10.2119 25.4956 10.1089 24.874 10.1431C23.528 10.2272 22.1746 10.3292 20.8467 10.5505C19.8528 10.7142 18.8476 10.9652 17.9406 11.3825C17.2352 11.708 16.635 12.3031 16.0578 12.8534C15.0664 13.8044 14.204 14.8675 13.4424 16.0103C12.7828 16.9989 12.5054 18.1256 12.2896 19.2653C11.6914 22.3957 12.2412 25.3344 13.9359 28.0384C14.1114 28.3205 14.3294 28.591 14.5783 28.8075C15.9232 29.9608 17.2681 31.1141 18.9901 31.705C19.1237 31.7563 19.2584 31.8249 19.377 31.9119C19.7607 32.197 19.9056 32.6629 19.7617 33.0882C19.6097 33.5226 19.155 33.8395 18.6649 33.7695C18.3761 33.7288 18.0918 33.6273 17.8161 33.5251C16.2943 32.9464 15.0228 31.9784 13.7663 30.9748C12.8214 30.2179 12.1159 29.2887 11.5469 28.2031C9.53152 24.3703 9.46764 20.4376 10.8176 16.3989C11.2425 15.1495 12.0763 14.1748 12.9188 13.1996C13.5365 12.4821 14.1627 11.764 14.8179 11.0872C15.6681 10.2238 16.6459 9.57671 17.8221 9.16683C20.1825 8.33787 22.6271 8.10015 25.0949 7.94737C25.9918 7.88555 26.8543 8.07703 27.7117 8.32079C28.4189 8.52298 29.1485 8.67171 29.8408 8.90954C30.5153 9.13994 31.1687 9.44102 31.8215 9.73349C33.4507 10.4865 34.8661 11.5311 35.9948 12.9416C37.4079 14.7046 38.2746 16.7129 38.645 18.9371C38.7634 19.6471 38.8301 20.3607 38.922 21.0639Z" fill="black"/>
<path d="M15.0667 22.2151C14.8325 19.4537 15.6695 17.1462 17.5754 15.2584C18.8078 14.0312 20.3126 13.2353 22.019 12.8494C23.3076 12.5616 24.6025 12.4897 25.917 12.7019C27.2143 12.9153 28.4063 13.361 29.4255 14.1907C30.2886 14.8926 31.1529 15.6118 31.9592 16.3696C33.1182 17.4665 33.7413 18.834 33.9038 20.4322C34.035 21.7038 33.9655 22.9546 33.766 24.2057C33.519 25.7716 32.642 27.0002 31.529 28.072C31.0659 28.5192 30.4494 28.5012 30.0488 28.0961C29.6574 27.6991 29.6773 27.1094 30.1115 26.6208C30.4407 26.2434 30.8055 25.8808 31.0979 25.4712C31.8963 24.3605 31.8933 23.0628 31.8908 21.7737C31.8908 21.2719 31.8125 20.7667 31.7521 20.269C31.6548 19.4883 31.2714 18.8312 30.764 18.2604C29.8438 17.2336 28.7946 16.3454 27.6347 15.612C26.5197 14.9015 25.2322 14.7047 23.9287 14.7772C22.608 14.8509 21.3679 15.2133 20.2199 15.9068C18.4657 16.9795 17.3859 18.5336 17.1606 20.5392C16.9409 22.5013 17.2376 24.4104 18.6536 25.9655C18.8692 26.2016 19.0676 26.4389 19.2832 26.6749C19.4054 26.8136 19.5449 26.9511 19.6591 27.099C20.0957 27.6486 20.1493 28.1728 19.8011 28.5256C19.4695 28.8686 18.9047 28.8469 18.3569 28.4434C16.6667 27.1841 15.549 25.5565 15.2208 23.4419C15.1566 23.0136 15.1084 22.567 15.0667 22.2151Z" fill="black"/>
<path d="M28.2097 30.8182C28.2193 32.9634 28.2376 35.108 28.2386 37.2539C28.2428 37.5651 28.1952 37.8799 28.1563 38.1941C28.0178 39.1987 27.3085 39.8446 26.2908 39.9148C25.6009 39.9623 24.9005 39.9846 24.2076 39.9891C23.1247 39.9945 22.5543 39.5147 22.5495 38.4421C22.5228 34.4203 22.0384 30.4215 21.8995 26.4075C21.8837 26.0538 21.9283 25.696 22.0172 25.3524C22.129 24.9639 22.4142 24.702 22.8472 24.6981C23.7299 24.6805 24.6132 24.6716 25.4965 24.6626C25.834 24.6567 26.1733 24.6765 26.5103 24.662C27.3579 24.6381 27.8239 24.9868 27.9346 25.8358C28.0137 26.4793 28.0417 27.135 28.0611 27.7912C28.0963 28.8012 28.1228 29.8118 28.1493 30.8223C28.1666 30.8211 28.1838 30.8199 28.2097 30.8182ZM26.897 25.7429C25.4897 25.6928 24.1951 25.6436 22.8051 25.5923C22.8312 25.9712 22.8515 26.264 22.8711 26.5482C23.0003 28.4169 23.1467 30.2845 23.2501 32.1551C23.3578 34.2157 23.4047 36.2718 23.4866 38.3342C23.508 38.8952 23.6186 38.9914 24.1804 38.97C24.7946 38.9536 25.3995 38.9292 26.0124 38.8956C26.8409 38.8472 27.0762 38.6146 27.1933 37.8018C27.2091 37.6537 27.2334 37.5049 27.2325 37.3665C27.2325 36.3628 27.2318 35.3504 27.2145 34.3479C27.1644 32.1189 27.0971 29.8911 27.0297 27.6633C27.0029 27.0248 26.9422 26.3974 26.897 25.7429Z" fill="black"/>
<path d="M27.4596 20.599C27.5525 21.1897 27.4496 21.7073 27.1725 22.2109C26.2334 23.9197 23.9175 24.1399 22.6696 22.6338C22.5375 22.4785 22.3945 22.2893 22.3549 22.093C22.1939 21.1437 22.1894 20.2008 22.7464 19.3577C23.453 18.2966 24.6547 18.0061 25.7884 18.6116C25.941 18.6876 26.093 18.755 26.2456 18.831C27.0066 19.1852 27.5449 19.7019 27.4596 20.599ZM26.3846 20.7164C26.441 20.2798 26.1978 20.0197 25.8218 19.8466C25.5536 19.7267 25.2927 19.5889 25.0165 19.4781C24.5076 19.2623 24.1507 19.3647 23.79 19.7876C23.4534 20.1829 23.4085 20.6619 23.3901 21.1478C23.3607 21.8507 23.5454 22.1408 24.2354 22.3442C24.5099 22.4291 24.8067 22.4605 25.1035 22.492C25.4175 22.5223 25.6766 22.3833 25.8859 22.1525C26.2214 21.74 26.494 21.2972 26.3846 20.7164Z" fill="black"/>
<path d="M26.897 25.7439C26.9422 26.3984 27.0029 27.0259 27.0285 27.6471C27.0959 29.8749 27.1632 32.1027 27.2133 34.3317C27.2399 35.3422 27.2313 36.3465 27.2313 37.3503C27.2328 37.4973 27.2171 37.6455 27.1921 37.7856C27.0836 38.5978 26.8398 38.8309 26.0112 38.8794C25.3983 38.913 24.794 38.946 24.1792 38.9537C23.6169 38.9665 23.5062 38.8703 23.4854 38.318C23.4035 36.2556 23.348 34.2 23.2489 32.1389C23.1542 30.2677 22.9991 28.4007 22.8699 26.532C22.8503 26.2478 22.8301 25.955 22.8039 25.5761C24.1951 25.6446 25.4811 25.6944 26.897 25.7439Z" fill="white"/>
<path d="M26.3848 20.716C26.4857 21.2975 26.2222 21.7483 25.8689 22.1533C25.6688 22.3921 25.4005 22.5231 25.0865 22.4928C24.7989 22.4694 24.5015 22.4293 24.2184 22.345C23.537 22.141 23.3523 21.8509 23.3731 21.1486C23.3915 20.6628 23.4364 20.1838 23.773 19.7885C24.1337 19.3656 24.4906 19.2631 24.9995 19.479C25.2671 19.5903 25.5366 19.7275 25.8048 19.8475C26.2066 20.0188 26.4413 20.2795 26.3848 20.716Z" fill="white"/>
</svg>
