<svg width="48" height="48" viewBox="0 0 48 48" fill="none" xmlns="http://www.w3.org/2000/svg">
<circle cx="24" cy="24" r="23" fill="white" stroke="black" stroke-width="2"/>
<path d="M24 12C17.3739 12 12 17.3739 12 24C12 30.6261 17.3739 36 24 36C30.6261 36 36 30.6261 36 24C36 17.3739 30.6261 12 24 12ZM24.9652 33.8609C24.913 33.8609 24.8609 33.8609 24.7826 33.887V28.2261C26.1391 28.2 27.3652 28.1739 28.487 28.0957C27.4957 31.1478 25.6435 33.1826 24.9652 33.8609ZM23.0348 33.8609C22.3304 33.1565 20.5043 31.1217 19.513 28.0957C20.6087 28.1739 21.8609 28.2261 23.2174 28.2261V33.887C23.1652 33.887 23.113 33.8609 23.0348 33.8609ZM14.087 24C14.087 23.3478 14.1652 22.6957 14.2696 22.0696C14.8435 21.9652 15.9391 21.8087 17.4783 21.6522C17.3478 22.4087 17.2696 23.1913 17.2696 24.0261C17.2696 24.8609 17.3478 25.6435 17.4522 26.3739C15.9391 26.2174 14.8174 26.0609 14.2435 25.9565C14.1652 25.3043 14.087 24.6522 14.087 24ZM18.8609 24C18.8609 23.113 18.9652 22.2783 19.1217 21.4957C20.3217 21.4174 21.6783 21.3391 23.2174 21.3391V26.6609C21.7043 26.6348 20.3217 26.5826 19.0957 26.4783C18.9652 25.7217 18.8609 24.887 18.8609 24ZM24.9391 14.1391C25.6435 14.8435 27.4435 16.9304 28.4609 19.9043C27.3652 19.8261 26.1391 19.7739 24.7826 19.7739V14.113C24.8348 14.113 24.887 14.1391 24.9391 14.1391ZM23.2174 14.113V19.7739C21.8609 19.8 20.6348 19.8261 19.5391 19.9043C20.5304 16.9304 22.3565 14.8435 23.0348 14.1391C23.113 14.1391 23.1652 14.113 23.2174 14.113ZM24.7826 26.6609V21.3391C26.2957 21.3652 27.6783 21.4174 28.8783 21.4957C29.0348 22.2783 29.1391 23.113 29.1391 24C29.1391 24.887 29.0609 25.7217 28.9043 26.5043C27.7043 26.5826 26.3217 26.6348 24.7826 26.6609ZM30.4957 21.6522C32.0348 21.8087 33.1304 21.9652 33.7043 22.0696C33.8348 22.6957 33.913 23.3478 33.913 24C33.913 24.6522 33.8348 25.3043 33.7304 25.9304C33.1565 26.0348 32.0609 26.1913 30.5217 26.3478C30.6522 25.5913 30.7043 24.8087 30.7043 23.9739C30.7043 23.1913 30.6261 22.3826 30.4957 21.6522ZM33.2348 20.4C32.5043 20.2957 31.4609 20.1652 30.1304 20.0348C29.5043 17.7913 28.4087 15.9913 27.4957 14.713C30.1304 15.7043 32.2174 17.7913 33.2348 20.4ZM20.5043 14.713C19.5652 15.9652 18.4957 17.7652 17.8696 20.0087C16.5652 20.113 15.5217 20.2696 14.7652 20.3739C15.7826 17.7913 17.8957 15.7043 20.5043 14.713ZM14.7652 27.6C15.4957 27.7043 16.5391 27.8348 17.8435 27.9652C18.4696 30.2087 19.513 32.0087 20.4522 33.2609C17.8435 32.2435 15.7826 30.1826 14.7652 27.6ZM27.5478 33.2609C28.487 32.0087 29.5304 30.2348 30.1565 27.9913C31.4609 27.887 32.5043 27.7304 33.2348 27.6261C32.2174 30.1826 30.1565 32.2435 27.5478 33.2609Z" fill="black"/>
</svg>
