<svg width="48" height="48" viewBox="0 0 48 48" fill="none" xmlns="http://www.w3.org/2000/svg">
<circle cx="24" cy="24" r="23" fill="white" stroke="black" stroke-width="2"/>
<path d="M23.3736 8.01562C25.5055 8.06066 27.6374 8.07868 29.7694 8.15074C30.2162 8.16876 30.6631 8.30388 31.082 8.45701C31.231 8.51106 31.3613 8.73625 31.3986 8.9074C31.5568 9.77215 31.6779 10.6369 31.8082 11.5107C31.9385 12.3574 32.0689 13.2041 32.1992 14.0509C32.4692 15.8164 32.5437 17.5819 32.1154 19.3475C31.8454 20.4644 31.3148 21.4643 30.5048 22.275C30.1324 22.6443 29.5552 22.8785 29.0339 23.0407C28.3915 23.2389 27.7119 23.3199 27.0416 23.428C26.483 23.5091 26.4272 23.5181 26.4365 24.0856C26.483 25.8601 26.5389 27.6347 26.5947 29.4092C26.6227 30.4631 26.6599 31.5171 26.6878 32.571C26.6971 33.1114 26.6878 33.6609 26.6972 34.2014C26.7065 34.4896 26.874 34.6968 27.1347 34.8229C28.4474 35.4715 29.7601 36.111 31.0727 36.7596C31.4172 36.9308 31.771 37.0839 32.0782 37.3001C32.4785 37.5793 32.553 37.9396 32.2923 38.327C32.0037 38.7503 31.6499 39.0926 31.1193 39.2638C29.5459 39.7682 27.9353 39.9484 26.2968 40.0024C24.3604 40.0655 22.4426 39.9214 20.5434 39.561C19.5845 39.3809 18.607 39.3088 17.7412 38.8134C17.6015 38.7323 17.4619 38.6693 17.3315 38.5792C16.9778 38.363 16.6519 38.1198 16.6985 37.6514C16.745 37.183 17.0988 36.9938 17.4991 36.8587C17.9274 36.7146 18.3463 36.5434 18.7839 36.4353C20.0872 36.093 21.2603 35.4625 22.4612 34.895C22.8895 34.6878 23.1222 34.3815 23.1315 33.9131C23.1408 33.3006 23.1688 32.6881 23.1501 32.0755C23.085 29.4182 23.0105 26.7699 22.9453 24.1126C22.936 23.5902 22.6846 23.2479 22.1912 23.0497C21.4371 22.7434 20.6644 22.4732 19.9383 22.1219C17.676 21.0319 16.5682 19.2124 16.4378 16.8073C16.3447 15.0417 16.6519 13.3032 16.9033 11.5647C16.9778 11.0242 17.015 10.4748 17.0709 9.92528C17.0988 9.69108 17.1174 9.43886 17.1919 9.21367C17.4898 8.27685 17.6108 8.18677 18.6256 8.16876C20.0128 8.15074 21.3999 8.13273 22.7777 8.12372C22.9826 8.12372 23.1874 8.12372 23.3922 8.12372C23.3736 8.08769 23.3736 8.05166 23.3736 8.01562ZM17.6201 13.6725C17.5922 14.8346 17.4898 15.9155 17.5736 16.9784C17.7226 18.9241 18.6908 20.3834 20.5713 21.1941C21.2975 21.5094 22.0423 21.7796 22.7591 22.1039C23.5691 22.4642 24.0253 23.0857 24.0439 23.9595C24.0997 26.4817 24.1556 29.0039 24.1835 31.5351C24.1928 32.4358 24.0904 33.3276 24.0625 34.2284C24.0346 35.0751 23.5505 35.5886 22.8243 35.9759C21.5675 36.6425 20.2734 37.219 18.877 37.5703C18.6722 37.6244 18.486 37.7144 18.2253 37.8225C18.9328 38.2729 19.6497 38.2819 20.3386 38.417C22.2564 38.8044 24.2021 38.9485 26.1572 38.9215C27.4792 38.9035 28.7825 38.7774 30.0673 38.4621C30.4024 38.381 30.7748 38.327 31.0262 37.9757C29.6483 37.3001 28.317 36.5885 26.9392 35.9849C26.1013 35.6156 25.6638 35.1292 25.6731 34.1834C25.6917 32.7151 25.5707 31.2468 25.5241 29.7785C25.459 27.8689 25.3845 25.9592 25.3472 24.0586C25.3286 22.9416 25.7569 22.5272 26.9113 22.4011C27.4512 22.3471 27.9912 22.257 28.5126 22.1309C29.518 21.8787 30.2721 21.3112 30.6166 20.3383C30.8214 19.7618 30.9982 19.1673 31.1379 18.5728C31.3986 17.4198 31.2869 16.2578 31.2217 15.0958C31.1938 14.5643 31.0541 14.0329 30.961 13.4834C30.7003 13.5464 30.5235 13.5915 30.3466 13.6365C28.6801 14.0148 27.0044 14.2671 25.2914 14.1049C24.3418 14.0238 23.3922 13.9968 22.4333 13.9608C20.8786 13.8797 19.3052 14.0689 17.6201 13.6725ZM17.8157 12.7988C18.3556 12.8348 18.849 12.8979 19.3425 12.8979C20.4596 12.9069 21.5675 12.8708 22.6846 12.8889C23.5691 12.8979 24.4535 12.9249 25.3379 13.015C27.1999 13.1951 28.9873 12.7808 30.8493 12.4475C30.6817 11.3485 30.5235 10.2946 30.3559 9.19565C26.213 8.85335 22.1447 9.31275 18.0763 9.18664C17.9832 10.4117 17.8994 11.5467 17.8157 12.7988Z" fill="black"/>
</svg>
