<svg width="234" height="234" viewBox="0 0 234 234" fill="none" xmlns="http://www.w3.org/2000/svg">
<rect width="234" height="234" fill="white"/>
<g clip-path="url(#clip0_972_4301)">
<path d="M82.3424 104.008C82.4486 106.309 82.5548 108.611 82.6256 110.912C82.7672 114.841 82.8734 118.735 82.9442 122.665C82.9442 123.408 82.8026 124.187 82.6256 124.93C82.4132 125.709 81.8114 126.099 81.0326 126.063C80.2537 125.992 79.7581 125.497 79.5811 124.753C79.5103 124.435 79.5103 124.116 79.5103 123.798C79.3687 117.886 79.4395 111.974 79.0147 106.062C78.6253 100.433 77.4217 94.875 75.9348 89.4232C75.6162 88.255 75.2976 87.0514 74.8728 85.9185C74.4126 84.7149 73.9524 83.4759 73.209 82.4492C71.5097 80.042 68.6068 78.6613 64.8543 80.8208C65.35 82.5554 65.881 84.3255 66.3412 86.1309C67.651 91.0517 68.3944 96.0786 68.9254 101.106C69.7397 108.257 69.9167 115.478 69.9167 122.665C69.9167 123.373 69.9167 124.081 69.8459 124.789C69.7043 126.028 69.1733 126.665 68.3236 126.7C67.4032 126.736 66.8722 126.063 66.7306 124.683C66.6952 124.293 66.6952 123.904 66.6952 123.514C66.8368 115.655 66.412 107.832 65.527 100.043C64.8544 94.3794 64.0047 88.6798 62.0577 83.2989C61.3143 81.2102 60.1106 79.2278 58.8716 77.3869C57.0308 74.6256 52.7826 74.5194 50.5878 77.0329C50.0922 77.5993 49.7382 78.3073 49.3134 78.9446C52.464 82.9095 53.7385 87.5824 54.4465 92.3615C55.6147 99.9019 56.4643 107.513 57.4556 115.089C57.5618 116.045 57.5972 117.001 57.5618 117.992C57.5264 118.877 56.9953 119.443 56.1457 119.549C55.2961 119.656 54.6589 119.195 54.4111 118.346C54.2695 117.921 54.1987 117.461 54.1279 117.036C53.4553 111.159 52.8888 105.283 52.1454 99.4063C51.579 94.875 50.7294 90.4144 49.2425 86.0601C48.2513 83.1573 46.5167 80.8208 44.251 78.8738C42.4456 77.3161 40.2507 77.2099 38.0559 77.8825C36.3212 78.4135 35.507 80.3606 36.3212 81.9182C38.5515 86.1663 39.2949 90.7685 39.7197 95.4768C40.4631 104.398 40.7109 113.319 40.9941 122.24C41.0649 124.541 41.2065 126.877 41.2773 129.178C41.2773 129.745 41.1711 130.311 41.0295 130.842C40.8171 131.515 40.2861 131.904 39.5781 131.869C38.8701 131.834 38.5161 131.338 38.2329 130.701C36.9584 127.621 35.684 124.541 34.3388 121.496C33.5599 119.762 32.1439 118.7 30.3385 118.098C29.1702 117.709 28.179 117.956 27.3648 118.841C25.6655 120.682 24.4265 122.771 24.2495 125.32C24.1079 127.161 24.0371 129.037 24.1787 130.913C24.7451 138.63 24.9221 146.312 24.1079 154.03C23.3291 161.393 22.0193 168.686 19.3996 175.624C17.3817 180.899 14.7267 185.926 12.3548 191.024C12.2132 191.378 11.9654 191.696 11.6822 191.944C11.1158 192.475 10.337 192.617 9.73514 192.157C9.31033 191.803 9.02712 191.095 8.99172 190.528C8.95632 189.997 9.31033 189.431 9.55813 188.935C11.222 185.466 12.9212 181.997 14.5497 178.492C17.0631 173.146 18.2668 167.447 19.4704 161.712C21.4174 152.508 21.2404 143.197 20.9218 133.851C20.851 131.55 20.6386 129.249 20.6386 126.913C20.6032 123.019 22.0193 119.656 24.6035 116.753C26.763 114.345 29.2764 113.779 32.2501 115.053C34.1972 115.903 35.7902 117.107 36.923 118.948C37.1354 119.266 37.3478 119.585 37.8081 120.293C37.8081 119.408 37.8435 118.912 37.8081 118.452C37.3124 110.31 36.8876 102.168 36.3212 94.0253C36.038 89.9542 34.976 86.0601 33.6662 82.2014C32.2855 78.0949 34.445 74.6964 38.7639 74.2008C42.0916 73.8114 44.2156 74.4486 47.6495 76.9621C47.9327 76.5019 48.2159 76.0063 48.4991 75.5461C49.7736 73.4928 51.6498 72.3954 54.0571 72.2538C54.4465 72.2184 54.8359 72.2892 55.2253 72.2184C58.199 71.6874 60.1106 73.3158 61.7037 75.4753C62.4117 76.4311 63.0489 77.4931 63.6507 78.4489C64.7481 77.9887 65.704 77.4577 66.7306 77.1745C70.3769 76.1479 73.8462 77.3161 75.9702 80.4668C76.9615 81.9536 77.7403 83.6175 78.3067 85.3167C79.8289 89.8834 80.9264 94.5918 81.6344 99.3709C81.7406 100.079 81.9176 100.752 82.0592 101.389C82.2716 101.389 82.4132 101.424 82.5194 101.389C85.4577 100.716 87.2985 101.53 89.104 103.938C92.6441 108.717 94.1309 114.168 94.6619 119.939C95.8301 132.435 95.0159 144.861 92.7149 157.181C91.4758 163.871 89.1394 170.208 85.9533 176.191C84.5019 178.881 82.4486 181.253 80.6786 183.767C77.3863 188.546 73.032 192.227 68.713 195.98C68.0758 196.511 67.3678 197.007 66.6598 197.396C65.704 197.892 64.7835 197.679 64.2525 196.9C63.7215 196.157 63.8631 195.237 64.6419 194.458C64.7481 194.352 64.8543 194.281 64.9251 194.21C66.8368 192.581 68.713 190.953 70.6601 189.36C75.0852 185.82 78.3775 181.253 81.4928 176.651C84.6789 171.943 86.6613 166.597 88.1127 161.11C91.051 149.888 91.8652 138.453 91.6174 126.877C91.5112 121.957 90.9448 117.142 89.635 112.398C88.8916 109.673 87.3339 107.371 85.7055 105.177C84.8913 104.115 83.8646 103.407 82.3424 104.008Z" fill="black"/>
<path d="M149.994 95.4419C150.029 95.3003 150.135 95.0525 150.135 94.8047C150.242 91.5478 151.481 88.5388 152.401 85.4943C153.428 82.202 155.162 79.2637 157.393 76.644C159.481 74.2368 161.464 73.9536 164.225 75.5112C164.897 75.9006 165.535 76.2546 166.207 76.644C167.199 75.7236 168.084 74.9094 168.969 74.0952C169.818 73.3164 170.809 72.9624 171.942 72.8915C175.199 72.7145 178.067 73.4226 179.978 76.3608C180.899 77.7769 181.996 79.1221 183.164 80.6797C183.271 80.6443 183.695 80.5735 184.12 80.5027C186.917 80.0071 189.466 81.3524 190.811 83.8658C192.829 87.5829 193.254 91.6894 193.572 95.7959C194.032 101.248 194.386 106.699 194.811 112.116C194.847 112.753 194.988 113.39 195.165 114.523C195.732 113.673 196.05 113.178 196.369 112.682C197.891 110.133 200.44 109 203.06 108.151C203.803 107.903 204.724 108.009 205.538 108.186C208.901 108.93 211.662 111.762 212.016 115.019C212.476 119.231 213.007 123.444 213.22 127.657C213.468 132.861 213.432 138.065 213.468 143.269C213.538 151.8 214.707 160.155 217.362 168.297C218.636 172.191 219.734 176.156 221.079 180.05C221.893 182.351 223.026 184.511 224.017 186.741C224.265 187.343 224.619 187.874 224.831 188.476C225.327 189.75 225.044 190.67 224.088 191.095C223.203 191.485 222.389 191.095 221.751 189.998C219.627 186.387 217.999 182.528 216.76 178.563C215.485 174.528 214.069 170.527 213.007 166.421C211.627 161.146 210.388 155.8 210.211 150.313C210.034 144.72 209.998 139.127 209.821 133.533C209.644 128.471 209.326 123.409 209.042 118.311C208.972 117.213 208.759 116.151 208.511 115.089C208.016 112.965 205.644 111.054 203.874 111.514C202.21 111.939 200.546 112.576 199.484 114.098C198.953 114.842 198.458 115.585 198.104 116.399C197.148 118.559 196.263 120.754 195.378 122.984C195.059 123.763 194.74 124.471 193.785 124.364C192.864 124.294 192.51 123.621 192.404 122.771C192.192 120.612 191.979 118.417 191.767 116.258C191.413 112.47 191.094 108.717 190.74 104.929C190.634 103.726 190.599 102.487 190.492 101.283C190.174 98.0262 189.82 94.7693 189.572 91.5124C189.395 89.4238 188.829 87.4767 187.908 85.6359C187.625 85.0695 187.271 84.503 186.811 84.1136C185.819 83.2994 184.687 83.5118 184.085 84.6801C183.518 85.8129 182.917 86.9811 182.598 88.2201C181.819 91.477 181.111 94.6985 180.793 98.0616C180.014 106.098 180.474 114.134 180.226 122.134C180.191 123.409 180.12 124.718 180.049 125.993C180.014 126.489 179.943 127.09 179.66 127.444C179.341 127.869 178.775 128.259 178.314 128.294C177.642 128.365 177.146 127.834 176.969 127.126C176.898 126.736 176.863 126.347 176.863 125.993C176.863 118.913 176.792 111.833 176.898 104.788C176.969 98.0262 177.642 91.3354 180.12 84.9279C180.261 84.5384 180.332 84.0428 180.226 83.6534C179.624 80.9276 178.35 78.5911 176.12 76.8919C175.624 76.5024 175.022 76.2546 174.42 76.113C172.296 75.582 170.632 76.2546 169.5 78.1309C169.004 78.9451 168.615 79.8301 168.261 80.7151C166.809 84.6447 166.207 88.7866 165.464 92.8931C164.756 96.858 164.827 100.823 164.543 104.788C164.154 110.629 164.26 116.47 164.614 122.311C164.685 123.409 164.579 124.506 164.473 125.568C164.402 126.241 163.942 126.772 163.198 126.772C162.455 126.807 162.03 126.312 161.818 125.639C161.711 125.285 161.641 124.895 161.641 124.506C161.003 116.612 161.039 108.717 161.251 100.823C161.393 95.5127 162.455 90.3796 163.304 85.1757C163.552 83.618 164.26 82.0958 164.72 80.5735C165.181 79.0867 164.933 78.5911 163.517 78.0955C161.18 77.2459 160.756 77.3521 159.34 79.3699C157.499 82.025 156.118 84.8571 155.162 88.0077C153.534 93.4949 152.967 99.0882 152.79 104.717C152.578 110.912 152.826 117.072 153.711 123.196C153.817 123.833 153.852 124.471 153.746 125.108C153.64 125.851 153.18 126.418 152.366 126.489C151.551 126.559 150.95 126.135 150.773 125.391C150.454 124.01 150.277 122.63 150.029 121.214C148.967 114.452 149.215 107.62 149.286 100.823C149.321 99.0174 149.038 98.6988 147.197 98.7342C144.931 98.7696 143.161 100.363 142.595 102.558C141.391 107.301 141.285 112.116 141.639 116.93C141.958 121.285 142.949 125.568 143.622 129.852C144.754 137.25 146.914 144.401 149.427 151.411C151.658 157.641 153.888 163.872 157.038 169.713C159.198 173.713 161.57 177.643 163.906 181.537C164.685 182.847 165.747 184.015 166.668 185.219C167.73 186.67 168.721 188.157 169.854 189.538C170.774 190.706 171.801 191.732 172.792 192.83C173.96 194.104 174.137 194.883 173.429 195.662C172.686 196.441 171.765 196.405 170.526 195.343C169.641 194.6 168.756 193.786 168.119 192.865C164.331 187.626 160.543 182.387 157.18 176.793C152.755 169.324 149.533 161.358 146.524 153.322C143.622 145.57 141.285 137.604 140.258 129.321C139.834 125.887 138.878 122.524 138.595 119.09C138.276 115.514 138.311 111.903 138.524 108.292C138.736 104.823 139.692 101.46 141.604 98.451C142.878 96.4332 144.613 95.3357 146.985 95.3003C147.94 95.4419 148.825 95.4419 149.994 95.4419Z" fill="black"/>
<path d="M120.115 41.1009C119.867 44.995 119.62 48.8891 119.372 52.7832C119.301 53.916 119.266 55.0842 119.195 56.2524C119.159 57.4915 118.593 58.3765 117.389 58.6597C114.876 59.2615 112.433 59.1907 110.097 57.8809C108.61 57.0313 108.468 56.2524 109.318 54.7656C109.601 54.2346 109.743 53.5974 109.778 52.9956C109.849 50.9423 109.814 48.8891 109.884 46.8358C110.026 44.2161 110.203 41.5965 110.415 38.9768C110.557 37.313 111.23 36.7465 112.929 36.8173C114.345 36.8527 115.726 36.9944 117.142 37.1006C119.513 37.2776 120.151 37.9502 120.151 40.3574C120.151 40.6052 120.151 40.8531 120.151 41.1363C120.186 41.1009 120.151 41.1009 120.115 41.1009ZM115.938 55.4028C116.221 50.4113 116.54 45.4906 116.823 40.4282C115.69 40.4282 114.628 40.4282 113.354 40.4282C113.106 45.4198 112.823 50.3051 112.575 55.4028C113.814 55.4028 114.805 55.4028 115.938 55.4028Z" fill="black"/>
<path d="M83.6169 43.6851C83.5461 42.3752 84.1479 41.561 85.3162 41.1362C86.8738 40.5698 88.4315 39.968 90.0599 39.5432C92.2194 38.9768 92.9982 39.437 93.6 41.5964C95.016 46.5172 96.3967 51.4733 97.7419 56.4294C98.0959 57.7392 97.8835 58.3765 96.7153 58.9783C95.8656 59.4031 94.9098 59.6155 93.9894 59.8279C93.069 60.0403 92.1132 60.1465 91.1573 60.3589C89.9891 60.6067 89.5643 60.4297 88.9625 59.3323C88.5731 58.5889 88.2191 57.81 87.9712 57.0312C86.6614 53.2079 85.3516 49.3846 84.0771 45.5613C83.8647 44.9241 83.7939 44.2869 83.6169 43.6851ZM86.98 43.5435C88.5731 48.0748 90.0953 52.4645 91.6529 56.9604C92.715 56.7834 93.6 56.6064 94.6974 56.4294C93.2814 51.6503 91.9715 47.119 90.5909 42.5169C89.3519 42.8709 88.3253 43.1541 86.98 43.5435Z" fill="black"/>
<path d="M130.912 60.9606C129.178 60.819 127.478 60.6066 126.062 59.4383C124.965 58.5533 124.965 57.9515 125.39 56.6063C125.921 54.907 126.169 53.137 126.593 51.4023C127.337 48.3579 128.01 45.278 128.895 42.2689C129.532 39.9678 131.16 39.1536 133.497 39.6492C134.382 39.8616 135.231 40.1448 136.046 40.4635C137.993 41.1715 138.453 41.9149 138.099 43.9681C137.745 46.1276 137.285 48.2517 136.789 50.3757C136.187 52.9954 135.514 55.615 134.877 58.1993C134.382 60.2526 133.249 61.0314 130.912 60.9606ZM132.01 42.5521C130.771 47.4374 129.603 52.1104 128.399 56.8541C129.567 57.6329 130.665 57.6683 131.939 57.4913C132.966 52.8184 133.957 48.2163 134.983 43.5079C133.957 43.1539 133.143 42.9061 132.01 42.5521Z" fill="black"/>
<path d="M71.6515 165.571C70.5186 165.288 68.6424 164.863 66.8016 164.332C66.2705 164.19 65.7749 163.766 65.4209 163.341C64.7837 162.491 65.2793 161.465 66.3413 161.394C66.9078 161.358 67.5096 161.429 68.0406 161.606C71.4745 162.597 74.7668 162.173 77.9528 160.721C78.1298 160.65 78.3068 160.58 78.4839 160.509C79.6875 160.119 80.5725 160.403 80.9265 161.288C81.2805 162.173 80.8911 163.128 79.7937 163.624C77.4572 164.651 75.0146 165.394 71.6515 165.571Z" fill="black"/>
<path d="M167.305 165.89C166.491 165.642 165.004 165.252 163.588 164.686C163.092 164.509 162.632 164.013 162.349 163.553C161.782 162.562 162.561 161.429 163.765 161.5C164.26 161.535 164.756 161.712 165.252 161.889C167.269 162.597 169.146 162.456 170.951 161.252C171.376 160.969 171.801 160.686 172.261 160.473C173.181 160.048 173.96 160.225 174.491 160.933C174.987 161.606 174.987 162.633 174.243 163.199C172.438 164.651 170.491 165.854 167.305 165.89Z" fill="black"/>
<path d="M71.4036 140.825C71.5452 142.454 70.908 143.764 70.0584 145.003C69.1734 146.312 67.9343 146.312 66.8723 145.073C65.3501 143.303 65.4563 141.286 66.1997 139.268C66.6599 137.993 67.7219 137.391 68.8902 137.568C70.2708 137.745 71.2266 138.701 71.3682 140.082C71.439 140.365 71.4036 140.613 71.4036 140.825Z" fill="black"/>
<path d="M80.5016 143.126C80.4662 141.569 80.891 140.223 81.776 138.949C82.2716 138.276 82.8734 137.816 83.723 137.993C84.6435 138.17 85.3515 138.772 85.3161 139.692C85.3161 141.462 85.2453 143.268 84.9267 145.003C84.7143 146.242 83.8646 146.737 82.9088 146.702C81.9176 146.666 81.0326 145.958 80.714 144.826C80.5724 144.259 80.5724 143.693 80.5016 143.126Z" fill="black"/>
<path d="M160.295 143.268C160.083 144.294 160.012 145.144 159.693 145.923C159.233 147.126 158.1 147.48 157.038 146.772C156.437 146.348 155.835 145.71 155.622 145.038C155.127 143.551 155.268 141.993 155.764 140.506C156.047 139.728 156.578 139.161 157.428 139.126C158.348 139.055 159.092 139.48 159.41 140.329C159.8 141.321 160.047 142.383 160.295 143.268Z" fill="black"/>
<path d="M171.128 142.065C171.234 141.038 171.234 140.082 171.517 139.162C171.942 137.604 173.5 137.286 174.633 138.489C175.765 139.693 175.942 143.127 174.987 144.472C174.526 145.109 173.889 145.322 173.146 145.251C172.296 145.18 171.694 144.684 171.447 143.905C171.199 143.304 171.234 142.631 171.128 142.065Z" fill="black"/>
<path d="M115.938 55.4033C114.805 55.4033 113.814 55.4033 112.575 55.4033C112.858 50.3056 113.106 45.4202 113.354 40.4287C114.628 40.4287 115.655 40.4287 116.823 40.4287C116.504 45.5264 116.221 50.4118 115.938 55.4033Z" fill="white"/>
<path d="M86.9802 43.5432C88.3255 43.1538 89.3521 42.8706 90.6265 42.5166C91.9718 47.1187 93.317 51.65 94.733 56.4292C93.6356 56.6416 92.7152 56.7832 91.6885 56.9602C90.0955 52.4643 88.5733 48.0745 86.9802 43.5432Z" fill="white"/>
<path d="M132.01 42.5527C133.107 42.9067 133.957 43.1545 135.019 43.5086C133.993 48.2169 133.001 52.819 131.975 57.4919C130.7 57.6689 129.603 57.6335 128.435 56.8547C129.603 52.111 130.806 47.4381 132.01 42.5527Z" fill="white"/>
</g>
<defs>
<clipPath id="clip0_972_4301">
<rect width="216.37" height="160.72" fill="white" transform="translate(8.8501 36.8174)"/>
</clipPath>
</defs>
</svg>
