<svg width="387" height="179" viewBox="0 0 387 179" fill="none" xmlns="http://www.w3.org/2000/svg">
<path d="M32.9499 44.8876C33.7002 43.3695 34.3457 41.9211 35.1134 40.5251C36.0033 38.9197 37.1374 37.5063 38.6727 36.4419C39.7545 35.6915 40.9933 35.4821 41.5865 35.9707C42.2146 36.4942 42.1797 37.8204 41.4818 39.0419C41.2725 39.4258 41.0631 39.7922 40.8363 40.1936C42.8602 40.5775 43.2964 41.258 42.6159 43.1252C42.3542 43.8755 41.8308 44.5561 41.3073 45.1668C40.8014 45.7426 40.1384 46.1789 39.3707 46.8071C40.9235 47.6447 40.592 48.6044 40.1732 49.6514C37.8004 55.5495 36.0033 61.622 34.5202 67.7993C32.9325 74.3605 32.409 81.0089 33.7351 87.6398C34.8692 93.3285 37.4863 98.3366 42.267 101.949C44.5875 103.711 47.606 104.653 50.2929 104.444C50.2057 103.1 50.1533 101.739 50.0137 100.396C49.9788 100.047 49.8044 99.6279 49.5427 99.4011C47.2221 97.3071 46.6987 94.5151 46.5068 91.6184C46.4195 90.4144 46.5765 89.1929 46.594 87.9888C46.6114 87.1687 47.0476 86.2438 46.0531 85.5982C45.9135 85.5109 45.9484 85.0747 45.9833 84.813C46.4544 81.2183 48.269 78.6357 51.7062 77.3793C55.0387 76.1578 58.1444 76.786 60.8487 79.037C62.4888 80.4156 63.6753 82.0908 63.937 84.3244C64.1464 86.0344 64.094 86.2787 62.3667 87.064C62.3667 88.1284 62.3667 89.2801 62.3667 90.4318C62.3667 93.1191 61.8782 95.6842 60.5347 98.0574C60.2555 98.5286 60.0287 99.1044 59.61 99.4011C58.4933 100.186 58.3537 101.233 58.4584 102.455C58.5108 102.996 58.4584 103.554 58.4584 104.252C59.261 104.357 59.9938 104.496 60.7441 104.549C64.3383 104.776 67.8104 105.561 71.2127 106.817C75.5222 108.405 79.5178 110.604 83.4609 112.942C87.0551 115.071 90.6843 117.27 94.7496 118.387C97.9774 119.276 101.292 119.94 104.608 120.393C108.708 120.969 112.825 121.353 116.978 121.039C117.746 120.987 118.252 121.301 118.478 122.034C118.67 122.662 118.862 123.273 119.054 123.918C120.729 123.622 122.334 123.273 123.957 123.046C126.12 122.732 126.225 122.836 126.696 125.07C127.499 124.965 128.301 124.826 129.121 124.738C129.61 124.686 130.116 124.669 130.605 124.721C131.948 124.878 132.454 126.03 131.669 127.111C131.006 128.036 130.029 128.542 128.964 128.909C125.894 129.991 122.771 130.881 119.386 130.741C119.194 132.73 117.746 133.289 116.245 133.341C110.278 133.55 104.311 133.446 98.4485 132.277C94.2959 131.439 90.1608 130.444 86.0083 129.572C83.7401 129.101 81.437 128.787 79.1165 129.38C77.1274 129.903 75.7491 131.055 74.929 132.992C73.2191 136.988 73.1493 141.124 73.6379 145.329C73.76 146.429 73.917 147.51 74.0217 148.61C74.1613 150.18 73.7251 150.739 72.1723 151.262C67.7231 152.71 63.1867 153.321 58.4933 153.199C54.2361 153.094 50.0137 152.868 45.8088 152.239C43.7151 151.925 41.7261 151.332 39.8766 150.267C38.8996 149.709 38.4459 148.959 38.4285 147.877C38.3936 143.113 37.5561 138.454 36.7012 133.777C35.8811 129.45 34.8168 125.175 33.2291 121.039C31.3098 115.996 29.3731 110.953 26.8607 106.154C24.5401 101.757 23.2665 96.9406 22.0626 92.1245C21.1378 88.46 20.8238 84.7432 20.8936 80.974C20.9634 76.6813 20.8587 72.3537 21.7136 68.1134C22.2894 65.1993 22.9698 62.2851 23.8422 59.4583C24.924 55.9334 25.7266 52.3038 27.6458 49.093C28.1518 48.238 28.6578 47.3829 29.1463 46.5279C30.0013 45.0447 31.1877 44.242 32.9499 44.8876ZM31.2051 46.2487C30.4898 47.3829 29.757 48.4648 29.1289 49.5991C27.4539 52.6179 26.6687 55.9508 25.6568 59.214C23.9818 64.5885 22.7605 70.0678 22.6383 75.739C22.5337 81.1485 22.3766 86.5405 23.7375 91.8453C24.8891 96.3299 26.0755 100.832 28.1692 104.968C30.2281 108.999 31.9728 113.152 33.6478 117.357C37.5038 127.024 39.5451 137.075 40.0162 147.441C40.0511 148.208 40.2954 148.714 40.9758 148.976C42.1623 149.43 43.3138 149.988 44.5352 150.25C48.2166 151.07 51.9504 151.367 55.7017 151.419C58.5631 151.472 61.442 151.367 64.2859 151.175C67.0427 151 69.6947 150.285 72.3991 149.29C72.3293 148.54 72.2421 147.842 72.1897 147.144C72.0327 144.893 71.771 142.642 71.7535 140.391C71.7012 136.604 72.6783 133.097 74.8243 129.938C75.2605 129.293 75.8014 128.822 76.5516 128.473C79.0118 127.356 81.5417 127.059 84.1588 127.548C88.4859 128.368 92.8303 129.205 97.105 130.218C103.177 131.648 109.336 131.806 115.53 131.771C115.809 131.771 116.088 131.736 116.35 131.683C117.536 131.457 117.746 131.265 117.746 130.043C117.746 128.438 117.728 126.85 117.606 125.244C117.554 124.389 117.292 123.552 117.117 122.714C116.734 122.679 116.507 122.644 116.297 122.662C109.981 122.766 103.753 122.156 97.5761 120.795C93.9295 119.992 90.5272 118.613 87.2645 116.868C83.0945 114.617 79.0641 112.087 74.8418 109.958C72.3468 108.702 69.6424 107.812 66.938 107.096C64.1289 106.346 61.2151 106.015 58.4235 105.509C56.5217 107.725 54.6025 108.056 52.2645 106.503C51.5142 106.015 50.8163 105.858 49.9614 105.91C46.6812 106.102 43.75 105.142 41.1329 103.205C36.1079 99.4534 33.3861 94.201 32.0426 88.268C30.7341 82.4398 31.0656 76.5068 32.1124 70.6785C33.1942 64.606 35.0611 58.7079 37.1374 52.8971C37.6259 51.5011 38.2017 50.14 38.7774 48.6393C36.265 47.8715 33.8223 47.0863 31.2051 46.2487ZM48.1817 86.3485C48.0073 89.4372 47.7979 92.3513 48.775 95.1956C49.8218 98.2145 52.91 100.029 56.0681 99.436C57.4813 99.1742 58.4584 98.4413 59.1214 97.1849C60.1334 95.3003 60.6219 93.2936 60.7092 91.1822C60.7615 89.7164 60.9011 88.2506 60.7266 86.8022C56.5043 86.1217 52.4215 86.5754 48.1817 86.3485ZM119.351 125.314C119.351 126.728 119.351 127.862 119.351 129.048C122.823 129.467 125.859 128.246 128.93 127.269C129.401 127.129 129.785 126.745 130.221 126.466C130.168 126.344 130.133 126.239 130.081 126.117C129.558 126.169 129.034 126.204 128.511 126.256C127.795 126.326 127.098 126.448 126.382 126.448C125.859 126.448 125.143 126.448 124.847 126.134C124.533 125.803 124.603 125.105 124.48 124.442C122.805 124.721 121.078 125.017 119.351 125.314ZM34.2934 45.4286C35.3751 45.7775 36.1952 46.0916 37.0501 46.2836C37.4165 46.3708 37.9748 46.3359 38.2366 46.1091C39.0915 45.3413 39.8941 44.5037 40.6443 43.6138C40.9584 43.2299 41.098 42.6889 41.3771 42.0956C40.8537 42.0956 40.5745 42.1131 40.3128 42.0956C39.0043 42.0433 38.6379 41.5372 39.074 40.3157C39.2136 39.8969 39.4404 39.513 39.6498 39.1291C39.9464 38.5882 40.2605 38.0472 40.5571 37.5238C40.435 37.454 40.3128 37.3842 40.2081 37.3144C37.1025 39.0942 35.759 42.2003 34.2934 45.4286ZM51.5666 100.849C51.5666 101.373 51.5491 101.914 51.5666 102.455C51.6538 104.462 53.2067 105.927 55.2131 105.91C56.1728 105.892 56.766 105.526 56.8358 104.636C56.9405 103.467 56.8532 102.28 56.8532 101.286C55.0038 101.129 53.3811 101.006 51.5666 100.849ZM52.439 84.3942C52.6658 82.4398 52.8752 80.7122 53.0845 78.9672C51.7411 80.5028 50.4499 82.0035 50.6244 84.2371C51.2525 84.2895 51.7934 84.3418 52.439 84.3942ZM49.1762 84.3069C49.7869 82.5619 50.3103 81.0787 50.8861 79.4558C49.0018 80.5726 48.0247 82.0908 47.5187 84.1848C48.2341 84.2371 48.7575 84.272 49.1762 84.3069ZM55.2131 84.4989C54.7595 82.7539 54.934 80.9914 53.9395 79.4209C53.7824 81.0263 53.6254 82.6492 53.4684 84.2895C53.8522 84.3942 54.1139 84.4989 54.3757 84.5338C54.5676 84.5687 54.777 84.5163 55.2131 84.4989ZM60.2555 84.8653C59.5053 82.8586 59.1738 80.9391 57.272 79.8223C57.7954 81.48 58.3014 83.0331 58.8248 84.6734C59.1389 84.7083 59.5576 84.7606 60.2555 84.8653ZM55.6144 80.1015C55.8413 81.6022 56.0681 83.1029 56.2949 84.6734C56.7311 84.6385 57.0975 84.621 57.5337 84.5861C57.2196 82.876 56.766 81.3404 55.6144 80.1015ZM62.3143 84.9351C62.1748 83.225 61.599 81.8988 60.2206 80.974C60.6568 82.3351 61.1977 83.6613 61.756 84.9875C61.7735 85.0398 62.0526 84.97 62.3143 84.9351Z" fill="black"/>
<path d="M31.2056 46.248C33.8228 47.0856 36.2655 47.8709 38.7779 48.6736C38.2022 50.1743 37.6264 51.5354 37.1378 52.9314C35.0616 58.7422 33.1947 64.6402 32.1129 70.7128C31.0661 76.541 30.7346 82.4915 32.0431 88.3023C33.3866 94.2352 36.1084 99.4876 41.1334 103.239C43.7331 105.194 46.6817 106.154 49.9619 105.944C50.8168 105.892 51.5147 106.049 52.265 106.537C54.603 108.09 56.5222 107.759 58.424 105.543C61.2156 106.049 64.1294 106.38 66.9385 107.131C69.6429 107.846 72.3473 108.736 74.8423 109.992C79.0646 112.121 83.095 114.652 87.265 116.903C90.5277 118.648 93.93 120.026 97.5766 120.829C103.753 122.19 109.982 122.801 116.298 122.696C116.507 122.696 116.734 122.731 117.118 122.748C117.292 123.586 117.554 124.424 117.607 125.279C117.711 126.867 117.746 128.472 117.746 130.077C117.746 131.299 117.537 131.473 116.35 131.718C116.089 131.77 115.809 131.805 115.53 131.805C109.336 131.822 103.177 131.683 97.1055 130.252C92.8134 129.24 88.4864 128.402 84.1593 127.582C81.5596 127.093 79.0123 127.39 76.5522 128.507C75.8019 128.856 75.261 129.31 74.8248 129.973C72.6788 133.131 71.7017 136.656 71.754 140.425C71.7889 142.676 72.0332 144.927 72.1902 147.178C72.2426 147.876 72.3298 148.592 72.3996 149.325C69.6952 150.337 67.0432 151.035 64.2864 151.209C61.425 151.401 58.5636 151.506 55.7022 151.453C51.9509 151.384 48.1997 151.087 44.5357 150.284C43.3143 150.005 42.1453 149.464 40.9763 149.01C40.2959 148.749 40.0516 148.243 40.0167 147.475C39.5456 137.092 37.5043 127.058 33.6483 117.391C31.9733 113.186 30.2286 109.033 28.1697 105.002C26.0586 100.866 24.8896 96.3641 23.738 91.8795C22.3597 86.5747 22.5341 81.1827 22.6388 75.7733C22.761 70.0846 23.9823 64.6228 25.6573 59.2482C26.6692 55.9851 27.4544 52.6522 29.1294 49.6333C29.7575 48.4642 30.5077 47.3823 31.2056 46.248Z" fill="white"/>
<path d="M48.1821 86.3477C52.4393 86.5745 56.5046 86.1208 60.7444 86.7839C60.9189 88.2322 60.7793 89.698 60.727 91.1638C60.6397 93.2753 60.1512 95.282 59.1392 97.1666C58.4588 98.423 57.4817 99.1559 56.0859 99.4176C52.9279 100.011 49.8396 98.2136 48.7928 95.1773C47.7982 92.3504 48.0076 89.4363 48.1821 86.3477ZM51.9333 88.2846C50.0664 87.5342 49.4558 87.604 48.5659 88.6161C49.1417 88.8255 49.6826 89.0175 50.206 89.2094C50.2235 89.4363 50.1711 89.698 50.2758 89.8725C50.4503 90.1692 50.712 90.396 50.9214 90.6578C51.1831 90.4309 51.6018 90.239 51.6891 89.9598C51.8635 89.4188 51.8635 88.8081 51.9333 88.2846ZM57.2723 89.5759C57.22 89.89 57.0978 90.2215 57.1676 90.5007C57.2549 90.8148 57.534 91.0766 57.726 91.3558C58.0051 91.1464 58.4064 90.9719 58.5286 90.6927C58.7728 90.1168 58.8775 89.4712 59.0345 88.8953C57.6562 88.3369 57.4468 88.3369 56.3999 88.7383C56.3476 88.7557 56.3476 88.9302 56.2952 89.1222C56.5919 89.2618 56.9234 89.4188 57.2723 89.5759ZM54.0968 89.1222C53.3291 90.4484 53.1198 91.635 53.2419 92.8565C53.2594 93.1182 53.7304 93.4323 54.0445 93.5719C54.5156 93.7813 55.0739 93.3451 54.8471 92.9263C54.3062 91.9665 54.6377 91.0068 54.6203 90.047C54.6203 89.8376 54.3935 89.6282 54.0968 89.1222Z" fill="white"/>
<path d="M119.351 125.314C121.079 125.017 122.806 124.721 124.481 124.441C124.603 125.105 124.533 125.802 124.847 126.134C125.144 126.448 125.859 126.448 126.383 126.448C127.098 126.448 127.796 126.326 128.511 126.256C129.035 126.204 129.558 126.169 130.082 126.117C130.134 126.239 130.169 126.343 130.221 126.466C129.802 126.745 129.401 127.111 128.93 127.268C125.859 128.245 122.823 129.467 119.351 129.048C119.351 127.862 119.351 126.727 119.351 125.314Z" fill="white"/>
<path d="M34.2939 45.4267C35.7596 42.1985 37.103 39.0924 40.2087 37.3125C40.3308 37.3823 40.453 37.4521 40.5577 37.5219C40.2611 38.0628 39.947 38.5863 39.6504 39.1273C39.441 39.5112 39.2142 39.8951 39.0746 40.3139C38.6559 41.5528 39.0223 42.0589 40.3134 42.0938C40.5926 42.1112 40.8543 42.0938 41.3777 42.0938C41.0985 42.6871 40.959 43.228 40.6449 43.6119C39.8947 44.4844 39.0921 45.3395 38.2371 46.1073C37.9754 46.3341 37.4345 46.369 37.0507 46.2817C36.2132 46.0898 35.3757 45.7757 34.2939 45.4267Z" fill="white"/>
<path d="M51.567 100.848C53.3815 100.987 55.0042 101.127 56.8536 101.266C56.8536 102.261 56.9234 103.448 56.8362 104.617C56.7664 105.507 56.1732 105.873 55.2135 105.891C53.207 105.908 51.6716 104.46 51.567 102.436C51.5321 101.912 51.567 101.371 51.567 100.848Z" fill="white"/>
<path d="M52.4393 84.3938C51.7937 84.3415 51.2528 84.2891 50.6247 84.2542C50.4502 82.0032 51.7414 80.52 53.0848 78.9844C52.8754 80.6945 52.6661 82.4394 52.4393 84.3938Z" fill="white"/>
<path d="M49.1768 84.3063C48.7581 84.2714 48.2346 84.2365 47.5193 84.2016C48.0253 82.1076 49.0023 80.572 50.8867 79.4727C50.3284 81.0781 49.8049 82.5613 49.1768 84.3063Z" fill="white"/>
<path d="M55.2135 84.4978C54.7773 84.5153 54.568 84.5502 54.376 84.5327C54.1143 84.4978 53.87 84.3931 53.4688 84.2884C53.6258 82.6482 53.7828 81.0253 53.9398 79.4199C54.9518 80.9904 54.7599 82.7529 55.2135 84.4978Z" fill="white"/>
<path d="M60.2559 84.8633C59.558 84.7761 59.1393 84.7063 58.8078 84.6714C58.2844 83.0136 57.7958 81.478 57.2549 79.8203C59.1567 80.9371 59.4882 82.8566 60.2559 84.8633Z" fill="white"/>
<path d="M55.6147 80.1016C56.7663 81.3405 57.2025 82.8761 57.534 84.5862C57.0978 84.6211 56.7488 84.6385 56.2952 84.6734C56.0684 83.1029 55.8416 81.6023 55.6147 80.1016Z" fill="white"/>
<path d="M62.3146 84.9338C62.0529 84.9687 61.7737 85.0385 61.7563 84.9861C61.198 83.6774 60.6571 82.3512 60.2209 80.9727C61.5993 81.8975 62.175 83.2237 62.3146 84.9338Z" fill="white"/>
<path d="M51.9334 88.2852C51.8636 88.8087 51.8636 89.4194 51.6891 89.9429C51.5844 90.2221 51.1831 90.4141 50.9214 90.6409C50.6946 90.3792 50.4329 90.1523 50.2759 89.8557C50.1712 89.6812 50.2235 89.4369 50.2061 89.1926C49.6826 89.0006 49.1592 88.8087 48.566 88.5993C49.4384 87.6047 50.0665 87.5523 51.9334 88.2852Z" fill="black"/>
<path d="M57.2724 89.5764C56.906 89.4194 56.592 89.2623 56.2779 89.1227C56.3302 88.9308 56.3302 88.7737 56.3826 88.7388C57.4294 88.3375 57.6388 88.3549 59.0172 88.8959C58.8601 89.4892 58.7555 90.1174 58.5112 90.6932C58.3891 90.9724 57.9878 91.1294 57.7086 91.3563C57.5167 91.0771 57.2375 90.8153 57.1503 90.5013C57.0979 90.2221 57.2375 89.8905 57.2724 89.5764Z" fill="black"/>
<path d="M54.0969 89.1211C54.3935 89.6271 54.6203 89.8365 54.6203 90.0634C54.6378 91.0231 54.3062 91.9829 54.8471 92.9426C55.0739 93.3614 54.5331 93.7977 54.0445 93.5883C53.7305 93.4487 53.2594 93.1346 53.2419 92.8728C53.1373 91.6339 53.3466 90.4473 54.0969 89.1211Z" fill="black"/>
<path d="M174.885 54.5444C179.997 55.7484 181.794 59.6921 182.98 64.2988C183.539 63.3915 183.957 62.7458 184.359 62.1002C186.138 59.2384 188.581 57.1967 191.687 55.9055C193.466 55.1551 193.449 55.1028 193.658 53.288C193.815 53.2182 194.007 53.0611 194.199 53.0262C198.055 52.59 201.859 52.4853 205.627 53.8464C208.437 54.8585 211.228 55.9055 213.776 57.4585C217.143 59.5001 220.039 62.1002 222.116 65.5552C224.96 70.2842 226.111 75.3621 226.129 80.8588C226.146 85.1515 225.518 89.1824 223.319 92.9167C221.522 96.0053 219.935 99.2335 218.033 102.252C216.323 104.94 214.247 107.4 212.432 110.018C209.483 114.31 207.826 119.126 206.849 124.204C206.099 128.061 206.151 131.987 205.924 135.878C205.802 137.972 205.715 140.066 205.68 142.16C205.662 143.975 205.715 145.79 205.767 147.605C205.802 148.948 205.662 149.245 204.424 149.384C200.76 149.786 197.078 150.274 193.397 150.466C189.157 150.693 184.9 150.728 180.66 150.676C175.53 150.623 170.418 150.327 165.358 149.332C164.067 149.07 162.741 148.983 161.433 148.739C159.967 148.477 159.688 148.146 159.688 146.627C159.688 142.666 159.758 138.688 159.74 134.727C159.705 130.085 159.461 125.443 158.24 120.959C156.948 116.265 155.116 111.797 151.906 107.993C149.882 105.603 147.876 103.16 146.148 100.542C144.875 98.6402 143.933 96.4764 143.078 94.3476C139.675 85.7099 140.181 77.1943 144.212 68.9056C145.695 65.8519 148.015 63.374 150.475 61.0706C152.883 58.8021 155.553 56.8477 158.501 55.2947C159.513 54.7538 160.612 54.3699 161.712 54.0034C165.341 52.7819 169.04 51.9967 172.878 51.9618C173.262 51.9618 173.646 51.9443 174.03 51.9967C175.199 52.1363 175.391 52.4329 175.077 53.6544C175.077 53.8638 175.024 54.0732 174.885 54.5444ZM204.057 147.744C204.162 143.696 204.232 139.892 204.354 136.105C204.476 132.196 204.476 128.288 205.156 124.414C206.186 118.585 208.07 113.124 211.577 108.29C213.322 105.882 215.102 103.491 216.811 101.066C219.394 97.3838 221.261 93.318 223.11 89.2696C223.878 87.6119 224.122 85.675 224.331 83.8253C224.523 82.2024 224.314 80.5272 224.331 78.8695C224.349 74.5594 223.005 70.6332 220.912 66.9338C218.818 63.2344 215.747 60.5297 212.066 58.488C209.606 57.1095 206.971 56.1497 204.301 55.2424C201.248 54.2128 198.142 54.3524 194.775 54.684C195.473 56.9524 196.084 59.1162 196.816 61.2451C196.939 61.5941 197.532 61.9606 197.933 62.0304C201.283 62.4666 204.232 63.7928 207.111 65.5378C210.618 67.6667 213.025 70.703 214.63 74.2976C216.288 78.0319 215.922 81.9232 214.665 85.7622C213.636 88.9206 211.717 91.5905 209.64 94.0509C206.535 97.7154 202.941 100.909 198.701 103.282C196.572 104.468 194.321 105.027 191.861 104.608C190.239 104.329 188.616 104.067 186.889 103.788C186.679 104.032 186.418 104.364 186.121 104.695C184.411 106.562 182.457 106.999 180.136 105.899C179.421 105.55 178.706 105.009 178.2 104.399C177.624 103.683 177.031 103.456 176.123 103.387C172.826 103.142 169.633 102.305 166.963 100.368C163.352 97.7328 160.037 94.6966 157.559 90.9099C156.303 88.973 155.082 86.9663 155.029 84.5407C154.994 83.1098 154.977 81.6615 155.064 80.248C155.396 74.8386 157.926 70.4063 161.799 66.8465C164.329 64.5082 167.347 62.676 170.942 61.9606C171.709 59.2558 172.477 56.586 173.262 53.8987C172.896 53.794 172.739 53.7068 172.582 53.7068C169.022 53.7766 165.568 54.5269 162.218 55.6437C157.943 57.0746 154.401 59.7095 151.208 62.7982C149.027 64.8921 146.951 67.1432 145.642 69.9352C141.909 77.8051 141.455 85.832 144.718 93.9462C145.52 95.9355 146.393 97.9248 147.579 99.6872C149.306 102.235 151.261 104.643 153.25 106.999C156.634 111.012 158.606 115.741 159.932 120.714C161.153 125.304 161.433 130.067 161.433 134.814C161.415 138.339 161.415 141.864 161.398 145.406C161.398 145.947 161.398 146.488 161.398 147.081C175.67 149.664 189.802 149.629 204.057 147.744ZM185.598 73.2681C188.79 73.5822 190.832 75.2574 192.175 77.8923C193.763 80.9984 195.054 84.1917 195.7 87.6468C196.52 92.0442 197.357 96.4241 197.148 100.909C197.13 101.258 197.218 101.589 197.253 101.991C197.549 101.868 197.706 101.816 197.846 101.729C198.142 101.572 198.422 101.397 198.701 101.223C203.272 98.2389 207.285 94.714 210.338 90.1072C211.542 88.2924 212.659 86.4777 213.252 84.4011C214.142 81.2601 214.351 78.0494 213.043 75.0131C212.345 73.3728 211.176 71.907 210.146 70.4238C208.628 68.2076 206.238 67.0559 204.04 65.7297C203.115 65.1713 202.068 64.77 201.021 64.4384C199.172 63.8451 197.27 63.3391 195.403 62.8156C194.862 63.88 194.321 65.0143 193.693 66.1136C193.362 66.672 192.943 67.213 192.472 67.6667C191.704 68.3996 190.937 68.1727 190.588 67.1781C190.448 66.7942 190.343 66.3928 190.169 65.817C188.145 68.0855 186.871 70.5634 185.598 73.2681ZM172.529 63.1821C171.674 63.3566 170.959 63.4089 170.313 63.6358C167.33 64.7351 164.591 66.3579 162.41 68.6264C159.513 71.6278 157.315 75.1701 156.931 79.4802C156.704 82.0279 156.303 84.6629 157.507 87.1059C158.065 88.2401 158.693 89.3394 159.391 90.3864C161.607 93.7368 164.695 96.2496 167.749 98.7798C168.063 99.0416 168.464 99.1986 168.97 99.4778C169.022 99.0416 169.057 98.7798 169.075 98.5355C169.144 94.9583 169.249 91.3811 169.267 87.8038C169.284 85.0119 169.773 82.3246 170.889 79.7769C172.407 76.3044 174.92 74.0708 178.741 73.46C179.247 73.3728 179.753 73.2681 180.206 73.1808C179.299 71.3137 178.461 69.6036 177.624 67.911C175.617 68.958 174.483 68.5043 173.681 66.3754C173.297 65.3458 172.948 64.3163 172.529 63.1821ZM195.49 102.724C195.508 99.3382 195.49 96.11 194.897 92.9167C194.112 88.6938 193.397 84.4884 191.565 80.5272C190.047 77.2292 188.093 74.7688 184.097 74.8735C183.992 74.8735 183.888 74.8211 183.766 74.8037C181.253 74.5768 178.741 74.8735 176.507 75.9728C172.861 77.7353 170.645 82.3944 171.168 87.0012C172.023 85.0817 173.506 84.4709 175.129 84.1917C175.583 82.8655 175.094 81.3299 176.42 80.0735C176.577 80.8762 176.682 81.4172 176.874 82.3595C177.362 81.3997 177.659 80.8064 177.973 80.2131C178.915 80.6668 177.694 82.1152 179.124 82.0977C179.508 81.5742 178.985 80.7192 179.857 80.3702C180.049 81.0158 180.206 81.5917 180.416 82.3246C180.887 81.5917 180.259 80.8064 181.148 80.3004C181.41 80.9984 181.654 81.6266 182.021 82.6212C182.213 81.6615 182.317 81.1031 182.44 80.5272C182.544 80.5272 182.631 80.5272 182.736 80.5272C182.998 81.1031 183.26 81.6964 183.539 82.2722C183.626 82.2548 183.696 82.2373 183.783 82.2024C183.87 81.6266 183.957 81.0333 184.045 80.4574C184.132 80.4574 184.219 80.44 184.306 80.44C184.568 80.9984 184.812 81.5393 185.092 82.1326C185.58 81.5742 184.935 80.6668 185.824 80.3702C186.732 80.6843 185.755 82.2722 187.116 82.3071C187.255 81.7487 187.395 81.2078 187.552 80.6843C187.691 80.6843 187.848 80.6668 187.988 80.6668C189 81.7836 188.599 83.4065 189.157 84.6978C189.244 84.7676 189.331 84.8548 189.419 84.8723C190.937 85.2562 192.036 86.1636 192.297 87.6991C192.594 89.4965 191.826 90.9274 190.274 91.8871C189.68 92.2536 189.017 92.5328 188.424 92.812C188.145 93.5972 187.988 94.365 187.621 95.0456C186.679 96.7905 186.871 98.6751 186.836 100.525C186.819 101.275 187.15 101.834 187.831 102.095C190.308 102.968 192.838 103.142 195.49 102.724ZM193.693 56.935C193.327 57.0571 193.013 57.1269 192.716 57.2316C189.628 58.4357 187.325 60.5297 185.493 63.2519C183.87 65.6425 183.277 68.2425 183.399 71.052C183.417 71.3486 183.696 71.715 183.957 71.907C184.062 71.9768 184.498 71.6627 184.708 71.4533C184.9 71.2614 184.969 70.9822 185.109 70.7379C186.069 69.1325 186.976 67.5096 188.005 65.9566C189.453 63.7754 190.256 63.7056 192.088 65.5029C193.362 63.915 193.781 61.9431 194.531 60.1283C194.618 59.9015 194.566 59.5699 194.496 59.3256C194.269 58.5578 193.99 57.79 193.693 56.935ZM175.879 67.0734C176.246 66.5324 176.403 66.323 176.525 66.0962C176.647 65.8519 176.717 65.5727 176.856 65.3458C177.31 64.5955 177.955 64.5431 178.409 65.276C178.81 65.9217 179.055 66.672 179.351 67.37C179.822 68.4868 180.259 69.6036 180.765 70.703C180.904 70.9996 181.218 71.1916 181.619 71.5929C181.619 69.464 181.881 67.562 181.55 65.7646C181.166 63.7405 180.45 61.7163 179.526 59.8666C178.531 57.9122 176.804 56.6209 174.466 56.08C173.995 57.6155 173.541 59.0813 173.14 60.5471C173.053 60.8612 173.175 61.28 173.314 61.6116C173.873 62.9203 174.466 64.229 175.059 65.5203C175.251 65.9566 175.513 66.3754 175.879 67.0734ZM177.205 101.537C177.135 99.4429 177.816 97.4536 176.472 95.5865C176.001 94.9409 175.687 94.1207 175.495 93.3355C175.303 92.5677 174.937 92.2361 174.187 92.0791C173.088 91.8522 172.111 91.3287 171.465 90.3515C171.325 90.1247 171.116 89.9327 170.75 89.5139C170.75 93.2831 170.75 96.7382 170.75 100.281C172.791 101.083 174.815 101.677 177.205 101.537ZM186.592 92.3059C184.429 92.2361 182.806 91.4334 181.829 89.4616C181.48 90.7005 181.986 91.6428 182.666 92.5153C182.143 93.2482 181.602 93.0214 181.009 92.7422C180.904 92.2187 180.799 91.7126 180.695 91.2589C179.404 91.7999 178.217 92.2885 177.048 92.7596C177.851 95.7784 179.787 97.2617 182.719 97.1221C184.743 97.0348 186.069 95.4294 186.592 92.3059ZM178.828 98.0469C178.828 99.4255 178.81 100.612 178.828 101.816C178.828 102.13 178.828 102.497 178.985 102.724C179.892 104.119 181.201 104.835 182.893 104.73C183.94 104.678 185.598 103.23 185.563 102.34C185.493 101.013 185.301 99.6872 185.144 98.3436C182.998 98.9543 180.939 99.0765 178.828 98.0469ZM176.786 85.6401C176.786 87.3676 176.786 89.0428 176.786 90.7529C178.13 90.9099 179.124 90.2468 179.875 89.2522C181.026 87.734 180.171 85.8495 178.27 85.6575C177.851 85.5877 177.415 85.6401 176.786 85.6401ZM187.238 86.1287C185.789 85.9018 184.673 86.3032 183.905 87.4897C183.504 88.1179 183.486 88.8857 183.957 89.5139C184.743 90.5435 185.842 90.6831 187.238 90.4388C187.238 88.9904 187.238 87.5944 187.238 86.1287ZM182.195 86.8616C183.521 85.2213 183.521 85.2213 186.976 83.9998C184.655 83.9998 182.335 83.9998 180.102 83.9998C180.817 84.9595 181.48 85.8844 182.195 86.8616ZM174.867 86.024C173.262 86.3555 172.616 87.0884 172.616 88.4146C172.634 89.6012 173.14 90.0723 174.902 90.3864C174.85 88.9206 175.234 87.4897 174.867 86.024ZM189 90.3864C190.099 89.9851 190.762 89.1824 190.78 88.2401C190.78 87.4723 190.274 86.9663 189 86.53C189 87.8387 189 89.1126 189 90.3864ZM177.205 83.7031C177.223 83.8078 177.258 83.8951 177.275 83.9998C177.659 83.9823 178.043 83.9474 178.409 83.93C178.409 83.8602 178.392 83.7904 178.392 83.7031C178.008 83.7031 177.607 83.7031 177.205 83.7031Z" fill="black"/>
<path d="M195.491 102.722C192.838 103.141 190.309 102.949 187.831 102.024C187.151 101.763 186.819 101.204 186.836 100.454C186.871 98.5866 186.679 96.7195 187.622 94.9745C187.988 94.3114 188.145 93.5262 188.424 92.7409C189.017 92.4443 189.663 92.1825 190.274 91.8161C191.844 90.8563 192.594 89.4254 192.298 87.6281C192.036 86.0751 190.937 85.1851 189.419 84.8012C189.314 84.7838 189.244 84.6791 189.157 84.6267C188.599 83.3354 189.017 81.7126 187.988 80.5958C187.848 80.5958 187.691 80.6132 187.552 80.6132C187.412 81.1542 187.273 81.6951 187.116 82.2361C185.772 82.2012 186.732 80.6307 185.824 80.2991C184.935 80.5958 185.598 81.5032 185.092 82.0616C184.813 81.4683 184.551 80.9099 184.307 80.3689C184.219 80.3689 184.132 80.3864 184.045 80.3864C183.958 80.9622 183.87 81.5555 183.783 82.1314C183.696 82.1488 183.626 82.1663 183.539 82.2012C183.277 81.6253 183.015 81.032 182.736 80.4562C182.632 80.4562 182.544 80.4562 182.44 80.4562C182.335 81.0146 182.213 81.5904 182.021 82.5502C181.654 81.573 181.41 80.9448 181.149 80.2293C180.276 80.7354 180.887 81.5381 180.416 82.2535C180.206 81.5206 180.032 80.9448 179.857 80.2991C178.985 80.6656 179.508 81.5206 179.125 82.0267C177.694 82.0441 178.915 80.5958 177.973 80.1421C177.676 80.7354 177.362 81.3287 176.874 82.2884C176.682 81.3461 176.577 80.8226 176.42 80.0025C175.077 81.2589 175.583 82.7945 175.129 84.1207C173.506 84.3999 172.023 85.0106 171.168 86.9301C170.645 82.3233 172.861 77.6817 176.507 75.9018C178.741 74.8199 181.253 74.5232 183.766 74.7326C183.87 74.7501 183.975 74.8024 184.097 74.8024C188.093 74.7152 190.064 77.1756 191.565 80.4562C193.397 84.4173 194.112 88.6402 194.897 92.8456C195.49 96.1087 195.508 99.3544 195.491 102.722Z" fill="white"/>
<path d="M193.693 56.9336C193.972 57.7886 194.252 58.5564 194.496 59.3242C194.566 59.5685 194.618 59.9001 194.531 60.1269C193.78 61.9417 193.362 63.9136 192.088 65.5015C190.256 63.7042 189.453 63.774 188.005 65.9552C186.976 67.5082 186.069 69.1485 185.109 70.7365C184.969 70.9633 184.882 71.26 184.708 71.4519C184.498 71.6613 184.062 71.9754 183.957 71.9056C183.696 71.7137 183.417 71.3647 183.399 71.0506C183.277 68.2411 183.87 65.6411 185.493 63.2505C187.342 60.5283 189.645 58.4343 192.716 57.2302C193.013 57.1255 193.327 57.0557 193.693 56.9336Z" fill="white"/>
<path d="M175.879 67.0735C175.495 66.3755 175.251 65.9567 175.059 65.5205C174.466 64.2292 173.873 62.9204 173.315 61.6117C173.175 61.2801 173.053 60.8614 173.14 60.5473C173.541 59.064 174.012 57.5982 174.466 56.0801C176.804 56.621 178.531 57.9123 179.526 59.8667C180.451 61.7164 181.166 63.7406 181.55 65.7648C181.881 67.5621 181.62 69.4642 181.62 71.593C181.236 71.1917 180.904 70.9823 180.765 70.7031C180.259 69.6038 179.822 68.487 179.351 67.3702C179.055 66.6547 178.811 65.9218 178.409 65.2762C177.956 64.5433 177.327 64.6131 176.856 65.346C176.717 65.5728 176.664 65.852 176.525 66.0963C176.403 66.3232 176.246 66.5326 175.879 67.0735Z" fill="white"/>
<path d="M177.205 101.537C174.815 101.676 172.791 101.065 170.75 100.263C170.75 96.7204 170.75 93.2653 170.75 89.4961C171.116 89.9149 171.325 90.1068 171.465 90.3337C172.11 91.3283 173.07 91.8344 174.187 92.0612C174.92 92.2183 175.303 92.5498 175.495 93.3176C175.687 94.1029 176.001 94.923 176.472 95.5687C177.816 97.4533 177.135 99.4425 177.205 101.537Z" fill="white"/>
<path d="M186.592 92.3054C186.069 95.4289 184.743 97.0343 182.736 97.139C179.805 97.2786 177.868 95.7954 177.066 92.7765C178.235 92.2879 179.421 91.7994 180.712 91.2759C180.799 91.7296 180.904 92.2356 181.026 92.7591C181.602 93.0383 182.143 93.2477 182.684 92.5322C182.021 91.6598 181.497 90.7175 181.846 89.4785C182.806 91.4329 184.428 92.253 186.592 92.3054Z" fill="white"/>
<path d="M178.828 98.0469C180.939 99.0764 182.998 98.9543 185.144 98.361C185.284 99.7046 185.493 101.031 185.563 102.357C185.598 103.247 183.94 104.678 182.893 104.748C181.218 104.835 179.892 104.137 178.985 102.741C178.828 102.497 178.828 102.13 178.828 101.833C178.81 100.612 178.828 99.4254 178.828 98.0469Z" fill="white"/>
<path d="M176.786 85.6405C177.414 85.6405 177.851 85.6056 178.269 85.6405C180.154 85.8325 181.009 87.717 179.875 89.2352C179.124 90.2473 178.13 90.8929 176.786 90.7359C176.786 89.0258 176.786 87.3681 176.786 85.6405ZM177.135 87.6298C177.572 88.066 177.973 88.4674 178.357 88.8513C178.915 89.4097 179.473 89.305 179.63 88.5546C179.718 88.1707 179.595 87.7345 179.578 87.2634C178.671 87.2808 177.868 86.9144 177.135 87.6298Z" fill="white"/>
<path d="M187.238 86.1273C187.238 87.5931 187.238 88.9716 187.238 90.4374C185.842 90.6817 184.76 90.5247 183.957 89.5126C183.469 88.8844 183.486 88.1166 183.905 87.4884C184.655 86.3192 185.789 85.9179 187.238 86.1273ZM186.365 89.6173C186.836 88.8669 187.325 88.2038 186.557 87.5407C185.947 87.0172 184.83 87.3837 184.359 88.1864C184.969 88.6401 185.598 89.0763 186.365 89.6173Z" fill="white"/>
<path d="M182.195 86.8618C181.48 85.8846 180.817 84.9772 180.102 84C182.317 84 184.638 84 186.976 84C183.504 85.2215 183.504 85.2215 182.195 86.8618Z" fill="white"/>
<path d="M174.867 86.0234C175.234 87.4892 174.832 88.9201 174.92 90.3859C173.157 90.0893 172.634 89.6181 172.634 88.4141C172.617 87.0879 173.28 86.355 174.867 86.0234Z" fill="white"/>
<path d="M189 90.3857C189 89.1119 189 87.838 189 86.5293C190.273 86.9481 190.779 87.4716 190.779 88.2394C190.762 89.1817 190.099 89.9669 189 90.3857Z" fill="white"/>
<path d="M177.205 83.7031C177.606 83.7031 178.008 83.7031 178.392 83.7031C178.392 83.7729 178.409 83.8427 178.409 83.93C178.025 83.9474 177.641 83.9823 177.275 83.9998C177.258 83.8951 177.24 83.7904 177.205 83.7031Z" fill="white"/>
<path d="M177.135 87.6286C177.868 86.9131 178.653 87.2796 179.578 87.2621C179.613 87.7333 179.718 88.1695 179.63 88.5534C179.473 89.3212 178.915 89.4259 178.357 88.8501C177.973 88.4487 177.572 88.0648 177.135 87.6286Z" fill="black"/>
<path d="M186.365 89.6174C185.598 89.0764 184.987 88.6227 184.359 88.1865C184.812 87.3838 185.929 86.9999 186.557 87.5408C187.325 88.2214 186.836 88.8845 186.365 89.6174Z" fill="black"/>
<path d="M294.336 77.5486C295.199 79.3848 296.136 81.0558 296.797 82.8369C298.21 86.5645 297.99 90.4756 297.66 94.3501C297.568 95.3967 296.944 96.4067 296.54 97.4349C295.915 99.0875 294.869 100.648 295.089 102.485C295.218 102.631 295.273 102.76 295.365 102.778C299.275 103.605 301.754 106.322 304.049 109.297C306.638 112.621 309.851 114.714 314.239 114.714C322.537 114.732 330.836 114.824 339.135 114.897C339.777 114.897 340.42 114.842 341.044 114.916C342.788 115.081 344.386 114.916 345.597 113.447C345.818 113.19 346.167 113.025 346.479 112.896C347.892 112.272 348.847 112.859 348.994 114.383C349.012 114.604 349.012 114.842 349.049 115.246C349.93 115.246 350.793 115.191 351.656 115.265C352.519 115.32 353.382 115.448 354.227 115.65C355.145 115.871 355.787 116.44 355.934 117.413C356.099 118.405 355.604 119.176 354.796 119.58C353.088 120.425 351.362 121.269 349.563 121.857C345.579 123.179 341.411 122.757 337.317 122.959C331.699 123.252 326.062 123.454 320.444 123.693C319.875 123.711 319.306 123.785 318.663 123.84C318.296 126.043 318.939 128.302 318.021 130.542C313.669 130.818 309.3 131.093 304.728 131.368C304.489 134.839 304.214 138.236 304.012 141.633C303.884 143.653 303.884 145.691 303.773 147.711C303.7 149.143 303.351 149.474 301.919 149.749C292.739 151.567 283.486 151.971 274.177 151.328C271.478 151.145 268.816 150.337 266.154 149.841C265.438 149.712 265.217 149.217 265.236 148.574C265.254 147.637 265.364 146.719 265.328 145.783C265.107 138.53 265.016 131.277 264.612 124.042C264.263 117.927 262.922 111.996 260.646 106.286C260.279 105.367 259.875 104.468 259.397 103.605C257.708 100.575 257.176 97.288 257.047 93.891C257.011 92.8444 256.955 91.7977 256.845 90.7694C256.68 89.1168 257.157 88.4374 258.773 88.1803C258.993 88.1436 259.214 88.1069 259.434 88.0702C259.654 86.2523 259.709 84.4528 260.113 82.7267C261.564 76.4836 265.328 72.297 271.442 70.2036C275.444 68.8265 279.52 68.1654 283.743 68.2205C292.978 68.3491 302.213 68.4776 311.43 68.5694C312.99 68.5878 314.551 68.4225 316.13 68.4041C316.772 68.3858 317.195 68.1287 317.58 67.6146C317.947 67.1188 318.425 66.623 318.957 66.3108C320.261 65.5947 321.381 66.219 321.583 67.688C321.638 68.1471 321.656 68.6061 321.711 69.2304C322.831 69.2855 323.933 69.2672 324.998 69.3957C326.778 69.6161 328.559 69.8364 330.304 70.222C331.424 70.4607 332.323 71.085 332.342 72.4622C332.36 73.5823 331.938 74.4086 330.928 74.8309C330.138 75.1615 329.275 75.3635 328.431 75.5654C322.629 77.0711 316.717 76.9793 310.787 76.9977C305.499 77.0161 300.23 77.218 294.942 77.3466C294.759 77.4017 294.502 77.4935 294.336 77.5486ZM316.754 116.66C316.24 116.532 316.075 116.458 315.909 116.44C315.505 116.403 315.102 116.366 314.698 116.385C309.465 116.532 305.665 114.09 302.598 110.05C301.387 108.452 299.826 107.112 298.357 105.716C297.972 105.349 297.384 105.221 296.576 104.853C298.339 108.25 298.008 111.17 295.952 113.924C295.805 114.108 295.677 114.292 295.567 114.512C294.979 115.761 294.887 117.119 295.805 118.129C297.696 120.204 297.898 122.573 297.439 125.125C296.797 128.816 294.667 131.754 289.857 130.377C288.755 130.065 287.653 129.789 287.047 128.816C285.487 126.374 284.257 123.785 285.395 120.792C286.313 118.331 285.946 116.128 284.349 114.09C283.137 112.565 283.192 110.876 283.724 109.132C283.853 108.691 284.018 108.269 284.22 107.699C282.696 107.901 281.778 107.02 280.842 106.139C278.804 104.192 276.839 102.191 274.691 100.391C271.809 97.9858 270.065 94.956 269.165 91.3754C269.055 90.9347 268.889 90.494 268.706 89.8513C265.383 89.8513 262.06 89.8513 258.516 89.8513C258.645 92.0732 258.718 94.3134 258.92 96.5536C259.14 98.9407 259.93 101.162 261.086 103.293C261.821 104.67 262.372 106.139 262.922 107.608C265.732 115.21 266.503 123.179 266.76 131.185C266.943 136.638 266.888 142.074 266.943 147.527C266.943 147.748 267.035 147.968 267.127 148.317C269.514 148.776 271.882 149.455 274.287 149.639C281.65 150.171 289.012 149.988 296.338 148.96C298.321 148.684 300.303 148.299 302.286 147.968C302.396 145.232 302.452 142.68 302.598 140.146C302.8 136.73 303.076 133.333 303.333 129.918C303.351 129.624 303.388 129.33 303.498 129.073C303.737 128.431 304.232 128.339 304.636 128.89C304.82 129.147 304.912 129.477 305.022 129.716C309.061 129.477 312.972 129.238 316.772 129.018C316.754 124.758 316.754 120.737 316.754 116.66ZM288.278 83.2225C288.333 82.8186 288.388 82.5982 288.406 82.3595C288.443 81.7903 288.608 81.2578 289.251 81.2394C290.003 81.221 290.169 81.827 290.187 82.4513C290.224 83.6081 290.26 84.765 290.224 85.9218C290.114 89.4473 289.6 92.8444 287.323 95.7456C287.121 95.9843 287.011 96.3883 287.047 96.7004C287.194 98.4265 287.103 100.244 287.635 101.86C288.204 103.605 287.91 105.019 287.084 106.488C286.533 107.442 285.946 108.379 285.487 109.37C284.918 110.582 284.826 111.831 285.726 112.969C287.727 115.522 288.131 118.295 286.974 121.324C286.919 121.49 286.882 121.655 286.827 121.82C286.24 123.877 287.286 125.529 288.186 127.219C288.902 128.559 290.316 128.504 291.527 128.761C293.014 129.055 294.19 128.504 294.85 127.145C296.026 124.74 296.448 122.316 294.777 119.91C294.575 119.635 294.391 119.341 294.226 119.029C293.18 116.972 293.088 114.934 294.428 112.933C294.759 112.455 295.052 111.96 295.328 111.445C296.374 109.499 296.209 107.516 294.74 105.827C293.272 104.119 292.941 102.228 293.565 100.153C293.859 99.161 294.19 98.1511 294.685 97.233C295.86 95.0662 296.264 92.7709 296.081 90.3471C296.026 89.6493 296.117 88.9516 296.044 88.2538C295.456 81.7719 292.868 76.5937 286.699 73.6558C285.469 73.0682 284.202 72.7376 282.843 72.8111C281.686 72.8845 280.511 72.9213 279.391 73.16C274.067 74.3168 271.809 76.5754 270.744 81.6434C270.579 82.4329 270.505 83.2592 270.45 84.0672C270.083 88.5843 270.744 92.8627 273.516 96.627C274.122 97.4349 274.71 98.2796 275.885 98.6836C275.885 98.0409 275.848 97.5635 275.885 97.1228C275.976 95.8925 275.811 94.8091 275.003 93.7258C274.342 92.8444 273.828 91.6325 273.755 90.5491C273.571 87.6662 273.645 84.765 273.663 81.8821C273.663 81.3679 273.792 80.8354 273.938 80.3396C274.342 78.9441 274.838 78.7238 276.05 79.5501C277.39 80.4498 278.877 80.8171 280.401 81.1843C282.935 81.8454 285.726 81.6617 288.278 83.2225ZM268.504 88.3823C268.632 86.2339 268.669 84.159 268.908 82.1024C269.293 78.7605 270.542 75.6756 273.424 73.8027C279.043 70.1486 286.019 69.6711 291.748 74.7575C292.813 75.694 293.822 75.9878 295.163 75.9327C302.984 75.6573 310.824 75.5838 318.645 75.1798C322.152 74.9962 325.64 74.2434 329.147 73.6741C329.771 73.5823 330.597 73.5272 330.744 72.3704C330.304 72.1684 329.808 71.8195 329.294 71.7277C327.807 71.4706 326.319 71.287 324.832 71.1218C323.859 71.0116 322.849 71.1034 321.876 70.9565C320.463 70.7545 320.169 70.3322 320.095 68.8999C320.077 68.5878 320.022 68.2756 319.949 67.7064C319.508 68.1287 319.177 68.294 319.049 68.5694C318.406 69.8364 317.378 70.1669 316.038 70.1486C313.596 70.1302 311.172 70.3138 308.731 70.2955C300.083 70.2036 291.436 70.0568 282.788 69.9649C278.565 69.9282 274.471 70.7912 270.579 72.3888C269.257 72.9396 267.916 73.6558 266.852 74.5922C263.124 77.8607 261.27 82.0657 261.178 87.0235C261.178 87.4642 261.252 87.9049 261.307 88.3823C263.785 88.3823 266.135 88.3823 268.504 88.3823ZM318.425 122.353C319.765 122.242 320.958 122.096 322.17 122.04C327.862 121.783 333.535 121.636 339.227 121.288C342.495 121.086 345.854 121.6 349.031 120.443C350.72 119.837 352.354 119.084 353.97 118.35C354.227 118.239 354.374 117.854 354.704 117.395C353.97 117.138 353.419 116.826 352.813 116.734C352.023 116.624 351.197 116.66 350.371 116.679C347.672 116.734 347.672 116.752 347.397 114.016C346.754 114.457 346.222 114.842 345.653 115.191C344.588 115.871 343.559 116.587 342.182 116.587C334.692 116.568 327.201 116.587 319.71 116.587C319.269 116.587 318.829 116.66 318.425 116.679C318.425 118.625 318.425 120.406 318.425 122.353ZM275.389 81.4965C275.334 84.1957 275.169 86.7297 275.279 89.2454C275.389 91.761 276.692 93.6707 278.804 95.1213C281.833 97.2146 286.056 95.5436 287.011 92.826C287.598 91.1734 288.186 89.5759 288.296 87.8131C288.443 85.5729 288.002 84.8017 285.891 84.0672C285.34 83.8836 284.771 83.755 284.202 83.6816C281.282 83.2225 278.345 82.9104 275.389 81.4965ZM277.666 96.6454C277.666 98.0225 277.61 99.2161 277.702 100.41C277.739 100.795 278.088 101.218 278.4 101.511C279.575 102.631 280.768 103.696 281.98 104.78C282.402 105.165 282.825 105.533 283.265 105.937C284.036 105.606 284.734 105.312 285.413 105.019C286.093 104.725 286.368 104.174 286.258 103.476C285.946 101.438 285.597 99.3997 285.248 97.233C282.659 98.3163 280.162 98.096 277.666 96.6454Z" fill="black"/>
<path d="M316.754 116.66C316.754 120.718 316.754 124.758 316.754 129.036C312.954 129.256 309.025 129.495 305.004 129.734C304.894 129.477 304.802 129.164 304.618 128.907C304.214 128.357 303.719 128.43 303.48 129.091C303.388 129.366 303.333 129.66 303.315 129.936C303.058 133.351 302.782 136.748 302.58 140.163C302.433 142.697 302.378 145.25 302.268 147.986C300.285 148.316 298.302 148.702 296.319 148.977C288.994 150.006 281.631 150.171 274.269 149.657C271.864 149.492 269.496 148.794 267.109 148.335C267.017 147.986 266.925 147.765 266.925 147.545C266.87 142.092 266.907 136.638 266.742 131.203C266.484 123.178 265.695 115.227 262.904 107.625C262.372 106.156 261.803 104.688 261.068 103.31C259.93 101.18 259.141 98.9585 258.902 96.5714C258.682 94.3312 258.626 92.091 258.498 89.8691C262.041 89.8691 265.365 89.8691 268.688 89.8691C268.89 90.5118 269.037 90.9525 269.147 91.3932C270.046 94.9739 271.791 98.0036 274.673 100.409C276.821 102.209 278.786 104.228 280.824 106.156C281.76 107.038 282.66 107.919 284.202 107.717C284 108.287 283.853 108.709 283.706 109.15C283.174 110.894 283.137 112.565 284.33 114.107C285.928 116.146 286.295 118.349 285.377 120.81C284.257 123.803 285.487 126.373 287.029 128.834C287.654 129.807 288.737 130.083 289.838 130.395C294.667 131.754 296.778 128.834 297.421 125.143C297.862 122.609 297.678 120.222 295.787 118.147C294.869 117.137 294.942 115.778 295.548 114.53C295.64 114.328 295.787 114.126 295.934 113.942C297.99 111.188 298.321 108.268 296.558 104.871C297.366 105.257 297.954 105.385 298.339 105.734C299.808 107.13 301.368 108.47 302.58 110.068C305.646 114.107 309.465 116.55 314.679 116.403C315.083 116.384 315.487 116.421 315.891 116.458C316.056 116.458 316.222 116.531 316.754 116.66Z" fill="white"/>
<path d="M288.278 83.2213C285.707 81.6422 282.935 81.8441 280.365 81.2198C278.822 80.8526 277.335 80.5037 276.013 79.5856C274.802 78.7593 274.306 78.9796 273.902 80.3752C273.755 80.8709 273.626 81.4034 273.626 81.9176C273.626 84.8005 273.535 87.7017 273.718 90.5846C273.792 91.6863 274.287 92.8799 274.967 93.7613C275.775 94.8446 275.94 95.928 275.848 97.1583C275.811 97.6173 275.848 98.0764 275.848 98.7191C274.655 98.3151 274.085 97.4705 273.48 96.6625C270.707 92.8982 270.046 88.6382 270.413 84.1027C270.487 83.2948 270.542 82.4868 270.707 81.6789C271.772 76.6109 274.03 74.3523 279.355 73.1955C280.475 72.9568 281.65 72.9201 282.806 72.8466C284.165 72.7548 285.432 73.1037 286.662 73.6913C292.831 76.6109 295.42 81.8074 296.007 88.2893C296.062 88.9871 295.989 89.6848 296.044 90.3826C296.228 92.8064 295.824 95.1017 294.649 97.2685C294.153 98.1682 293.822 99.1781 293.529 100.188C292.923 102.263 293.235 104.173 294.704 105.862C296.173 107.551 296.319 109.534 295.291 111.481C295.016 111.995 294.722 112.491 294.392 112.968C293.051 114.951 293.143 116.99 294.19 119.065C294.355 119.377 294.538 119.67 294.74 119.946C296.411 122.333 296.007 124.775 294.814 127.181C294.153 128.539 292.978 129.09 291.491 128.797C290.279 128.558 288.865 128.613 288.149 127.254C287.268 125.565 286.203 123.912 286.791 121.856C286.846 121.69 286.882 121.525 286.937 121.36C288.094 118.348 287.672 115.557 285.689 113.005C284.789 111.848 284.881 110.618 285.45 109.406C285.909 108.414 286.515 107.478 287.048 106.523C287.874 105.054 288.168 103.64 287.598 101.896C287.084 100.28 287.158 98.462 287.011 96.736C286.993 96.4238 287.103 96.0198 287.286 95.7811C289.563 92.8799 290.077 89.4829 290.187 85.9573C290.224 84.8005 290.187 83.6436 290.15 82.4868C290.132 81.8625 289.985 81.2565 289.214 81.2749C288.571 81.2933 288.406 81.8258 288.37 82.395C288.388 82.597 288.333 82.8173 288.278 83.2213Z" fill="white"/>
<path d="M268.504 88.383C266.136 88.383 263.785 88.383 261.307 88.383C261.252 87.9056 261.178 87.4649 261.178 87.0242C261.27 82.0664 263.143 77.8614 266.852 74.5929C267.916 73.6564 269.257 72.9403 270.579 72.3894C274.471 70.7919 278.547 69.9105 282.788 69.9656C291.436 70.0574 300.083 70.2043 308.731 70.2961C311.173 70.3145 313.596 70.1309 316.038 70.1492C317.397 70.1676 318.425 69.8371 319.049 68.5701C319.177 68.2946 319.508 68.1294 319.949 67.707C320.022 68.2763 320.077 68.5884 320.095 68.9006C320.169 70.3328 320.463 70.7552 321.876 70.9572C322.849 71.1041 323.841 71.0122 324.832 71.1224C326.32 71.2877 327.825 71.4713 329.294 71.7284C329.808 71.8202 330.285 72.1507 330.744 72.3711C330.597 73.5279 329.771 73.583 329.147 73.6748C325.659 74.2256 322.17 74.9969 318.645 75.1805C310.824 75.5845 302.984 75.6763 295.163 75.9333C293.822 75.9701 292.813 75.6946 291.748 74.7582C286.019 69.6902 279.043 70.1492 273.424 73.8033C270.542 75.6763 269.293 78.7611 268.908 82.1031C268.669 84.1597 268.632 86.2346 268.504 88.383Z" fill="white"/>
<path d="M318.425 122.352C318.425 120.405 318.425 118.624 318.425 116.733C318.81 116.696 319.269 116.641 319.71 116.641C327.201 116.641 334.692 116.623 342.182 116.641C343.559 116.641 344.588 115.925 345.653 115.245C346.222 114.897 346.754 114.493 347.397 114.07C347.672 116.806 347.672 116.788 350.371 116.733C351.179 116.714 352.005 116.678 352.813 116.788C353.4 116.861 353.97 117.174 354.704 117.449C354.374 117.89 354.227 118.275 353.97 118.404C352.336 119.138 350.702 119.873 349.031 120.497C345.855 121.654 342.513 121.14 339.227 121.342C333.553 121.691 327.862 121.838 322.17 122.095C320.977 122.095 319.783 122.242 318.425 122.352Z" fill="white"/>
<path d="M275.389 81.4961C278.345 82.9284 281.282 83.2222 284.202 83.6628C284.771 83.7547 285.34 83.8648 285.891 84.0485C288.002 84.7829 288.443 85.5542 288.296 87.7944C288.186 89.5571 287.598 91.173 287.011 92.8073C286.038 95.5433 281.815 97.1959 278.804 95.1026C276.692 93.6519 275.389 91.7423 275.279 89.2266C275.169 86.7293 275.334 84.1954 275.389 81.4961ZM285.542 92.3849C285.542 90.8425 285.212 90.1815 284.073 89.8509C283.082 89.5571 282.054 89.3368 281.025 89.3001C280.052 89.2817 279.079 89.5204 278.125 89.7224C277.482 89.8509 276.821 90.1447 276.894 90.9343C276.968 91.7606 277.757 91.7423 278.363 91.8524C278.694 91.9075 279.061 91.8524 279.41 91.8892C280.677 91.9993 281.925 92.1279 283.192 92.238C283.963 92.3115 284.753 92.3482 285.542 92.3849ZM276.582 83.4241C276.435 83.5159 276.123 83.6996 275.866 83.9566C275.811 84.0117 275.995 84.4708 276.123 84.5075C277.005 84.6728 277.28 85.2787 277.5 86.0316C277.537 86.1785 278.29 86.2887 278.308 86.2519C278.528 85.6827 278.804 85.0767 278.786 84.4891C278.767 84.1954 278.216 83.8465 277.849 83.6445C277.574 83.4792 277.17 83.5159 276.582 83.4241ZM285.872 87.0599C286.589 87.4822 286.937 87.0048 286.937 86.3988C286.937 85.8663 286.827 85.0951 286.478 84.8748C285.781 84.4341 284.881 84.3422 284.11 84.9849C284.716 85.7011 285.303 86.3805 285.872 87.0599ZM281.154 85.8112C280.97 85.7929 280.787 85.7745 280.603 85.7745C280.511 86.5457 280.309 87.3169 280.383 88.0698C280.438 88.7308 280.952 88.8594 281.558 88.382C281.429 87.5189 281.301 86.6559 281.154 85.8112Z" fill="white"/>
<path d="M277.665 96.6445C280.162 98.0952 282.659 98.3155 285.23 97.2138C285.579 99.3805 285.928 101.419 286.24 103.457C286.35 104.173 286.056 104.706 285.395 104.999C284.716 105.293 284.018 105.587 283.247 105.917C282.806 105.532 282.384 105.146 281.962 104.761C280.768 103.677 279.557 102.594 278.382 101.492C278.069 101.198 277.721 100.776 277.684 100.39C277.592 99.2153 277.665 98.0217 277.665 96.6445Z" fill="white"/>
<path d="M285.542 92.3846C284.752 92.3295 283.963 92.3112 283.173 92.2377C281.907 92.1275 280.658 91.999 279.391 91.8888C279.042 91.8521 278.694 91.9256 278.345 91.8521C277.739 91.7419 276.949 91.7603 276.876 90.934C276.803 90.1444 277.463 89.8506 278.106 89.7221C279.061 89.5385 280.052 89.2814 281.007 89.2998C282.035 89.3181 283.063 89.5568 284.055 89.8506C285.211 90.1811 285.542 90.8422 285.542 92.3846Z" fill="black"/>
<path d="M276.582 83.4238C277.17 83.5156 277.555 83.4789 277.849 83.6442C278.216 83.8462 278.767 84.195 278.785 84.4888C278.804 85.0764 278.528 85.6824 278.308 86.2516C278.29 86.2883 277.555 86.1782 277.5 86.0313C277.28 85.2784 276.986 84.6725 276.123 84.5072C275.995 84.4888 275.811 84.0114 275.866 83.9563C276.123 83.6993 276.454 83.5156 276.582 83.4238Z" fill="black"/>
<path d="M285.873 87.0589C285.303 86.3795 284.716 85.7001 284.11 84.984C284.881 84.3413 285.781 84.4147 286.478 84.8738C286.827 85.0942 286.937 85.8837 286.937 86.3979C286.937 87.0038 286.589 87.4812 285.873 87.0589Z" fill="black"/>
<path d="M281.154 85.8109C281.301 86.674 281.429 87.5186 281.576 88.3633C280.97 88.8223 280.456 88.6938 280.401 88.0511C280.328 87.2983 280.53 86.5271 280.621 85.7559C280.787 85.7742 280.97 85.7926 281.154 85.8109Z" fill="black"/>
<path d="M212.817 31.2714L220.735 18.7435C221.273 17.899 220.966 16.9136 220.043 16.421L189.447 0.233229C188.986 -0.0482968 188.448 -0.0483054 187.986 0.0924575C187.833 0.162839 187.679 0.162865 187.525 0.162865C187.218 0.162865 186.91 0.233238 186.68 0.374001L140.17 24.9371C138.094 25.9928 137.402 28.4562 138.555 30.3565L144.014 39.0134C145.167 40.9137 147.857 41.5472 149.933 40.4914L186.987 20.9254C187.756 20.5031 188.678 20.5031 189.447 20.9254L210.28 31.9049C211.203 32.3272 212.356 32.0456 212.817 31.2714Z" fill="#7F5DFF"/>
</svg>
