<svg width="644" height="459" viewBox="0 0 644 459" fill="none" xmlns="http://www.w3.org/2000/svg">
<path d="M62.3994 169.625C21.6254 113.989 -66.0513 146.443 -104.793 169.625V622.616H400.595C398.213 575.618 379.922 468.856 325.811 417.793C271.699 366.73 193.073 396.517 160.524 417.793C171.162 388.896 186.055 325.099 160.524 301.092C134.992 277.085 84.4694 291.089 62.3994 301.092C79.3885 280.451 103.173 225.26 62.3994 169.625Z" fill="white" fill-opacity="0.5"/>
<path d="M351.843 362.885C287.443 429.19 325.009 530.236 351.843 572.47H690.991V140.438C661.299 136.469 591.437 137.771 549.52 174.734C507.603 211.697 513.319 268.254 521.417 291.911C491.725 287.942 416.243 296.579 351.843 362.885Z" fill="white" fill-opacity="0.5"/>
<path d="M-40.9433 448.624C-95.1248 486.677 -82.8022 545.227 -69.8683 569.746L744.265 578.083C754.377 552.093 757.528 488.246 689.237 440.778C620.945 393.309 526.739 409.557 488.173 423.615C510.983 398.932 535.722 340.153 452.193 302.492C368.663 264.831 300.748 298.896 277.232 320.636C255.832 307.559 200.475 289.252 150.244 320.636C100.013 352.02 129.314 409.23 150.244 433.912C109.09 422.961 13.2382 410.571 -40.9433 448.624Z" fill="white" fill-opacity="0.5"/>
<path d="M508.556 278.316C486.3 285.068 466.267 314.961 459.033 329.064C470.63 345.353 493.852 375.458 538.758 363.426C582.705 345.239 583.307 304.049 584.18 295.53C585.272 284.882 536.376 269.875 508.556 278.316Z" stroke="black" stroke-width="9.52663" stroke-linecap="round" stroke-linejoin="round"/>
<path d="M489.745 327.739C491.941 337.407 514.274 343.825 527.253 338.893C565.744 324.267 548.073 292.624 538.086 289.143C524.488 284.403 503.471 285.103 494.771 296.804C486.071 308.505 487 315.653 489.745 327.739Z" fill="black" stroke="black" stroke-width="9.52663" stroke-linecap="round" stroke-linejoin="round"/>
<path d="M474.839 307.075C471.772 307.897 464.23 308.34 458.603 303.535C452.976 298.731 451.273 289.062 451.125 284.828" stroke="black" stroke-width="9.52663" stroke-linecap="round" stroke-linejoin="round"/>
<path d="M486.94 291.505C483.256 290.027 475.102 285.604 471.953 279.741C468.804 273.878 469.276 264.842 469.905 261.057" stroke="black" stroke-width="9.52663" stroke-linecap="round" stroke-linejoin="round"/>
<path d="M501.194 280.288C498.061 277.183 492.78 274.653 490.808 267.291C489.082 260.85 492.39 256.018 493.674 252.222" stroke="black" stroke-width="9.52663" stroke-linecap="round" stroke-linejoin="round"/>
<path d="M526.746 274.428C523.961 271.394 519.083 264.231 518.077 260.477C515.981 252.656 516.646 244.094 519.464 239.887" stroke="black" stroke-width="9.52663" stroke-linecap="round" stroke-linejoin="round"/>
<path d="M552.25 279.43C549.465 276.396 544.587 269.233 543.581 265.479C541.485 257.658 542.15 249.096 544.968 244.889" stroke="black" stroke-width="9.52663" stroke-linecap="round" stroke-linejoin="round"/>
<path d="M90.3371 31.7206C74.7671 26.2398 50.7115 35.0299 40.63 40.11C40.3925 54.3802 40.9759 81.5073 71.7207 93.4833C104.512 101.51 122.221 78.0268 126.312 73.4857C131.426 67.8094 109.8 38.5715 90.3371 31.7206Z" stroke="black" stroke-width="9.52663" stroke-linecap="round" stroke-linejoin="round"/>
<path d="M58.9539 52.1531C56.1157 58.6978 66.0938 71.8344 75.5535 74.4345C103.607 82.1454 106.939 56.3113 102.735 50.0816C97.0109 41.5992 84.7721 33.1539 74.8834 36.2902C64.9947 39.4264 62.5017 43.9723 58.9539 52.1531Z" fill="black" stroke="black" stroke-width="9.52663" stroke-linecap="round" stroke-linejoin="round"/>
<path d="M59.1819 34.0538C57.0851 33.2371 52.5971 30.3133 51.4196 25.1525C50.2422 19.9918 53.3594 13.663 55.0652 11.1438" stroke="black" stroke-width="9.52663" stroke-linecap="round" stroke-linejoin="round"/>
<path d="M72.7122 29.9502C71.1441 27.5388 68.1605 21.5511 68.7719 16.8918C69.3833 12.2324 73.4996 7.32987 75.4813 5.461" stroke="black" stroke-width="9.52663" stroke-linecap="round" stroke-linejoin="round"/>
<path d="M85.5415 29.8332C85.0444 26.7335 83.0673 23.0573 85.0331 18.0109C86.7531 13.5953 90.6959 12.225 93.0358 10.5937" stroke="black" stroke-width="9.52663" stroke-linecap="round" stroke-linejoin="round"/>
<path d="M102.484 37.2858C102.171 34.3384 102.409 28.1014 103.426 25.4908C105.545 20.0509 109.567 15.3522 112.977 14.1006" stroke="black" stroke-width="9.52663" stroke-linecap="round" stroke-linejoin="round"/>
<path d="M115.141 50.7382C114.799 47.8675 114.97 41.8022 115.955 39.2731C118.008 34.0033 121.963 29.4746 125.345 28.2929" stroke="black" stroke-width="9.52663" stroke-linecap="round" stroke-linejoin="round"/>
<path fill-rule="evenodd" clip-rule="evenodd" d="M157.419 356.497C156.797 330.587 129.595 308.208 104.165 303.388C72.3774 297.362 42.1712 337.995 36.1072 355.482C30.9139 370.458 34.6008 415.409 73.0279 427.706C111.455 440.002 158.374 396.359 157.419 356.497ZM138.146 360.275C137.657 342.459 118.941 327.007 101.484 323.631C79.6632 319.411 59.0407 347.273 54.9235 359.281C51.3974 369.565 54.0363 400.479 80.4274 409.027C106.818 417.574 138.899 387.683 138.146 360.275Z" fill="white"/>
<path d="M104.165 303.388L103.721 305.728L104.165 303.388ZM157.419 356.497L159.8 356.44L159.8 356.44L157.419 356.497ZM36.1072 355.482L38.3574 356.262L36.1072 355.482ZM101.484 323.631L101.936 321.292L101.484 323.631ZM138.146 360.275L140.527 360.209L140.527 360.209L138.146 360.275ZM54.9235 359.281L57.1764 360.053L57.1764 360.053L54.9235 359.281ZM80.4274 409.027L79.6935 411.292L80.4274 409.027ZM104.608 301.048C117.793 303.547 131.357 310.569 141.725 320.297C152.085 330.017 159.469 342.655 159.8 356.44L155.038 356.554C154.747 344.429 148.219 332.922 138.465 323.77C128.719 314.626 115.967 308.049 103.721 305.728L104.608 301.048ZM33.857 354.702C37.0363 345.533 46.3459 330.69 58.8551 318.886C71.3215 307.122 87.5742 297.819 104.608 301.048L103.721 305.728C88.968 302.931 74.2238 310.932 62.1243 322.35C50.0676 333.727 41.2421 347.944 38.3574 356.262L33.857 354.702ZM72.302 429.974C52.199 423.541 41.2137 408.54 35.9596 393.378C30.7468 378.337 31.0503 362.795 33.857 354.702L38.3574 356.262C35.9708 363.144 35.5211 377.567 40.4603 391.819C45.358 405.951 55.4297 419.574 73.7537 425.437L72.302 429.974ZM159.8 356.44C160.299 377.271 148.34 398.776 131.56 413.453C114.789 428.122 92.6025 436.47 72.302 429.974L73.7537 425.437C91.8802 431.238 112.367 423.912 128.424 409.868C144.471 395.832 155.494 375.585 155.038 356.554L159.8 356.44ZM101.936 321.292C111.134 323.071 120.58 328.001 127.81 334.803C135.032 341.598 140.259 350.475 140.527 360.209L135.765 360.34C135.543 352.259 131.168 344.503 124.546 338.273C117.932 332.05 109.292 327.566 101.032 325.969L101.936 321.292ZM52.6706 358.508C54.8756 352.078 61.3029 341.794 69.9288 333.64C78.5132 325.524 89.8822 318.961 101.936 321.292L101.032 325.969C91.2653 324.08 81.4125 329.338 73.2011 337.101C65.0312 344.825 59.0887 354.476 57.1764 360.053L52.6706 358.508ZM79.6935 411.292C65.614 406.732 57.9033 396.181 54.2078 385.589C50.5535 375.116 50.6993 364.258 52.6706 358.508L57.1764 360.053C55.6215 364.588 55.3238 374.329 58.7052 384.02C62.0453 393.593 68.8496 402.773 81.1612 406.761L79.6935 411.292ZM140.527 360.209C140.928 374.813 132.631 389.771 121.035 399.926C109.448 410.073 93.9761 415.918 79.6935 411.292L81.1612 406.761C93.2698 410.683 107.034 405.856 117.897 396.343C128.751 386.837 136.117 373.144 135.765 360.34L140.527 360.209Z" fill="white"/>
<path d="M12.6106 485.882L67.6388 409.577L49.3115 399.249L-6.50669 470.693L12.6106 485.882Z" fill="white" stroke="white" stroke-width="4.76331" stroke-linejoin="round"/>
</svg>
