<svg width="644" height="389" viewBox="0 0 644 389" fill="none" xmlns="http://www.w3.org/2000/svg">
<path d="M263.212 270.153C263.038 268.717 262.603 267.238 261.733 265.889C258.034 259.842 248.637 259.363 242.372 258.319C229.015 256.057 215.398 254.969 202.302 251.488C201.954 251.445 201.606 251.358 201.345 251.184C201.301 251.184 201.214 251.184 201.171 251.184C200.779 251.184 200.431 251.097 200.17 250.966C199.692 250.923 199.257 250.792 198.952 250.575C198.56 250.531 198.212 250.444 197.908 250.27C197.255 250.183 196.777 249.879 196.472 249.487C195.906 249.356 195.384 249.269 194.819 249.139C194.645 249.095 194.471 249.008 194.297 248.965C195.776 241.525 196.429 233.955 196.211 226.385C196.037 220.424 196.472 210.592 189.903 207.677C184.725 205.414 178.721 208.764 175.545 212.854C171.194 218.423 171.891 226.037 168.584 232.041C162.319 243.396 146.134 239.132 136.693 235.043C124.642 229.822 113.069 222.861 102.105 215.726C79.6993 201.194 59.2945 183.661 41.2826 163.952C23.2272 144.113 7.65171 122.012 -4.92181 98.2567C-17.4083 74.6759 -26.8928 49.4854 -32.8968 23.4682C-33.6364 20.2487 -34.3325 17.0291 -34.9416 13.7661C-35.5507 10.6771 -40.2495 11.9823 -39.6839 15.0713C-34.5936 41.0885 -26.0227 66.3661 -14.4933 90.2514C-3.0075 114.006 11.4803 136.325 28.361 156.6C45.3288 176.961 64.8199 195.234 86.2688 210.809C96.9716 218.554 108.153 225.645 119.726 231.954C130.428 237.784 142.001 244.179 154.531 244.136C160.1 244.136 165.756 242.526 169.715 238.48C174.762 233.389 175.154 226.341 177.285 219.859C178.243 216.944 179.852 214.507 182.55 212.941C184.595 211.766 187.423 211.07 189.119 213.115C190.294 214.551 190.425 216.639 190.642 218.423C190.903 220.598 191.077 222.73 191.164 224.906C191.338 229.082 191.295 233.302 190.947 237.479C190.599 241.743 189.902 245.963 188.989 250.183C188.728 251.445 189.337 252.881 190.686 253.185C191.599 253.403 192.513 253.62 193.427 253.794C205.913 258.188 219.052 259.755 232.104 261.582C238.587 262.496 245.113 263.453 251.465 265.019C254.162 265.672 257.077 266.629 258.034 269.544C258.992 272.459 257.295 275.417 254.467 276.374C253.945 276.548 253.597 276.809 253.292 277.157C250.203 278.158 246.81 278.506 243.46 278.593C241.458 278.332 239.457 278.245 237.499 278.376C229.624 277.854 221.576 277.157 214.745 272.894C212.048 271.24 209.611 275.461 212.265 277.114C218.878 281.204 226.492 282.378 234.106 282.987C234.454 283.248 234.932 283.379 235.498 283.422C237.891 283.466 240.414 283.509 242.894 283.466C244.852 283.727 246.766 284.249 248.55 285.076C252.117 286.772 254.075 290.514 250.464 293.516C246.114 297.127 238.587 297.214 233.235 297.475C226.013 297.823 218.835 297.171 211.787 295.604C209.22 295.039 207.305 298.78 209.916 300.086C214.701 302.522 219.835 302.217 225.1 302.435C229.233 302.609 234.976 304.001 236.063 308.831C237.238 313.964 227.58 314.095 224.578 314.443C223.316 314.573 222.011 314.704 220.749 314.834C220.749 314.878 220.749 314.878 220.749 314.921C216.877 314.704 213.005 314.486 209.133 314.269C204.608 314.008 199.822 314.182 195.471 313.051C192.426 312.268 191.121 316.966 194.166 317.793C198.691 318.968 203.564 318.881 208.175 319.142C211.961 319.359 215.789 319.577 219.574 319.794V319.838C221.402 320.969 222.968 322.927 222.794 325.059C222.533 328.365 218.008 329.844 215.398 330.802C211.917 332.063 208.262 332.89 204.564 333.281C189.685 334.761 174.936 330.279 161.057 325.407C130.994 314.921 101.148 303.697 71.781 291.471C43.0664 279.507 14.3953 266.672 -12.6225 251.184C-18.9746 247.529 -25.1961 243.657 -31.1565 239.35C-31.2435 239.219 -31.3305 239.132 -31.4611 239.045C-32.8533 237.74 -34.2455 236.391 -35.7248 235.217C-35.9423 234.869 -36.1598 234.521 -36.3774 234.173C-47.8197 224.079 -59.175 213.855 -68.9206 202.108C-79.9714 188.838 -88.7163 173.785 -97.9398 159.253C-103.422 150.596 -108.904 141.938 -114.385 133.28C-116.082 130.626 -120.302 133.062 -118.606 135.76C-108.947 151.031 -99.419 166.345 -89.6299 181.486C-80.4499 195.799 -70.2258 209.025 -58.0438 220.903C-52.6055 226.211 -46.9496 231.301 -41.2501 236.348C-41.1631 236.957 -40.8151 237.566 -40.1625 237.958C-38.2482 239.219 -36.6384 240.916 -34.9416 242.482C-34.8981 242.569 -34.8111 242.656 -34.7676 242.787C-29.8078 246.398 -24.6305 249.792 -19.3661 252.924C-5.4874 261.234 9.08743 268.413 23.6623 275.374C38.9332 282.683 54.4652 289.513 70.0842 296.039C85.8338 302.609 101.714 308.787 117.681 314.791C133.43 320.708 149.223 326.755 165.234 331.976C179.983 336.806 196.08 340.634 211.525 337.067C217.399 335.718 226.622 333.107 227.667 326.016C228.058 323.449 227.319 321.143 225.97 319.229C227.014 319.098 228.015 318.968 229.059 318.837C234.236 318.097 240.936 316.401 241.11 309.962C241.197 306.96 239.674 304.262 237.499 302.174C243.851 301.608 252.379 300.738 255.99 294.734C258.731 290.253 257.164 285.25 253.249 282.291C255.859 281.639 258.383 280.594 260.732 279.159C261.646 278.028 262.255 276.722 262.646 275.287C263.038 273.633 263.168 271.893 263.299 270.196C263.299 270.153 263.255 270.153 263.212 270.153Z" fill="white" stroke="white" stroke-width="5" stroke-miterlimit="10"/>
<path fill-rule="evenodd" clip-rule="evenodd" d="M745.568 51.9311C740.217 68.9423 734.735 85.91 727.948 102.399C721.117 118.975 712.72 134.681 702.931 149.691C693.229 164.571 682.831 179.058 672.303 193.329C661.817 207.556 650.549 221.13 637.366 233.007C623.227 245.755 607.564 256.718 591.771 267.334C591.771 267.291 591.728 267.247 591.728 267.16C574.586 275.47 557.14 283.04 539.65 290.306C509.456 302.836 478.74 314.409 447.85 325.155C433.58 330.115 418.396 334.77 403.081 333.204C399.296 332.812 395.511 331.942 391.944 330.637C389.29 329.68 384.634 328.113 384.373 324.72C384.243 323.11 385.069 321.631 386.244 320.5C392.292 321.979 398.861 322.153 404.561 321.935C418.396 321.413 432.884 318.542 443.195 308.622C445.544 306.36 441.977 302.836 439.627 305.055C430.708 313.626 418.091 316.236 406.127 316.845C395.12 317.411 378.152 317.411 373.584 305.055C377.195 305.794 380.936 306.099 384.504 306.142C400.427 306.229 415.959 300.095 427.837 289.479C430.273 287.304 426.706 283.78 424.269 285.912C414.089 295.005 400.775 300.53 387.071 301.052C379.979 301.313 372.452 300.443 366.1 297.18C363.403 295.788 360.836 293.96 359.226 291.35C357.66 288.783 357.312 285.868 357.442 282.953C363.229 284.345 369.494 284.476 374.932 284.345C386.288 284.041 397.382 281.256 407.65 276.384C410.565 274.991 408.041 270.641 405.126 272.033C395.99 276.384 385.983 278.864 375.846 279.255C370.93 279.429 365.926 279.212 361.054 278.385C357.094 277.689 353.135 276.645 350.003 274.121C350.133 274.078 350.264 274.034 350.438 273.947C348.437 272.599 347.436 270.119 348.219 267.639C349.22 264.637 352.222 263.68 355.006 262.983C361.532 261.374 368.276 260.417 374.932 259.459C388.332 257.589 401.863 256.022 414.698 251.498C415.655 251.28 416.568 251.063 417.526 250.845C418.918 250.497 419.57 249.061 419.266 247.756C418.309 243.449 417.613 239.098 417.265 234.704C416.917 230.397 416.83 226.09 417.047 221.782C417.134 219.563 417.308 217.301 417.569 215.082C417.787 213.298 417.917 211.123 419.135 209.644C420.876 207.512 423.791 208.252 425.879 209.47C428.663 211.08 430.317 213.56 431.317 216.561C433.493 223.218 433.928 230.44 439.105 235.705C443.195 239.838 449.025 241.491 454.724 241.535C467.602 241.578 479.523 235.008 490.53 229.005C502.451 222.522 513.937 215.256 524.944 207.295C547.002 191.284 567.059 172.532 584.505 151.606C601.865 130.766 616.788 107.838 628.622 83.4301C640.499 58.8922 649.331 32.9185 654.595 6.1617C655.204 2.98569 650.375 1.63698 649.722 4.81299C649.07 8.16303 648.374 11.4696 647.591 14.7761C641.413 41.5329 631.667 67.4195 618.789 91.6529C605.867 116.017 589.857 138.771 571.279 159.132C552.789 179.407 531.775 197.418 508.76 212.341C497.448 219.694 485.571 226.829 473.171 232.181C463.469 236.357 446.806 240.751 440.41 229.092C437.017 222.914 437.713 215.039 433.275 209.339C430.012 205.163 423.834 201.726 418.526 204.031C411.739 206.99 412.218 217.084 412.044 223.262C411.783 231.049 412.479 238.837 414.002 246.494C413.828 246.538 413.654 246.625 413.479 246.668C412.914 246.799 412.348 246.886 411.783 247.016C411.435 247.451 410.956 247.756 410.303 247.8C409.999 247.974 409.651 248.104 409.216 248.104C408.868 248.322 408.476 248.496 407.954 248.496C407.65 248.626 407.302 248.713 406.91 248.713C406.866 248.713 406.779 248.713 406.736 248.713C406.475 248.887 406.127 248.974 405.735 249.018C392.292 252.585 378.282 253.716 364.534 256.022C358.095 257.11 348.437 257.589 344.651 263.81C343.781 265.246 343.303 266.725 343.129 268.204C343.085 268.204 343.042 268.204 342.998 268.248C343.129 269.988 343.259 271.815 343.694 273.512C344.086 274.861 344.672 275.37 345.498 276.501C345.616 276.663 345.609 276.993 345.652 276.862C348.498 280.001 350.133 280.299 352.787 281.387C352.135 288.957 354.658 295.614 361.184 300.008C363.403 301.531 365.883 302.662 368.45 303.575C368.363 303.924 368.363 304.315 368.493 304.75C370.495 312.494 375.976 316.889 382.59 319.282C382.328 319.369 382.111 319.456 381.85 319.543C381.458 319.673 381.154 319.717 380.806 319.673C379.805 321.457 379.326 323.502 379.675 325.677C380.719 332.943 390.247 335.64 396.294 337.032C412.174 340.687 428.707 336.771 443.891 331.812C460.337 326.417 476.565 320.239 492.793 314.191C509.195 308.057 525.553 301.661 541.695 294.918C557.792 288.218 573.716 281.213 589.422 273.73C590.074 273.425 590.727 273.121 591.38 272.816C591.945 272.99 592.641 272.947 593.294 272.468C607.869 262.679 622.357 252.672 635.757 241.273C649.331 229.744 661.121 216.649 671.911 202.509C682.918 188.064 693.49 173.185 703.628 158.132C713.765 143.078 722.814 127.416 730.08 110.753C738.216 92.0445 744.568 72.6839 750.702 53.2363C751.398 50.1908 746.525 48.8421 745.568 51.9311V51.9311Z" fill="white"/>
<path d="M745.568 51.9311C740.217 68.9423 734.735 85.91 727.948 102.399C721.117 118.975 712.72 134.681 702.931 149.691C693.229 164.571 682.831 179.058 672.303 193.329C661.817 207.556 650.549 221.13 637.366 233.007C623.227 245.755 607.564 256.718 591.771 267.334C591.771 267.291 591.728 267.247 591.728 267.16C574.586 275.47 557.14 283.04 539.65 290.306C509.456 302.836 478.74 314.409 447.85 325.155C433.58 330.115 418.396 334.77 403.081 333.204C399.296 332.812 395.511 331.942 391.944 330.637C389.29 329.68 384.634 328.113 384.373 324.72C384.243 323.11 385.069 321.631 386.244 320.5C392.292 321.979 398.861 322.153 404.561 321.935C418.396 321.413 432.884 318.542 443.195 308.622C445.544 306.36 441.977 302.836 439.627 305.055C430.708 313.626 418.091 316.236 406.127 316.845C395.12 317.411 378.152 317.411 373.584 305.055C377.195 305.794 380.936 306.099 384.504 306.142C400.427 306.229 415.959 300.095 427.837 289.479C430.273 287.304 426.706 283.78 424.269 285.912C414.089 295.005 400.775 300.53 387.071 301.052C379.979 301.313 372.452 300.443 366.1 297.18C363.403 295.788 360.836 293.96 359.226 291.35C357.66 288.783 357.312 285.868 357.442 282.953C363.229 284.345 369.494 284.476 374.932 284.345C386.288 284.041 397.382 281.256 407.65 276.384C410.565 274.991 408.041 270.641 405.126 272.033C395.99 276.384 385.983 278.864 375.846 279.255C370.93 279.429 365.926 279.212 361.054 278.385C357.094 277.689 353.135 276.645 350.003 274.121C350.133 274.078 350.264 274.034 350.438 273.947C348.437 272.599 347.436 270.119 348.219 267.639C349.22 264.637 352.222 263.68 355.006 262.983C361.532 261.374 368.276 260.417 374.932 259.459C388.332 257.589 401.863 256.022 414.698 251.498C415.655 251.28 416.568 251.063 417.526 250.845C418.918 250.497 419.57 249.061 419.266 247.756C418.309 243.449 417.613 239.098 417.265 234.704C416.917 230.397 416.83 226.09 417.047 221.782C417.134 219.563 417.308 217.301 417.569 215.082C417.787 213.298 417.917 211.123 419.135 209.644C420.876 207.512 423.791 208.252 425.879 209.47C428.663 211.08 430.317 213.56 431.317 216.561C433.493 223.218 433.928 230.44 439.105 235.705C443.195 239.838 449.025 241.491 454.724 241.535C467.602 241.578 479.523 235.008 490.53 229.005C502.451 222.522 513.937 215.256 524.944 207.295C547.002 191.284 567.059 172.532 584.505 151.606C601.865 130.766 616.788 107.838 628.622 83.4301C640.499 58.8922 649.331 32.9185 654.595 6.1617C655.204 2.98569 650.375 1.63698 649.722 4.81299C649.07 8.16303 648.374 11.4696 647.591 14.7761C641.413 41.5329 631.667 67.4195 618.789 91.6529C605.867 116.017 589.857 138.771 571.279 159.132C552.789 179.407 531.775 197.418 508.76 212.341C497.448 219.694 485.571 226.829 473.171 232.181C463.469 236.357 446.806 240.751 440.41 229.092C437.017 222.914 437.713 215.039 433.275 209.339C430.012 205.163 423.834 201.726 418.526 204.031C411.739 206.99 412.218 217.084 412.044 223.262C411.783 231.049 412.479 238.837 414.002 246.494C413.828 246.538 413.654 246.625 413.479 246.668C412.914 246.799 412.348 246.886 411.783 247.016C411.435 247.451 410.956 247.756 410.303 247.8C409.999 247.974 409.651 248.104 409.216 248.104C408.868 248.322 408.476 248.496 407.954 248.496C407.65 248.626 407.302 248.713 406.91 248.713C406.866 248.713 406.779 248.713 406.736 248.713C406.475 248.887 406.127 248.974 405.735 249.018C392.292 252.585 378.282 253.716 364.534 256.022C358.095 257.11 348.437 257.589 344.651 263.81C343.781 265.246 343.303 266.725 343.129 268.204C343.085 268.204 343.042 268.204 342.998 268.248C343.129 269.988 343.259 271.815 343.694 273.512C344.086 274.861 344.672 275.37 345.498 276.501C345.616 276.663 345.609 276.993 345.652 276.862C348.498 280.001 350.133 280.299 352.787 281.387C352.135 288.957 354.658 295.614 361.184 300.008C363.403 301.531 365.883 302.662 368.45 303.575C368.363 303.924 368.363 304.315 368.493 304.75C370.495 312.494 375.976 316.889 382.59 319.282C382.328 319.369 382.111 319.456 381.85 319.543C381.458 319.673 381.154 319.717 380.806 319.673C379.805 321.457 379.326 323.502 379.675 325.677C380.719 332.943 390.247 335.64 396.294 337.032C412.174 340.687 428.707 336.771 443.891 331.812C460.337 326.417 476.565 320.239 492.793 314.191C509.195 308.057 525.553 301.661 541.695 294.918C557.792 288.218 573.716 281.213 589.422 273.73C590.074 273.425 590.727 273.121 591.38 272.816C591.945 272.99 592.641 272.947 593.294 272.468C607.869 262.679 622.357 252.672 635.757 241.273C649.331 229.744 661.121 216.649 671.911 202.509C682.918 188.064 693.49 173.185 703.628 158.132C713.765 143.078 722.814 127.416 730.08 110.753C738.216 92.0445 744.568 72.6839 750.702 53.2363C751.398 50.1908 746.525 48.8421 745.568 51.9311ZM745.568 51.9311V51.9311Z" stroke="white" stroke-width="5" stroke-miterlimit="10"/>
<path d="M253.2 213.481C261.291 207.294 269.57 200.705 277.952 195.116" stroke="white" stroke-width="10" stroke-linecap="round"/>
<path d="M266.774 240.628C275.915 238.503 284.965 235.126 293.123 231.047" stroke="white" stroke-width="10" stroke-linecap="round"/>
<path d="M223.27 200.726C223.478 191.972 227.487 185.415 232.255 178.263" stroke="white" stroke-width="10" stroke-linecap="round"/>
<path d="M346.065 325.019C338.501 325.019 330.583 326.517 323.603 326.517" stroke="white" stroke-width="10" stroke-linecap="round"/>
<path d="M362.585 345.517C358.592 350.241 349.91 358.845 343.024 358.432" stroke="white" stroke-width="10" stroke-linecap="round"/>
<path d="M386.498 362.457C386.342 370.111 384.364 376.347 382.006 383.422" stroke="white" stroke-width="10" stroke-linecap="round"/>
</svg>
