<svg width="114" height="52" viewBox="0 0 114 52" fill="none" xmlns="http://www.w3.org/2000/svg">
<path d="M1.98028 18.6152H7.61702C8.14218 18.6152 8.56234 19.0354 8.56234 19.5255V43.3329C8.56234 43.823 8.98245 44.2432 9.50761 44.2432H22.8818C23.4069 44.2432 23.8271 44.6633 23.8271 45.1535V49.7399C23.8271 50.23 23.4069 50.6502 22.8818 50.6502H1.94528C1.42011 50.6502 1 50.23 1 49.7399V19.4905C1.03501 19.0004 1.45512 18.6152 1.98028 18.6152Z" fill="black" stroke="black" stroke-width="0.909655" stroke-miterlimit="10"/>
<path d="M26.6981 38.7111C26.6981 31.5339 31.1795 26.2822 39.267 26.2822C47.3545 26.2822 51.8359 31.4988 51.8359 38.7111C51.8359 45.8533 47.4596 51.0699 39.267 51.0699C31.0745 51.0699 26.6981 45.8883 26.6981 38.7111ZM44.2736 38.7111C44.2736 34.3697 42.348 32.4792 39.267 32.4792C36.1861 32.4792 34.2605 34.4047 34.2605 38.7111C34.2605 43.0524 36.2211 44.908 39.267 44.908C42.348 44.908 44.2736 43.0524 44.2736 38.7111Z" fill="black" stroke="black" stroke-width="0.909655" stroke-miterlimit="10"/>
<path d="M57.4025 32.6543H54.9517C54.4266 32.6543 54.0064 32.2341 54.0064 31.744V27.6127C54.0064 27.1226 54.4266 26.7024 54.9517 26.7024H57.4025C57.9276 26.7024 58.3478 26.2823 58.3478 25.7922V25.477C58.3478 19.6302 63.0042 16.3042 68.886 16.3042C69.7613 16.3042 70.4965 16.3742 71.1617 16.4793C71.6169 16.5493 71.967 16.9344 71.967 17.3895V21.5208C71.967 22.081 71.4768 22.5011 70.8817 22.4311C70.4265 22.3961 69.9714 22.3611 69.5512 22.3611C67.1355 22.3611 65.735 23.2013 65.735 25.477V25.7922C65.735 26.2823 66.1552 26.7024 66.6804 26.7024H70.7066C71.2318 26.7024 71.6519 27.1226 71.6519 27.6127V31.744C71.6519 32.2341 71.2318 32.6543 70.7066 32.6543H66.6804C66.1552 32.6543 65.735 33.0744 65.735 33.5646V49.7396C65.735 50.2297 65.3149 50.6498 64.7898 50.6498H59.2931C58.7679 50.6498 58.3478 50.2297 58.3478 49.7396V33.5646C58.3478 33.0744 57.9276 32.6543 57.4025 32.6543Z" fill="black" stroke="black" stroke-width="0.909655" stroke-miterlimit="10"/>
<path d="M99.4508 43.4377V33.1095C99.4508 32.8994 99.2758 32.7243 99.0307 32.7243H95.7747C95.5646 32.7243 95.3546 32.5493 95.3546 32.3392V27.1226C95.3546 26.9125 95.5296 26.7375 95.7747 26.7375H99.3808C99.5909 26.7375 99.8009 26.5624 99.8009 26.3524V22.046C99.8009 21.871 99.941 21.6959 100.116 21.6609L106.348 20.4355C106.383 20.4355 106.418 20.4355 106.418 20.4355H106.453C106.663 20.4355 106.873 20.6106 106.873 20.8207V26.3174C106.873 26.5274 107.048 26.7025 107.293 26.7025H112.475C112.685 26.7025 112.895 26.8775 112.895 27.0876V32.3042C112.895 32.5143 112.72 32.6893 112.475 32.6893H107.293C107.083 32.6893 106.873 32.8644 106.873 33.0745V41.7221C106.873 43.9628 107.888 44.9431 110.094 44.9431C110.899 44.9431 111.67 44.8031 112.44 44.558C112.475 44.558 112.545 44.523 112.58 44.523C112.79 44.523 113 44.6981 113 44.9081V50.0897C113 50.2648 112.895 50.4048 112.72 50.4749C111.81 50.7549 110.024 51.07 107.923 51.07C102.042 51.07 99.4508 47.779 99.4508 43.4377Z" fill="black" stroke="black" stroke-width="0.909655" stroke-miterlimit="10"/>
<path d="M78.2687 32.6543H75.8179C75.2927 32.6543 74.8726 32.2341 74.8726 31.744V27.6127C74.8726 27.1226 75.2927 26.7024 75.8179 26.7024H78.2687C78.7938 26.7024 79.2139 26.2823 79.2139 25.7922V25.477C79.2139 19.6302 83.8704 16.3042 89.7522 16.3042C90.6275 16.3042 91.3627 16.3742 92.0279 16.4793C92.4831 16.5493 92.8332 16.9344 92.8332 17.3895V21.5208C92.8332 22.081 92.343 22.5011 91.7478 22.4311C91.2927 22.3961 90.8375 22.3611 90.4174 22.3611C88.0017 22.3611 86.6013 23.2013 86.6013 25.477V25.7922C86.6013 26.2823 87.0214 26.7024 87.5465 26.7024H91.5728C92.0979 26.7024 92.5181 27.1226 92.5181 27.6127V31.744C92.5181 32.2341 92.0979 32.6543 91.5728 32.6543H87.5465C87.0214 32.6543 86.6013 33.0744 86.6013 33.5646V49.7396C86.6013 50.2297 86.1811 50.6498 85.6559 50.6498H80.1592C79.6341 50.6498 79.2139 50.2297 79.2139 49.7396V33.5646C79.2139 33.0744 78.7938 32.6543 78.2687 32.6543Z" fill="black" stroke="black" stroke-width="0.909655" stroke-miterlimit="10"/>
<path d="M51.8789 15.7409L55.485 9.50893C55.7301 9.0888 55.59 8.59863 55.1699 8.35356L41.2356 0.301064C41.0255 0.16102 40.7805 0.161037 40.5704 0.231059C40.5004 0.26607 40.4303 0.266061 40.3603 0.266061C40.2202 0.266061 40.0802 0.301068 39.9752 0.37109L18.7936 12.5899C17.8483 13.115 17.5332 14.3404 18.0584 15.2857L20.5442 19.5921C21.0693 20.5373 22.2947 20.8524 23.24 20.3273L40.1152 10.5943C40.4653 10.3842 40.8855 10.3842 41.2356 10.5943L50.7585 16.091C51.1437 16.266 51.6338 16.126 51.8789 15.7409Z" fill="#724EFA"/>
</svg>
