<svg width="697" height="547" viewBox="0 0 697 547" fill="none" xmlns="http://www.w3.org/2000/svg">
<path d="M681.199 531.882C680.998 518.184 673.584 486.661 645.539 470.157" stroke="#0FCB8E" stroke-width="30" stroke-linecap="round" stroke-linejoin="round"/>
<path d="M593.949 425.658C591.183 415.049 579.129 393.836 553.04 393.857" stroke="#0FCB8E" stroke-width="30" stroke-linecap="round" stroke-linejoin="round"/>
<path d="M479.687 374.236C469.636 372.999 447.383 364.908 438.778 342.436" stroke="#0FCB8E" stroke-width="30" stroke-linecap="round" stroke-linejoin="round"/>
<path d="M400.819 295.661C397.157 281.659 381.223 253.654 346.782 253.656" stroke="#0FCB8E" stroke-width="30" stroke-linecap="round" stroke-linejoin="round"/>
<path d="M265.008 237.872C259.363 229.785 242.225 213.943 218.837 215.27" stroke="#0FCB8E" stroke-width="30" stroke-linecap="round" stroke-linejoin="round"/>
<path d="M166.021 237.929C159.21 243.334 146.97 259.123 152.497 279.041" stroke="#0FCB8E" stroke-width="30" stroke-linecap="round" stroke-linejoin="round"/>
<path d="M169.929 324.564C174.243 332.114 188.003 346.598 208.528 344.142" stroke="#0FCB8E" stroke-width="30" stroke-linecap="round" stroke-linejoin="round"/>
<path d="M255.056 330.934C262.897 327.677 278.451 316.117 277.936 295.933" stroke="#0FCB8E" stroke-width="30" stroke-linecap="round" stroke-linejoin="round"/>
<path d="M146.908 143.097C129.123 144.253 90.7796 136.327 79.6865 95.3754" stroke="#0FCB8E" stroke-width="30" stroke-linecap="round" stroke-linejoin="round"/>
<path d="M44.3824 35.8174C37.86 34.6101 22.8803 28.7682 15.1412 15.0588" stroke="#0FCB8E" stroke-width="30" stroke-linecap="round" stroke-linejoin="round"/>
</svg>
